<svg width="800" height="599" xmlns="http://www.w3.org/2000/svg">
 <defs>
  <style>.cls-1{fill:#2a2a46;}.cls-2{fill:#2e3153;}.cls-3{fill:#262238;}.cls-4{fill:#313c67;}.cls-5{fill:#2d2f50;}.cls-6{fill:#282841;}.cls-7{fill:#8fc7d7;}.cls-8{fill:#27263d;}.cls-9{fill:#2e3255;}.cls-10{fill:#28273e;}.cls-11{fill:#fff;}.cls-12{fill:#88bdde;}.cls-13{fill:#94b6c6;}.cls-14{fill:#2c2f50;}</style>
 </defs>
 <title>intro</title>
 <g>
  <title>background</title>
  <rect fill="none" id="canvas_background" height="601" width="802" y="-1" x="-1"/>
 </g>
 <g>
  <title>Layer 1</title>
  <g transform="rotate(-90 399.3150024414063,299.1400146484375) " id="svg_378">
   <rect id="svg_1" transform="rotate(-90 1.450012207031364,599.8300170898439) " height="598.63" width="804.28" y="698.38002" x="-99.99999" class="cls-1"/>
   <path id="svg_2" d="m491.03002,-102.98999c-21.22,25.09 -31.08,53.11 -38.73,74.86c-28,79.61 9.74,94 -7.47,162.5c-25.09,99.92 -132.71,178.57 -153.71,193.39c-91.81,64.84 -141.08,49.62 -180.6,96.75a116.81,116.81 0 0 0 -10.52,14.78l0,141.52c23.84,57 66.52,101 85.21,94.84c19.88,-6.56 1.23,-66.06 62.81,-128.93c31,-31.63 45.32,-26.36 71.76,-54.66c56,-60 6.76,-99.78 54.38,-166.31c41.13,-57.46 96.93,-54.34 131.47,-118.46c18.49,-34.3 7.81,-45 29.36,-69.33c37.3,-42.16 88.64,-32.25 133.64,-65.1a142.94,142.94 0 0 0 30,-30.22l0,-145.63l-207.6,0z" class="cls-2"/>
   <path id="svg_3" d="m100.00002,-102.98999l0,422.11c86.25,16.17 194.87,-24.22 252.49,-60.12c31.79,-19.81 77.43,-56.54 64.64,-72.57c-18.73,-23.48 -141.53,24.24 -172.39,-2.59s60.82,-102.55 152.64,-222.9c8.07,-10.57 25.92,-34 46.75,-63.93l-344.13,0z" class="cls-3"/>
   <path id="svg_4" d="m568.39002,219.88001c-0.14,9.51 57.87,12 58.42,24.1c0.61,13.7 -73.09,13.6 -144.06,45.63c-81.77,36.9 -115.59,96.48 -131.46,124.44c-32.42,57.11 -38.17,116.88 -23.85,120.48c9.77,2.45 21.06,-23.23 67.06,-44.36c19.54,-9 52.15,-24 77.52,-16.54c35.36,10.32 14.7,51.93 54.34,77.94c44,28.86 125.9,14.65 169.86,-2.28l2.41,-1l0,-41.5c-21.54,-0.21 -43.64,-0.89 -49.9,-9.76c-7.91,-11.22 14.35,-28.72 49.9,-54.69l0,-242.84c-70.63,3.79 -130.1,10.79 -130.24,20.38z" class="cls-3"/>
   <path id="svg_5" d="m621.15002,387.29001c0,6 6.81,11 15.2,11s15.19,-4.91 15.19,-11s-6.8,-11 -15.19,-11s-15.2,5 -15.2,11zm29,0c0,5.51 -6.19,10 -13.82,10s-13.83,-4.47 -13.83,-10s6.19,-10 13.83,-10s13.84,4.53 13.84,10l-0.02,0z" class="cls-4"/>
   <path id="svg_6" d="m618.33002,387.29001c0,7.18 8.06,13 18,13s18,-5.82 18,-13s-8.06,-13 -18,-13s-18,5.86 -18,13zm34.62,0c0,6.62 -7.43,12 -16.6,12s-16.61,-5.36 -16.61,-12s7.43,-12 16.61,-12s16.6,5.42 16.6,12z" class="cls-5"/>
   <path id="svg_7" d="m540.20002,-68.10999c40.7,-20 77,-25.07 90.54,-15c8.89,6.59 6.37,18.52 5.85,20.7c-3.1,13 -16.24,18.63 -28.8,25.89a17.4,17.4 0 0 0 -5.84,-3.55c-9.13,-3.31 -21.84,-0.12 -35.58,7.87c-14.91,3.69 -41.93,14.49 -63.18,29.06c-38.42,26.39 -50.64,60.17 -55,80.26c15.75,-47.43 39.39,-64.39 59.18,-70.66c4.27,-1.36 12.08,-3.4 21.73,-7.17a206,206 0 0 0 -15,19a181.72,181.72 0 0 0 -13.82,23.2c-25.65,19.5 -65.84,69.8 -47.8,102.65a23.73,23.73 0 0 0 9.75,10.07c29,15.69 95.42,-19.93 100.23,-22.56c-40.71,20 -77,25.07 -90.54,15c-8.89,-6.59 -6.37,-18.52 -5.85,-20.7c3.12,-13.11 16.44,-18.71 29.09,-26.06a17,17 0 0 0 6.32,4c8.71,3.16 20.7,0.38 33.72,-6.83c12.27,-1.59 44.66,-13.39 69.31,-30.31c38.42,-26.38 50.64,-60.17 55,-80.25c-15.75,47.43 -39.38,64.39 -59.18,70.66c-5.21,1.65 -15.65,4.31 -28.32,9.89a201.45,201.45 0 0 0 17.29,-21.51a179.2,179.2 0 0 0 14.52,-24.61c25.71,-20.29 64.05,-69.34 46.34,-101.56a23.62,23.62 0 0 0 -9.74,-10.08c-29.03,-15.65 -95.41,20 -100.22,22.6zm38.43,110.3c-20.07,28.77 -48.52,47.67 -63.55,42.21s-10.93,-33.21 9.14,-62s48.53,-47.67 63.55,-42.21s10.94,33.23 -9.14,62z" class="cls-6"/>
   <path id="svg_8" d="m536.01002,27.82001c-12.2,17.49 -15.9,33.92 -8.26,36.69s23.73,-9.15 35.93,-26.64s15.9,-33.91 8.26,-36.69s-23.73,9.11 -35.93,26.64z" class="cls-6"/>
   <path id="svg_9" d="m209.63002,237.04001c0,5.63 6.33,10.2 14.14,10.2s14.15,-4.57 14.15,-10.2s-6.34,-10.21 -14.15,-10.21s-14.14,4.57 -14.14,10.21zm27,0c0,5.13 -5.77,9.29 -12.88,9.29s-12.87,-4.16 -12.87,-9.29s5.76,-9.29 12.87,-9.29s12.88,4.16 12.88,9.29z" class="cls-4"/>
   <path id="svg_10" d="m206.97002,237.04001c0,6.68 7.52,12.1 16.78,12.1s16.78,-5.42 16.78,-12.1s-7.51,-12.11 -16.78,-12.11s-16.78,5.42 -16.78,12.11zm32.24,0c0,6.16 -6.92,11.15 -15.46,11.15s-15.46,-5 -15.46,-11.15s6.92,-11.16 15.46,-11.16s15.46,4.99 15.46,11.16z" class="cls-5"/>
   <path id="svg_11" d="m655.56002,558.66001c5.11,0 9.26,3 9.26,6.68s-4.15,6.68 -9.26,6.68s-9.27,-3 -9.27,-6.68s4.15,-6.68 9.27,-6.68z" class="cls-7"/>
   <path id="svg_12" d="m481.82002,456.73001c0,11 12.32,19.85 27.52,19.85s27.52,-8.89 27.52,-19.85s-12.32,-19.86 -27.52,-19.86s-27.52,8.89 -27.52,19.86zm52.57,0c0,10 -11.21,18.07 -25.05,18.07s-25,-8.09 -25,-18.07s11.21,-18.08 25,-18.08s25.05,8.09 25.05,18.08z" class="cls-2"/>
   <path id="svg_13" d="m476.70002,456.73001c0,13 14.62,23.55 32.64,23.55s32.64,-10.55 32.64,-23.55s-14.61,-23.56 -32.64,-23.56s-32.64,10.55 -32.64,23.56zm62.72,0c0,12 -13.46,21.7 -30.08,21.7s-30.08,-9.72 -30.08,-21.7s13.47,-21.71 30.08,-21.71s30.08,9.72 30.08,21.71z" class="cls-8"/>
   <path id="svg_14" d="m124.63002,109.15001c0,11 12.41,20 27.72,20s27.71,-9 27.71,-20s-12.41,-20 -27.71,-20s-27.72,8.96 -27.72,20zm52.94,0c0,10.06 -11.29,18.21 -25.22,18.21s-25.23,-8.15 -25.23,-18.21s11.29,-18.2 25.23,-18.2s25.21,8.15 25.21,18.2l0.01,0z" class="cls-9"/>
   <path id="svg_15" d="m119.46002,109.15001c0,13.1 14.72,23.72 32.88,23.72s32.87,-10.58 32.87,-23.72s-14.72,-23.72 -32.87,-23.72s-32.88,10.62 -32.88,23.72zm63.17,0c0,12.08 -13.56,21.87 -30.29,21.87s-30.3,-9.79 -30.3,-21.87s13.59,-21.86 30.3,-21.86s30.29,9.79 30.29,21.86z" class="cls-10"/>
   <path id="svg_16" d="m326.41002,-77.27999l-7.78,-0.43l7.75,-0.43c2.13,-0.12 3.82,-1.33 4,-2.87l0.59,-5.6l0.59,5.6c0.16,1.54 1.85,2.75 4,2.87l7.76,0.43l-7.76,0.42c-2.12,0.12 -3.81,1.34 -4,2.87l-0.59,5.6l-0.59,-5.6c-0.15,-1.52 -1.84,-2.74 -3.97,-2.86z" class="cls-11"/>
   <path id="svg_17" d="m151.63002,539.09001l-4.68,-0.25l4.68,-0.26a2.33,2.33 0 0 0 2.4,-1.74l0.36,-3.38l0.36,3.38a2.35,2.35 0 0 0 2.4,1.74l4.68,0.26l-4.68,0.25a2.35,2.35 0 0 0 -2.4,1.73l-0.36,3.38l-0.36,-3.38a2.33,2.33 0 0 0 -2.4,-1.73z" class="cls-11"/>
   <path id="svg_18" d="m649.46002,219.21001l-4.69,-0.26l4.69,-0.26a2.34,2.34 0 0 0 2.4,-1.73l0.36,-3.38l0.35,3.38a2.34,2.34 0 0 0 2.4,1.73l4.69,0.26l-4.69,0.26a2.34,2.34 0 0 0 -2.4,1.73l-0.35,3.38l-0.36,-3.38a2.34,2.34 0 0 0 -2.4,-1.73z" class="cls-11"/>
   <path id="svg_19" d="m154.12002,51.53001l-8,-0.44l8,-0.43c2.19,-0.12 3.92,-1.37 4.08,-3l0.61,-5.74l0.61,5.74c0.16,1.58 1.9,2.83 4.08,3l8,0.43l-8,0.44c-2.18,0.12 -3.92,1.37 -4.08,2.95l-0.61,5.74l-0.61,-5.74c-0.16,-1.58 -1.89,-2.83 -4.08,-2.95z" class="cls-11"/>
   <path id="svg_20" d="m454.30002,35.47001l-10.94,-0.6l10.94,-0.6c3,-0.17 5.38,-1.88 5.6,-4l0.84,-7.89l0.83,7.89c0.23,2.17 2.61,3.88 5.61,4l10.93,0.6l-10.93,0.6c-3,0.16 -5.38,1.88 -5.61,4l-0.83,7.89l-0.84,-7.89c-0.22,-2.12 -2.61,-3.84 -5.6,-4z" class="cls-11"/>
   <path id="svg_21" d="m623.36002,344.15001l-6,-0.32l6,-0.33c1.63,-0.09 2.93,-1 3.06,-2.21l0.45,-4.3l0.45,4.3c0.13,1.18 1.43,2.12 3.06,2.21l6,0.33l-6,0.32c-1.63,0.09 -2.93,1 -3.06,2.21l-0.45,4.3l-0.45,-4.3c-0.13,-1.18 -1.43,-2.07 -3.06,-2.21z" class="cls-12"/>
   <path id="svg_22" d="m197.52002,344.15001l-6,-0.32l6,-0.33c1.63,-0.09 2.93,-1 3.06,-2.21l0.45,-4.3l0.45,4.3c0.13,1.18 1.43,2.12 3.06,2.21l6,0.33l-6,0.32c-1.63,0.09 -2.93,1 -3.06,2.21l-0.45,4.3l-0.45,-4.3c-0.13,-1.18 -1.43,-2.07 -3.06,-2.21z" class="cls-12"/>
   <path id="svg_23" d="m323.77002,82.46001l-6,-0.33l6,-0.33c1.64,-0.09 2.94,-1 3.06,-2.2l0.45,-4.31l0.46,4.31c0.12,1.18 1.42,2.11 3.06,2.2l6,0.33l-6,0.33c-1.64,0.09 -2.94,1 -3.06,2.2l-0.46,4.31l-0.45,-4.31c-0.12,-1.18 -1.42,-2.11 -3.06,-2.2z" class="cls-12"/>
   <path id="svg_24" d="m293.38002,548.19001l-6,-0.33l6,-0.33c1.64,-0.09 2.94,-1 3.06,-2.2l0.45,-4.31l0.46,4.31c0.12,1.18 1.42,2.11 3.06,2.2l6,0.33l-6,0.33c-1.64,0.09 -2.94,1 -3.06,2.2l-0.46,4.31l-0.45,-4.31c-0.12,-1.18 -1.42,-2.1 -3.06,-2.2z" class="cls-12"/>
   <path id="svg_25" d="m558.55002,247.81001l-13.79,-0.75l13.79,-0.76c3.78,-0.21 6.78,-2.37 7.07,-5.1l1.01,-9.91l1,10c0.28,2.73 3.29,4.89 7.07,5.1l13.79,0.76l-13.79,0.75c-3.78,0.21 -6.79,2.38 -7.07,5.11l-1,9.95l-1,-10.04c-0.3,-2.73 -3.3,-4.9 -7.08,-5.11z" class="cls-11"/>
   <path id="svg_26" d="m577.11002,532.46001c-0.38,3.68 -4.44,6.61 -9.54,6.89l-18.63,1l18.63,1c5.1,0.28 9.16,3.2 9.54,6.89l1.42,13.44l1.42,-13.39c0.39,-3.69 4.44,-6.61 9.55,-6.89l18.63,-1l-18.63,-1c-5.11,-0.28 -9.16,-3.21 -9.55,-6.89l-1.42,-13.44l-1.42,13.39zm2.6,5.57a3.35,3.35 0 0 0 2.07,1.5l3,0.84l-3,0.85a3.32,3.32 0 0 0 -2.07,1.5l-1.18,2.15l-1.17,-2.15a3.37,3.37 0 0 0 -2.08,-1.5l-3,-0.85l3,-0.84a3.4,3.4 0 0 0 2.08,-1.5l1.17,-2.15l1.18,2.15z" class="cls-11"/>
   <path id="svg_27" d="m617.31002,620.99001c16.44,16.46 34.05,27.57 39.34,24.82s-3.78,-18.31 -20.22,-34.77s-34,-27.56 -39.34,-24.81s3.78,18.31 20.22,34.76zm16.67,-8.7c15.17,15.18 23.86,29.36 19.4,31.68s-20.36,-8.11 -35.53,-23.29s-23.86,-29.36 -19.4,-31.68s20.36,8.14 35.53,23.29z" class="cls-5"/>
   <path id="svg_28" d="m631.82002,613.44001a159.19,159.19 0 0 0 -16,-14.06a28.2,28.2 0 0 0 -3.91,1.67c-11.46,6 -14,17.5 -5.78,25.77s24.24,10.13 35.7,4.17a24.67,24.67 0 0 0 3.43,-2.15a140.31,140.31 0 0 0 -13.44,-15.4z" class="cls-4"/>
   <path id="svg_29" d="m638.63002,609.92001a156.94,156.94 0 0 1 11.83,13.29c3.36,-5.74 2.6,-12.57 -2.81,-18s-14.16,-8.09 -22.77,-7.6a174.11,174.11 0 0 1 13.75,12.31z" class="cls-4"/>
   <path id="svg_30" d="m570.20002,134.00001c1.61,0 2.93,0.94 2.93,2.11s-1.32,2.11 -2.93,2.11s-2.93,-0.94 -2.93,-2.11s1.36,-2.11 2.93,-2.11z" class="cls-11"/>
   <path id="svg_31" d="m605.63002,-58.45999c1.61,0 2.92,0.94 2.92,2.11s-1.31,2.11 -2.92,2.11s-2.93,-0.94 -2.93,-2.11s1.3,-2.11 2.93,-2.11z" class="cls-11"/>
   <path id="svg_32" d="m630.63002,419.86001c0,-2.47 2.77,-4.47 6.19,-4.47s6.18,2 6.18,4.47s-2.76,4.43 -6.17,4.43s-6.2,-2 -6.2,-4.43z" class="cls-7"/>
   <path id="svg_33" d="m667.29002,587.52001c1.08,0 2,0.63 2,1.41s-0.88,1.42 -2,1.42s-2,-0.63 -2,-1.42s0.91,-1.41 2,-1.41z" class="cls-11"/>
   <path id="svg_34" d="m544.88002,161.61001c1.09,0 2,0.63 2,1.41s-0.88,1.42 -2,1.42s-2,-0.63 -2,-1.42s0.92,-1.41 2,-1.41z" class="cls-11"/>
   <path id="svg_35" d="m123.52002,288.64001c1.09,0 2,0.63 2,1.41s-0.88,1.42 -2,1.42s-2,-0.63 -2,-1.42s0.92,-1.41 2,-1.41z" class="cls-11"/>
   <path id="svg_36" d="m204.52002,487.29001c1.09,0 2,0.63 2,1.41s-0.88,1.42 -2,1.42s-2,-0.63 -2,-1.42s0.92,-1.41 2,-1.41z" class="cls-11"/>
   <path id="svg_37" d="m515.07002,-79.11999c1.09,0 2,0.63 2,1.42s-0.87,1.41 -2,1.41s-2,-0.63 -2,-1.41s0.91,-1.42 2,-1.42z" class="cls-11"/>
   <path id="svg_38" d="m313.74002,382.29001c1.08,0 2,0.63 2,1.42s-0.88,1.41 -2,1.41s-2,-0.63 -2,-1.41s0.89,-1.42 2,-1.42z" class="cls-11"/>
   <path id="svg_39" d="m544.88002,-3.03999c1.09,0 2,0.63 2,1.42s-0.88,1.41 -2,1.41s-2,-0.63 -2,-1.41s0.92,-1.42 2,-1.42z" class="cls-11"/>
   <path id="svg_40" d="m303.79002,7.55001c1.09,0 2,0.64 2,1.42s-0.87,1.42 -2,1.42s-2,-0.64 -2,-1.42s0.92,-1.42 2,-1.42z" class="cls-11"/>
   <path id="svg_41" d="m257.02002,378.97001c1.09,0 2,0.64 2,1.42s-0.88,1.42 -2,1.42s-2,-0.64 -2,-1.42s0.92,-1.42 2,-1.42z" class="cls-11"/>
   <path id="svg_42" d="m416.63002,-38.91999c1.09,0 2,0.64 2,1.42s-0.87,1.42 -2,1.42s-2,-0.64 -2,-1.42s0.94,-1.42 2,-1.42z" class="cls-11"/>
   <path id="svg_43" d="m270.78002,-53.82999c1.08,0 2,0.63 2,1.42s-0.88,1.41 -2,1.41s-2,-0.63 -2,-1.41s0.91,-1.42 2,-1.42z" class="cls-11"/>
   <path id="svg_44" d="m155.20002,649.95001c1.08,0 2,0.63 2,1.42s-0.88,1.41 -2,1.41s-2,-0.63 -2,-1.41s0.91,-1.42 2,-1.42z" class="cls-11"/>
   <path id="svg_45" d="m327.28002,182.83001c1.62,0 2.93,0.95 2.93,2.12s-1.31,2.11 -2.93,2.11s-2.92,-0.95 -2.92,-2.11s1.27,-2.12 2.92,-2.12z" class="cls-11"/>
   <path id="svg_46" d="m522.96002,303.62001c1.62,0 2.93,0.94 2.93,2.11s-1.31,2.11 -2.93,2.11s-2.93,-0.95 -2.93,-2.11s1.31,-2.11 2.93,-2.11z" class="cls-11"/>
   <path id="svg_47" d="m121.56002,483.53001c1.61,0 2.92,1 2.92,2.11s-1.31,2.11 -2.92,2.11s-2.93,-0.94 -2.93,-2.11s1.31,-2.11 2.93,-2.11z" class="cls-11"/>
   <path id="svg_48" d="m480.68002,291.62001c1.61,0 2.92,0.94 2.92,2.11s-1.31,2.11 -2.92,2.11s-2.93,-0.94 -2.93,-2.11s1.31,-2.11 2.93,-2.11z" class="cls-11"/>
   <path id="svg_49" d="m643.72002,80.02001c1.61,0 2.92,0.94 2.92,2.11s-1.31,2.16 -2.92,2.16s-2.93,-0.94 -2.93,-2.11s1.31,-2.16 2.93,-2.16z" class="cls-11"/>
   <path id="svg_50" d="m337.40002,395.29001c0.67,0 1.21,0.39 1.21,0.87s-0.54,0.87 -1.21,0.87s-1.2,-0.39 -1.2,-0.87s0.54,-0.87 1.2,-0.87z" class="cls-11"/>
   <path id="svg_51" d="m312.74002,398.23001c0.81,0 1.47,0.48 1.47,1.06s-0.66,1.06 -1.47,1.06s-1.47,-0.47 -1.47,-1.06s0.65,-1.06 1.47,-1.06z" class="cls-11"/>
   <path id="svg_52" d="m322.30002,408.51001c0.64,0 1.15,0.37 1.15,0.83s-0.51,0.84 -1.15,0.84s-1.16,-0.38 -1.16,-0.84s0.49,-0.83 1.16,-0.83z" class="cls-11"/>
   <path id="svg_53" d="m312.40002,434.95001c0.61,0 1.1,0.35 1.1,0.79s-0.49,0.79 -1.1,0.79s-1.1,-0.35 -1.1,-0.79s0.49,-0.79 1.1,-0.79z" class="cls-11"/>
   <path id="svg_54" d="m273.82002,438.41001c0.63,0 1.15,0.37 1.15,0.83s-0.52,0.83 -1.15,0.83s-1.19,-0.37 -1.19,-0.78s0.55,-0.88 1.19,-0.88z" class="cls-11"/>
   <path id="svg_55" d="m307.63002,466.29001c0.74,0 1.34,0.43 1.34,1s-0.6,1 -1.34,1s-1.33,-0.43 -1.33,-1s0.56,-1 1.33,-1z" class="cls-11"/>
   <path id="svg_56" d="m279.49002,461.29001c0.83,0 1.51,0.49 1.51,1.09s-0.68,1.09 -1.51,1.09s-1.51,-0.49 -1.51,-1.09s0.65,-1.09 1.51,-1.09z" class="cls-11"/>
   <path id="svg_57" d="m269.50002,482.67001c0.6,0 1.09,0.35 1.09,0.79s-0.49,0.79 -1.09,0.79s-1.1,-0.35 -1.1,-0.79s0.49,-0.79 1.1,-0.79z" class="cls-11"/>
   <path id="svg_58" d="m223.56002,482.49001c0.68,0 1.22,0.39 1.22,0.88s-0.54,0.87 -1.22,0.87s-1.21,-0.39 -1.21,-0.87s0.54,-0.88 1.21,-0.88z" class="cls-11"/>
   <path id="svg_59" d="m250.01002,520.29001c0.82,0 1.48,0.48 1.48,1.07s-0.66,1.07 -1.48,1.07s-1.48,-0.48 -1.48,-1.07s0.66,-1.07 1.48,-1.07z" class="cls-11"/>
   <path id="svg_60" d="m236.19002,532.49001c0.65,0 1.19,0.38 1.19,0.85s-0.54,0.86 -1.19,0.86s-1.19,-0.38 -1.19,-0.86s0.53,-0.85 1.19,-0.85z" class="cls-11"/>
   <path id="svg_61" d="m243.33002,541.18001c0.71,0 1.3,0.42 1.3,0.94s-0.59,0.93 -1.3,0.93s-1.3,-0.42 -1.3,-0.93s0.6,-0.94 1.3,-0.94z" class="cls-11"/>
   <path id="svg_62" d="m217.24002,536.04001c0.65,0 1.18,0.38 1.18,0.85s-0.53,0.84 -1.18,0.84s-1.17,-0.37 -1.17,-0.84s0.56,-0.85 1.17,-0.85z" class="cls-11"/>
   <path id="svg_63" d="m195.54002,532.16001c0.89,0 1.62,0.52 1.62,1.17s-0.73,1.17 -1.62,1.17s-1.63,-0.52 -1.63,-1.17s0.72,-1.17 1.63,-1.17z" class="cls-11"/>
   <path id="svg_64" d="m205.56002,563.59001c0.67,0 1.21,0.39 1.21,0.88s-0.54,0.87 -1.21,0.87s-1.21,-0.39 -1.21,-0.87s0.54,-0.88 1.21,-0.88z" class="cls-11"/>
   <path id="svg_65" d="m218.09002,567.23001c0.79,0 1.43,0.46 1.43,1s-0.64,1 -1.43,1s-1.42,-0.47 -1.42,-1s0.63,-1 1.42,-1z" class="cls-11"/>
   <path id="svg_66" d="m224.92002,578.73001c0.86,0 1.55,0.5 1.55,1.11s-0.69,1.12 -1.55,1.12s-1.54,-0.5 -1.54,-1.12s0.69,-1.11 1.54,-1.11z" class="cls-11"/>
   <path id="svg_67" d="m219.97002,594.81001c0.65,0 1.18,0.39 1.18,0.86s-0.53,0.85 -1.18,0.85s-1.18,-0.38 -1.18,-0.85s0.52,-0.86 1.18,-0.86z" class="cls-11"/>
   <path id="svg_68" d="m208.63002,592.86001c0.77,0 1.41,0.45 1.41,1s-0.64,1 -1.41,1s-1.41,-0.45 -1.41,-1s0.64,-1 1.41,-1z" class="cls-11"/>
   <ellipse id="svg_69" ry="0.9" rx="1.25" cy="600.24001" cx="213.01002" class="cls-11"/>
   <path id="svg_70" d="m225.45002,627.29001c0.86,0 1.56,0.5 1.56,1.12s-0.7,1.13 -1.56,1.13s-1.55,-0.51 -1.55,-1.13s0.73,-1.12 1.55,-1.12z" class="cls-11"/>
   <path id="svg_71" d="m207.77002,629.40001c0.72,0 1.3,0.43 1.3,0.95s-0.58,0.94 -1.3,0.94s-1.31,-0.42 -1.31,-0.94s0.58,-0.95 1.31,-0.95z" class="cls-11"/>
   <path id="svg_72" d="m197.85002,638.62001c0.9,0 1.63,0.52 1.63,1.17s-0.73,1.17 -1.63,1.17s-1.62,-0.52 -1.62,-1.17s0.73,-1.17 1.62,-1.17z" class="cls-11"/>
   <path id="svg_73" d="m158.63002,652.03001c0.86,0 1.56,0.51 1.56,1.13s-0.74,1.13 -1.56,1.13s-1.55,-0.51 -1.55,-1.12s0.65,-1.14 1.55,-1.14z" class="cls-11"/>
   <path id="svg_74" d="m666.52002,-93.58999c0.8,0 1.45,0.46 1.45,1s-0.65,1 -1.45,1s-1.45,-0.47 -1.45,-1s0.65,-1 1.45,-1z" class="cls-11"/>
   <path id="svg_75" d="m670.14002,-66.97999c0.89,0 1.62,0.52 1.62,1.17s-0.73,1.16 -1.62,1.16s-1.62,-0.52 -1.62,-1.16s0.73,-1.17 1.62,-1.17z" class="cls-11"/>
   <path id="svg_76" d="m222.35002,284.15001c0.77,0 1.4,0.45 1.4,1s-0.63,1 -1.4,1s-1.4,-0.45 -1.4,-1s0.68,-1 1.4,-1z" class="cls-11"/>
   <path id="svg_77" d="m605.31002,-100.13999c0.8,0 1.44,0.47 1.44,1s-0.64,1 -1.44,1s-1.43,-0.46 -1.43,-1s0.64,-1 1.43,-1z" class="cls-11"/>
   <path id="svg_78" d="m617.63002,-58.63999c0.64,0 1.15,0.37 1.15,0.83s-0.51,0.84 -1.15,0.84s-1.16,-0.37 -1.16,-0.84s0.54,-0.83 1.16,-0.83z" class="cls-11"/>
   <path id="svg_79" d="m571.81002,-81.02999c0.9,0 1.62,0.53 1.62,1.17s-0.72,1.15 -1.62,1.15s-1.61,-0.52 -1.61,-1.17s0.72,-1.15 1.61,-1.15z" class="cls-11"/>
   <path id="svg_80" d="m568.96002,-56.16999c0.68,0 1.24,0.4 1.24,0.9s-0.56,0.89 -1.24,0.89s-1.24,-0.4 -1.24,-0.89s0.55,-0.9 1.24,-0.9z" class="cls-11"/>
   <path id="svg_81" d="m593.44002,-23.64999c0.76,0 1.39,0.45 1.39,1s-0.63,1 -1.39,1s-1.4,-0.45 -1.4,-1s0.59,-1 1.4,-1z" class="cls-11"/>
   <path id="svg_82" d="m557.78002,-14.84999c0.76,0 1.38,0.45 1.38,1s-0.62,1 -1.38,1s-1.38,-0.44 -1.38,-1s0.62,-1 1.38,-1z" class="cls-11"/>
   <path id="svg_83" d="m558.00002,2.71001c0.78,0 1.41,0.45 1.41,1s-0.63,1 -1.41,1s-1.41,-0.45 -1.41,-1s0.63,-1 1.41,-1z" class="cls-11"/>
   <path id="svg_84" d="m560.63002,12.23001c0.86,0 1.55,0.5 1.55,1.12s-0.69,1.11 -1.55,1.11s-1.54,-0.5 -1.54,-1.11s0.72,-1.12 1.54,-1.12z" class="cls-11"/>
   <path id="svg_85" d="m531.63002,23.65001c0.81,0 1.47,0.48 1.47,1.07s-0.66,1.06 -1.47,1.06s-1.47,-0.48 -1.47,-1.06s0.61,-1.07 1.47,-1.07z" class="cls-11"/>
   <path id="svg_86" d="m492.26002,20.62001c0.61,0 1.1,0.36 1.1,0.8s-0.49,0.8 -1.1,0.8s-1.11,-0.36 -1.11,-0.8s0.48,-0.8 1.11,-0.8z" class="cls-11"/>
   <path id="svg_87" d="m469.98002,35.88001c0.72,0 1.3,0.42 1.3,0.94s-0.58,0.94 -1.3,0.94s-1.3,-0.42 -1.3,-0.94s0.58,-0.94 1.3,-0.94z" class="cls-11"/>
   <path id="svg_88" d="m479.92002,47.16001c0.64,0 1.15,0.38 1.15,0.83s-0.51,0.83 -1.15,0.83s-1.15,-0.37 -1.15,-0.83s0.52,-0.83 1.15,-0.83z" class="cls-11"/>
   <path id="svg_89" d="m517.57002,64.64001c0.77,0 1.39,0.45 1.39,1s-0.62,1 -1.39,1s-1.4,-0.45 -1.4,-1s0.63,-1 1.4,-1z" class="cls-11"/>
   <path id="svg_90" d="m480.28002,78.58001c0.9,0 1.63,0.52 1.63,1.18s-0.73,1.17 -1.63,1.17s-1.63,-0.53 -1.63,-1.17s0.73,-1.18 1.63,-1.18z" class="cls-11"/>
   <path id="svg_91" d="m460.63002,103.06001c0.68,0 1.23,0.4 1.23,0.88s-0.55,0.89 -1.23,0.89s-1.23,-0.39 -1.23,-0.89s0.59,-0.88 1.23,-0.88z" class="cls-11"/>
   <path id="svg_92" d="m490.02002,113.29001c0.89,0 1.61,0.52 1.61,1.16s-0.72,1.17 -1.61,1.17s-1.61,-0.52 -1.61,-1.17s0.72,-1.16 1.61,-1.16z" class="cls-11"/>
   <path id="svg_93" d="m472.55002,115.94001c0.82,0 1.49,0.48 1.49,1.08s-0.67,1.08 -1.49,1.08s-1.5,-0.48 -1.5,-1.08s0.67,-1.08 1.5,-1.08z" class="cls-11"/>
   <path id="svg_94" d="m496.54002,132.14001c0.69,0 1.26,0.41 1.26,0.91s-0.57,0.91 -1.26,0.91s-1.26,-0.41 -1.26,-0.91s0.56,-0.91 1.26,-0.91z" class="cls-11"/>
   <path id="svg_95" d="m476.63002,129.09001c0.9,0 1.63,0.53 1.63,1.17s-0.73,1.18 -1.63,1.18s-1.63,-0.53 -1.63,-1.18s0.7,-1.17 1.63,-1.17z" class="cls-11"/>
   <path id="svg_96" d="m506.70002,138.29001c0.84,0 1.53,0.5 1.53,1.11s-0.69,1.11 -1.53,1.11s-1.54,-0.5 -1.54,-1.11s0.69,-1.11 1.54,-1.11z" class="cls-11"/>
   <path id="svg_97" d="m470.63002,145.89001c0.63,0 1.14,0.37 1.14,0.82s-0.51,0.82 -1.14,0.82s-1.14,-0.36 -1.14,-0.82s0.5,-0.82 1.14,-0.82z" class="cls-11"/>
   <path id="svg_98" d="m431.78002,163.11001c0.77,0 1.39,0.45 1.39,1s-0.62,1 -1.39,1s-1.4,-0.45 -1.4,-1s0.63,-1 1.4,-1z" class="cls-11"/>
   <path id="svg_99" d="m467.35002,168.64001c0.74,0 1.34,0.44 1.34,1s-0.6,1 -1.34,1s-1.34,-0.43 -1.34,-1s0.62,-1 1.34,-1z" class="cls-11"/>
   <path id="svg_100" d="m449.33002,172.52001c0.84,0 1.52,0.49 1.52,1.1s-0.68,1.1 -1.52,1.1s-1.53,-0.49 -1.53,-1.1s0.68,-1.1 1.53,-1.1z" class="cls-11"/>
   <ellipse id="svg_101" ry="1.06" rx="1.47" cy="187.94001" cx="427.57002" class="cls-11"/>
   <path id="svg_102" d="m477.01002,191.08001c0.68,0 1.24,0.4 1.24,0.89s-0.56,0.9 -1.24,0.9s-1.24,-0.41 -1.24,-0.9s0.55,-0.89 1.24,-0.89z" class="cls-11"/>
   <path id="svg_103" d="m457.31002,209.99001c0.88,0 1.58,0.51 1.58,1.14s-0.7,1.14 -1.58,1.14s-1.58,-0.51 -1.58,-1.14s0.71,-1.14 1.58,-1.14z" class="cls-11"/>
   <path id="svg_104" d="m434.14002,230.29001c0.7,0 1.28,0.41 1.28,0.92s-0.58,0.92 -1.28,0.92s-1.28,-0.41 -1.28,-0.92s0.58,-0.92 1.28,-0.92z" class="cls-11"/>
   <path id="svg_105" d="m465.32002,235.90001c0.87,0 1.58,0.51 1.58,1.14s-0.71,1.14 -1.58,1.14s-1.58,-0.51 -1.58,-1.14s0.71,-1.14 1.58,-1.14z" class="cls-11"/>
   <path id="svg_106" d="m431.89002,244.74001c0.68,0 1.23,0.4 1.23,0.89s-0.55,0.89 -1.23,0.89s-1.23,-0.4 -1.23,-0.89s0.55,-0.89 1.23,-0.89z" class="cls-11"/>
   <path id="svg_107" d="m444.34002,244.81001c0.77,0 1.4,0.46 1.4,1s-0.63,1 -1.4,1s-1.41,-0.45 -1.41,-1s0.63,-1 1.41,-1z" class="cls-11"/>
   <ellipse id="svg_108" ry="1" rx="1.38" cy="269.84001" cx="471.66002" class="cls-11"/>
   <path id="svg_109" d="m489.63002,279.52001c0.65,0 1.17,0.37 1.17,0.84s-0.52,0.84 -1.17,0.84s-1.16,-0.38 -1.16,-0.84s0.51,-0.84 1.16,-0.84z" class="cls-11"/>
   <path id="svg_110" d="m391.79002,-80.58999c0.76,0 1.38,0.45 1.38,1s-0.62,1 -1.38,1s-1.38,-0.45 -1.38,-1s0.62,-1 1.38,-1z" class="cls-11"/>
   <path id="svg_111" d="m372.87002,-60.00999c0.79,0 1.44,0.47 1.44,1s-0.65,1 -1.44,1s-1.44,-0.47 -1.44,-1s0.65,-1 1.44,-1z" class="cls-11"/>
   <path id="svg_112" d="m370.48002,-51.43999c0.73,0 1.32,0.43 1.32,1s-0.59,1 -1.32,1s-1.33,-0.42 -1.33,-1s0.6,-1 1.33,-1z" class="cls-11"/>
   <path id="svg_113" d="m374.98002,-40.64999c0.62,0 1.13,0.36 1.13,0.81s-0.51,0.81 -1.13,0.81s-1.12,-0.36 -1.12,-0.81s0.5,-0.81 1.12,-0.81z" class="cls-11"/>
   <path id="svg_114" d="m332.16002,-10.42999c0.73,0 1.32,0.42 1.32,1s-0.59,1 -1.32,1s-1.32,-0.42 -1.32,-1s0.59,-1 1.32,-1z" class="cls-11"/>
   <path id="svg_115" d="m344.87002,15.69001c0.89,0 1.62,0.53 1.62,1.18s-0.73,1.17 -1.62,1.17s-1.63,-0.53 -1.63,-1.17s0.73,-1.18 1.63,-1.18z" class="cls-11"/>
   <path id="svg_116" d="m370.52002,21.04001c0.84,0 1.52,0.49 1.52,1.09s-0.68,1.1 -1.52,1.1s-1.53,-0.49 -1.53,-1.1s0.69,-1.09 1.53,-1.09z" class="cls-11"/>
   <path id="svg_117" d="m361.63002,42.79001c0.8,0 1.45,0.47 1.45,1.05s-0.65,1 -1.45,1s-1.46,-0.47 -1.46,-1s0.61,-1.05 1.46,-1.05z" class="cls-11"/>
   <path id="svg_118" d="m368.15002,44.21001c0.79,0 1.43,0.46 1.43,1s-0.64,1 -1.43,1s-1.43,-0.47 -1.43,-1s0.64,-1 1.43,-1z" class="cls-11"/>
   <path id="svg_119" d="m409.92002,57.69001c0.84,0 1.52,0.49 1.52,1.1s-0.68,1.1 -1.52,1.1s-1.53,-0.49 -1.53,-1.1s0.68,-1.1 1.53,-1.1z" class="cls-11"/>
   <path id="svg_120" d="m388.63002,67.64001c0.87,0 1.58,0.51 1.58,1.14s-0.71,1.14 -1.58,1.14s-1.58,-0.51 -1.58,-1.14s0.73,-1.14 1.58,-1.14z" class="cls-11"/>
   <path id="svg_121" d="m409.92002,78.29001c0.89,0 1.61,0.52 1.61,1.16s-0.72,1.16 -1.61,1.16s-1.61,-0.52 -1.61,-1.16s0.72,-1.16 1.61,-1.16z" class="cls-11"/>
   <path id="svg_122" d="m414.33002,89.00001c0.76,0 1.38,0.44 1.38,1s-0.62,1 -1.38,1s-1.37,-0.44 -1.37,-1s0.67,-1 1.37,-1z" class="cls-11"/>
   <path id="svg_123" d="m357.23002,107.56001c0.9,0 1.62,0.52 1.62,1.17s-0.72,1.17 -1.62,1.17s-1.63,-0.52 -1.63,-1.17s0.73,-1.17 1.63,-1.17z" class="cls-11"/>
   <path id="svg_124" d="m358.40002,124.45001c0.71,0 1.28,0.42 1.28,0.92s-0.57,0.93 -1.28,0.93s-1.28,-0.41 -1.28,-0.93s0.57,-0.92 1.28,-0.92z" class="cls-11"/>
   <path id="svg_125" d="m257.02002,319.45001c0,-0.43 0.48,-0.78 1.08,-0.78s1.08,0.35 1.08,0.78s-0.48,0.78 -1.08,0.78s-1.08,-0.35 -1.08,-0.78z" class="cls-7"/>
   <path id="svg_126" d="m380.51002,407.49001c0,-1 1.16,-1.87 2.6,-1.87s2.59,0.84 2.59,1.87s-1.16,1.87 -2.59,1.87s-2.6,-0.83 -2.6,-1.87z" class="cls-7"/>
   <path id="svg_127" d="m113.44002,453.20001c0,-1 1.16,-1.87 2.6,-1.87s2.59,0.83 2.59,1.87s-1.16,1.87 -2.59,1.87s-2.6,-0.84 -2.6,-1.87z" class="cls-7"/>
   <path id="svg_128" d="m324.00002,451.29001c0,-1 1.17,-1.89 2.61,-1.89s2.62,0.85 2.62,1.89s-1.17,1.89 -2.62,1.89s-2.61,-0.83 -2.61,-1.89z" class="cls-7"/>
   <path id="svg_129" d="m198.78002,461.95001c0,-0.77 0.87,-1.39 1.93,-1.39s1.93,0.62 1.93,1.39s-0.86,1.39 -1.93,1.39s-1.93,-0.62 -1.93,-1.39z" class="cls-7"/>
   <path id="svg_130" d="m316.75002,542.48001c0,-0.86 1,-1.57 2.18,-1.57s2.17,0.71 2.17,1.57s-1,1.58 -2.17,1.58s-2.18,-0.71 -2.18,-1.58z" class="cls-7"/>
   <path id="svg_131" d="m207.63002,558.87001c0,-0.93 1,-1.69 2.35,-1.69s2.35,0.76 2.35,1.69s-1,1.7 -2.35,1.7s-2.35,-0.76 -2.35,-1.7z" class="cls-7"/>
   <path id="svg_132" d="m146.38002,587.08001c0,-0.6 0.67,-1.08 1.5,-1.08s1.51,0.48 1.51,1.08s-0.68,1.08 -1.51,1.08s-1.5,-0.48 -1.5,-1.08z" class="cls-7"/>
   <path id="svg_133" d="m227.76002,649.53001c0,-1 1.16,-1.87 2.6,-1.87s2.59,0.84 2.59,1.87s-1.16,1.88 -2.59,1.88s-2.6,-0.84 -2.6,-1.88z" class="cls-7"/>
   <path id="svg_134" d="m103.36002,659.35001c0,-0.93 1,-1.68 2.33,-1.68s2.33,0.75 2.33,1.68s-1.05,1.68 -2.33,1.68s-2.33,-0.74 -2.33,-1.68z" class="cls-7"/>
   <path id="svg_135" d="m599.63002,-67.20999c0,-0.79 0.88,-1.43 2,-1.43s2,0.64 2,1.43s-0.88,1.42 -2,1.42s-2,-0.64 -2,-1.42z" class="cls-7"/>
   <path id="svg_136" d="m621.27002,-36.70999c0,-0.62 0.69,-1.12 1.55,-1.12s1.55,0.5 1.55,1.12s-0.7,1.12 -1.55,1.12s-1.55,-0.48 -1.55,-1.12z" class="cls-7"/>
   <path id="svg_137" d="m522.46002,-29.27999c0,-0.71 0.79,-1.28 1.77,-1.28s1.77,0.57 1.77,1.28s-0.79,1.28 -1.77,1.28s-1.77,-0.58 -1.77,-1.28z" class="cls-7"/>
   <path id="svg_138" d="m690.45002,48.89001c0,-0.93 1,-1.69 2.34,-1.69s2.33,0.76 2.33,1.69s-1,1.69 -2.33,1.69s-2.34,-0.76 -2.34,-1.69z" class="cls-7"/>
   <path id="svg_139" d="m559.63002,52.00001c0,-0.5 0.55,-0.9 1.24,-0.9s1.25,0.4 1.25,0.9s-0.56,0.9 -1.25,0.9s-1.24,-0.4 -1.24,-0.9z" class="cls-7"/>
   <path id="svg_140" d="m553.75002,115.22001c0,-0.4 0.44,-0.72 1,-0.72s1,0.32 1,0.72s-0.45,0.72 -1,0.72s-1,-0.32 -1,-0.72z" class="cls-7"/>
   <path id="svg_141" d="m485.07002,132.29001c0,-0.89 1,-1.62 2.24,-1.62s2.24,0.73 2.24,1.62s-1,1.61 -2.24,1.61s-2.24,-0.68 -2.24,-1.61z" class="cls-7"/>
   <path id="svg_142" d="m465.17002,178.01001c0,-1.16 1.31,-2.1 2.92,-2.1s2.92,0.94 2.92,2.1s-1.31,2.11 -2.92,2.11s-2.92,-0.94 -2.92,-2.11z" class="cls-7"/>
   <path id="svg_143" d="m414.57002,223.29001c0,-1 1.08,-1.75 2.42,-1.75s2.43,0.78 2.43,1.75s-1.09,1.75 -2.43,1.75s-2.42,-0.75 -2.42,-1.75z" class="cls-7"/>
   <path id="svg_144" d="m417.45002,285.16001c0,-1.24 1.4,-2.25 3.12,-2.25s3.13,1 3.13,2.25s-1.4,2.26 -3.13,2.26s-3.12,-1.01 -3.12,-2.26z" class="cls-7"/>
   <path id="svg_145" d="m529.50002,8.29001c0,-0.75 0.85,-1.37 1.9,-1.37s1.9,0.62 1.9,1.37s-0.85,1.37 -1.9,1.37s-1.9,-0.57 -1.9,-1.37z" class="cls-7"/>
   <path id="svg_146" d="m665.78002,39.43001c0,-0.88 1,-1.6 2.22,-1.6s2.22,0.72 2.22,1.6s-1,1.6 -2.22,1.6s-2.22,-0.74 -2.22,-1.6z" class="cls-7"/>
   <path id="svg_147" d="m663.68002,84.45001c0,-0.33 0.38,-0.61 0.84,-0.61s0.84,0.28 0.84,0.61s-0.38,0.6 -0.84,0.6s-0.84,-0.27 -0.84,-0.6z" class="cls-7"/>
   <path id="svg_148" d="m691.86002,140.23001c0,-0.58 0.66,-1.05 1.46,-1.05s1.46,0.47 1.46,1.05s-0.65,1.06 -1.46,1.06s-1.46,-0.48 -1.46,-1.06z" class="cls-7"/>
   <path id="svg_149" d="m655.56002,179.94001c0,-0.65 0.73,-1.18 1.63,-1.18s1.64,0.53 1.64,1.18s-0.73,1.18 -1.64,1.18s-1.63,-0.53 -1.63,-1.18z" class="cls-7"/>
   <path id="svg_150" d="m617.63002,234.17001c0,-1.21 1.36,-2.19 3,-2.19s3,1 3,2.19s-1.36,2.19 -3,2.19s-3,-0.98 -3,-2.19z" class="cls-7"/>
   <path id="svg_151" d="m547.54002,271.54001c0,-1 1.11,-1.78 2.47,-1.78s2.48,0.8 2.48,1.78s-1.11,1.79 -2.48,1.79s-2.47,-0.8 -2.47,-1.79z" class="cls-7"/>
   <path id="svg_152" d="m673.51002,305.29001c0,-0.39 0.44,-0.71 1,-0.71s1,0.32 1,0.71s-0.44,0.71 -1,0.71s-1,-0.3 -1,-0.71z" class="cls-7"/>
   <path id="svg_153" d="m593.63002,258.45001c0,-0.56 0.62,-1 1.39,-1s1.39,0.45 1.39,1s-0.62,1 -1.39,1s-1.39,-0.45 -1.39,-1z" class="cls-7"/>
   <path id="svg_154" d="m577.08002,245.57001c0,-0.71 0.79,-1.28 1.78,-1.28s1.78,0.57 1.78,1.28s-0.8,1.29 -1.78,1.29s-1.78,-0.57 -1.78,-1.29z" class="cls-7"/>
   <path id="svg_155" d="m503.49002,230.79001c0,-0.41 0.46,-0.74 1,-0.74s1,0.33 1,0.74s-0.46,0.74 -1,0.74s-1,-0.33 -1,-0.74z" class="cls-7"/>
   <path id="svg_156" d="m369.63002,473.29001c0,-0.39 0.44,-0.7 1,-0.7s1,0.31 1,0.7s-0.44,0.7 -1,0.7s-1,-0.35 -1,-0.7z" class="cls-7"/>
   <path id="svg_157" d="m377.26002,541.92001c0,-1.09 1.23,-2 2.75,-2s2.76,0.89 2.76,2s-1.23,2 -2.76,2s-2.75,-0.9 -2.75,-2z" class="cls-7"/>
   <path id="svg_158" d="m391.33002,278.83001c0,-1.24 1.38,-2.24 3.09,-2.24s3.1,1 3.1,2.24s-1.39,2.23 -3.1,2.23s-3.09,-1 -3.09,-2.23z" class="cls-7"/>
   <path id="svg_159" d="m411.76002,437.76001c0,-0.46 0.53,-0.84 1.17,-0.84s1.16,0.38 1.16,0.84s-0.52,0.84 -1.16,0.84s-1.17,-0.38 -1.17,-0.84z" class="cls-7"/>
   <path id="svg_160" d="m678.30002,611.38001c0,-0.86 1,-1.56 2.16,-1.56s2.17,0.7 2.17,1.56s-1,1.56 -2.17,1.56s-2.16,-0.65 -2.16,-1.56z" class="cls-7"/>
   <path id="svg_161" d="m327.74002,561.17001c0,-0.74 0.82,-1.33 1.84,-1.33s1.85,0.59 1.85,1.33s-0.83,1.33 -1.85,1.33s-1.84,-0.6 -1.84,-1.33z" class="cls-7"/>
   <path id="svg_162" d="m477.56002,378.97001c0,-1.24 1.4,-2.24 3.12,-2.24s3.11,1 3.11,2.24s-1.4,2.25 -3.11,2.25s-3.12,-1.01 -3.12,-2.25z" class="cls-7"/>
   <path id="svg_163" d="m474.04002,496.78001c0,-0.49 0.55,-0.88 1.23,-0.88s1.22,0.39 1.22,0.88s-0.55,0.88 -1.22,0.88s-1.23,-0.37 -1.23,-0.88z" class="cls-7"/>
   <path id="svg_164" d="m679.14002,688.16001c0,-0.53 0.59,-1 1.32,-1s1.33,0.43 1.33,1s-0.59,1 -1.33,1s-1.32,-0.47 -1.32,-1z" class="cls-7"/>
   <path id="svg_165" d="m578.38002,424.06001c0,-1.17 1.32,-2.12 2.95,-2.12s2.94,1 2.94,2.12s-1.31,2.13 -2.94,2.13s-2.95,-0.9 -2.95,-2.13z" class="cls-7"/>
   <path id="svg_166" d="m645.96002,446.12001c0,-1.16 1.31,-2.11 2.92,-2.11s2.92,0.95 2.92,2.11s-1.3,2.1 -2.92,2.1s-2.92,-0.93 -2.92,-2.1z" class="cls-7"/>
   <path id="svg_167" d="m632.63002,666.19001c0,-1.26 1.41,-2.28 3.16,-2.28s3.17,1 3.17,2.28s-1.42,2.28 -3.17,2.28s-3.16,-1.02 -3.16,-2.28z" class="cls-7"/>
   <path id="svg_168" d="m154.75002,590.69001c0,-1.23 1.38,-2.23 3.09,-2.23s3.08,1 3.08,2.23s-1.38,2.23 -3.08,2.23s-3.09,-1 -3.09,-2.23z" class="cls-7"/>
   <path id="svg_169" d="m255.09002,596.56001c0,-0.55 0.62,-1 1.37,-1s1.38,0.45 1.38,1s-0.62,1 -1.38,1s-1.37,-0.46 -1.37,-1z" class="cls-7"/>
   <path id="svg_170" d="m122.15002,392.29001c0,-0.54 0.61,-1 1.37,-1s1.37,0.45 1.37,1s-0.61,1 -1.37,1s-1.37,-0.5 -1.37,-1z" class="cls-7"/>
   <path id="svg_171" d="m269.50002,519.96001c0,-0.52 0.59,-0.94 1.31,-0.94s1.32,0.42 1.32,0.94s-0.59,1 -1.32,1s-1.31,-0.47 -1.31,-1z" class="cls-7"/>
   <path id="svg_172" d="m228.63002,485.64001c0,-1.22 1.37,-2.2 3.06,-2.2s3.05,1 3.05,2.2s-1.37,2.21 -3.05,2.21s-3.06,-0.99 -3.06,-2.21z" class="cls-7"/>
   <path id="svg_173" d="m166.83002,425.80001c0,-1.08 1.22,-2 2.71,-2s2.7,0.87 2.7,2s-1.21,2 -2.7,2s-2.71,-0.92 -2.71,-2z" class="cls-7"/>
   <path id="svg_174" d="m168.71002,381.49001c0,-0.61 0.68,-1.1 1.51,-1.1s1.52,0.49 1.52,1.1s-0.68,1.09 -1.52,1.09s-1.51,-0.49 -1.51,-1.09z" class="cls-7"/>
   <path id="svg_175" d="m371.15002,678.97001c0,-1.26 1.41,-2.28 3.16,-2.28s3.15,1 3.15,2.28s-1.41,2.27 -3.15,2.27s-3.16,-1.02 -3.16,-2.27z" class="cls-7"/>
   <path id="svg_176" d="m482.83002,546.34001c0,-1.26 1.41,-2.28 3.15,-2.28s3.16,1 3.16,2.28s-1.41,2.28 -3.16,2.28s-3.15,-1.02 -3.15,-2.28z" class="cls-7"/>
   <path id="svg_177" d="m195.63002,329.44001c0,-0.44 0.49,-0.79 1.09,-0.79s1.09,0.35 1.09,0.79s-0.49,0.79 -1.09,0.79s-1.09,-0.36 -1.09,-0.79z" class="cls-7"/>
   <path id="svg_178" d="m281.63002,362.89001c0,-1 1.08,-1.73 2.4,-1.73s2.4,0.78 2.4,1.73s-1.08,1.73 -2.4,1.73s-2.4,-0.77 -2.4,-1.73z" class="cls-7"/>
   <path id="svg_179" d="m386.30002,-91.18999c0,-1.16 1.3,-2.1 2.91,-2.1s2.91,0.94 2.91,2.1s-1.3,2.1 -2.91,2.1s-2.91,-0.94 -2.91,-2.1z" class="cls-7"/>
   <path id="svg_180" d="m488.63002,-80.56999c0,-0.42 0.47,-0.76 1,-0.76s1,0.34 1,0.76s-0.47,0.75 -1,0.75s-1,-0.34 -1,-0.75z" class="cls-7"/>
   <path id="svg_181" d="m445.19002,-28.86999c0,-0.8 0.9,-1.45 2,-1.45s2,0.65 2,1.45s-0.9,1.45 -2,1.45s-2,-0.65 -2,-1.45z" class="cls-7"/>
   <path id="svg_182" d="m505.73002,-3.78999c0,-0.39 0.44,-0.71 1,-0.71s1,0.32 1,0.71s-0.44,0.71 -1,0.71s-1,-0.32 -1,-0.71z" class="cls-7"/>
   <path id="svg_183" d="m422.91002,21.77001c0,-0.81 0.92,-1.47 2,-1.47s2,0.66 2,1.47s-0.92,1.47 -2,1.47s-2,-0.66 -2,-1.47z" class="cls-7"/>
   <path id="svg_184" d="m403.53002,53.43001c0,-1 1.13,-1.81 2.51,-1.81s2.52,0.81 2.52,1.81s-1.13,1.86 -2.52,1.86s-2.51,-0.86 -2.51,-1.86z" class="cls-7"/>
   <path id="svg_185" d="m333.07002,118.03001c0,-1.1 1.23,-2 2.75,-2s2.75,0.89 2.75,2s-1.23,2 -2.75,2s-2.75,-0.91 -2.75,-2z" class="cls-7"/>
   <path id="svg_186" d="m431.63002,145.29001c0,-0.25 0.28,-0.46 0.64,-0.46s0.64,0.21 0.64,0.46s-0.29,0.46 -0.64,0.46s-0.64,-0.21 -0.64,-0.46z" class="cls-7"/>
   <path id="svg_187" d="m525.86002,191.89001c0,-0.91 1,-1.64 2.28,-1.64s2.27,0.73 2.27,1.64s-1,1.64 -2.27,1.64s-2.28,-0.73 -2.28,-1.64z" class="cls-7"/>
   <path id="svg_188" d="m334.57002,209.85001c0,-0.55 0.62,-1 1.38,-1s1.39,0.45 1.39,1s-0.62,1 -1.39,1s-1.38,-0.45 -1.38,-1z" class="cls-7"/>
   <path id="svg_189" d="m370.41002,200.46001c0,-1.07 1.21,-1.95 2.7,-1.95s2.7,0.88 2.7,1.95s-1.21,1.95 -2.7,1.95s-2.7,-0.87 -2.7,-1.95z" class="cls-7"/>
   <path id="svg_190" d="m529.03002,-46.49999c0,-1.27 1.43,-2.31 3.19,-2.31s3.2,1 3.2,2.31s-1.43,2.3 -3.2,2.3s-3.19,-1.03 -3.19,-2.3z" class="cls-7"/>
   <path id="svg_191" d="m534.63002,15.53001c0,-0.94 1.06,-1.7 2.37,-1.7s2.36,0.76 2.36,1.7s-1.06,1.71 -2.36,1.71s-2.37,-0.77 -2.37,-1.71z" class="cls-7"/>
   <path id="svg_192" d="m624.46002,126.22001c0,-0.3 0.34,-0.54 0.75,-0.54s0.76,0.24 0.76,0.54s-0.34,0.54 -0.76,0.54s-0.75,-0.24 -0.75,-0.54z" class="cls-7"/>
   <path id="svg_193" d="m601.43002,72.83001c0,-1 1.14,-1.84 2.54,-1.84s2.55,0.83 2.55,1.84s-1.14,1.84 -2.55,1.84s-2.54,-0.82 -2.54,-1.84z" class="cls-7"/>
   <path id="svg_194" d="m672.89002,73.59001c0,-1.28 1.44,-2.31 3.21,-2.31s3.21,1 3.21,2.31s-1.44,2.31 -3.21,2.31s-3.21,-1.03 -3.21,-2.31z" class="cls-7"/>
   <path id="svg_195" d="m679.77002,-5.02999c0,-0.54 0.61,-1 1.37,-1s1.36,0.44 1.36,1s-0.61,1 -1.36,1s-1.37,-0.46 -1.37,-1z" class="cls-7"/>
   <path id="svg_196" d="m665.57002,-23.02999c0,-0.84 0.94,-1.52 2.09,-1.52s2.1,0.68 2.1,1.52s-0.94,1.51 -2.1,1.51s-2.09,-0.68 -2.09,-1.51z" class="cls-7"/>
   <path id="svg_197" d="m662.04002,27.71001c0,-0.76 0.86,-1.38 1.91,-1.38s1.92,0.62 1.92,1.38s-0.86,1.38 -1.92,1.38s-1.91,-0.62 -1.91,-1.38z" class="cls-7"/>
   <path id="svg_198" d="m616.93002,50.64001c0,-0.85 1,-1.54 2.13,-1.54s2.13,0.69 2.13,1.54s-1,1.54 -2.13,1.54s-2.13,-0.69 -2.13,-1.54z" class="cls-7"/>
   <path id="svg_199" d="m581.25002,105.57001c0,-1.18 1.33,-2.14 3,-2.14s3,1 3,2.14s-1.32,2.14 -3,2.14s-3,-0.96 -3,-2.14z" class="cls-7"/>
   <path id="svg_200" d="m503.31002,134.29001c0,-1 1.15,-1.85 2.57,-1.85s2.57,0.83 2.57,1.85s-1.15,1.86 -2.57,1.86s-2.57,-0.86 -2.57,-1.86z" class="cls-7"/>
   <path id="svg_201" d="m472.04002,182.71001c0,-0.39 0.44,-0.71 1,-0.71s1,0.32 1,0.71s-0.44,0.7 -1,0.7s-1,-0.31 -1,-0.7z" class="cls-7"/>
   <path id="svg_202" d="m600.92002,228.73001c0,-0.51 0.57,-0.92 1.27,-0.92s1.27,0.41 1.27,0.92s-0.57,0.91 -1.27,0.91s-1.27,-0.41 -1.27,-0.91z" class="cls-7"/>
   <path id="svg_203" d="m588.57002,180.78001c0,-1.26 1.41,-2.27 3.15,-2.27s3.15,1 3.15,2.27s-1.41,2.28 -3.15,2.28s-3.15,-1.02 -3.15,-2.28z" class="cls-7"/>
   <path id="svg_204" d="m607.71002,143.53001c0,-0.42 0.48,-0.76 1.06,-0.76s1.06,0.34 1.06,0.76s-0.47,0.77 -1.06,0.77s-1.06,-0.35 -1.06,-0.77z" class="cls-7"/>
   <path id="svg_205" d="m576.94002,81.23001c0,-1.21 1.36,-2.19 3,-2.19s3,1 3,2.19s-1.35,2.19 -3,2.19s-3,-0.98 -3,-2.19z" class="cls-7"/>
   <path id="svg_206" d="m667.29002,165.12001c0,-0.28 0.32,-0.51 0.71,-0.51s0.71,0.23 0.71,0.51s-0.32,0.52 -0.71,0.52s-0.71,-0.23 -0.71,-0.52z" class="cls-7"/>
   <path id="svg_207" d="m634.92002,174.60001c0,-0.51 0.57,-0.93 1.28,-0.93s1.29,0.42 1.29,0.93s-0.58,0.93 -1.29,0.93s-1.28,-0.42 -1.28,-0.93z" class="cls-7"/>
   <path id="svg_208" d="m504.45002,179.29001c0,-0.54 0.61,-1 1.36,-1s1.36,0.44 1.36,1s-0.61,1 -1.36,1s-1.36,-0.46 -1.36,-1z" class="cls-7"/>
   <path id="svg_209" d="m266.79002,-72.77999c0,-1.27 1.44,-2.31 3.21,-2.31s3.2,1 3.2,2.31s-1.43,2.32 -3.2,2.32s-3.21,-1.04 -3.21,-2.32z" class="cls-7"/>
   <path id="svg_210" d="m212.57002,-86.59999c0,-0.72 0.81,-1.31 1.81,-1.31s1.82,0.59 1.82,1.31s-0.81,1.32 -1.82,1.32s-1.81,-0.59 -1.81,-1.32z" class="cls-7"/>
   <path id="svg_211" d="m178.01002,-48.45999c0,-0.41 0.46,-0.75 1,-0.75s1,0.34 1,0.75s-0.46,0.76 -1,0.76s-1,-0.34 -1,-0.76z" class="cls-7"/>
   <path id="svg_212" d="m264.63002,-14.25999c0,-0.46 0.51,-0.83 1.14,-0.83s1.15,0.37 1.15,0.83s-0.52,0.82 -1.15,0.82s-1.14,-0.37 -1.14,-0.82z" class="cls-7"/>
   <path id="svg_213" d="m198.95002,34.29001c0,-1 1.08,-1.74 2.41,-1.74s2.41,0.78 2.41,1.74s-1.08,1.74 -2.41,1.74s-2.41,-0.74 -2.41,-1.74z" class="cls-7"/>
   <path id="svg_214" d="m229.92002,75.67001c0,-0.31 0.35,-0.57 0.78,-0.57s0.78,0.26 0.78,0.57s-0.35,0.56 -0.78,0.56s-0.78,-0.25 -0.78,-0.56z" class="cls-7"/>
   <path id="svg_215" d="m253.79002,129.12001c0,-0.31 0.36,-0.57 0.8,-0.57s0.79,0.26 0.79,0.57s-0.35,0.58 -0.79,0.58s-0.8,-0.26 -0.8,-0.58z" class="cls-7"/>
   <path id="svg_216" d="m348.45002,178.48001c0,-1.16 1.31,-2.11 2.92,-2.11s2.92,0.95 2.92,2.11s-1.31,2.11 -2.92,2.11s-2.92,-0.95 -2.92,-2.11z" class="cls-7"/>
   <path id="svg_217" d="m131.93002,10.46001c0,-0.49 0.55,-0.89 1.23,-0.89s1.22,0.4 1.22,0.89s-0.55,0.88 -1.22,0.88s-1.23,-0.4 -1.23,-0.88z" class="cls-7"/>
   <path id="svg_218" d="m128.30002,-72.77999c0,-1 1.09,-1.75 2.43,-1.75s2.43,0.79 2.43,1.75s-1.09,1.76 -2.43,1.76s-2.43,-0.79 -2.43,-1.76z" class="cls-7"/>
   <path id="svg_219" d="m159.43002,-38.01999c0,-0.65 0.72,-1.17 1.62,-1.17s1.63,0.52 1.63,1.17s-0.73,1.18 -1.63,1.18s-1.62,-0.53 -1.62,-1.18z" class="cls-7"/>
   <path id="svg_220" d="m230.13002,-65.33999c0,-0.33 0.38,-0.61 0.84,-0.61s0.85,0.28 0.85,0.61s-0.38,0.61 -0.85,0.61s-0.84,-0.27 -0.84,-0.61z" class="cls-7"/>
   <ellipse id="svg_221" ry="1.47" rx="2.04" cy="21.03001" cx="171.98002" class="cls-7"/>
   <path id="svg_222" d="m282.17002,22.94001c0,-0.43 0.49,-0.78 1.09,-0.78s1.08,0.35 1.08,0.78s-0.48,0.78 -1.08,0.78s-1.09,-0.35 -1.09,-0.78z" class="cls-7"/>
   <ellipse id="svg_223" ry="0.98" rx="1.36" cy="67.85001" cx="368.62002" class="cls-7"/>
   <path id="svg_224" d="m354.12002,107.19001c0,-0.59 0.67,-1.08 1.5,-1.08s1.49,0.49 1.49,1.08s-0.67,1.1 -1.48,1.1s-1.51,-0.5 -1.51,-1.1z" class="cls-7"/>
   <path id="svg_225" d="m355.77002,140.77001c0,-0.44 0.49,-0.8 1.11,-0.8s1.11,0.36 1.11,0.8s-0.5,0.8 -1.11,0.8s-1.11,-0.36 -1.11,-0.8z" class="cls-7"/>
   <path id="svg_226" d="m496.88002,47.13001c0.74,0 1.35,0.44 1.35,1s-0.61,1 -1.35,1s-1.36,-0.44 -1.36,-1s0.61,-1 1.36,-1z" class="cls-11"/>
   <path id="svg_227" d="m478.68002,43.57001c0.68,0 1.24,0.4 1.24,0.89s-0.56,0.89 -1.24,0.89s-1.23,-0.4 -1.23,-0.89s0.55,-0.89 1.23,-0.89z" class="cls-11"/>
   <path id="svg_228" d="m507.92002,50.29001c0.76,0 1.38,0.45 1.38,1s-0.62,1 -1.38,1s-1.38,-0.44 -1.38,-1s0.62,-1 1.38,-1z" class="cls-11"/>
   <path id="svg_229" d="m473.95002,21.72001c0.61,0 1.11,0.36 1.11,0.8s-0.5,0.79 -1.11,0.79s-1.1,-0.36 -1.1,-0.79s0.5,-0.8 1.1,-0.8z" class="cls-11"/>
   <path id="svg_230" d="m457.03002,8.34001c0.72,0 1.3,0.42 1.3,0.94s-0.58,0.94 -1.3,0.94s-1.31,-0.42 -1.31,-0.94s0.59,-0.94 1.31,-0.94z" class="cls-11"/>
   <path id="svg_231" d="m477.09002,4.38001c0.77,0 1.4,0.45 1.4,1s-0.63,1 -1.4,1s-1.4,-0.45 -1.4,-1s0.62,-1 1.4,-1z" class="cls-11"/>
   <path id="svg_232" d="m494.91002,-6.14999c0.87,0 1.57,0.51 1.57,1.13s-0.7,1.14 -1.57,1.14s-1.57,-0.51 -1.57,-1.14s0.7,-1.13 1.57,-1.13z" class="cls-11"/>
   <path id="svg_233" d="m502.23002,-9.27999c0.76,0 1.39,0.45 1.39,1s-0.63,1 -1.39,1s-1.39,-0.45 -1.39,-1s0.62,-1 1.39,-1z" class="cls-11"/>
   <path id="svg_234" d="m500.68002,-27.79999c0.68,0 1.23,0.4 1.23,0.89s-0.55,0.89 -1.23,0.89s-1.23,-0.4 -1.23,-0.89s0.55,-0.89 1.23,-0.89z" class="cls-11"/>
   <path id="svg_235" d="m519.24002,-45.06999c0.74,0 1.33,0.43 1.33,1s-0.59,1 -1.33,1s-1.32,-0.43 -1.32,-1s0.59,-1 1.32,-1z" class="cls-11"/>
   <path id="svg_236" d="m548.41002,-62.97999c0.66,0 1.19,0.39 1.19,0.86s-0.53,0.86 -1.19,0.86s-1.2,-0.38 -1.2,-0.86s0.54,-0.86 1.2,-0.86z" class="cls-11"/>
   <path id="svg_237" d="m547.63002,-72.37999c0.75,0 1.35,0.44 1.35,1s-0.6,1 -1.35,1s-1.34,-0.44 -1.34,-1s0.55,-1 1.34,-1z" class="cls-11"/>
   <path id="svg_238" d="m573.75002,-98.87999c0.85,0 1.54,0.5 1.54,1.12s-0.69,1.11 -1.54,1.11s-1.55,-0.5 -1.55,-1.11s0.69,-1.12 1.55,-1.12z" class="cls-11"/>
   <path id="svg_239" d="m589.04002,-96.70999c0.61,0 1.11,0.36 1.11,0.8s-0.5,0.8 -1.11,0.8s-1.11,-0.36 -1.11,-0.8s0.5,-0.8 1.11,-0.8z" class="cls-11"/>
   <path id="svg_240" d="m608.42002,-63.35999c0.78,0 1.4,0.45 1.4,1s-0.62,1 -1.4,1s-1.39,-0.45 -1.39,-1s0.6,-1 1.39,-1z" class="cls-11"/>
   <path id="svg_241" d="m606.34002,-73.85999c0.78,0 1.42,0.46 1.42,1s-0.64,1 -1.42,1s-1.42,-0.46 -1.42,-1s0.64,-1 1.42,-1z" class="cls-11"/>
   <path id="svg_242" d="m393.39002,512.29001c0.87,0 1.57,0.51 1.57,1.14s-0.7,1.14 -1.57,1.14s-1.58,-0.51 -1.58,-1.14s0.7,-1.14 1.58,-1.14z" class="cls-11"/>
   <path id="svg_243" d="m375.63002,535.00001c0.75,0 1.35,0.44 1.35,1s-0.6,1 -1.35,1s-1.35,-0.43 -1.35,-1s0.6,-1 1.35,-1z" class="cls-11"/>
   <path id="svg_244" d="m418.37002,543.73001c0.67,0 1.22,0.39 1.22,0.87s-0.55,0.88 -1.22,0.88s-1.21,-0.39 -1.21,-0.88s0.54,-0.87 1.21,-0.87z" class="cls-11"/>
   <path id="svg_245" d="m396.83002,561.20001c0.67,0 1.22,0.4 1.22,0.89s-0.55,0.88 -1.22,0.88s-1.23,-0.39 -1.23,-0.88s0.55,-0.89 1.23,-0.89z" class="cls-11"/>
   <path id="svg_246" d="m380.00002,578.53001c0.81,0 1.47,0.48 1.47,1.06s-0.66,1.06 -1.47,1.06s-1.46,-0.47 -1.46,-1.06s0.65,-1.06 1.46,-1.06z" class="cls-11"/>
   <path id="svg_247" d="m383.39002,586.96001c0.64,0 1.16,0.38 1.16,0.84s-0.52,0.85 -1.16,0.85s-1.17,-0.38 -1.17,-0.85s0.53,-0.84 1.17,-0.84z" class="cls-11"/>
   <path id="svg_248" d="m379.74002,611.80001c0.63,0 1.13,0.37 1.13,0.82s-0.5,0.81 -1.13,0.81s-1.12,-0.36 -1.12,-0.81s0.5,-0.82 1.12,-0.82z" class="cls-11"/>
   <path id="svg_249" d="m395.63002,612.66001c0.68,0 1.23,0.4 1.23,0.89s-0.55,0.88 -1.23,0.88s-1.23,-0.39 -1.23,-0.88s0.58,-0.89 1.23,-0.89z" class="cls-11"/>
   <path id="svg_250" d="m432.63002,640.29001c0.7,0 1.27,0.41 1.27,0.91s-0.57,0.91 -1.27,0.91s-1.26,-0.41 -1.26,-0.91s0.55,-0.91 1.26,-0.91z" class="cls-11"/>
   <path id="svg_251" d="m391.86002,647.55001c0.7,0 1.26,0.4 1.26,0.9s-0.56,0.91 -1.26,0.91s-1.25,-0.41 -1.25,-0.91s0.56,-0.9 1.25,-0.9z" class="cls-11"/>
   <path id="svg_252" d="m367.72002,658.22001c0.61,0 1.11,0.35 1.11,0.8s-0.5,0.79 -1.11,0.79s-1.11,-0.35 -1.11,-0.79s0.5,-0.8 1.11,-0.8z" class="cls-11"/>
   <path id="svg_253" d="m350.71002,660.86001c0.86,0 1.55,0.5 1.55,1.12s-0.69,1.12 -1.55,1.12s-1.54,-0.5 -1.54,-1.12s0.69,-1.12 1.54,-1.12z" class="cls-11"/>
   <path id="svg_254" d="m342.38002,678.49001c0.62,0 1.11,0.36 1.11,0.8s-0.49,0.8 -1.11,0.8s-1.11,-0.36 -1.11,-0.8s0.5,-0.8 1.11,-0.8z" class="cls-11"/>
   <path id="svg_255" d="m340.87002,678.37001c0.71,0 1.29,0.42 1.29,0.93s-0.58,0.93 -1.29,0.93s-1.24,-0.41 -1.24,-0.94s0.53,-0.92 1.24,-0.92z" class="cls-11"/>
   <path id="svg_256" d="m334.93002,693.94001c0.85,0 1.54,0.5 1.54,1.12s-0.69,1.11 -1.54,1.11s-1.54,-0.5 -1.54,-1.11s0.69,-1.12 1.54,-1.12z" class="cls-11"/>
   <path id="svg_257" d="m293.25002,674.94001c0.61,0 1.11,0.35 1.11,0.8s-0.5,0.8 -1.11,0.8s-1.11,-0.36 -1.11,-0.8s0.49,-0.8 1.11,-0.8z" class="cls-11"/>
   <path id="svg_258" d="m275.51002,676.70001c0.63,0 1.14,0.37 1.14,0.83s-0.51,0.83 -1.14,0.83s-1.15,-0.37 -1.15,-0.83s0.51,-0.83 1.15,-0.83z" class="cls-11"/>
   <path id="svg_259" d="m289.63002,694.62001c0.7,0 1.26,0.41 1.26,0.91s-0.56,0.91 -1.26,0.91s-1.25,-0.41 -1.25,-0.91s0.52,-0.91 1.25,-0.91z" class="cls-11"/>
   <path id="svg_260" d="m357.63002,-15.24999c0.78,0 1.42,0.45 1.42,1s-0.64,1 -1.42,1s-1.42,-0.46 -1.42,-1s0.63,-1 1.42,-1z" class="cls-11"/>
   <path id="svg_261" d="m350.28002,-15.10999c0.72,0 1.3,0.41 1.3,0.93s-0.58,0.93 -1.3,0.93s-1.29,-0.41 -1.29,-0.93s0.58,-0.93 1.29,-0.93z" class="cls-11"/>
   <path id="svg_262" d="m332.24002,-10.44999c0.83,0 1.5,0.48 1.5,1.08s-0.67,1.08 -1.5,1.08s-1.5,-0.48 -1.5,-1.08s0.67,-1.08 1.5,-1.08z" class="cls-11"/>
   <path id="svg_263" d="m297.16002,-1.31999c0.88,0 1.59,0.51 1.59,1.14s-0.71,1.15 -1.59,1.15s-1.59,-0.52 -1.59,-1.15s0.71,-1.14 1.59,-1.14z" class="cls-11"/>
   <path id="svg_264" d="m303.74002,12.96001c0.79,0 1.43,0.46 1.43,1s-0.64,1 -1.43,1s-1.44,-0.47 -1.44,-1s0.64,-1 1.44,-1z" class="cls-11"/>
   <path id="svg_265" d="m275.63002,25.07001c0.63,0 1.15,0.37 1.15,0.83s-0.52,0.83 -1.15,0.83s-1.15,-0.38 -1.15,-0.83s0.48,-0.83 1.15,-0.83z" class="cls-11"/>
   <path id="svg_266" d="m324.08002,34.99001c0.81,0 1.46,0.47 1.46,1s-0.65,1 -1.46,1s-1.45,-0.47 -1.45,-1s0.65,-1 1.45,-1z" class="cls-11"/>
   <path id="svg_267" d="m318.83002,50.14001c0.63,0 1.15,0.37 1.15,0.83s-0.52,0.82 -1.15,0.82s-1.15,-0.37 -1.15,-0.82s0.52,-0.83 1.15,-0.83z" class="cls-11"/>
   <path id="svg_268" d="m270.78002,68.79001c0.78,0 1.41,0.46 1.41,1s-0.63,1 -1.41,1s-1.42,-0.46 -1.42,-1s0.64,-1 1.42,-1z" class="cls-11"/>
   <path id="svg_269" d="m318.63002,86.56001c0.7,0 1.26,0.4 1.26,0.91s-0.56,0.9 -1.26,0.9s-1.26,-0.4 -1.26,-0.9s0.56,-0.91 1.26,-0.91z" class="cls-11"/>
   <path id="svg_270" d="m281.54002,107.17001c0.76,0 1.37,0.45 1.37,1s-0.61,1 -1.37,1s-1.37,-0.44 -1.37,-1s0.62,-1 1.37,-1z" class="cls-11"/>
   <path id="svg_271" d="m316.46002,113.86001c0.81,0 1.46,0.47 1.46,1.05s-0.65,1 -1.46,1s-1.45,-0.47 -1.45,-1s0.62,-1.05 1.45,-1.05z" class="cls-11"/>
   <path id="svg_272" d="m337.27002,125.54001c0.82,0 1.49,0.48 1.49,1.08s-0.67,1.07 -1.49,1.07s-1.49,-0.48 -1.49,-1.07s0.67,-1.08 1.49,-1.08z" class="cls-11"/>
   <path id="svg_273" d="m319.44002,131.64001c0.86,0 1.56,0.51 1.56,1.13s-0.7,1.12 -1.56,1.12s-1.56,-0.5 -1.56,-1.12s0.69,-1.13 1.56,-1.13z" class="cls-11"/>
   <path id="svg_274" d="m301.63002,152.21001c0.81,0 1.47,0.48 1.47,1.06s-0.64,1.02 -1.47,1.02s-1.46,-0.48 -1.46,-1.06s0.67,-1.02 1.46,-1.02z" class="cls-11"/>
   <path id="svg_275" d="m264.38002,175.35001c0.63,0 1.15,0.37 1.15,0.83s-0.52,0.84 -1.15,0.84s-1.16,-0.38 -1.16,-0.84s0.52,-0.83 1.16,-0.83z" class="cls-11"/>
   <path id="svg_276" d="m267.03002,187.10001c0.74,0 1.33,0.43 1.33,1s-0.59,1 -1.33,1s-1.33,-0.43 -1.33,-1s0.6,-1 1.33,-1z" class="cls-11"/>
   <path id="svg_277" d="m274.34002,214.46001c0.6,0 1.08,0.35 1.08,0.78s-0.48,0.78 -1.08,0.78s-1.09,-0.35 -1.09,-0.78s0.49,-0.78 1.09,-0.78z" class="cls-11"/>
   <path id="svg_278" d="m335.19002,377.52001c0.61,0 1.11,0.36 1.11,0.8s-0.5,0.8 -1.11,0.8s-1.11,-0.36 -1.11,-0.8s0.49,-0.8 1.11,-0.8z" class="cls-11"/>
   <path id="svg_279" d="m291.73002,364.39001c0.87,0 1.57,0.51 1.57,1.14s-0.7,1.13 -1.57,1.13s-1.58,-0.5 -1.58,-1.13s0.71,-1.14 1.58,-1.14z" class="cls-11"/>
   <path id="svg_280" d="m326.40002,347.79001c0.73,0 1.31,0.43 1.31,0.95s-0.58,0.94 -1.31,0.94s-1.3,-0.42 -1.3,-0.94s0.58,-0.95 1.3,-0.95z" class="cls-11"/>
   <path id="svg_281" d="m325.63002,320.29001c0.62,0 1.13,0.37 1.13,0.82s-0.51,0.82 -1.13,0.82s-1.14,-0.36 -1.14,-0.82s0.49,-0.82 1.14,-0.82z" class="cls-11"/>
   <path id="svg_282" d="m300.31002,303.79001c0.75,0 1.35,0.44 1.35,1s-0.6,1 -1.35,1s-1.34,-0.43 -1.34,-1s0.6,-1 1.34,-1z" class="cls-11"/>
   <path id="svg_283" d="m309.44002,278.73001c0.85,0 1.54,0.5 1.54,1.12s-0.69,1.11 -1.54,1.11s-1.54,-0.5 -1.54,-1.11s0.73,-1.12 1.54,-1.12z" class="cls-11"/>
   <path id="svg_284" d="m313.26002,263.37001c0.76,0 1.38,0.45 1.38,1s-0.62,1 -1.38,1s-1.38,-0.44 -1.38,-1s0.62,-1 1.38,-1z" class="cls-11"/>
   <path id="svg_285" d="m270.00002,265.89001c0.76,0 1.39,0.44 1.39,1s-0.63,1 -1.39,1s-1.39,-0.45 -1.39,-1s0.62,-1 1.39,-1z" class="cls-11"/>
   <path id="svg_286" d="m609.17002,504.97001c0.89,0 1.62,0.52 1.62,1.17s-0.73,1.16 -1.62,1.16s-1.62,-0.52 -1.62,-1.16s0.73,-1.17 1.62,-1.17z" class="cls-11"/>
   <path id="svg_287" d="m545.80002,485.83001c1.27,0 2.3,0.74 2.3,1.65s-1,1.66 -2.3,1.66s-2.29,-0.74 -2.29,-1.66s1.03,-1.65 2.29,-1.65z" class="cls-11"/>
   <ellipse id="svg_288" ry="1.38" rx="1.91" cy="463.00001" cx="596.36002" class="cls-11"/>
   <path id="svg_289" d="m595.20002,421.58001c0.91,0 1.66,0.53 1.66,1.19s-0.75,1.2 -1.66,1.2s-1.66,-0.54 -1.66,-1.2s0.74,-1.19 1.66,-1.19z" class="cls-11"/>
   <path id="svg_290" d="m558.32002,397.45001c1.08,0 2,0.63 2,1.41s-0.88,1.41 -2,1.41s-1.95,-0.63 -1.95,-1.41s0.87,-1.41 1.95,-1.41z" class="cls-11"/>
   <path id="svg_291" d="m571.63002,360.91001c1.24,0 2.25,0.72 2.25,1.62s-1,1.62 -2.25,1.62s-2.25,-0.72 -2.25,-1.62s1.01,-1.62 2.25,-1.62z" class="cls-11"/>
   <path id="svg_292" d="m577.20002,338.51001c1.11,0 2,0.65 2,1.45s-0.9,1.45 -2,1.45s-2,-0.65 -2,-1.45s0.89,-1.45 2,-1.45z" class="cls-11"/>
   <path id="svg_293" d="m514.12002,342.17001c1.11,0 2,0.66 2,1.46s-0.91,1.46 -2,1.46s-2,-0.65 -2,-1.46s0.88,-1.46 2,-1.46z" class="cls-11"/>
   <path id="svg_294" d="m209.52002,268.58001c0.9,0 1.62,0.52 1.62,1.16s-0.72,1.17 -1.62,1.17s-1.61,-0.52 -1.61,-1.17s0.72,-1.16 1.61,-1.16z" class="cls-11"/>
   <path id="svg_295" d="m146.16002,249.43001c1.26,0 2.29,0.75 2.29,1.66s-1,1.66 -2.29,1.66s-2.3,-0.75 -2.3,-1.66s1.03,-1.66 2.3,-1.66z" class="cls-11"/>
   <path id="svg_296" d="m196.72002,225.23001c1,0 1.9,0.62 1.9,1.38s-0.85,1.38 -1.9,1.38s-1.91,-0.62 -1.91,-1.38s0.82,-1.38 1.91,-1.38z" class="cls-11"/>
   <path id="svg_297" d="m195.55002,185.18001c0.92,0 1.66,0.54 1.66,1.2s-0.74,1.2 -1.66,1.2s-1.65,-0.54 -1.65,-1.2s0.73,-1.2 1.65,-1.2z" class="cls-11"/>
   <path id="svg_298" d="m158.68002,161.06001c1.08,0 2,0.63 2,1.41s-0.87,1.41 -2,1.41s-2,-0.63 -2,-1.41s0.95,-1.41 2,-1.41z" class="cls-11"/>
   <path id="svg_299" d="m171.98002,124.52001c1.24,0 2.25,0.72 2.25,1.62s-1,1.62 -2.25,1.62s-2.24,-0.73 -2.24,-1.62s1,-1.62 2.24,-1.62z" class="cls-11"/>
   <path id="svg_300" d="m177.55002,102.12001c1.11,0 2,0.65 2,1.45s-0.9,1.45 -2,1.45s-2,-0.65 -2,-1.45s0.89,-1.45 2,-1.45z" class="cls-11"/>
   <path id="svg_301" d="m114.47002,105.78001c1.12,0 2,0.65 2,1.46s-0.9,1.46 -2,1.46s-2,-0.65 -2,-1.46s0.88,-1.46 2,-1.46z" class="cls-11"/>
   <path id="svg_302" d="m502.33002,47.88001c0.65,0 1.18,0.38 1.18,0.85s-0.53,0.85 -1.18,0.85s-1.17,-0.38 -1.17,-0.85s0.52,-0.85 1.17,-0.85z" class="cls-11"/>
   <path id="svg_303" d="m511.86002,56.44001c0.82,0 1.49,0.49 1.49,1.08s-0.67,1.08 -1.49,1.08s-1.5,-0.48 -1.5,-1.08s0.67,-1.08 1.5,-1.08z" class="cls-11"/>
   <path id="svg_304" d="m478.38002,79.98001c0.9,0 1.63,0.52 1.63,1.17s-0.73,1.17 -1.63,1.17s-1.62,-0.52 -1.62,-1.17s0.73,-1.17 1.62,-1.17z" class="cls-11"/>
   <path id="svg_305" d="m484.70002,85.82001c0.75,0 1.36,0.44 1.36,1s-0.61,1 -1.36,1s-1.36,-0.45 -1.36,-1s0.6,-1 1.36,-1z" class="cls-11"/>
   <path id="svg_306" d="m459.63002,104.51001c0.65,0 1.18,0.39 1.18,0.86s-0.53,0.85 -1.18,0.85s-1.18,-0.38 -1.18,-0.85s0.55,-0.86 1.18,-0.86z" class="cls-11"/>
   <path id="svg_307" d="m471.74002,105.42001c0.87,0 1.57,0.51 1.57,1.14s-0.7,1.13 -1.57,1.13s-1.58,-0.51 -1.58,-1.13s0.7,-1.14 1.58,-1.14z" class="cls-11"/>
   <path id="svg_308" d="m498.24002,112.41001c0.81,0 1.47,0.48 1.47,1.06s-0.66,1.06 -1.47,1.06s-1.47,-0.48 -1.47,-1.06s0.66,-1.06 1.47,-1.06z" class="cls-11"/>
   <path id="svg_309" d="m461.78002,122.48001c0.78,0 1.42,0.46 1.42,1s-0.64,1 -1.42,1s-1.43,-0.46 -1.43,-1s0.64,-1 1.43,-1z" class="cls-11"/>
   <path id="svg_310" d="m495.86002,149.00001c0.87,0 1.57,0.51 1.57,1.14s-0.7,1.13 -1.57,1.13s-1.57,-0.51 -1.57,-1.13s0.7,-1.14 1.57,-1.14z" class="cls-11"/>
   <path id="svg_311" d="m501.88002,150.56001c0.72,0 1.31,0.42 1.31,0.94s-0.59,0.94 -1.31,0.94s-1.31,-0.42 -1.31,-0.94s0.59,-0.94 1.31,-0.94z" class="cls-11"/>
   <path id="svg_312" d="m534.81002,175.21001c0.77,0 1.39,0.45 1.39,1s-0.62,1 -1.39,1s-1.39,-0.46 -1.39,-1s0.62,-1 1.39,-1z" class="cls-11"/>
   <path id="svg_313" d="m510.27002,197.20001c0.66,0 1.2,0.39 1.2,0.87s-0.54,0.87 -1.2,0.87s-1.21,-0.39 -1.21,-0.87s0.57,-0.87 1.21,-0.87z" class="cls-11"/>
   <path id="svg_314" d="m519.79002,210.71001c0.71,0 1.29,0.42 1.29,0.93s-0.58,0.93 -1.29,0.93s-1.29,-0.42 -1.29,-0.93s0.58,-0.93 1.29,-0.93z" class="cls-11"/>
   <path id="svg_315" d="m510.42002,238.37001c0.65,0 1.18,0.38 1.18,0.85s-0.53,0.85 -1.18,0.85s-1.19,-0.38 -1.19,-0.85s0.53,-0.85 1.19,-0.85z" class="cls-11"/>
   <path id="svg_316" d="m471.08002,263.75001c0.8,0 1.44,0.47 1.44,1s-0.64,1 -1.44,1s-1.43,-0.47 -1.43,-1s0.64,-1 1.43,-1z" class="cls-11"/>
   <path id="svg_317" d="m522.95002,270.83001c0.83,0 1.51,0.49 1.51,1.09s-0.68,1.08 -1.51,1.08s-1.5,-0.48 -1.5,-1.08s0.67,-1.09 1.5,-1.09z" class="cls-11"/>
   <path id="svg_318" d="m512.30002,277.96001c0.66,0 1.2,0.39 1.2,0.87s-0.54,0.87 -1.2,0.87s-1.21,-0.39 -1.21,-0.87s0.54,-0.87 1.21,-0.87z" class="cls-11"/>
   <path id="svg_319" d="m473.17002,280.35001c0.76,0 1.37,0.44 1.37,1s-0.61,1 -1.37,1s-1.37,-0.44 -1.37,-1s0.62,-1 1.37,-1z" class="cls-11"/>
   <path id="svg_320" d="m286.35002,433.92001c0.81,0 1.46,0.48 1.46,1.06s-0.65,1 -1.46,1s-1.46,-0.47 -1.46,-1s0.65,-1.06 1.46,-1.06z" class="cls-11"/>
   <path id="svg_321" d="m324.26002,409.54001c0.62,0 1.12,0.36 1.12,0.81s-0.5,0.8 -1.12,0.8s-1.11,-0.36 -1.11,-0.8s0.48,-0.81 1.11,-0.81z" class="cls-11"/>
   <path id="svg_322" d="m281.34002,407.37001c0.65,0 1.17,0.37 1.17,0.84s-0.52,0.84 -1.17,0.84s-1.17,-0.38 -1.17,-0.84s0.53,-0.84 1.17,-0.84z" class="cls-11"/>
   <path id="svg_323" d="m338.90002,385.36001c0.75,0 1.37,0.44 1.37,1s-0.62,1 -1.37,1s-1.36,-0.44 -1.36,-1s0.61,-1 1.36,-1z" class="cls-11"/>
   <path id="svg_324" d="m287.44002,368.29001c0.87,0 1.57,0.5 1.57,1.13s-0.7,1.13 -1.57,1.13s-1.56,-0.5 -1.56,-1.13s0.75,-1.13 1.56,-1.13z" class="cls-11"/>
   <path id="svg_325" d="m316.32002,342.04001c0.85,0 1.54,0.5 1.54,1.11s-0.69,1.12 -1.54,1.12s-1.55,-0.5 -1.55,-1.12s0.69,-1.11 1.55,-1.11z" class="cls-11"/>
   <path id="svg_326" d="m303.11002,338.51001c0.81,0 1.47,0.48 1.47,1.07s-0.66,1.06 -1.47,1.06s-1.48,-0.48 -1.48,-1.06s0.66,-1.07 1.48,-1.07z" class="cls-11"/>
   <path id="svg_327" d="m303.88002,320.00001c0.64,0 1.15,0.38 1.15,0.84s-0.51,0.84 -1.15,0.84s-1.16,-0.38 -1.16,-0.84s0.51,-0.84 1.16,-0.84z" class="cls-11"/>
   <path id="svg_328" d="m327.63002,303.36001c0.76,0 1.38,0.44 1.38,1s-0.62,1 -1.38,1s-1.38,-0.45 -1.38,-1s0.65,-1 1.38,-1z" class="cls-11"/>
   <path id="svg_329" d="m331.25002,302.60001c0.78,0 1.41,0.46 1.41,1s-0.63,1 -1.41,1s-1.41,-0.46 -1.41,-1s0.63,-1 1.41,-1z" class="cls-11"/>
   <path id="svg_330" d="m293.37002,284.66001c0.7,0 1.26,0.41 1.26,0.91s-0.56,0.91 -1.26,0.91s-1.26,-0.41 -1.26,-0.91s0.57,-0.91 1.26,-0.91z" class="cls-11"/>
   <path id="svg_331" d="m460.18002,316.29001c0.79,0.31 1.07,1 0.64,1.58a2,2 0 0 1 -2.2,0.46c-0.78,-0.31 -1.07,-1 -0.64,-1.59a2,2 0 0 1 2.2,-0.45z" class="cls-11"/>
   <path id="svg_332" d="m443.50002,315.75001c0.67,0.27 0.91,0.88 0.54,1.36a1.71,1.71 0 0 1 -1.89,0.4c-0.67,-0.27 -0.92,-0.88 -0.54,-1.37a1.7,1.7 0 0 1 1.89,-0.39z" class="cls-11"/>
   <path id="svg_333" d="m472.94002,333.11001c0.55,0.22 0.75,0.71 0.45,1.11a1.41,1.41 0 0 1 -1.54,0.32c-0.54,-0.22 -0.74,-0.72 -0.44,-1.11a1.38,1.38 0 0 1 1.53,-0.32z" class="cls-11"/>
   <path id="svg_334" d="m445.33002,335.96001c0.76,0.31 1,1 0.62,1.55a1.92,1.92 0 0 1 -2.15,0.45c-0.77,-0.3 -1,-1 -0.62,-1.55a1.94,1.94 0 0 1 2.15,-0.45z" class="cls-11"/>
   <path id="svg_335" d="m445.18002,342.73001c0.55,0.23 0.76,0.73 0.45,1.13a1.41,1.41 0 0 1 -1.57,0.33c-0.56,-0.22 -0.76,-0.73 -0.45,-1.13a1.42,1.42 0 0 1 1.57,-0.33z" class="cls-11"/>
   <path id="svg_336" d="m449.00002,370.77001c0.68,0.27 0.93,0.88 0.55,1.37a1.7,1.7 0 0 1 -1.9,0.4c-0.67,-0.27 -0.92,-0.89 -0.55,-1.38a1.73,1.73 0 0 1 1.9,-0.39z" class="cls-11"/>
   <path id="svg_337" d="m439.69002,387.10001c0.67,0.27 0.92,0.89 0.55,1.38a1.72,1.72 0 0 1 -1.91,0.4c-0.68,-0.27 -0.93,-0.89 -0.55,-1.38a1.72,1.72 0 0 1 1.91,-0.4z" class="cls-11"/>
   <path id="svg_338" d="m408.42002,398.88001c0.6,0.24 0.82,0.79 0.49,1.22a1.53,1.53 0 0 1 -1.7,0.35c-0.6,-0.24 -0.82,-0.78 -0.49,-1.22a1.54,1.54 0 0 1 1.7,-0.35z" class="cls-11"/>
   <path id="svg_339" d="m376.05002,384.15001c0.59,0.23 0.8,0.77 0.48,1.19a1.51,1.51 0 0 1 -1.65,0.35c-0.59,-0.24 -0.8,-0.77 -0.48,-1.2a1.49,1.49 0 0 1 1.65,-0.34z" class="cls-11"/>
   <path id="svg_340" d="m418.33002,411.39001c0.72,0.28 1,0.93 0.58,1.45a1.81,1.81 0 0 1 -2,0.42c-0.71,-0.29 -1,-0.94 -0.58,-1.45a1.8,1.8 0 0 1 2,-0.42z" class="cls-11"/>
   <path id="svg_341" d="m370.11002,388.78001c0.67,0.27 0.91,0.88 0.54,1.36a1.7,1.7 0 0 1 -1.87,0.39c-0.67,-0.27 -0.91,-0.87 -0.55,-1.35a1.69,1.69 0 0 1 1.88,-0.4z" class="cls-11"/>
   <path id="svg_342" d="m400.99002,436.84001c0.63,0.25 0.86,0.82 0.51,1.28a1.59,1.59 0 0 1 -1.76,0.36c-0.63,-0.25 -0.86,-0.82 -0.51,-1.27a1.58,1.58 0 0 1 1.76,-0.37z" class="cls-11"/>
   <path id="svg_343" d="m362.52002,438.57001c0.69,0.27 0.94,0.9 0.56,1.4a1.76,1.76 0 0 1 -1.95,0.41c-0.69,-0.28 -0.94,-0.91 -0.56,-1.41a1.75,1.75 0 0 1 1.95,-0.4z" class="cls-11"/>
   <path id="svg_344" d="m334.38002,455.78001c0.66,0.26 0.9,0.86 0.54,1.34a1.68,1.68 0 0 1 -1.86,0.39c-0.66,-0.27 -0.9,-0.87 -0.53,-1.34a1.66,1.66 0 0 1 1.85,-0.39z" class="cls-11"/>
   <path id="svg_345" d="m324.13002,486.89001c0.76,0.3 1,1 0.61,1.53a1.92,1.92 0 0 1 -2.12,0.44c-0.76,-0.3 -1,-1 -0.62,-1.53a1.9,1.9 0 0 1 2.13,-0.44z" class="cls-11"/>
   <path id="svg_346" d="m306.75002,483.29001c0.63,0.25 0.86,0.83 0.51,1.28a1.57,1.57 0 0 1 -1.77,0.37c-0.64,-0.25 -0.87,-0.82 -0.52,-1.28a1.6,1.6 0 0 1 1.78,-0.37z" class="cls-11"/>
   <path id="svg_347" d="m280.85002,472.79001c0.65,0.26 0.89,0.85 0.53,1.32a1.64,1.64 0 0 1 -1.84,0.39c-0.65,-0.26 -0.89,-0.86 -0.53,-1.33a1.64,1.64 0 0 1 1.84,-0.38z" class="cls-11"/>
   <path id="svg_348" d="m272.19002,505.62001c0.59,0.23 0.81,0.77 0.48,1.19a1.48,1.48 0 0 1 -1.65,0.35c-0.59,-0.24 -0.81,-0.77 -0.48,-1.2a1.48,1.48 0 0 1 1.65,-0.34z" class="cls-11"/>
   <path id="svg_349" d="m247.55002,509.34001c0.69,0.27 1,0.9 0.56,1.41a1.78,1.78 0 0 1 -2,0.41c-0.69,-0.28 -0.94,-0.91 -0.56,-1.42a1.76,1.76 0 0 1 2,-0.4z" class="cls-11"/>
   <path id="svg_350" d="m212.70002,507.29001c0.6,0.23 0.82,0.78 0.49,1.21a1.53,1.53 0 0 1 -1.69,0.35c-0.6,-0.24 -0.82,-0.78 -0.48,-1.21a1.49,1.49 0 0 1 1.68,-0.35z" class="cls-11"/>
   <path id="svg_351" d="m244.25002,544.88001c0.71,0.29 1,0.93 0.58,1.45a1.81,1.81 0 0 1 -2,0.42c-0.71,-0.29 -1,-0.93 -0.58,-1.45a1.82,1.82 0 0 1 2,-0.42z" class="cls-11"/>
   <path id="svg_352" d="m218.48002,562.84001c0.76,0.3 1,1 0.62,1.55a1.93,1.93 0 0 1 -2.15,0.44c-0.76,-0.3 -1,-1 -0.62,-1.54a1.94,1.94 0 0 1 2.15,-0.45z" class="cls-11"/>
   <path id="svg_353" d="m170.92002,560.01001c0.64,0.25 0.87,0.83 0.52,1.29a1.6,1.6 0 0 1 -1.78,0.37c-0.64,-0.25 -0.87,-0.83 -0.52,-1.29a1.6,1.6 0 0 1 1.78,-0.37z" class="cls-11"/>
   <path id="svg_354" d="m195.82002,580.96001c0.62,0.25 0.84,0.81 0.5,1.25a1.57,1.57 0 0 1 -1.74,0.37c-0.62,-0.25 -0.84,-0.81 -0.5,-1.26a1.55,1.55 0 0 1 1.74,-0.36z" class="cls-11"/>
   <path id="svg_355" d="m227.83002,589.29001c0.71,0.29 1,0.93 0.58,1.45a1.79,1.79 0 0 1 -2,0.41c-0.71,-0.28 -1,-0.93 -0.58,-1.44a1.8,1.8 0 0 1 2,-0.42z" class="cls-11"/>
   <path id="svg_356" d="m224.33002,604.51001c0.61,0.25 0.83,0.8 0.5,1.24a1.56,1.56 0 0 1 -1.72,0.36c-0.61,-0.24 -0.83,-0.8 -0.5,-1.24a1.56,1.56 0 0 1 1.72,-0.36z" class="cls-11"/>
   <path id="svg_357" d="m262.31002,598.80001c0.62,0.25 0.85,0.82 0.5,1.27a1.58,1.58 0 0 1 -1.76,0.37c-0.63,-0.25 -0.86,-0.82 -0.51,-1.28a1.6,1.6 0 0 1 1.77,-0.36z" class="cls-11"/>
   <path id="svg_358" d="m265.38002,617.97001c0.69,0.27 0.93,0.89 0.56,1.39a1.76,1.76 0 0 1 -1.93,0.4c-0.69,-0.28 -0.94,-0.9 -0.56,-1.39a1.72,1.72 0 0 1 1.93,-0.4z" class="cls-11"/>
   <path id="svg_359" d="m269.39002,630.17001c0.58,0.23 0.79,0.75 0.47,1.17a1.47,1.47 0 0 1 -1.63,0.34c-0.58,-0.23 -0.79,-0.76 -0.47,-1.17a1.45,1.45 0 0 1 1.63,-0.34z" class="cls-11"/>
   <path id="svg_360" d="m295.63002,628.53001c0.62,0.24 0.85,0.81 0.51,1.26a1.6,1.6 0 0 1 -1.76,0.37c-0.62,-0.25 -0.85,-0.82 -0.51,-1.27a1.59,1.59 0 0 1 1.76,-0.36z" class="cls-11"/>
   <path id="svg_361" d="m322.28002,619.99001c0.64,0.26 0.88,0.84 0.52,1.3a1.62,1.62 0 0 1 -1.8,0.38c-0.64,-0.26 -0.88,-0.84 -0.52,-1.3a1.62,1.62 0 0 1 1.8,-0.38z" class="cls-11"/>
   <path id="svg_362" d="m349.90002,644.68001c0.57,0.23 0.78,0.75 0.46,1.17a1.45,1.45 0 0 1 -1.62,0.34c-0.57,-0.23 -0.78,-0.76 -0.46,-1.17a1.45,1.45 0 0 1 1.62,-0.34z" class="cls-11"/>
   <path id="svg_363" d="m378.55002,646.29001c0.74,0.3 1,1 0.6,1.52a1.9,1.9 0 0 1 -2.1,0.44c-0.75,-0.3 -1,-1 -0.61,-1.52a1.9,1.9 0 0 1 2.11,-0.44z" class="cls-11"/>
   <path id="svg_364" d="m392.86002,643.22001c0.69,0.27 0.94,0.9 0.56,1.4a1.73,1.73 0 0 1 -1.94,0.4c-0.69,-0.27 -0.94,-0.9 -0.56,-1.4a1.77,1.77 0 0 1 1.94,-0.4z" class="cls-11"/>
   <path id="svg_365" d="m410.28002,641.18001c0.57,0.22 0.78,0.74 0.46,1.16a1.45,1.45 0 0 1 -1.61,0.33c-0.57,-0.22 -0.78,-0.74 -0.46,-1.16a1.45,1.45 0 0 1 1.61,-0.33z" class="cls-11"/>
   <path id="svg_366" d="m444.56002,654.29001c0.59,0.24 0.81,0.78 0.48,1.21a1.52,1.52 0 0 1 -1.67,0.35c-0.6,-0.24 -0.82,-0.78 -0.49,-1.21a1.51,1.51 0 0 1 1.68,-0.35z" class="cls-11"/>
   <path id="svg_367" d="m319.76002,687.05001c0.84,0 1.53,0.5 1.53,1.11s-0.66,1.13 -1.53,1.13s-1.53,-0.5 -1.53,-1.11s0.68,-1.13 1.53,-1.13z" class="cls-11"/>
   <path id="svg_368" d="m113.44002,561.76001c0.85,0 1.54,0.5 1.54,1.11s-0.69,1.1 -1.54,1.1s-1.53,-0.49 -1.53,-1.1s0.72,-1.11 1.53,-1.11z" class="cls-11"/>
   <path id="svg_369" d="m282.63002,661.42001c0.76,0 1.38,0.45 1.38,1s-0.62,1 -1.38,1s-1.39,-0.45 -1.39,-1s0.66,-1 1.39,-1z" class="cls-11"/>
   <path id="svg_370" d="m573.52002,674.93001c0.76,0 1.37,0.45 1.37,1s-0.61,1 -1.37,1s-1.39,-0.44 -1.39,-1s0.62,-1 1.39,-1z" class="cls-11"/>
   <path id="svg_371" d="m251.15002,677.19001c0.68,0 1.23,0.4 1.23,0.89s-0.55,0.89 -1.23,0.89s-1.23,-0.4 -1.23,-0.89s0.55,-0.89 1.23,-0.89z" class="cls-11"/>
   <path id="svg_372" d="m588.63002,646.77001c0.67,0 1.22,0.4 1.22,0.89s-0.55,0.88 -1.22,0.88s-1.23,-0.39 -1.23,-0.88s0.5,-0.89 1.23,-0.89z" class="cls-11"/>
   <path id="svg_373" d="m224.54002,686.93001c0.79,0 1.44,0.46 1.44,1s-0.65,1 -1.44,1s-1.44,-0.47 -1.44,-1s0.64,-1 1.44,-1z" class="cls-11"/>
   <path id="svg_374" d="m205.88002,675.93001c0.72,0 1.31,0.42 1.31,1s-0.59,0.95 -1.31,0.95s-1.32,-0.43 -1.32,-0.95s0.59,-1 1.32,-1z" class="cls-11"/>
   <path id="svg_375" d="m198.56002,685.60001c0.6,0 1.08,0.35 1.08,0.78s-0.48,0.78 -1.08,0.78s-1.09,-0.35 -1.09,-0.78s0.49,-0.78 1.09,-0.78z" class="cls-11"/>
   <path id="svg_376" d="m532.14002,-11.98999c-57.05,0 -103.3,47.43 -103.3,105.94s46.25,105.94 103.3,105.94s103.31,-47.43 103.31,-105.94s-46.25,-105.94 -103.31,-105.94zm21.1,55.21a17,17 0 0 1 24.31,-3a18.07,18.07 0 0 1 2.93,24.93a17,17 0 0 1 -24.32,3a18.07,18.07 0 0 1 -2.92,-24.93zm-86.25,33.19a10.92,10.92 0 0 1 -15.72,0a11.61,11.61 0 0 1 0,-16.12a10.91,10.91 0 0 1 15.72,0a11.61,11.61 0 0 1 0,16.12zm25.31,-26.29a17.91,17.91 0 1 1 17.46,-17.9a17.68,17.68 0 0 1 -17.46,17.9zm33,8.47a11.57,11.57 0 1 1 11.28,-11.57a11.43,11.43 0 0 1 -11.31,11.57l0.03,0zm55.56,78.7a20.43,20.43 0 0 1 -29.41,0a21.72,21.72 0 0 1 0,-30.16a20.43,20.43 0 0 1 29.41,0a21.72,21.72 0 0 1 0,30.16zm5.6,-109.36a8.72,8.72 0 0 1 12.44,-1.54a9.25,9.25 0 0 1 1.49,12.76a8.71,8.71 0 0 1 -12.43,1.53a9.24,9.24 0 0 1 -1.5,-12.74l0,-0.01zm8.57,121a10.78,10.78 0 0 1 0,-15a10.14,10.14 0 0 1 14.62,0a10.78,10.78 0 0 1 0,15a10.16,10.16 0 0 1 -14.62,0.02l0,-0.02z" class="cls-13"/>
   <path id="svg_377" d="m532.14002,-35.70999c-69.82,0 -126.43,58.05 -126.43,129.66s56.61,129.66 126.43,129.66s126.49,-58.05 126.49,-129.66s-56.66,-129.66 -126.49,-129.66zm0,247.68c-63.55,0 -115.07,-52.84 -115.07,-118s51.52,-118 115.07,-118s115.08,52.84 115.08,118s-51.52,118 -115.08,118z" class="cls-14"/>
  </g>
 </g>
</svg>