<svg width="58.730000000000004" height="57.69" xmlns="http://www.w3.org/2000/svg">
 <defs>
  <style>.cls-1{fill:#cc9a5c;}.cls-2,.cls-7{fill:#d8a760;}.cls-2{stroke:#000;}.cls-10,.cls-14,.cls-16,.cls-2,.cls-4,.cls-5{stroke-miterlimit:10;}.cls-2,.cls-5{stroke-width:0.5px;}.cls-14,.cls-3{fill:#1d1e1c;}.cls-10,.cls-4,.cls-5{fill:none;}.cls-4{stroke:#24234e;opacity:0.15;}.cls-10,.cls-4{stroke-width:0.75px;}.cls-14,.cls-5{stroke:#1d1e1c;}.cls-6{fill:#bc7132;}.cls-8{fill:#211e1c;}.cls-9{fill:#13110e;}.cls-10{stroke:#fcce00;}.cls-10,.cls-19{opacity:0.99;}.cls-11{opacity:0.39;}.cls-12,.cls-13{fill:#f2d399;}.cls-13{opacity:0.74;}.cls-14{stroke-width:0.25px;}.cls-15{fill:#fff;}.cls-16{fill:#f6d485;stroke:#b58f63;}.cls-17{fill:#d09d5a;}.cls-18{fill:#fffdf8;}.cls-19{fill:#fcce00;}.cls-20{fill:#768c94;opacity:0.24;}</style>
 </defs>
 <title>Untitled-3</title>
 <g>
  <title>background</title>
  <rect fill="none" id="canvas_background" height="602" width="802" y="-1" x="-1"/>
 </g>
 <g>
  <title>Layer 1</title>
  <path stroke="null" id="svg_1" d="m40.92138,33.91027s12.48411,-28.25997 -11.38988,-30.23647c0,0 -25.91323,-3.22429 -13.03122,27.85069c0,0 7.03288,7.43683 11.56894,7.76625s12.85216,-5.38047 12.85216,-5.38047z" class="cls-1"/>
  <path stroke="null" id="svg_2" d="m38.13608,34.47926l4.68527,-16.10149s0,-8.10565 -3.979,-8.22544s-9.23128,3.88313 -12.81237,1.99647a-22.15307,22.23064 0 0 1 -6.61508,-2.29594s-6.35645,-0.26952 -4.86433,7.24717s3.55126,15.97172 3.55126,15.97172s4.72506,4.15265 9.74855,4.77155c-0.02984,-0.04991 7.89831,0.17968 10.28571,-3.36404z" class="cls-2"/>
  <path stroke="null" id="svg_3" d="m39.40936,22.05126s-4.54601,-2.15618 -8.66427,-0.43922s-7.46062,3.39399 -12.63332,-1.99647c0,0 2.74551,3.43392 4.66538,3.93304s3.91931,1.1879 7.62973,-0.86846s7.7292,-1.3576 9.00248,-0.62889z" class="cls-3"/>
  <path stroke="null" id="svg_4" d="m41.71718,33.78049s7.48052,-9.603 5.22244,-19.10617s-11.78778,-14.28471 -17.75628,-14.29469s-14.22492,2.94479 -15.79662,7.23719s-3.71042,9.32349 2.25808,24.29698l10.85272,5.57014l15.21967,-3.70344z" class="cls-4"/>
  <path stroke="null" id="svg_5" d="m27.39279,14.88395s-4.97375,-3.71343 -8.95275,-2.86493" class="cls-5"/>
  <path stroke="null" id="svg_6" d="m29.99903,14.99376s1.9895,-2.74514 7.84857,-2.9947" class="cls-5"/>
  <path stroke="null" id="svg_7" d="m25.56245,26.05417s0.40785,0.09982 0.25863,0.18966a-0.45758,0.45919 0 0 0 -0.34816,0l0.08953,-0.18966z" class="cls-6"/>
  <path stroke="null" id="svg_8" d="m26.29856,26.07414s-0.08953,-0.31943 0,-0.27951s0.14921,0.21961 0.14921,0.21961l-0.14921,0.05989z" class="cls-6"/>
  <path stroke="null" id="svg_9" d="m24.99544,26.4335l-0.08953,0.25954l-0.2089,-0.13975a-0.40785,0.40928 0 0 0 0.29842,-0.11979z" class="cls-6"/>
  <path stroke="null" id="svg_10" d="m28.51685,27.92087l-0.08953,0.25954l-0.21884,-0.13975a-0.44764,0.4492 0 0 0 0.30837,-0.11979z" class="cls-6"/>
  <path stroke="null" id="svg_11" d="m25.92056,25.60497l-0.25863,0.09982l0,-0.25954a-0.41779,0.41926 0 0 0 0.25863,0.15972z" class="cls-6"/>
  <path stroke="null" id="svg_12" d="m27.01478,27.03244l-0.08953,0.25954l-0.21884,-0.13975a-0.44764,0.4492 0 0 0 0.30837,-0.11979z" class="cls-6"/>
  <path stroke="null" id="svg_13" d="m26.35825,26.41354l0.15916,0.22959l-0.23874,0.08984a-0.3979,0.39929 0 0 0 0.07958,-0.31943z" class="cls-6"/>
  <path stroke="null" id="svg_14" d="m25.84098,26.4934l0,0.52906l-0.26858,-0.24956s0.07958,-0.27951 0.26858,-0.27951z" class="cls-6"/>
  <path stroke="null" id="svg_15" d="m27.62158,25.43527l-0.08953,0.25954l-0.2089,-0.14973a-0.378,0.37933 0 0 0 0.29842,-0.10981z" class="cls-6"/>
  <path stroke="null" id="svg_16" d="m29.63097,26.03421l-0.07958,0.25954l-0.21884,-0.14973a-0.3979,0.39929 0 0 0 0.29842,-0.10981z" class="cls-6"/>
  <path stroke="null" id="svg_17" d="m28.98439,25.41531l0.15916,0.21961l-0.23874,0.08984a-0.36806,0.36935 0 0 0 0.07958,-0.30945z" class="cls-6"/>
  <path stroke="null" id="svg_18" d="m28.45717,25.49516l0,0.51908l-0.26858,-0.24956s0.08953,-0.27951 0.26858,-0.26952z" class="cls-6"/>
  <path stroke="null" id="svg_19" d="m26.87552,25.9843l0.24869,0.13975s-0.04974,0.39929 -0.17905,0.25954a-0.46753,0.46917 0 0 0 -0.06963,-0.39929z" class="cls-6"/>
  <path stroke="null" id="svg_20" d="m24.84623,25.7547l0.21884,0.11979s0,0.28949 -0.12932,0.1697a-0.34816,0.34938 0 0 0 -0.08953,-0.28949z" class="cls-6"/>
  <path stroke="null" id="svg_21" d="m27.84042,26.23386l0,0.22959s-0.29842,0.13975 -0.24869,0s0.24869,-0.22959 0.24869,-0.22959z" class="cls-6"/>
  <path stroke="null" id="svg_22" d="m27.41268,26.56327l0.12932,0.18966s-0.17905,0.27951 -0.22879,0.12977a-0.40785,0.40928 0 0 0 0.09947,-0.31943z" class="cls-6"/>
  <path stroke="null" id="svg_23" d="m29.99903,27.58147s-0.41779,-0.09982 -0.26858,-0.18966a-0.47748,0.47915 0 0 0 0.35811,0l-0.08953,0.18966z" class="cls-6"/>
  <path stroke="null" id="svg_24" d="m31.33199,28.06062s-0.40785,-0.10981 -0.25863,-0.18966a-0.40785,0.40928 0 0 0 0.34816,0l-0.08953,0.18966z" class="cls-6"/>
  <path stroke="null" id="svg_25" d="m29.25297,27.56151s0.09947,0.31943 0,0.27951s-0.14921,-0.21961 -0.14921,-0.21961l0.14921,-0.05989z" class="cls-6"/>
  <path stroke="null" id="svg_26" d="m30.59588,27.20214l0.08953,-0.25954l0.2089,0.13975a-0.40785,0.40928 0 0 0 -0.29842,0.11979z" class="cls-6"/>
  <path stroke="null" id="svg_27" d="m32.02832,27.92087l0.08953,-0.25954l0.2089,0.13975a-0.36806,0.36935 0 0 0 -0.29842,0.11979z" class="cls-6"/>
  <path stroke="null" id="svg_28" d="m29.64092,28.03067l0.25863,-0.09982l0,0.25954a-0.38795,0.38931 0 0 0 -0.25863,-0.15972z" class="cls-6"/>
  <path stroke="null" id="svg_29" d="m28.57654,26.59322l0.08953,-0.25954l0.21884,0.14973a-0.40785,0.40928 0 0 0 -0.30837,0.10981z" class="cls-6"/>
  <path stroke="null" id="svg_30" d="m29.18334,27.22211l-0.15916,-0.22959l0.23874,-0.08984a-0.3979,0.39929 0 0 0 -0.07958,0.31943z" class="cls-6"/>
  <path stroke="null" id="svg_31" d="m29.75034,27.14225l0,-0.52906l0.26858,0.24956s-0.07958,0.27951 -0.26858,0.27951z" class="cls-6"/>
  <path stroke="null" id="svg_32" d="m28.7158,27.65135l-0.24869,-0.13975s0.04974,-0.40928 0.17905,-0.25954a-0.46753,0.46917 0 0 0 0.06963,0.39929z" class="cls-6"/>
  <path stroke="null" id="svg_33" d="m30.71525,27.92087l-0.21884,-0.11979s0,-0.27951 0.11937,-0.1697a-0.33821,0.3394 0 0 0 0.09947,0.28949z" class="cls-6"/>
  <path stroke="null" id="svg_34" d="m27.10431,27.98076s-0.40785,-0.09982 -0.25863,-0.18966a-0.45758,0.45919 0 0 0 0.34816,0l-0.08953,0.18966z" class="cls-6"/>
  <path stroke="null" id="svg_35" d="m26.36819,27.92087s0.08953,0.31943 0,0.27951s-0.14921,-0.21961 -0.14921,-0.21961l0.14921,-0.05989z" class="cls-6"/>
  <path stroke="null" id="svg_36" d="m26.7462,28.42997l0.25863,-0.09982l0,0.25954a-0.41779,0.41926 0 0 0 -0.25863,-0.15972z" class="cls-6"/>
  <path stroke="null" id="svg_37" d="m25.79124,28.04066l-0.24869,-0.13975s0.04974,-0.40928 0.17905,-0.25954a-0.46753,0.46917 0 0 0 0.06963,0.39929z" class="cls-6"/>
  <path stroke="null" id="svg_38" d="m27.85037,28.28023l-0.21884,-0.11979s0,-0.28949 0.12932,-0.1697a-0.34816,0.34938 0 0 0 0.08953,0.28949z" class="cls-6"/>
  <path stroke="null" id="svg_39" d="m31.83932,26.34366s-0.41779,-0.10981 -0.26858,-0.18966a-0.43769,0.43922 0 0 0 0.35811,0l-0.08953,0.18966z" class="cls-6"/>
  <path stroke="null" id="svg_40" d="m31.71995,27.15223s-0.10942,0.40928 -0.189,0.25954a-0.42774,0.42924 0 0 0 0,-0.34938l0.189,0.08984z" class="cls-6"/>
  <path stroke="null" id="svg_41" d="m31.09325,26.3237s0.09947,0.30945 0,0.27951s-0.15916,-0.22959 -0.15916,-0.22959l0.15916,-0.04991z" class="cls-6"/>
  <path stroke="null" id="svg_42" d="m31.48121,26.79287l0.24869,-0.09982l0,0.24956a-0.35811,0.35936 0 0 0 -0.24869,-0.14973z" class="cls-6"/>
  <path stroke="null" id="svg_43" d="m30.5163,26.41354l-0.24869,-0.13975s0.04974,-0.40928 0.189,-0.25954a-0.48743,0.48913 0 0 0 0.05968,0.39929z" class="cls-6"/>
  <path stroke="null" id="svg_44" d="m27.78074,27.41177l0,-0.21961s0.29842,-0.14973 0.25863,0a-0.40785,0.40928 0 0 0 -0.25863,0.21961z" class="cls-6"/>
  <path stroke="null" id="svg_45" d="m28.18859,27.08235l-0.12932,-0.18966s0.17905,-0.27951 0.21884,-0.11979a-0.35811,0.35936 0 0 0 -0.08953,0.30945z" class="cls-6"/>
  <path stroke="null" id="svg_46" d="m25.57239,28.71946s0.41779,0.09982 0.26858,0.18966a-0.47748,0.47915 0 0 0 -0.35811,0l0.08953,-0.18966z" class="cls-6"/>
  <path stroke="null" id="svg_47" d="m26.31846,28.73942s-0.09947,-0.31943 0,-0.27951s0.15916,0.21961 0.15916,0.21961l-0.15916,0.05989z" class="cls-6"/>
  <path stroke="null" id="svg_48" d="m25.01533,29.09878l-0.08953,0.25954l-0.21884,-0.13975a-0.44764,0.4492 0 0 0 0.30837,-0.11979z" class="cls-6"/>
  <path stroke="null" id="svg_49" d="m25.9305,28.27025l-0.24869,0.09982l0,-0.25954a-0.38795,0.38931 0 0 0 0.24869,0.15972z" class="cls-6"/>
  <path stroke="null" id="svg_50" d="m27.02473,29.69772l-0.08953,0.25954l-0.2089,-0.13975a-0.40785,0.40928 0 0 0 0.29842,-0.11979z" class="cls-6"/>
  <path stroke="null" id="svg_51" d="m26.36819,29.07882l0.15916,0.22959l-0.23874,0.08984a-0.3979,0.39929 0 0 0 0.07958,-0.31943z" class="cls-6"/>
  <path stroke="null" id="svg_52" d="m25.85092,29.15868l0,0.52906l-0.27853,-0.24956s0.08953,-0.27951 0.27853,-0.27951z" class="cls-6"/>
  <path stroke="null" id="svg_53" d="m29.62103,28.69949l-0.08953,0.25954l-0.2089,-0.13975a-0.36806,0.36935 0 0 0 0.29842,-0.11979z" class="cls-6"/>
  <path stroke="null" id="svg_54" d="m28.96449,28.08059l0.15916,0.21961l-0.23874,0.08984a-0.36806,0.36935 0 0 0 0.07958,-0.30945z" class="cls-6"/>
  <path stroke="null" id="svg_55" d="m26.89541,28.64958l0.24869,0.13975s-0.04974,0.39929 -0.189,0.25954a-0.48743,0.48913 0 0 0 -0.05968,-0.39929z" class="cls-6"/>
  <path stroke="null" id="svg_56" d="m24.86612,28.41999l0.2089,0.11979s0,0.28949 -0.11937,0.1697a-0.31832,0.31943 0 0 0 -0.08953,-0.28949z" class="cls-6"/>
  <path stroke="null" id="svg_57" d="m27.82053,28.9191l0,0.22959s-0.29842,0.14973 -0.24869,0s0.24869,-0.22959 0.24869,-0.22959z" class="cls-6"/>
  <path stroke="null" id="svg_58" d="m27.39279,29.23854l0.12932,0.18966s-0.17905,0.26952 -0.22879,0.11979a-0.378,0.37933 0 0 0 0.09947,-0.30945z" class="cls-6"/>
  <path stroke="null" id="svg_59" d="m30.00898,30.24675s-0.40785,-0.09982 -0.25863,-0.18966a-0.47748,0.47915 0 0 0 0.35811,0l-0.09947,0.18966z" class="cls-6"/>
  <path stroke="null" id="svg_60" d="m29.27286,30.22679s0.08953,0.31943 0,0.27951s-0.14921,-0.21961 -0.14921,-0.21961l0.14921,-0.05989z" class="cls-6"/>
  <path stroke="null" id="svg_61" d="m30.57598,29.91733l0.08953,-0.25954l0.2089,0.13975a-0.40785,0.40928 0 0 0 -0.29842,0.11979z" class="cls-6"/>
  <path stroke="null" id="svg_62" d="m29.65087,30.69596l0.25863,-0.09982l0,0.25954a-0.41779,0.41926 0 0 0 -0.25863,-0.15972z" class="cls-6"/>
  <path stroke="null" id="svg_63" d="m28.56659,29.26848l0.08953,-0.25954l0.2089,0.13975a-0.40785,0.40928 0 0 0 -0.29842,0.11979z" class="cls-6"/>
  <path stroke="null" id="svg_64" d="m29.18334,29.91733l-0.14921,-0.22959l0.23874,-0.07986a-0.40785,0.40928 0 0 0 -0.08953,0.30945z" class="cls-6"/>
  <path stroke="null" id="svg_65" d="m29.7404,29.80753l0,-0.52906l0.26858,0.24956s-0.08953,0.27951 -0.26858,0.27951z" class="cls-6"/>
  <path stroke="null" id="svg_66" d="m28.69591,30.32661l-0.24869,-0.13975s0.04974,-0.40928 0.17905,-0.26952a-0.48743,0.48913 0 0 0 0.06963,0.40928z" class="cls-6"/>
  <path stroke="null" id="svg_67" d="m30.7252,30.54622l-0.21884,-0.11979s0,-0.28949 0.12932,-0.1697a-0.34816,0.34938 0 0 0 0.08953,0.28949z" class="cls-6"/>
  <path stroke="null" id="svg_68" d="m27.1242,30.64604s-0.41779,-0.09982 -0.26858,-0.18966a-0.47748,0.47915 0 0 0 0.35811,0l-0.08953,0.18966z" class="cls-6"/>
  <path stroke="null" id="svg_69" d="m26.37814,30.62608s0.09947,0.31943 0,0.27951s-0.15916,-0.21961 -0.15916,-0.21961l0.15916,-0.05989z" class="cls-6"/>
  <path stroke="null" id="svg_70" d="m26.76609,31.09525l0.24869,-0.09982l0,0.25954a-0.38795,0.38931 0 0 0 -0.24869,-0.15972z" class="cls-6"/>
  <path stroke="null" id="svg_71" d="m25.80119,30.70594l-0.24869,-0.13975s0,-0.40928 0.189,-0.25954a-0.48743,0.48913 0 0 0 0.05968,0.39929z" class="cls-6"/>
  <path stroke="null" id="svg_72" d="m27.83048,30.91557l-0.2089,-0.11979s0,-0.28949 0.11937,-0.1697a-0.31832,0.31943 0 0 0 0.08953,0.28949z" class="cls-6"/>
  <path stroke="null" id="svg_73" d="m31.81942,29.00894s-0.41779,-0.10981 -0.26858,-0.18966a-0.47748,0.47915 0 0 0 0.35811,0l-0.08953,0.18966z" class="cls-6"/>
  <path stroke="null" id="svg_74" d="m31.07336,28.98898s0.09947,0.31943 0,0.27951s-0.14921,-0.21961 -0.14921,-0.21961l0.14921,-0.05989z" class="cls-6"/>
  <path stroke="null" id="svg_75" d="m31.46131,29.45815l0.25863,-0.09982l0,0.24956a-0.35811,0.35936 0 0 0 -0.25863,-0.14973z" class="cls-6"/>
  <path stroke="null" id="svg_76" d="m30.50635,29.07882l-0.24869,-0.13975s0,-0.40928 0.17905,-0.25954a-0.50732,0.5091 0 0 0 0.06963,0.39929z" class="cls-6"/>
  <path stroke="null" id="svg_77" d="m32.58538,29.29843l-0.21884,-0.11979s0,-0.27951 0.11937,-0.15972a-0.31832,0.31943 0 0 0 0.09947,0.27951z" class="cls-6"/>
  <path stroke="null" id="svg_78" d="m27.76084,30.08703l0,-0.22959s0.29842,-0.14973 0.25863,0s-0.25863,0.22959 -0.25863,0.22959z" class="cls-6"/>
  <path stroke="null" id="svg_79" d="m28.18859,29.74763l-0.12932,-0.18966s0.17905,-0.26952 0.21884,-0.11979a-0.35811,0.35936 0 0 0 -0.08953,0.30945z" class="cls-6"/>
  <path stroke="null" id="svg_80" d="m18.30078,12.2586c3.79,-0.85848 8.95275,2.87491 8.95275,2.87491l-0.12932,0.32942s-4.90412,-3.40397 -8.81348,-2.83498l-0.00995,-0.36935z" class="cls-1"/>
  <path stroke="null" id="svg_81" d="m38.00676,12.32847c-5.3816,0.07986 -7.84857,2.85495 -7.84857,2.85495l0.22879,0.34938a-12.57363,12.61766 0 0 0 7.64962,-2.75512l-0.02984,-0.4492z" class="cls-1"/>
  <path stroke="null" id="svg_82" d="m20.59865,34.72882s-10.35534,-9.90247 -14.22492,-9.52314s-1.24344,9.7128 -1.24344,9.7128l6.01823,17.42914s-11.01188,-0.06988 -10.94225,0.54903s4.70517,1.10804 4.70517,1.10804l-2.10887,0.09982s-6.14755,0.41926 1.85023,0.38931l-3.04393,0.39929s-4.08842,0.47915 2.98425,0.12977c0,0 -1.56176,0.31943 -2.98425,0.65883s0,0.58896 0,0.58896l2.70572,-0.39929l-2.67588,0.85848l0.57695,0.30945s12.13594,-1.99647 14.2846,-2.61537s-2.39735,-2.9947 -2.39735,-2.9947s-2.98425,-7.92597 -5.11301,-14.52429c-1.9895,-6.20901 0.89527,-3.77332 0.89527,-3.77332l8.85327,8.03577l1.86018,-6.4386z" class="cls-7"/>
  <path stroke="null" id="svg_83" d="m34.81362,35.73703s11.01188,-8.21545 14.92124,-8.22544s2.18845,9.17376 2.18845,9.17376l-5.44128,17.18957s11.29041,-0.65883 11.32025,-0.06988s-3.78005,1.16793 -3.78005,1.16793l2.10887,-0.09982s6.1575,-0.20963 -1.8005,0.54903l3.07378,0.07986s4.10832,0.05989 -2.92456,0.40928c0,0 1.5916,0.15972 2.98425,0.34938s0,0.55901 0,0.55901l-2.72561,-0.12977l1.51202,0.6788l-2.7654,0.25954s-8.82343,-0.68878 -11.02183,-1.10804s2.08897,-3.14443 2.08897,-3.14443s1.72092,-7.64646 3.1832,-14.18489c1.37275,-6.13913 -0.78585,-3.76334 -0.78585,-3.76334l-14.54324,8.60477l2.40729,-8.29531z" class="cls-7"/>
  <path stroke="null" id="svg_84" d="m16.97776,39.56026s11.88726,12.55777 20.95937,0.60892l3.78005,-6.38869l-24.14257,-1.44744l-1.4026,6.2689l0.80575,0.9583z" class="cls-7"/>
  <path stroke="null" transform="rotate(0.9254171848297119 28.415664672851186,37.50805282592778) " id="svg_85" d="m15.52529,31.25663l2.77369,-0.39871a35.58113,35.55367 0 0 0 8.90501,5.02769c4.50603,1.53651 12.65193,-6.28219 12.65193,-6.28219l1.45011,0.13615l0,5.33889l-0.16545,4.06494s-7.99018,7.98402 -14.59838,5.9321a24.74913,24.73003 0 0 1 -10.41351,-6.35998l-0.6034,-7.45888z" class="cls-8"/>
  <path stroke="null" id="svg_86" d="m42.05539,31.54445l0.14921,-0.99823l-2.30782,-0.14973s-12.60348,10.98056 -20.81016,-0.39929l-3.80989,-1.67703l0.43769,1.20786l0,0.64885s9.21138,7.98586 14.29455,6.18904c5.42139,-1.90662 8.95275,-5.3106 9.7187,-5.19081s2.32771,0.36935 2.32771,0.36935z" class="cls-9"/>
  <path stroke="null" id="svg_87" d="m15.70448,30.3865c1.91987,2.9348 8.03758,5.76978 12.06631,6.67818s14.2846,-5.9894 14.2846,-5.9894" class="cls-10"/>
  <path stroke="null" id="svg_88" d="m21.54366,32.09348s-3.979,8.86431 -2.18845,12.03869s1.74081,4.70168 1.74081,4.70168s-0.21884,0.46917 -1.55181,-2.40574c0,0 2.98425,5.72986 2.24813,5.21077s-2.81514,-2.74514 -2.64603,-2.9947s1.1738,3.72341 1.1738,3.72341s-0.11937,0.7886 -1.9895,-3.6735c0,0 0.59685,3.99293 0.189,3.76334s-0.80575,-1.87668 -0.89527,-3.73339l-0.52722,2.22606s-0.68638,-0.99823 -0.189,-3.72341s1.12407,-15.31289 1.12407,-15.31289l0.12932,-3.80327l3.38215,3.98295z" class="cls-7"/>
  <path stroke="null" id="svg_89" d="m35.59947,31.42467s5.88892,9.35344 4.39679,12.68754s-1.26333,4.86139 -1.26333,4.86139s0.25863,0.43922 1.30312,-2.55548c0,0 -2.39735,5.9894 -1.71097,5.41042s2.52666,-2.9947 2.31777,-3.26422s-0.78585,3.81325 -0.78585,3.81325s0.19895,0.76864 1.63139,-3.86316c0,0 -0.19895,3.99293 0.189,3.77332s0.6068,-1.99647 0.51727,-3.80327l0.74606,2.15618s0.57695,-1.05813 -0.189,-3.72341s-2.62614,-15.00344 -2.62614,-15.00344l-0.50732,-3.77332l-4.01879,3.28419z" class="cls-7"/>
  <g stroke="null" id="svg_90" class="cls-11">
   <path stroke="null" id="svg_91" d="m28.47706,17.23978s0.14921,0.05989 0.05968,0.08984s-0.08953,0 -0.10942,0s0.04974,-0.08984 0.04974,-0.08984z" class="cls-12"/>
   <path stroke="null" id="svg_92" d="m28.35769,17.11999s0.14921,0.05989 0.05968,0.08984s-0.08953,0 -0.10942,0s0.04974,-0.08984 0.04974,-0.08984z" class="cls-12"/>
   <path stroke="null" id="svg_93" d="m28.53675,17.49932s0.10942,-0.12977 0.11937,0s0,0.09982 -0.05968,0.09982a-0.05968,0.05989 0 0 0 -0.05968,-0.09982z" class="cls-12"/>
   <path stroke="null" id="svg_94" d="m28.46712,17.43943s-0.07958,0.13975 -0.09947,0s0,-0.08984 0,-0.09982s0.09947,0.09982 0.09947,0.09982z" class="cls-12"/>
   <path stroke="null" id="svg_95" d="m28.72575,17.36955s-0.14921,0 -0.09947,0s0.06963,-0.05989 0.10942,0s-0.00995,0 -0.00995,0z" class="cls-12"/>
   <path stroke="null" id="svg_96" d="m28.58649,17.42944s-0.08953,0 -0.06963,0s0,0 0.04974,0a0,0 0 0 0 0.01989,0z" class="cls-12"/>
   <path stroke="null" id="svg_97" d="m28.77549,17.41946s0,0.07986 0,0.05989s0,0 0,0s0,-0.05989 0,-0.05989z" class="cls-12"/>
   <path stroke="null" id="svg_98" d="m28.88491,17.36955s-0.08953,0 -0.07958,0s0,0 0.04974,0s0.02984,0 0.02984,0z" class="cls-12"/>
   <path stroke="null" id="svg_99" d="m28.39748,17.29967s0,0.06988 -0.07958,0s0,0 0,0a0,0 0 0 0 0.07958,0z" class="cls-12"/>
   <path stroke="null" id="svg_100" d="m28.64617,17.2298s-0.06963,0.04991 -0.07958,0s0,0 0,0a0,0 0 0 0 0.07958,0z" class="cls-12"/>
  </g>
  <g stroke="null" id="svg_101" class="cls-11">
   <path stroke="null" id="svg_102" d="m29.26292,17.51928s-0.15916,0 -0.09947,-0.04991s0.06963,0 0.10942,0s-0.00995,0.04991 -0.00995,0.04991z" class="cls-12"/>
   <path stroke="null" id="svg_103" d="m29.42208,17.5692s-0.15916,0 -0.09947,0s0.07958,-0.05989 0.10942,0s-0.00995,0 -0.00995,0z" class="cls-12"/>
   <path stroke="null" id="svg_104" d="m29.08386,17.32962s0,0.15972 -0.08953,0.07986s0,-0.07986 0,-0.10981s0.08953,0.02995 0.08953,0.02995z" class="cls-12"/>
   <path stroke="null" id="svg_105" d="m29.18334,17.3396s0,-0.15972 0.05968,-0.08984s0.04974,0.07986 0,0.10981s-0.05968,-0.01996 -0.05968,-0.01996z" class="cls-12"/>
   <path stroke="null" id="svg_106" d="m28.97444,17.53925s0.11937,-0.11979 0.10942,0s0,0.08984 -0.06963,0.08984s-0.03979,-0.08984 -0.03979,-0.08984z" class="cls-12"/>
   <path stroke="null" id="svg_107" d="m29.07391,17.40948s0.07958,-0.04991 0.07958,0s0,0 0,0s-0.07958,0 -0.07958,0z" class="cls-12"/>
   <path stroke="null" id="svg_108" d="m28.91475,17.5093s0,-0.07986 0,-0.07986s0,0 0,0s0,0.07986 0,0.07986z" class="cls-12"/>
   <path stroke="null" id="svg_109" d="m28.84512,17.60913s0.05968,-0.05989 0.07958,0s0,0 0,0.04991a0,0 0 0 0 -0.07958,-0.04991z" class="cls-12"/>
   <path stroke="null" id="svg_110" d="m29.30271,17.42944s0,-0.08984 0,-0.06988s0,0 0,0.04991a0,0 0 0 0 0,0.01996z" class="cls-12"/>
   <path stroke="null" id="svg_111" d="m29.12365,17.61911s0,-0.07986 0.05968,0s0,0 0,0.05989a-0.04974,0.04991 0 0 0 -0.05968,-0.05989z" class="cls-12"/>
  </g>
  <g stroke="null" id="svg_112" class="cls-11">
   <path stroke="null" id="svg_113" d="m28.39748,17.68898s0.15916,0 0.08953,0.05989s-0.08953,0 -0.10942,0s0.01989,-0.05989 0.01989,-0.05989z" class="cls-12"/>
   <path stroke="null" id="svg_114" d="m28.24827,17.59914s0.15916,0 0.08953,0.06988s-0.08953,0 -0.11937,0s0.02984,-0.06988 0.02984,-0.06988z" class="cls-12"/>
   <path stroke="null" id="svg_115" d="m28.5268,17.93854s0.06963,-0.14973 0.10942,-0.06988s0,0.09982 0,0.11979s-0.10942,-0.04991 -0.10942,-0.04991z" class="cls-12"/>
   <path stroke="null" id="svg_116" d="m28.44722,17.87865s0,0.15972 -0.07958,0.07986s0,-0.08984 0,-0.10981s0.07958,0.02995 0.07958,0.02995z" class="cls-12"/>
   <path stroke="null" id="svg_117" d="m28.67601,17.72891s-0.12932,0.08984 -0.10942,0s0.04974,-0.08984 0.08953,-0.06988s0.01989,0.06988 0.01989,0.06988z" class="cls-12"/>
   <path stroke="null" id="svg_118" d="m28.55664,17.83872s-0.07958,0 -0.07958,0s0,0 0,0s0.07958,0 0.07958,0z" class="cls-12"/>
   <path stroke="null" id="svg_119" d="m28.7357,17.76884s0,0.07986 0,0.06988s0,0 0,0a0,0 0 0 0 0,-0.06988z" class="cls-12"/>
   <path stroke="null" id="svg_120" d="m28.81528,17.679s-0.06963,0 -0.07958,0s0,0 0.04974,0a0,0 0 0 0 0.02984,0z" class="cls-12"/>
   <path stroke="null" id="svg_121" d="m28.3378,17.76884s0,0.07986 -0.05968,0.05989s0,0 0,-0.05989a-0.05968,0.05989 0 0 0 0.05968,0z" class="cls-12"/>
   <path stroke="null" id="svg_122" d="m28.55664,17.61911s-0.04974,0.06988 -0.07958,0s0,0 0,-0.04991a0,0 0 0 0 0.07958,0.04991z" class="cls-12"/>
  </g>
  <g stroke="null" id="svg_123" class="cls-11">
   <path stroke="null" id="svg_124" d="m29.09381,17.8487s0,0.14973 0,0.10981s-0.06963,-0.06988 0,-0.10981s0,0 0,0z" class="cls-12"/>
   <path stroke="null" id="svg_125" d="m29.12365,17.679s0,0.14973 0,0.10981s-0.05968,-0.06988 0,-0.10981s0,0 0,0z" class="cls-12"/>
   <path stroke="null" id="svg_126" d="m28.9247,18.04835s0.15916,0 0.09947,0.07986s-0.07958,0 -0.11937,0s0.01989,-0.07986 0.01989,-0.07986z" class="cls-12"/>
   <path stroke="null" id="svg_127" d="m28.9247,17.93854s-0.14921,0 -0.09947,0s0.07958,-0.05989 0.10942,0s-0.00995,0 -0.00995,0z" class="cls-12"/>
   <path stroke="null" id="svg_128" d="m29.18334,18.12821s-0.11937,-0.09982 0,-0.10981s0.08953,0 0.08953,0.06988s-0.08953,0.03993 -0.08953,0.03993z" class="cls-12"/>
   <path stroke="null" id="svg_129" d="m29.00428,18.04835s-0.04974,-0.06988 0,-0.07986s0.04974,0 0,0a0,0 0 0 0 0,0.07986z" class="cls-12"/>
   <path stroke="null" id="svg_130" d="m29.1336,18.19808s-0.07958,0 -0.08953,0s0,0 0.04974,0s0.03979,0 0.03979,0z" class="cls-12"/>
   <path stroke="null" id="svg_131" d="m29.18334,18.24799s-0.06963,0 0,-0.07986s0.04974,0 0.04974,0s-0.04974,0.07986 -0.04974,0.07986z" class="cls-12"/>
   <path stroke="null" id="svg_132" d="m29.00428,17.81875s-0.08953,0 -0.07958,0s0,0 0.04974,0s0.02984,0 0.02984,0z" class="cls-12"/>
   <path stroke="null" id="svg_133" d="m29.18334,17.93854s-0.08953,0 -0.05968,-0.05989s0,0 0.05968,0s0,0.05989 0,0.05989z" class="cls-12"/>
  </g>
  <g stroke="null" id="svg_134" class="cls-11">
   <path stroke="null" id="svg_135" d="m28.00953,17.42944s-0.14921,0 -0.06963,-0.07986s0.08953,0 0.10942,0s-0.03979,0.07986 -0.03979,0.07986z" class="cls-12"/>
   <path stroke="null" id="svg_136" d="m28.13885,17.54923s-0.14921,-0.04991 -0.06963,-0.08984s0.08953,0 0.10942,0s-0.03979,0.08984 -0.03979,0.08984z" class="cls-12"/>
   <path stroke="null" id="svg_137" d="m27.92995,17.17989s-0.08953,0.13975 -0.11937,0s0,-0.09982 0.05968,-0.10981s0.05968,0.10981 0.05968,0.10981z" class="cls-12"/>
   <path stroke="null" id="svg_138" d="m28.00953,17.2298s0.05968,-0.13975 0.08953,-0.05989s0,0.09982 0,0.10981s-0.08953,-0.04991 -0.08953,-0.04991z" class="cls-12"/>
   <path stroke="null" id="svg_139" d="m27.7509,17.32962s0.14921,-0.05989 0.10942,0s-0.06963,0.07986 -0.10942,0.05989s0,-0.05989 0,-0.05989z" class="cls-12"/>
   <path stroke="null" id="svg_140" d="m27.89016,17.24976s0.08953,0 0.07958,0s0,0 -0.05968,0a0,0 0 0 0 -0.01989,0z" class="cls-12"/>
   <path stroke="null" id="svg_141" d="m27.70116,17.27971s0,-0.08984 0.04974,-0.06988s0,0 0,0.05989s-0.04974,0.00998 -0.04974,0.00998z" class="cls-12"/>
   <path stroke="null" id="svg_142" d="m27.60168,17.3396s0.07958,0 0.07958,0s0,0 -0.04974,0s-0.02984,0 -0.02984,0z" class="cls-12"/>
   <path stroke="null" id="svg_143" d="m28.08911,17.36955s0,-0.07986 0.06963,0s0,0 0,0.05989a-0.04974,0.04991 0 0 0 -0.06963,-0.05989z" class="cls-12"/>
   <path stroke="null" id="svg_144" d="m27.84042,17.45939s0.06963,0 0.07958,0s0,0 0,0a0,0 0 0 0 -0.07958,0z" class="cls-12"/>
  </g>
  <g stroke="null" id="svg_145" class="cls-11">
   <path stroke="null" id="svg_146" d="m27.19384,17.77883s0.15916,0 0.09947,0s-0.06963,0.06988 -0.09947,0s0,0 0,0z" class="cls-12"/>
   <path stroke="null" id="svg_147" d="m27.04462,17.74888s0.15916,0 0.10942,0s-0.06963,0.05989 -0.10942,0s0,0 0,0z" class="cls-12"/>
   <path stroke="null" id="svg_148" d="m27.40273,17.93854s0,-0.15972 0.08953,-0.08984s0,0.07986 0,0.10981s-0.08953,-0.01996 -0.08953,-0.01996z" class="cls-12"/>
   <path stroke="null" id="svg_149" d="m27.31321,17.93854s0,0.14973 -0.04974,0.08984s-0.05968,-0.06988 0,-0.10981s0.04974,0.01996 0.04974,0.01996z" class="cls-12"/>
   <path stroke="null" id="svg_150" d="m27.49226,17.74888s-0.09947,0.11979 -0.09947,0s0,-0.09982 0.05968,-0.09982s0.03979,0.09982 0.03979,0.09982z" class="cls-12"/>
   <path stroke="null" id="svg_151" d="m27.40273,17.87865s-0.06963,0 -0.07958,0s0,-0.04991 0,0s0.07958,0 0.07958,0z" class="cls-12"/>
   <path stroke="null" id="svg_152" d="m27.56189,17.75886s0,0.07986 0,0.08984s0,0 0,0s0,-0.08984 0,-0.08984z" class="cls-12"/>
   <path stroke="null" id="svg_153" d="m27.62158,17.65904s-0.05968,0.05989 -0.07958,0s0,0 0,0a0,0 0 0 0 0.07958,0z" class="cls-12"/>
   <path stroke="null" id="svg_154" d="m27.19384,17.87865s0,0.07986 0,0.06988s0,0 0,0a0,0 0 0 0 0,-0.06988z" class="cls-12"/>
   <path stroke="null" id="svg_155" d="m27.34305,17.679s0,0.07986 -0.05968,0s0,0 0,-0.05989a0,0 0 0 0 0.05968,0.05989z" class="cls-12"/>
  </g>
  <g stroke="null" id="svg_156" class="cls-11">
   <path stroke="null" id="svg_157" d="m27.19384,17.38951s0.14921,0 0.09947,0s-0.06963,0.05989 -0.10942,0s0.00995,0 0.00995,0z" class="cls-12"/>
   <path stroke="null" id="svg_158" d="m27.05457,17.34959s0.14921,0 0.09947,0.04991s-0.06963,0.05989 -0.10942,0s0.00995,-0.04991 0.00995,-0.04991z" class="cls-12"/>
   <path stroke="null" id="svg_159" d="m27.41268,17.5692s0,-0.15972 0.07958,-0.08984s0,0.07986 0,0.10981s-0.07958,-0.01996 -0.07958,-0.01996z" class="cls-12"/>
   <path stroke="null" id="svg_160" d="m27.31321,17.5692s0,0.14973 -0.04974,0.08984s-0.04974,-0.06988 0,-0.10981s0.04974,0.01996 0.04974,0.01996z" class="cls-12"/>
   <path stroke="null" id="svg_161" d="m27.50221,17.34959s-0.10942,0.11979 -0.10942,0s0,-0.08984 0.05968,-0.08984s0.04974,0.08984 0.04974,0.08984z" class="cls-12"/>
   <path stroke="null" id="svg_162" d="m27.41268,17.48934s-0.06963,0.04991 -0.07958,0s0,0 0,0a0,0 0 0 0 0.07958,0z" class="cls-12"/>
   <path stroke="null" id="svg_163" d="m27.56189,17.36955s0,0.07986 0,0.07986s0,0 0,0s0,-0.07986 0,-0.07986z" class="cls-12"/>
   <path stroke="null" id="svg_164" d="m27.62158,17.26973s-0.05968,0.05989 -0.07958,0s0,0 0,-0.04991a0,0 0 0 0 0.07958,0.04991z" class="cls-12"/>
   <path stroke="null" id="svg_165" d="m27.19384,17.48934s0,0.07986 0,0.06988s0,0 0,-0.05989a0,0 0 0 0 0,-0.00998z" class="cls-12"/>
   <path stroke="null" id="svg_166" d="m27.353,17.27971s0,0.07986 -0.06963,0.05989s0,0 0,-0.05989s0.06963,0 0.06963,0z" class="cls-12"/>
  </g>
  <g stroke="null" id="svg_167" class="cls-11">
   <path stroke="null" id="svg_168" d="m27.94985,17.93854s-0.10942,-0.11979 0,-0.10981s0.08953,0 0.08953,0.07986s-0.08953,0.02995 -0.08953,0.02995z" class="cls-12"/>
   <path stroke="null" id="svg_169" d="m27.99958,18.04835s-0.10942,-0.10981 0,-0.09982s0.08953,0 0.08953,0.06988s-0.08953,0.02995 -0.08953,0.02995z" class="cls-12"/>
   <path stroke="null" id="svg_170" d="m28.00953,17.63907s-0.14921,0.05989 -0.11937,0s0.04974,-0.07986 0.09947,-0.05989s0.01989,0.05989 0.01989,0.05989z" class="cls-12"/>
   <path stroke="null" id="svg_171" d="m28.04932,17.71893s0.12932,-0.08984 0.10942,0s0,0.07986 -0.07958,0.06988s-0.02984,-0.06988 -0.02984,-0.06988z" class="cls-12"/>
   <path stroke="null" id="svg_172" d="m27.78074,17.65904s0.15916,0 0.07958,0.07986s-0.08953,0 -0.11937,0s0.03979,-0.07986 0.03979,-0.07986z" class="cls-12"/>
   <path stroke="null" id="svg_173" d="m27.9399,17.66902s0.07958,0 0.04974,0.06988s-0.04974,0 -0.05968,0a-0.04974,0.04991 0 0 0 0.00995,-0.06988z" class="cls-12"/>
   <path stroke="null" id="svg_174" d="m27.76084,17.58916s0.04974,-0.06988 0.07958,0s0,0 0,0a0,0 0 0 0 -0.07958,0z" class="cls-12"/>
   <path stroke="null" id="svg_175" d="m27.65142,17.58916s0.07958,0 0.05968,0.05989s0,0 -0.05968,0a-0.05968,0.05989 0 0 0 0,-0.05989z" class="cls-12"/>
   <path stroke="null" id="svg_176" d="m28.04932,17.87865s0.06963,-0.04991 0.07958,0s0,0.04991 0,0s-0.07958,0 -0.07958,0z" class="cls-12"/>
   <path stroke="null" id="svg_177" d="m27.79069,17.82874s0.07958,0 0.07958,0s0,0 -0.05968,0a0,0 0 0 0 -0.01989,0z" class="cls-12"/>
  </g>
  <path stroke="null" id="svg_178" d="m27.71111,19.70541s-0.57695,-1.13799 -1.34291,-0.99823s0.53716,1.64708 1.34291,0.99823z" class="cls-13"/>
  <path stroke="null" id="svg_179" d="m28.78544,20.03483s0.73611,-0.04991 1.18375,-1.28772c0,0 -1.60155,0 -1.18375,1.28772" class="cls-13"/>
  <path stroke="null" id="svg_180" d="m26.48756,18.85692a-0.7759,0.77862 0 0 0 0.80575,0.75866s-0.47748,0.36935 -0.80575,-0.75866z" class="cls-14"/>
  <path stroke="null" id="svg_181" d="m29.68071,18.83695s-0.87538,0.24956 -0.82564,0.79859s0.82564,-0.79859 0.82564,-0.79859z" class="cls-14"/>
  <path stroke="null" id="svg_182" d="m29.61108,36.3759l0.24869,-1.3576a-29.62364,29.72737 0 0 0 -3.29262,-0.04991l-0.08953,1.33763s2.23819,1.06811 3.13346,0.06988z" class="cls-15"/>
  <path stroke="null" id="svg_183" d="m25.3436,15.30321a-6.19729,6.21899 0 0 1 -6.08787,-1.1879a-2.06908,2.07632 0 0 1 1.32302,1.92659a-6.49571,6.51846 0 0 1 4.76485,-0.73869z" class="cls-16"/>
  <path stroke="null" id="svg_184" d="m19.14631,14.29499s0.14921,2.05636 1.56176,2.56546s3.54131,-0.46917 4.62559,-1.51731c0,0 -5.21249,2.5954 -6.18734,-1.04814z" class="cls-17"/>
  <path stroke="null" id="svg_185" d="m24.34885,15.31319s-0.43769,-0.19965 -1.05443,-0.42924a-4.91406,4.93127 0 0 1 -1.7806,-0.42924a-6.88367,6.90777 0 0 1 -1.56176,0.14973a-8.02763,8.05574 0 0 1 1.08428,0.49912a-4.30727,4.32235 0 0 1 2.08897,0.30945a-6.67477,6.69814 0 0 1 1.22354,-0.09982z" class="cls-3"/>
  <ellipse stroke="null" id="svg_186" transform="matrix(-0.9884920128696892,-0.11179132681063056,-0.11140125746200197,0.9919531985364325,-53.91222202672945,-40.22328504093298) " ry="0.32" rx="0.45" cy="45.94044" cx="-81.91253" class="cls-18"/>
  <path stroke="null" id="svg_187" d="m31.02362,15.94208a-6.20724,6.22897 0 0 0 5.9685,-1.79682a-2.07903,2.08631 0 0 0 -1.12407,2.05636a-6.50566,6.52844 0 0 0 -4.84443,-0.25954z" class="cls-16"/>
  <path stroke="null" id="svg_188" d="m37.08165,14.27503s0.05968,2.06634 -1.30312,2.70521s-3.5612,-0.09982 -4.74496,-0.99823c0,-0.03993 5.45123,2.04638 6.04808,-1.70698z" class="cls-17"/>
  <path stroke="null" id="svg_189" d="m32.00842,15.81231s0.41779,-0.23958 0.99475,-0.53905a-5.06328,5.081 0 0 0 1.73086,-0.59894a-6.78419,6.80795 0 0 0 1.56176,0a-8.22658,8.25538 0 0 0 -0.99475,0.60892a-4.42664,4.44214 0 0 0 -2.04918,0.51908a-7.21193,7.23719 0 0 0 -1.24344,0.00998z" class="cls-3"/>
  <ellipse stroke="null" id="svg_190" transform="matrix(-0.20987585084901603,-0.9757620460310653,-0.9723573555548838,0.21061072708200176,620.3266805720417,-376.4008077951966) " ry="0.45" rx="0.32" cy="658.56849" cx="-258.80112" class="cls-18"/>
  <path stroke="null" id="svg_191" d="m28.11895,38.15275a-0.99475,0.99823 0 0 0 0.99475,0l-0.19895,1.2977l0.92512,-0.39929s0.32827,0.85848 0.05968,1.19788l-0.99475,-0.35936l0.3979,2.26599s-0.73611,0.34938 -0.99475,0l0.13926,-2.30592l-0.92512,0.46917s-0.32827,-0.87844 -0.05968,-1.1879l0.93506,0.31943l-0.27853,-1.2977z" class="cls-19"/>
  <path stroke="null" id="svg_192" d="m41.71718,33.57087s7.48052,-9.59302 5.22244,-19.10617s-11.78778,-14.27473 -17.75628,-14.29469s-14.22492,2.94479 -15.79662,7.23719s-3.71042,9.33348 2.25808,24.29698l10.85272,5.58012l15.21967,-3.71343z" class="cls-20"/>
 </g>
</svg>