<svg id="Layer_1" data-name="Layer 1" xmlns="http://www.w3.org/2000/svg" viewBox="0 0 58.73 57.69"><defs><style>.cls-1{fill:#cc9a5c;}.cls-2,.cls-7{fill:#d8a760;}.cls-2{stroke:#000;}.cls-10,.cls-14,.cls-16,.cls-2,.cls-4,.cls-5{stroke-miterlimit:10;}.cls-2,.cls-5{stroke-width:0.5px;}.cls-14,.cls-3{fill:#1d1e1c;}.cls-10,.cls-4,.cls-5{fill:none;}.cls-4{stroke:#24234e;opacity:0.15;}.cls-10,.cls-4{stroke-width:0.75px;}.cls-14,.cls-5{stroke:#1d1e1c;}.cls-6{fill:#bc7132;}.cls-8{fill:#211e1c;}.cls-9{fill:#13110e;}.cls-10{stroke:#fcce00;}.cls-10,.cls-19{opacity:0.99;}.cls-11{opacity:0.39;}.cls-12,.cls-13{fill:#f2d399;}.cls-13{opacity:0.74;}.cls-14{stroke-width:0.25px;}.cls-15{fill:#fff;}.cls-16{fill:#f6d485;stroke:#b58f63;}.cls-17{fill:#d09d5a;}.cls-18{fill:#fffdf8;}.cls-19{fill:#fcce00;}.cls-20{fill:#768c94;opacity:0.24;}</style></defs><title>Untitled-3</title><path class="cls-1" d="M295.2,539s-12.55-28.31,11.45-30.29c0,0,26.05-3.23,13.1,27.9,0,0-7.07,7.45-11.63,7.78S295.2,539,295.2,539Z" transform="translate(-277.43 -505.03)"/><path class="cls-2" d="M298,539.57l-4.71-16.13s0-8.12,4-8.24,9.28,3.89,12.88,2a22.27,22.27,0,0,1,6.65-2.3s6.39-.27,4.89,7.26-3.57,16-3.57,16-4.75,4.16-9.8,4.78C308.37,542.89,300.4,543.12,298,539.57Z" transform="translate(-277.43 -505.03)"/><path class="cls-3" d="M296.72,527.12s4.57-2.16,8.71-.44,7.5,3.4,12.7-2c0,0-2.76,3.44-4.69,3.94s-3.94,1.19-7.67-.87S298,526.39,296.72,527.12Z" transform="translate(-277.43 -505.03)"/><path class="cls-4" d="M294.4,538.87s-7.52-9.62-5.25-19.14S301,505.42,307,505.41s14.3,2.95,15.88,7.25,3.73,9.34-2.27,24.34l-10.91,5.58Z" transform="translate(-277.43 -505.03)"/><path class="cls-5" d="M308.8,519.94s5-3.72,9-2.87" transform="translate(-277.43 -505.03)"/><path class="cls-5" d="M306.18,520.05s-2-2.75-7.89-3" transform="translate(-277.43 -505.03)"/><path class="cls-6" d="M310.64,531.13s-.41.1-.26.19a.46.46,0,0,0,.35,0Z" transform="translate(-277.43 -505.03)"/><path class="cls-6" d="M309.9,531.15s.09-.32,0-.28-.15.22-.15.22Z" transform="translate(-277.43 -505.03)"/><path class="cls-6" d="M311.21,531.51l.09.26.21-.14A.41.41,0,0,0,311.21,531.51Z" transform="translate(-277.43 -505.03)"/><path class="cls-6" d="M307.67,533l.09.26.22-.14A.45.45,0,0,0,307.67,533Z" transform="translate(-277.43 -505.03)"/><path class="cls-6" d="M310.28,530.68l.26.1,0-.26A.42.42,0,0,0,310.28,530.68Z" transform="translate(-277.43 -505.03)"/><path class="cls-6" d="M309.18,532.11l.09.26.22-.14A.45.45,0,0,0,309.18,532.11Z" transform="translate(-277.43 -505.03)"/><path class="cls-6" d="M309.84,531.49l-.16.23.24.09A.4.4,0,0,0,309.84,531.49Z" transform="translate(-277.43 -505.03)"/><path class="cls-6" d="M310.36,531.57l0,.53.27-.25S310.55,531.57,310.36,531.57Z" transform="translate(-277.43 -505.03)"/><path class="cls-6" d="M308.57,530.51l.09.26.21-.15A.38.38,0,0,0,308.57,530.51Z" transform="translate(-277.43 -505.03)"/><path class="cls-6" d="M306.55,531.11l.08.26.22-.15A.4.4,0,0,0,306.55,531.11Z" transform="translate(-277.43 -505.03)"/><path class="cls-6" d="M307.2,530.49l-.16.22.24.09A.37.37,0,0,0,307.2,530.49Z" transform="translate(-277.43 -505.03)"/><path class="cls-6" d="M307.73,530.57l0,.52.27-.25S307.91,530.56,307.73,530.57Z" transform="translate(-277.43 -505.03)"/><path class="cls-6" d="M309.32,531.06l-.25.14s.05.4.18.26A.47.47,0,0,0,309.32,531.06Z" transform="translate(-277.43 -505.03)"/><path class="cls-6" d="M311.36,530.83l-.22.12s0,.29.13.17A.35.35,0,0,0,311.36,530.83Z" transform="translate(-277.43 -505.03)"/><path class="cls-6" d="M308.35,531.31v.23s.3.14.25,0S308.35,531.31,308.35,531.31Z" transform="translate(-277.43 -505.03)"/><path class="cls-6" d="M308.78,531.64l-.13.19s.18.28.23.13A.41.41,0,0,0,308.78,531.64Z" transform="translate(-277.43 -505.03)"/><path class="cls-6" d="M306.18,532.66s.42-.1.27-.19a.48.48,0,0,0-.36,0Z" transform="translate(-277.43 -505.03)"/><path class="cls-6" d="M304.84,533.14s.41-.11.26-.19a.41.41,0,0,0-.35,0Z" transform="translate(-277.43 -505.03)"/><path class="cls-6" d="M306.93,532.64s-.1.32,0,.28.15-.22.15-.22Z" transform="translate(-277.43 -505.03)"/><path class="cls-6" d="M305.58,532.28l-.09-.26-.21.14A.41.41,0,0,0,305.58,532.28Z" transform="translate(-277.43 -505.03)"/><path class="cls-6" d="M304.14,533l-.09-.26-.21.14A.37.37,0,0,0,304.14,533Z" transform="translate(-277.43 -505.03)"/><path class="cls-6" d="M306.54,533.11l-.26-.1,0,.26A.39.39,0,0,0,306.54,533.11Z" transform="translate(-277.43 -505.03)"/><path class="cls-6" d="M307.61,531.67l-.09-.26-.22.15A.41.41,0,0,0,307.61,531.67Z" transform="translate(-277.43 -505.03)"/><path class="cls-6" d="M307,532.3l.16-.23-.24-.09A.4.4,0,0,0,307,532.3Z" transform="translate(-277.43 -505.03)"/><path class="cls-6" d="M306.43,532.22l0-.53-.27.25S306.24,532.22,306.43,532.22Z" transform="translate(-277.43 -505.03)"/><path class="cls-6" d="M307.47,532.73l.25-.14s-.05-.41-.18-.26A.47.47,0,0,0,307.47,532.73Z" transform="translate(-277.43 -505.03)"/><path class="cls-6" d="M305.46,533l.22-.12s0-.28-.12-.17A.34.34,0,0,0,305.46,533Z" transform="translate(-277.43 -505.03)"/><path class="cls-6" d="M309.09,533.06s.41-.1.26-.19a.46.46,0,0,0-.35,0Z" transform="translate(-277.43 -505.03)"/><path class="cls-6" d="M309.83,533s-.09.32,0,.28.15-.22.15-.22Z" transform="translate(-277.43 -505.03)"/><path class="cls-6" d="M309.45,533.51l-.26-.1,0,.26A.42.42,0,0,0,309.45,533.51Z" transform="translate(-277.43 -505.03)"/><path class="cls-6" d="M310.41,533.12l.25-.14s-.05-.41-.18-.26A.47.47,0,0,0,310.41,533.12Z" transform="translate(-277.43 -505.03)"/><path class="cls-6" d="M308.34,533.36l.22-.12s0-.29-.13-.17A.35.35,0,0,0,308.34,533.36Z" transform="translate(-277.43 -505.03)"/><path class="cls-6" d="M304.33,531.42s.42-.11.27-.19a.44.44,0,0,0-.36,0Z" transform="translate(-277.43 -505.03)"/><path class="cls-6" d="M304.45,532.23s.11.41.19.26a.43.43,0,0,0,0-.35Z" transform="translate(-277.43 -505.03)"/><path class="cls-6" d="M305.08,531.4s-.1.31,0,.28.16-.23.16-.23Z" transform="translate(-277.43 -505.03)"/><path class="cls-6" d="M304.69,531.87l-.25-.1,0,.25A.36.36,0,0,0,304.69,531.87Z" transform="translate(-277.43 -505.03)"/><path class="cls-6" d="M305.66,531.49l.25-.14s-.05-.41-.19-.26A.49.49,0,0,0,305.66,531.49Z" transform="translate(-277.43 -505.03)"/><path class="cls-6" d="M308.41,532.49v-.22s-.3-.15-.26,0A.41.41,0,0,0,308.41,532.49Z" transform="translate(-277.43 -505.03)"/><path class="cls-6" d="M308,532.16l.13-.19s-.18-.28-.22-.12A.36.36,0,0,0,308,532.16Z" transform="translate(-277.43 -505.03)"/><path class="cls-6" d="M310.63,533.8s-.42.1-.27.19a.48.48,0,0,0,.36,0Z" transform="translate(-277.43 -505.03)"/><path class="cls-6" d="M309.88,533.82s.1-.32,0-.28-.16.22-.16.22Z" transform="translate(-277.43 -505.03)"/><path class="cls-6" d="M311.19,534.18l.09.26.22-.14A.45.45,0,0,0,311.19,534.18Z" transform="translate(-277.43 -505.03)"/><path class="cls-6" d="M310.27,533.35l.25.1,0-.26A.39.39,0,0,0,310.27,533.35Z" transform="translate(-277.43 -505.03)"/><path class="cls-6" d="M309.17,534.78l.09.26.21-.14A.41.41,0,0,0,309.17,534.78Z" transform="translate(-277.43 -505.03)"/><path class="cls-6" d="M309.83,534.16l-.16.23.24.09A.4.4,0,0,0,309.83,534.16Z" transform="translate(-277.43 -505.03)"/><path class="cls-6" d="M310.35,534.24l0,.53.28-.25S310.54,534.24,310.35,534.24Z" transform="translate(-277.43 -505.03)"/><path class="cls-6" d="M306.56,533.78l.09.26.21-.14A.37.37,0,0,0,306.56,533.78Z" transform="translate(-277.43 -505.03)"/><path class="cls-6" d="M307.22,533.16l-.16.22.24.09A.37.37,0,0,0,307.22,533.16Z" transform="translate(-277.43 -505.03)"/><path class="cls-6" d="M309.3,533.73l-.25.14s.05.4.19.26A.49.49,0,0,0,309.3,533.73Z" transform="translate(-277.43 -505.03)"/><path class="cls-6" d="M311.34,533.5l-.21.12s0,.29.12.17A.32.32,0,0,0,311.34,533.5Z" transform="translate(-277.43 -505.03)"/><path class="cls-6" d="M308.37,534v.23s.3.15.25,0S308.37,534,308.37,534Z" transform="translate(-277.43 -505.03)"/><path class="cls-6" d="M308.8,534.32l-.13.19s.18.27.23.12A.38.38,0,0,0,308.8,534.32Z" transform="translate(-277.43 -505.03)"/><path class="cls-6" d="M306.17,535.33s.41-.1.26-.19a.48.48,0,0,0-.36,0Z" transform="translate(-277.43 -505.03)"/><path class="cls-6" d="M306.91,535.31s-.09.32,0,.28.15-.22.15-.22Z" transform="translate(-277.43 -505.03)"/><path class="cls-6" d="M305.6,535l-.09-.26-.21.14A.41.41,0,0,0,305.6,535Z" transform="translate(-277.43 -505.03)"/><path class="cls-6" d="M306.53,535.78l-.26-.1,0,.26A.42.42,0,0,0,306.53,535.78Z" transform="translate(-277.43 -505.03)"/><path class="cls-6" d="M307.62,534.35l-.09-.26-.21.14A.41.41,0,0,0,307.62,534.35Z" transform="translate(-277.43 -505.03)"/><path class="cls-6" d="M307,535l.15-.23-.24-.08A.41.41,0,0,0,307,535Z" transform="translate(-277.43 -505.03)"/><path class="cls-6" d="M306.44,534.89l0-.53-.27.25S306.26,534.89,306.44,534.89Z" transform="translate(-277.43 -505.03)"/><path class="cls-6" d="M307.49,535.41l.25-.14s-.05-.41-.18-.27A.49.49,0,0,0,307.49,535.41Z" transform="translate(-277.43 -505.03)"/><path class="cls-6" d="M305.45,535.63l.22-.12s0-.29-.13-.17A.35.35,0,0,0,305.45,535.63Z" transform="translate(-277.43 -505.03)"/><path class="cls-6" d="M309.07,535.73s.42-.1.27-.19a.48.48,0,0,0-.36,0Z" transform="translate(-277.43 -505.03)"/><path class="cls-6" d="M309.82,535.71s-.1.32,0,.28.16-.22.16-.22Z" transform="translate(-277.43 -505.03)"/><path class="cls-6" d="M309.43,536.18l-.25-.1,0,.26A.39.39,0,0,0,309.43,536.18Z" transform="translate(-277.43 -505.03)"/><path class="cls-6" d="M310.4,535.79l.25-.14s0-.41-.19-.26A.49.49,0,0,0,310.4,535.79Z" transform="translate(-277.43 -505.03)"/><path class="cls-6" d="M308.36,536l.21-.12s0-.29-.12-.17A.32.32,0,0,0,308.36,536Z" transform="translate(-277.43 -505.03)"/><path class="cls-6" d="M304.35,534.09s.42-.11.27-.19a.48.48,0,0,0-.36,0Z" transform="translate(-277.43 -505.03)"/><path class="cls-6" d="M305.1,534.07s-.1.32,0,.28.15-.22.15-.22Z" transform="translate(-277.43 -505.03)"/><path class="cls-6" d="M304.71,534.54l-.26-.1,0,.25A.36.36,0,0,0,304.71,534.54Z" transform="translate(-277.43 -505.03)"/><path class="cls-6" d="M305.67,534.16l.25-.14s0-.41-.18-.26A.51.51,0,0,0,305.67,534.16Z" transform="translate(-277.43 -505.03)"/><path class="cls-6" d="M303.58,534.38l.22-.12s0-.28-.12-.16A.32.32,0,0,0,303.58,534.38Z" transform="translate(-277.43 -505.03)"/><path class="cls-6" d="M308.43,535.17v-.23s-.3-.15-.26,0S308.43,535.17,308.43,535.17Z" transform="translate(-277.43 -505.03)"/><path class="cls-6" d="M308,534.83l.13-.19s-.18-.27-.22-.12A.36.36,0,0,0,308,534.83Z" transform="translate(-277.43 -505.03)"/><path class="cls-1" d="M317.94,517.31c-3.81-.86-9,2.88-9,2.88l.13.33s4.93-3.41,8.86-2.84Z" transform="translate(-277.43 -505.03)"/><path class="cls-1" d="M298.13,517.38c5.41.08,7.89,2.86,7.89,2.86l-.23.35a12.64,12.64,0,0,0-7.69-2.76Z" transform="translate(-277.43 -505.03)"/><path class="cls-7" d="M315.63,539.82s10.41-9.92,14.3-9.54,1.25,9.73,1.25,9.73l-6.05,17.46s11.07-.07,11,.55-4.73,1.11-4.73,1.11l2.12.1s6.18.42-1.86.39l3.06.4s4.11.48-3,.13c0,0,1.57.32,3,.66s0,.59,0,.59L332,561l2.69.86-.58.31s-12.2-2-14.36-2.62,2.41-3,2.41-3,3-7.94,5.14-14.55c2-6.22-.9-3.78-.9-3.78l-8.9,8.05Z" transform="translate(-277.43 -505.03)"/><path class="cls-7" d="M301.34,540.83s-11.07-8.23-15-8.24-2.2,9.19-2.2,9.19L289.61,559s-11.35-.66-11.38-.07,3.8,1.17,3.8,1.17l-2.12-.1s-6.19-.21,1.81.55l-3.09.08s-4.13.06,2.94.41c0,0-1.6.16-3,.35s0,.56,0,.56l2.74-.13-1.52.68,2.78.26s8.87-.69,11.08-1.11-2.1-3.15-2.1-3.15-1.73-7.66-3.2-14.21c-1.38-6.15.79-3.77.79-3.77l14.62,8.62Z" transform="translate(-277.43 -505.03)"/><path class="cls-7" d="M319.27,544.66s-11.95,12.58-21.07.61l-3.8-6.4,24.27-1.45,1.41,6.28Z" transform="translate(-277.43 -505.03)"/><path class="cls-8" d="M294.06,536.13l2.85-.41a36.56,36.56,0,0,0,9.15,5.17c4.63,1.58,13-6.46,13-6.46l1.49.14v5.49l-.17,4.18s-8.21,8.21-15,6.1a25.43,25.43,0,0,1-10.7-6.54Z" transform="translate(-277.43 -505.03)"/><path class="cls-9" d="M294.06,536.63l-.15-1,2.32-.15s12.67,11,20.92-.4l3.83-1.68-.44,1.21v.65s-9.26,8-14.37,6.2c-5.45-1.91-9-5.32-9.77-5.2S294.06,536.63,294.06,536.63Z" transform="translate(-277.43 -505.03)"/><path class="cls-10" d="M320.55,535.47c-1.93,2.94-8.08,5.78-12.13,6.69s-14.36-6-14.36-6" transform="translate(-277.43 -505.03)"/><path class="cls-7" d="M314.68,537.18s4,8.88,2.2,12.06-1.75,4.71-1.75,4.71.22.47,1.56-2.41c0,0-3,5.74-2.26,5.22s2.83-2.75,2.66-3-1.18,3.73-1.18,3.73.12.79,2-3.68c0,0-.6,4-.19,3.77s.81-1.88.9-3.74l.53,2.23s.69-1,.19-3.73S318.21,537,318.21,537l-.13-3.81Z" transform="translate(-277.43 -505.03)"/><path class="cls-7" d="M300.55,536.51s-5.92,9.37-4.42,12.71,1.27,4.87,1.27,4.87-.26.44-1.31-2.56c0,0,2.41,6,1.72,5.42s-2.54-3-2.33-3.27.79,3.82.79,3.82-.2.77-1.64-3.87c0,0,.2,4-.19,3.78s-.61-2-.52-3.81l-.75,2.16s-.58-1.06.19-3.73S296,537,296,537l.51-3.78Z" transform="translate(-277.43 -505.03)"/><g class="cls-11"><path class="cls-12" d="M307.71,522.3s-.15.06-.06.09.09,0,.11,0S307.71,522.3,307.71,522.3Z" transform="translate(-277.43 -505.03)"/><path class="cls-12" d="M307.83,522.18s-.15.06-.06.09.09,0,.11,0S307.83,522.18,307.83,522.18Z" transform="translate(-277.43 -505.03)"/><path class="cls-12" d="M307.65,522.56s-.11-.13-.12,0,0,.1.06.1A.06.06,0,0,0,307.65,522.56Z" transform="translate(-277.43 -505.03)"/><path class="cls-12" d="M307.72,522.5s.08.14.1,0,0-.09,0-.1S307.72,522.5,307.72,522.5Z" transform="translate(-277.43 -505.03)"/><path class="cls-12" d="M307.46,522.43s.15,0,.1,0-.07-.06-.11,0S307.46,522.43,307.46,522.43Z" transform="translate(-277.43 -505.03)"/><path class="cls-12" d="M307.6,522.49s.09,0,.07,0,0,0-.05,0A0,0,0,0,0,307.6,522.49Z" transform="translate(-277.43 -505.03)"/><path class="cls-12" d="M307.41,522.48s0,.08,0,.06,0,0,0,0S307.41,522.48,307.41,522.48Z" transform="translate(-277.43 -505.03)"/><path class="cls-12" d="M307.3,522.43s.09,0,.08,0,0,0-.05,0S307.3,522.43,307.3,522.43Z" transform="translate(-277.43 -505.03)"/><path class="cls-12" d="M307.79,522.36s0,.07.08,0,0,0,0,0A0,0,0,0,0,307.79,522.36Z" transform="translate(-277.43 -505.03)"/><path class="cls-12" d="M307.54,522.29s.07.05.08,0,0,0,0,0A0,0,0,0,0,307.54,522.29Z" transform="translate(-277.43 -505.03)"/></g><g class="cls-11"><path class="cls-12" d="M306.92,522.58s.16,0,.1-.05-.07,0-.11,0S306.92,522.58,306.92,522.58Z" transform="translate(-277.43 -505.03)"/><path class="cls-12" d="M306.76,522.63s.16,0,.1,0-.08-.06-.11,0S306.76,522.63,306.76,522.63Z" transform="translate(-277.43 -505.03)"/><path class="cls-12" d="M307.1,522.39s0,.16.09.08,0-.08,0-.11S307.1,522.39,307.1,522.39Z" transform="translate(-277.43 -505.03)"/><path class="cls-12" d="M307,522.4s0-.16-.06-.09-.05.08,0,.11S307,522.4,307,522.4Z" transform="translate(-277.43 -505.03)"/><path class="cls-12" d="M307.21,522.6s-.12-.12-.11,0,0,.09.07.09S307.21,522.6,307.21,522.6Z" transform="translate(-277.43 -505.03)"/><path class="cls-12" d="M307.11,522.47s-.08-.05-.08,0,0,0,0,0S307.11,522.47,307.11,522.47Z" transform="translate(-277.43 -505.03)"/><path class="cls-12" d="M307.27,522.57s0-.08,0-.08,0,0,0,0S307.27,522.57,307.27,522.57Z" transform="translate(-277.43 -505.03)"/><path class="cls-12" d="M307.34,522.67s-.06-.06-.08,0,0,0,0,.05A0,0,0,0,0,307.34,522.67Z" transform="translate(-277.43 -505.03)"/><path class="cls-12" d="M306.88,522.49s0-.09,0-.07,0,0,0,.05A0,0,0,0,0,306.88,522.49Z" transform="translate(-277.43 -505.03)"/><path class="cls-12" d="M307.06,522.68s0-.08-.06,0,0,0,0,.06A.05.05,0,0,0,307.06,522.68Z" transform="translate(-277.43 -505.03)"/></g><g class="cls-11"><path class="cls-12" d="M307.79,522.75s-.16,0-.09.06.09,0,.11,0S307.79,522.75,307.79,522.75Z" transform="translate(-277.43 -505.03)"/><path class="cls-12" d="M307.94,522.66s-.16,0-.09.07.09,0,.12,0S307.94,522.66,307.94,522.66Z" transform="translate(-277.43 -505.03)"/><path class="cls-12" d="M307.66,523s-.07-.15-.11-.07,0,.1,0,.12S307.66,523,307.66,523Z" transform="translate(-277.43 -505.03)"/><path class="cls-12" d="M307.74,522.94s0,.16.08.08,0-.09,0-.11S307.74,522.94,307.74,522.94Z" transform="translate(-277.43 -505.03)"/><path class="cls-12" d="M307.51,522.79s.13.09.11,0-.05-.09-.09-.07S307.51,522.79,307.51,522.79Z" transform="translate(-277.43 -505.03)"/><path class="cls-12" d="M307.63,522.9s.08,0,.08,0,0,0,0,0S307.63,522.9,307.63,522.9Z" transform="translate(-277.43 -505.03)"/><path class="cls-12" d="M307.45,522.83s0,.08,0,.07,0,0,0,0A0,0,0,0,0,307.45,522.83Z" transform="translate(-277.43 -505.03)"/><path class="cls-12" d="M307.37,522.74s.07,0,.08,0,0,0-.05,0A0,0,0,0,0,307.37,522.74Z" transform="translate(-277.43 -505.03)"/><path class="cls-12" d="M307.85,522.83s0,.08.06.06,0,0,0-.06A.06.06,0,0,0,307.85,522.83Z" transform="translate(-277.43 -505.03)"/><path class="cls-12" d="M307.63,522.68s.05.07.08,0,0,0,0-.05A0,0,0,0,0,307.63,522.68Z" transform="translate(-277.43 -505.03)"/></g><g class="cls-11"><path class="cls-12" d="M307.09,522.91s0,.15,0,.11.07-.07,0-.11S307.09,522.91,307.09,522.91Z" transform="translate(-277.43 -505.03)"/><path class="cls-12" d="M307.06,522.74s0,.15,0,.11.06-.07,0-.11S307.06,522.74,307.06,522.74Z" transform="translate(-277.43 -505.03)"/><path class="cls-12" d="M307.26,523.11s-.16,0-.1.08.08,0,.12,0S307.26,523.11,307.26,523.11Z" transform="translate(-277.43 -505.03)"/><path class="cls-12" d="M307.26,523s.15,0,.1,0-.08-.06-.11,0S307.26,523,307.26,523Z" transform="translate(-277.43 -505.03)"/><path class="cls-12" d="M307,523.19s.12-.1,0-.11-.09,0-.09.07S307,523.19,307,523.19Z" transform="translate(-277.43 -505.03)"/><path class="cls-12" d="M307.18,523.11s.05-.07,0-.08-.05,0,0,0A0,0,0,0,0,307.18,523.11Z" transform="translate(-277.43 -505.03)"/><path class="cls-12" d="M307.05,523.26s.08,0,.09,0,0,0-.05,0S307.05,523.26,307.05,523.26Z" transform="translate(-277.43 -505.03)"/><path class="cls-12" d="M307,523.31s.07,0,0-.08-.05,0-.05,0S307,523.31,307,523.31Z" transform="translate(-277.43 -505.03)"/><path class="cls-12" d="M307.18,522.88s.09,0,.08,0,0,0-.05,0S307.18,522.88,307.18,522.88Z" transform="translate(-277.43 -505.03)"/><path class="cls-12" d="M307,523s.09,0,.06-.06,0,0-.06,0S307,523,307,523Z" transform="translate(-277.43 -505.03)"/></g><g class="cls-11"><path class="cls-12" d="M308.18,522.49s.15,0,.07-.08-.09,0-.11,0S308.18,522.49,308.18,522.49Z" transform="translate(-277.43 -505.03)"/><path class="cls-12" d="M308.05,522.61s.15-.05.07-.09-.09,0-.11,0S308.05,522.61,308.05,522.61Z" transform="translate(-277.43 -505.03)"/><path class="cls-12" d="M308.26,522.24s.09.14.12,0,0-.1-.06-.11S308.26,522.24,308.26,522.24Z" transform="translate(-277.43 -505.03)"/><path class="cls-12" d="M308.18,522.29s-.06-.14-.09-.06,0,.1,0,.11S308.18,522.29,308.18,522.29Z" transform="translate(-277.43 -505.03)"/><path class="cls-12" d="M308.44,522.39s-.15-.06-.11,0,.07.08.11.06S308.44,522.39,308.44,522.39Z" transform="translate(-277.43 -505.03)"/><path class="cls-12" d="M308.3,522.31s-.09,0-.08,0,0,0,.06,0A0,0,0,0,0,308.3,522.31Z" transform="translate(-277.43 -505.03)"/><path class="cls-12" d="M308.49,522.34s0-.09-.05-.07,0,0,0,.06S308.49,522.34,308.49,522.34Z" transform="translate(-277.43 -505.03)"/><path class="cls-12" d="M308.59,522.4s-.08,0-.08,0,0,0,.05,0S308.59,522.4,308.59,522.4Z" transform="translate(-277.43 -505.03)"/><path class="cls-12" d="M308.1,522.43s0-.08-.07,0,0,0,0,.06A.05.05,0,0,0,308.1,522.43Z" transform="translate(-277.43 -505.03)"/><path class="cls-12" d="M308.35,522.52s-.07,0-.08,0,0,0,0,0A0,0,0,0,0,308.35,522.52Z" transform="translate(-277.43 -505.03)"/></g><g class="cls-11"><path class="cls-12" d="M309,522.84s-.16,0-.1,0,.07.07.1,0S309,522.84,309,522.84Z" transform="translate(-277.43 -505.03)"/><path class="cls-12" d="M309.15,522.81s-.16,0-.11,0,.07.06.11,0S309.15,522.81,309.15,522.81Z" transform="translate(-277.43 -505.03)"/><path class="cls-12" d="M308.79,523s0-.16-.09-.09,0,.08,0,.11S308.79,523,308.79,523Z" transform="translate(-277.43 -505.03)"/><path class="cls-12" d="M308.88,523s0,.15.05.09.06-.07,0-.11S308.88,523,308.88,523Z" transform="translate(-277.43 -505.03)"/><path class="cls-12" d="M308.7,522.81s.1.12.1,0,0-.1-.06-.1S308.7,522.81,308.7,522.81Z" transform="translate(-277.43 -505.03)"/><path class="cls-12" d="M308.79,522.94s.07,0,.08,0,0-.05,0,0S308.79,522.94,308.79,522.94Z" transform="translate(-277.43 -505.03)"/><path class="cls-12" d="M308.63,522.82s0,.08,0,.09,0,0,0,0S308.63,522.82,308.63,522.82Z" transform="translate(-277.43 -505.03)"/><path class="cls-12" d="M308.57,522.72s.06.06.08,0,0,0,0,0A0,0,0,0,0,308.57,522.72Z" transform="translate(-277.43 -505.03)"/><path class="cls-12" d="M309,522.94s0,.08,0,.07,0,0,0,0A0,0,0,0,0,309,522.94Z" transform="translate(-277.43 -505.03)"/><path class="cls-12" d="M308.85,522.74s0,.08.06,0,0,0,0-.06A0,0,0,0,0,308.85,522.74Z" transform="translate(-277.43 -505.03)"/></g><g class="cls-11"><path class="cls-12" d="M309,522.45s-.15,0-.1,0,.07.06.11,0S309,522.45,309,522.45Z" transform="translate(-277.43 -505.03)"/><path class="cls-12" d="M309.14,522.41s-.15,0-.1.05.07.06.11,0S309.14,522.41,309.14,522.41Z" transform="translate(-277.43 -505.03)"/><path class="cls-12" d="M308.78,522.63s0-.16-.08-.09,0,.08,0,.11S308.78,522.63,308.78,522.63Z" transform="translate(-277.43 -505.03)"/><path class="cls-12" d="M308.88,522.63s0,.15.05.09.05-.07,0-.11S308.88,522.63,308.88,522.63Z" transform="translate(-277.43 -505.03)"/><path class="cls-12" d="M308.69,522.41s.11.12.11,0,0-.09-.06-.09S308.69,522.41,308.69,522.41Z" transform="translate(-277.43 -505.03)"/><path class="cls-12" d="M308.78,522.55s.07.05.08,0,0,0,0,0A0,0,0,0,0,308.78,522.55Z" transform="translate(-277.43 -505.03)"/><path class="cls-12" d="M308.63,522.43s0,.08,0,.08,0,0,0,0S308.63,522.43,308.63,522.43Z" transform="translate(-277.43 -505.03)"/><path class="cls-12" d="M308.57,522.33s.06.06.08,0,0,0,0-.05A0,0,0,0,0,308.57,522.33Z" transform="translate(-277.43 -505.03)"/><path class="cls-12" d="M309,522.55s0,.08,0,.07,0,0,0-.06A0,0,0,0,0,309,522.55Z" transform="translate(-277.43 -505.03)"/><path class="cls-12" d="M308.84,522.34s0,.08.07.06,0,0,0-.06S308.84,522.34,308.84,522.34Z" transform="translate(-277.43 -505.03)"/></g><g class="cls-11"><path class="cls-12" d="M308.24,523s.11-.12,0-.11-.09,0-.09.08S308.24,523,308.24,523Z" transform="translate(-277.43 -505.03)"/><path class="cls-12" d="M308.19,523.11s.11-.11,0-.1-.09,0-.09.07S308.19,523.11,308.19,523.11Z" transform="translate(-277.43 -505.03)"/><path class="cls-12" d="M308.18,522.7s.15.06.12,0-.05-.08-.1-.06S308.18,522.7,308.18,522.7Z" transform="translate(-277.43 -505.03)"/><path class="cls-12" d="M308.14,522.78s-.13-.09-.11,0,0,.08.08.07S308.14,522.78,308.14,522.78Z" transform="translate(-277.43 -505.03)"/><path class="cls-12" d="M308.41,522.72s-.16,0-.08.08.09,0,.12,0S308.41,522.72,308.41,522.72Z" transform="translate(-277.43 -505.03)"/><path class="cls-12" d="M308.25,522.73s-.08,0-.05.07.05,0,.06,0A.05.05,0,0,0,308.25,522.73Z" transform="translate(-277.43 -505.03)"/><path class="cls-12" d="M308.43,522.65s-.05-.07-.08,0,0,0,0,0A0,0,0,0,0,308.43,522.65Z" transform="translate(-277.43 -505.03)"/><path class="cls-12" d="M308.54,522.65s-.08,0-.06.06,0,0,.06,0A.06.06,0,0,0,308.54,522.65Z" transform="translate(-277.43 -505.03)"/><path class="cls-12" d="M308.14,522.94s-.07-.05-.08,0,0,.05,0,0S308.14,522.94,308.14,522.94Z" transform="translate(-277.43 -505.03)"/><path class="cls-12" d="M308.4,522.89s-.08,0-.08,0,0,0,.06,0A0,0,0,0,0,308.4,522.89Z" transform="translate(-277.43 -505.03)"/></g><path class="cls-13" d="M308.48,524.77s.58-1.14,1.35-1S309.29,525.42,308.48,524.77Z" transform="translate(-277.43 -505.03)"/><path class="cls-13" d="M307.4,525.1s-.74-.05-1.19-1.29c0,0,1.61,0,1.19,1.29" transform="translate(-277.43 -505.03)"/><path class="cls-14" d="M309.71,523.92a.78.78,0,0,0-.81.76S309.38,525.05,309.71,523.92Z" transform="translate(-277.43 -505.03)"/><path class="cls-14" d="M306.5,523.9s.88.25.83.8S306.5,523.9,306.5,523.9Z" transform="translate(-277.43 -505.03)"/><path class="cls-15" d="M306.57,541.47l-.25-1.36a29.78,29.78,0,0,0,3.31-.05l.09,1.34S307.47,542.47,306.57,541.47Z" transform="translate(-277.43 -505.03)"/><path class="cls-16" d="M310.86,520.36a6.23,6.23,0,0,1,6.12-1.19,2.08,2.08,0,0,1-1.33,1.93A6.53,6.53,0,0,1,310.86,520.36Z" transform="translate(-277.43 -505.03)"/><path class="cls-17" d="M317.09,519.35s-.15,2.06-1.57,2.57-3.56-.47-4.65-1.52C310.87,520.4,316.11,523,317.09,519.35Z" transform="translate(-277.43 -505.03)"/><path class="cls-3" d="M311.86,520.37s.44-.2,1.06-.43a4.94,4.94,0,0,1,1.79-.43,6.92,6.92,0,0,1,1.57.15,8.07,8.07,0,0,1-1.09.5,4.33,4.33,0,0,1-2.1.31A6.71,6.71,0,0,1,311.86,520.37Z" transform="translate(-277.43 -505.03)"/><ellipse class="cls-18" cx="314.24" cy="519.59" rx="0.45" ry="0.32" transform="translate(-333.6 -466.6) rotate(-6.43)"/><path class="cls-16" d="M305.15,521a6.24,6.24,0,0,0-6-1.8,2.09,2.09,0,0,0,1.13,2.06A6.54,6.54,0,0,0,305.15,521Z" transform="translate(-277.43 -505.03)"/><path class="cls-17" d="M299.06,519.33s-.06,2.07,1.31,2.71,3.58-.1,4.77-1C305.14,521,299.66,523.09,299.06,519.33Z" transform="translate(-277.43 -505.03)"/><path class="cls-3" d="M304.16,520.87s-.42-.24-1-.54a5.09,5.09,0,0,0-1.74-.6,6.82,6.82,0,0,0-1.57,0,8.27,8.27,0,0,0,1,.61,4.45,4.45,0,0,0,2.06.52A7.25,7.25,0,0,0,304.16,520.87Z" transform="translate(-277.43 -505.03)"/><ellipse class="cls-18" cx="301.87" cy="519.85" rx="0.32" ry="0.45" transform="translate(-547.39 200.25) rotate(-77.82)"/><path class="cls-19" d="M308.07,543.25a1,1,0,0,0-1,0l.2,1.3-.93-.4s-.33.86-.06,1.2l1-.36-.4,2.27s.74.35,1,0l-.14-2.31.93.47s.33-.88.06-1.19l-.94.32Z" transform="translate(-277.43 -505.03)"/><path class="cls-20" d="M294.4,538.66s-7.52-9.61-5.25-19.14S301,505.22,307,505.2s14.3,2.95,15.88,7.25,3.73,9.35-2.27,24.34l-10.91,5.59Z" transform="translate(-277.43 -505.03)"/></svg>