<svg id="Layer_1" data-name="Layer 1" xmlns="http://www.w3.org/2000/svg" viewBox="0 0 38.62 51.16"><defs><style>.cls-1{fill:#ed0;stroke-width:0.75px;opacity:0.94;}.cls-1,.cls-5,.cls-6{stroke:#000;}.cls-1,.cls-2,.cls-5,.cls-6{stroke-miterlimit:10;}.cls-2{fill:#fc0;stroke:#fc0;}.cls-3{fill:#e70;}.cls-4{fill:#921;opacity:0.43;}.cls-5{fill:#fff;stroke-width:0.5px;}.cls-6{fill:none;stroke-width:0.18px;}</style></defs><title>fire</title><path class="cls-1" d="M581.94,433.6a25.7,25.7,0,0,0,6.41-6.33c0-.84,2,5.63,4.66-4.61,0,0,12.82-9.79,7.57-21.88,0,0-2.91,5.76-4.08,5.18s1.75-6.34-4.66-12.09-8.74-8.07-8.15-10.37c0,0-5.83,2.3-4.08,9.79,0,0-2.33-4-4.08-4.61,0,0,.29,3.17-2,4.9a51.46,51.46,0,0,0-4.66,4s-3.49,3.45-2.91,5.76,1.16,4,1.16,4,0,2.3-1.16-.58-1.17-1.15-1.17-1.15-1.75,5.19,0,9.22a9.66,9.66,0,0,0,4.66,5.18,4,4,0,0,1,1.75,2.88c0,1.73.63,3.26,3,5a5.3,5.3,0,0,0,1.7-1S577,430.44,581.94,433.6Z" transform="translate(-563.6 -382.88)"/><path class="cls-2" d="M570.58,397.11s6.41-4.73,5.82-6.51c0,0,1.17,6.51,2.34,5.92s1.16-2.37,1.16-2.37a27.75,27.75,0,0,1,.58-5.92,11.27,11.27,0,0,1,2.33-3.55s0,3.55,4.08,6.51,7.58,5.92,8.16,13,3.12,1.6,3.12,1.6l1.71-1.79a15.33,15.33,0,0,1-3.67,13.81c-5.82,6.51-5.24,5.33-5.24,5.33s-.62,6-1.17,4.15c-.74-2.55-1.74-3.56-3.49-1.78a46.16,46.16,0,0,0-3.5,4.14s-5.82-4.73-7-4.73-1.16.59-2.91-1.78a52,52,0,0,0-4.08-4.74s-4.66-3-3.49-10.07c0,0,3.49,2.37,2.91-.59S566.5,400.67,570.58,397.11Z" transform="translate(-563.6 -382.88)"/><path class="cls-3" d="M591.66,421.5a35.18,35.18,0,0,0,5.16-5.25c2.87-3.5,1.15-8.16,1.15-8.16-2.3,2.33-2.87,0-4-4.67s-4-5.83-7.45-7-2.87-5.83-2.87-5.83-1.72,1.16-1.15,4.66-3.44,5.25-3.44,5.25c-1.72,0-2.29-3.5-2.29-4.67s-3.45,2.92-6.31,5.83,0,8.75,0,9.92S567,411,567,411a32.28,32.28,0,0,0,2.3,5.83s4.62,6.19,5.89,6.84,5.07,1.93,6.33,3.22,3.17-1.29,6.34-3.22l3.17-1.94" transform="translate(-563.6 -382.88)"/><path class="cls-4" d="M580.66,403.58s1.93.8,2-2.2c0-7.72,4,5.78,4.88,1.3,0,0,.86-3.57,2.57-.89,1.46,2.29.11,2,1,5.13s1.26,4.76,2.94,3.17c0,0,1.26,3.17-.84,5.55a25,25,0,0,1-3.78,3.56S585.55,422,583,422s-8.83-3.56-10.09-5.94a20.67,20.67,0,0,1-1.68-4s2.52,1.19,2.52.4-2.1-4.75,0-6.73,6-4.74,6-3.95S579.4,403.58,580.66,403.58Z" transform="translate(-563.6 -382.88)"/><ellipse class="cls-5" cx="14.55" cy="27.9" rx="3.85" ry="3.88"/><ellipse class="cls-5" cx="24.15" cy="27.9" rx="3.85" ry="3.88"/><path class="cls-6" d="M577.09,410.08v1.22l.59-.87-1.07,0,1,0h.3s-1.08.42-1,.36-.31.34-.31.34l1.09,0-.87.21.79-.38.48-.23h-1.49l.87-.61-.87.81,1.35,0" transform="translate(-563.6 -382.88)"/><path class="cls-6" d="M588.39,409.94v1.44l-.69-1,1.26,0-1.13,0h-.36s1.28.5,1.13.43.36.4.36.4l-1.29-.05,1,.25-.93-.44-.57-.28H589l-1-.72,1,.95-1.6.06" transform="translate(-563.6 -382.88)"/><ellipse cx="19.52" cy="34.08" rx="3.52" ry="0.35"/></svg>