<svg id="Layer_1" data-name="Layer 1" xmlns="http://www.w3.org/2000/svg" viewBox="0 0 50.82 132.82"><defs><style>.cls-1{fill:#f1c6a8;}.cls-1,.cls-10,.cls-13,.cls-2,.cls-4,.cls-5,.cls-7,.cls-8,.cls-9{stroke:#000;}.cls-1,.cls-10,.cls-11,.cls-13,.cls-2,.cls-3,.cls-4,.cls-5,.cls-6,.cls-7,.cls-8,.cls-9{stroke-miterlimit:10;}.cls-2{fill:#951640;}.cls-3{fill:#c13a53;}.cls-3,.cls-6{stroke:#010202;}.cls-4{fill:#d8a849;}.cls-5{fill:none;}.cls-6{fill:#b23753;stroke-width:0.75px;}.cls-7{fill:#25b4cb;}.cls-8{fill:#7380be;}.cls-9{fill:#a5539a;}.cls-10{fill:#80b2c0;}.cls-11{fill:#3f5a9a;stroke:#010101;}.cls-12,.cls-13{fill:#5373b6;}.cls-14{fill:#a3d8e5;}</style></defs><title>flyingMan</title><path class="cls-1" d="M320,695.37s18.93-28.58-5.77-38.41c0,0-6.23-3.47.12-5.24,0,0,34.09,8.6,10.87,49.35S320,695.37,320,695.37Z" transform="translate(-283.01 -630.73)"/><path class="cls-2" d="M293.21,691.94s3.14-2.89,4.77-2,24.84-.22,24.84-.22,1.41,3.36-.84,4.08S312.62,702.47,293.21,691.94Z" transform="translate(-283.01 -630.73)"/><path class="cls-1" d="M296.11,696.42S276,669.58,304.62,656c0,0,4.8-3.13-.44-4.21-5.77-1.19-18.06,7.69-20,18.52s.48,22,10.51,31.71,2-5.69,2-5.69" transform="translate(-283.01 -630.73)"/><path class="cls-1" d="M316.34,697.2c.64,6.31-.22,33.85,1.19,40.3,1.54,7.09.9,23.13-2.17,24.28s-5.52-31.41-8-31.71c-7.64-.91-4.72,4.76-8.47,29.57-1.87,12.4-12.49-11.57-4.52-31.55,9.92-24.91,6.74-27.52,6.74-27.52s-.27,27.58-4.07,30.72-12.95,4.67-5.16-10.53,6.11-28.08,2.85-32.7-5.11-11.23.14-18.83,14-6.71,18.87-5.56,13.21,5.78,13,12.22-6.75,12.68-6,15.88" transform="translate(-283.01 -630.73)"/><path class="cls-3" d="M294,691.54s14.25,5.33,28.13-1.12l10.61,62.26c-5.12-2.07-3.34-2.11-9.9-2.2-7.3-.11-8.08-2-16.95,1.27s-11.15,1.48-11.15,1.48-12.57-2.47-10.44-7.55S290.24,694,294,691.54Z" transform="translate(-283.01 -630.73)"/><polygon class="cls-4" points="11.43 24.08 15.33 28.57 12.73 30.63 8.46 25.14 11.43 24.08"/><path class="cls-5" d="M291.46,751.86s6.93-10.55,7.88-47.51" transform="translate(-283.01 -630.73)"/><path class="cls-5" d="M317.94,749.13s-1.63-30.35-5.16-46" transform="translate(-283.01 -630.73)"/><polygon class="cls-4" points="33.3 27.33 37.9 23 41.63 24.92 36.28 28.84 33.3 27.33"/><path class="cls-6" d="M307.86,698.82s1.1,1.15,1.89,5.48c2.86,15.69,4.33,45.08,4.33,45.08A94,94,0,0,1,332,752.85a.16.16,0,0,0,.18-.24c-2-2.56-13.5-18.46-17.1-50.42l-.62-4.8" transform="translate(-283.01 -630.73)"/><path class="cls-6" d="M302.87,695.92s-4.83-1.23-4.26,1.06a40,40,0,0,1,.52,7.14c-.95,37-8.16,47.46-8.16,47.46s8.8,4.4,15.4,0c0,0,3.89-38.6-.18-48.63C306.19,703,303.93,696.26,302.87,695.92Z" transform="translate(-283.01 -630.73)"/><path class="cls-2" d="M292.3,692.92l3.07-3s18.49,3.61,27.45-.26c0,0,1.88,5.07-.16,5.45S300.85,704.2,292.3,692.92Z" transform="translate(-283.01 -630.73)"/><rect class="cls-7" x="24.39" y="0.5" width="1.71" height="4.88"/><polygon class="cls-8" points="22.79 4.37 27.69 4.37 27.35 12.49 23.26 12.49 22.79 4.37"/><polygon class="cls-9" points="21.73 7.64 29.11 7.64 27.05 17.86 24.1 17.86 21.73 7.64"/><ellipse class="cls-10" cx="25.45" cy="13.59" rx="4.83" ry="3.66"/><ellipse class="cls-11" cx="25.69" cy="18.65" rx="5.6" ry="5.05"/><polyline class="cls-9" points="22.22 22.11 23.89 25.66 27.9 25.66 29.23 22.11 22.22 22.11"/><path class="cls-12" d="M305.24,647.06s3-3.64,6.38,0C311.62,647.06,307.88,645.27,305.24,647.06Z" transform="translate(-283.01 -630.73)"/><polygon class="cls-13" points="23.89 25.66 27.69 25.66 27.56 27.5 23.89 27.5 23.89 25.66"/><path class="cls-14" d="M305.55,642.49a3.72,3.72,0,0,1,5.36,0S307.84,641.05,305.55,642.49Z" transform="translate(-283.01 -630.73)"/></svg>