<svg id="Layer_1" data-name="Layer 1" xmlns="http://www.w3.org/2000/svg" xmlns:xlink="http://www.w3.org/1999/xlink" viewBox="0 0 601 808.74"><defs><style>.cls-1,.cls-17,.cls-22,.cls-24,.cls-6{fill:none;}.cls-2{fill:#98cfd8;}.cls-2,.cls-30{stroke:#000;}.cls-10,.cls-17,.cls-2,.cls-22,.cls-24,.cls-27,.cls-30,.cls-6{stroke-miterlimit:10;}.cls-3{clip-path:url(#clip-path);}.cls-4{fill:#14110d;}.cls-5{fill:#d9a860;}.cls-27,.cls-6{stroke:#1d1d1b;}.cls-7{fill:#d29e5b;}.cls-8{fill:#dfaf74;}.cls-9{fill:#cc9a5b;}.cls-10{fill:#f7d587;}.cls-10,.cls-17{stroke:#b68f63;}.cls-11,.cls-30{fill:#fff;}.cls-12{fill:#211e1b;}.cls-13,.cls-31,.cls-38{fill:#1d1d1b;}.cls-14{fill:#fffdf8;}.cls-15{fill:#bd7132;}.cls-16{fill:#d9a666;}.cls-18{opacity:0.39;}.cls-19{fill:#f2d39a;}.cls-20{fill:#cd9b5d;}.cls-21{fill:#a8d1dd;}.cls-21,.cls-22{opacity:0.15;}.cls-22{stroke:#24234f;stroke-width:3px;}.cls-23{fill:#c99154;}.cls-24{stroke:#cd9b5d;stroke-width:2px;}.cls-25{fill:#fce5cd;opacity:0.42;}.cls-26{opacity:0.18;}.cls-27,.cls-29{fill:#fcce04;}.cls-27,.cls-28{opacity:0.99;}.cls-30{stroke-width:5px;}.cls-31{font-size:15.4px;font-family:SpaceComics, Space Comics;}.cls-32{letter-spacing:-0.26em;}.cls-33{letter-spacing:-0.08em;}.cls-34{letter-spacing:0em;}.cls-35{letter-spacing:-0.02em;}.cls-36{letter-spacing:-0.05em;}.cls-37{letter-spacing:-0.03em;}.cls-38{font-size:21.56px;font-family:TYPOCOMICSLightDEMO, TYPO COMICS Light DEMO;}</style><clipPath id="clip-path" transform="translate(0 0)"><rect class="cls-1" x="166.58" y="203.48" width="465.42" height="600.06"/></clipPath></defs><title>frogTalking</title><rect class="cls-2" x="0.5" y="0.5" width="600" height="800"/><g class="cls-3"><path class="cls-4" d="M364.56,566.92,362.77,582s38,19.58,47.38,23.1c0,0,76.35-46.59,93.18-50.11l1-11.55" transform="translate(0 0)"/><path class="cls-5" d="M504.31,543.61s-1.72-19.71,10.26-46.27-6.74-70.33-16.84-80.81S476,390,446.86,387s-64.72-4.11-88.66,12.35-12.72,31.42-12.72,31.42,4.49,16.46,3.37,26.56,1.12,28.43,9.35,32.92a7.41,7.41,0,0,1,2.14,1.57c2.94,3.47-7.28,6-6.63,17.13.75,12.72,7.11,49.76,10.85,58s37.41,18,42.27,18.33S504.69,546.23,504.31,543.61Z" transform="translate(0 0)"/><path class="cls-5" d="M502.84,542.73S501.13,523,513.1,496.46s-6.74-70.33-16.84-80.81-21.69-26.56-50.87-29.55-64.72-4.11-88.66,12.35S344,429.87,344,429.87s4.49,16.46,3.37,26.56,1.12,28.43,9.35,32.92a7.41,7.41,0,0,1,2.14,1.57c2.95,3.47-7.28,6-6.63,17.13.75,12.72,7.11,49.75,10.85,58s37.41,18,42.27,18.33S503.22,545.35,502.84,542.73Z" transform="translate(0 0)"/><path class="cls-6" d="M360.34,491.8c.29-.32.59-.64.91-.95,5.9-5.78,16.91-9.63,31.92-10.84,11.21-.9,24.65-.34,39.85,2,36.66,5.61,58-3.37,58-3.37" transform="translate(0 0)"/><path class="cls-7" d="M360.34,489.45c5.63-6.31,17-10.51,32.83-11.79,11.21-.9,24.65-.34,39.85,2,36.66,5.61,58-3.37,58-3.37v5.29s-21.32,9-58,3.37c-15.2-2.33-28.64-2.9-39.85-2-15.82,1.28-27.2,5.48-32.83,11.79,0,0,1-2.18.47-2.66s-1.32-1.18-1.32-1.18Z" transform="translate(0 0)"/><rect class="cls-8" x="402.06" y="460.85" width="5.17" height="7.52" rx="2.5" transform="translate(396.81 -151.46) rotate(40.33)"/><rect class="cls-8" x="379.59" y="460.17" width="5.17" height="7.52" rx="2.5" transform="translate(391.03 -137.08) rotate(40.33)"/><path class="cls-6" d="M402.12,434S425,402.27,481.8,416.56" transform="translate(0 0)"/><path class="cls-9" d="M481.8,417.14c-56.77-14.29-79.68,17.43-79.68,17.43l1.42,5.33s22.61-29.66,77.82-16.59Z" transform="translate(0 0)"/><path class="cls-9" d="M343.59,416.17c24.66-3.72,40.52,25.25,40.52,25.25l2.35-5.87s-15.86-29-40.52-25.26Z" transform="translate(0 0)"/><path class="cls-10" d="M427.77,435.74s17.62-17,41.89-4.11c0,0-.78,11.55-10.37,14.49S435.21,442.59,427.77,435.74Z" transform="translate(0 0)"/><path class="cls-6" d="M487.09,550.66s-1.57-25.26,13.7-45-.2-85.55-27.21-98.27-45.81,3.72-57.56,5.48-14.68,6.65-40.52-8.42c0,0-8.56-6.47-17.3-5.09" transform="translate(0 0)"/><path class="cls-7" d="M470.22,433.17s-2.52,16.67-12.45,19.46-23.48-7-30-16.6C427.81,436,460.91,462.24,470.22,433.17Z" transform="translate(0 0)"/><path class="cls-6" d="M345.48,430.75" transform="translate(0 0)"/><polygon class="cls-11" points="392.14 580.81 392.14 596.47 410.15 605.08 430.51 592.95 430.51 576.5 406.83 585.25 392.14 580.81"/><path class="cls-12" d="M294.25,802.81S277,582,362.77,582l47.38,23.1s75.56-46.59,93.18-50.11,92.8,42.28,70.48,247.06Z" transform="translate(0 0)"/><path class="cls-13" d="M434.42,436.74s3.12-1.21,7.44-2.56c3.32-1,7.08-2.41,12.35-1.84A38,38,0,0,1,464.57,435a47.34,47.34,0,0,1-7.63,3.09,24.86,24.86,0,0,1-14.29.59C440.34,438.15,437,437.91,434.42,436.74Z" transform="translate(0 0)"/><ellipse class="cls-14" cx="450.97" cy="432.51" rx="3.03" ry="2.64"/><path class="cls-15" d="M379.34,503.1l1.61-1s-.11-2.17-1-1.23A2.57,2.57,0,0,0,379.34,503.1Z" transform="translate(0 0)"/><path class="cls-6" d="M359,492.09c.29-.32.59-.64.91-.95,5.9-5.78,16.91-9.62,31.92-10.83,11.21-.91,24.64-.34,39.84,2,36.66,5.61,58-3.36,58-3.36" transform="translate(0 0)"/><path class="cls-6" d="M359,492.68c.29-.32.59-.64.91-.95,5.9-5.78,16.91-9.63,31.92-10.84,11.21-.9,24.64-.34,39.84,2,36.66,5.61,58-3.37,58-3.37" transform="translate(0 0)"/><path class="cls-6" d="M360.19,491.51c.29-.33.59-.64.91-1,5.9-5.77,16.91-9.62,31.93-10.83,11.2-.91,24.64-.34,39.84,2,36.66,5.61,58-3.37,58-3.37" transform="translate(0 0)"/><path class="cls-6" d="M386.46,435.55s-15.86-29-40.52-25.26" transform="translate(0 0)"/><rect class="cls-13" x="403.08" y="462.41" width="2.94" height="4.58" rx="1.46" transform="translate(396.84 -151.37) rotate(40.33)"/><rect class="cls-13" x="380.61" y="461.33" width="2.94" height="4.58" rx="1.46" transform="matrix(0.83, 0.56, -0.56, 0.83, 325.82, -134.51)"/><path class="cls-16" d="M405.94,490.55s-33-5.21-42.09,7.14-4.17,20,1.92,28.14S389,543.23,397.46,548s23.92,7,33.83,3,17.6-11.55,16.3-25.6,1.2-24.75.57-28.64S426.36,485.74,405.94,490.55Z" transform="translate(0 0)"/><path class="cls-15" d="M433.64,495.89s-3.13,1-2,1.57a3.53,3.53,0,0,0,2.74-.2Z" transform="translate(0 0)"/><path class="cls-15" d="M427.94,496.34s.63-2.46-.37-2.11S426.5,496,426.5,496Z" transform="translate(0 0)"/><path class="cls-15" d="M438.14,498.63l.79,2,1.56-1.17A3,3,0,0,0,438.14,498.63Z" transform="translate(0 0)"/><path class="cls-15" d="M411.67,511.7l.78,2,1.56-1.18A3,3,0,0,0,411.67,511.7Z" transform="translate(0 0)"/><path class="cls-15" d="M430.72,492.58l2,.67.12-2A3,3,0,0,0,430.72,492.58Z" transform="translate(0 0)"/><path class="cls-15" d="M422.87,504l.79,2,1.56-1.17A3,3,0,0,0,422.87,504Z" transform="translate(0 0)"/><path class="cls-15" d="M427.65,499l-1.11,1.8,1.88.55A3,3,0,0,0,427.65,499Z" transform="translate(0 0)"/><path class="cls-15" d="M431.7,499.42l0,4,2-2S433.12,499.31,431.7,499.42Z" transform="translate(0 0)"/><path class="cls-15" d="M417.54,491.93l.78,2,1.57-1.18A3,3,0,0,0,417.54,491.93Z" transform="translate(0 0)"/><path class="cls-15" d="M402.27,497.31l.78,2,1.57-1.17A3,3,0,0,0,402.27,497.31Z" transform="translate(0 0)"/><path class="cls-15" d="M407,492.31l-1.1,1.79,1.87.56A3,3,0,0,0,407,492.31Z" transform="translate(0 0)"/><path class="cls-15" d="M411.1,492.72l0,4,2-2S412.52,492.61,411.1,492.72Z" transform="translate(0 0)"/><path class="cls-15" d="M423.48,495.85,421.63,497s.52,3.12,1.5,1.93A3.72,3.72,0,0,0,423.48,495.85Z" transform="translate(0 0)"/><path class="cls-15" d="M439,493.35l-1.61,1s.11,2.17,1,1.23A2.57,2.57,0,0,0,439,493.35Z" transform="translate(0 0)"/><path class="cls-15" d="M416.17,498.19V500s2.35,1,2-.19A3,3,0,0,0,416.17,498.19Z" transform="translate(0 0)"/><path class="cls-15" d="M419.61,500.57l-.91,1.5s1.49,2.06,1.77.86A3,3,0,0,0,419.61,500.57Z" transform="translate(0 0)"/><path class="cls-15" d="M400.09,509.38s3.13-1,2-1.57a3.58,3.58,0,0,0-2.74.2Z" transform="translate(0 0)"/><path class="cls-15" d="M390,513.54s3.13-1,2-1.57a3.57,3.57,0,0,0-2.74.2Z" transform="translate(0 0)"/><path class="cls-15" d="M405.79,508.93s-.63,2.46.36,2.11,1.08-1.75,1.08-1.75Z" transform="translate(0 0)"/><path class="cls-15" d="M395.34,506.64l-.78-2L393,505.85A3,3,0,0,0,395.34,506.64Z" transform="translate(0 0)"/><path class="cls-15" d="M384.57,512.36l-.78-1.95-1.57,1.17A3,3,0,0,0,384.57,512.36Z" transform="translate(0 0)"/><path class="cls-15" d="M403,512.69l-2-.67-.11,2A3,3,0,0,0,403,512.69Z" transform="translate(0 0)"/><path class="cls-15" d="M410.61,501.25l-.78-1.95-1.57,1.17A3,3,0,0,0,410.61,501.25Z" transform="translate(0 0)"/><path class="cls-15" d="M405.84,506.26l1.1-1.8-1.88-.55A3,3,0,0,0,405.84,506.26Z" transform="translate(0 0)"/><path class="cls-15" d="M401.78,505.85l0-4-2,2S400.36,506,401.78,505.85Z" transform="translate(0 0)"/><path class="cls-15" d="M410,509.42l1.86-1.17s-.53-3.12-1.51-1.93A3.72,3.72,0,0,0,410,509.42Z" transform="translate(0 0)"/><path class="cls-15" d="M394.7,511.92l1.62-1s-.11-2.17-1-1.23A2.59,2.59,0,0,0,394.7,511.92Z" transform="translate(0 0)"/><path class="cls-15" d="M422.5,511.32s3.13-1,2-1.56a3.55,3.55,0,0,0-2.74.19Z" transform="translate(0 0)"/><path class="cls-15" d="M428.2,510.73s-.63,2.46.37,2.11,1.08-1.75,1.08-1.75Z" transform="translate(0 0)"/><path class="cls-15" d="M425.42,514.64l-2-.67-.12,1.95A3,3,0,0,0,425.42,514.64Z" transform="translate(0 0)"/><path class="cls-15" d="M432.66,511.22l1.86-1.17s-.53-3.12-1.5-1.93A3.7,3.7,0,0,0,432.66,511.22Z" transform="translate(0 0)"/><path class="cls-15" d="M416.87,513.87l1.62-1s-.11-2.17-1-1.22A2.59,2.59,0,0,0,416.87,513.87Z" transform="translate(0 0)"/><path class="cls-15" d="M385.45,500.56s3.14-1,2-1.57a3.53,3.53,0,0,0-2.74.2Z" transform="translate(0 0)"/><path class="cls-15" d="M386.69,506.69s.93,3.15,1.53,2a3.52,3.52,0,0,0-.15-2.74Z" transform="translate(0 0)"/><path class="cls-15" d="M391.15,500.11s-.63,2.45.37,2.11,1.08-1.75,1.08-1.75Z" transform="translate(0 0)"/><path class="cls-15" d="M388.37,503.87l-2-.67-.12,2A3,3,0,0,0,388.37,503.87Z" transform="translate(0 0)"/><path class="cls-15" d="M395.61,500.59l1.86-1.16s-.53-3.12-1.5-1.93A3.67,3.67,0,0,0,395.61,500.59Z" transform="translate(0 0)"/><path class="cls-15" d="M417.07,507.23v-1.77s-2.35-1-2,.2S417.07,507.23,417.07,507.23Z" transform="translate(0 0)"/><path class="cls-15" d="M413.62,504.85l.92-1.5s-1.49-2.06-1.77-.86A3,3,0,0,0,413.62,504.85Z" transform="translate(0 0)"/><path class="cls-15" d="M434.56,516.35s-3.13,1-2,1.56a3.54,3.54,0,0,0,2.74-.19Z" transform="translate(0 0)"/><path class="cls-15" d="M428.86,516.79s.63-2.45-.37-2.11-1.08,1.76-1.08,1.76Z" transform="translate(0 0)"/><path class="cls-15" d="M439.06,519.09l.78,1.95,1.57-1.17A3,3,0,0,0,439.06,519.09Z" transform="translate(0 0)"/><path class="cls-15" d="M431.64,513l2,.67.12-2A3,3,0,0,0,431.64,513Z" transform="translate(0 0)"/><path class="cls-15" d="M423.79,524.47l.78,2,1.57-1.18A3,3,0,0,0,423.79,524.47Z" transform="translate(0 0)"/><path class="cls-15" d="M428.56,519.46l-1.1,1.8,1.88.56A3,3,0,0,0,428.56,519.46Z" transform="translate(0 0)"/><path class="cls-15" d="M432.62,519.87l0,4,2-2S434,519.76,432.62,519.87Z" transform="translate(0 0)"/><path class="cls-15" d="M403.43,517.76l.78,2,1.57-1.17A3,3,0,0,0,403.43,517.76Z" transform="translate(0 0)"/><path class="cls-15" d="M408.2,512.76l-1.1,1.79,1.88.56A3,3,0,0,0,408.2,512.76Z" transform="translate(0 0)"/><path class="cls-15" d="M424.4,516.31l-1.85,1.16s.52,3.12,1.5,1.93A3.69,3.69,0,0,0,424.4,516.31Z" transform="translate(0 0)"/><path class="cls-15" d="M439.94,513.8l-1.61,1s.11,2.17,1,1.22A2.57,2.57,0,0,0,439.94,513.8Z" transform="translate(0 0)"/><path class="cls-15" d="M417.33,518.65v1.76s2.35,1,2-.2S417.33,518.65,417.33,518.65Z" transform="translate(0 0)"/><path class="cls-15" d="M420.78,521l-.92,1.51s1.49,2.06,1.77.85A3,3,0,0,0,420.78,521Z" transform="translate(0 0)"/><path class="cls-15" d="M401,529.83s3.13-1,1.95-1.56a3.55,3.55,0,0,0-2.74.19Z" transform="translate(0 0)"/><path class="cls-15" d="M406.7,529.38s-.63,2.46.37,2.11,1.08-1.75,1.08-1.75Z" transform="translate(0 0)"/><path class="cls-15" d="M396.5,527.09l-.78-2-1.57,1.18A3,3,0,0,0,396.5,527.09Z" transform="translate(0 0)"/><path class="cls-15" d="M403.92,533.15l-2-.67-.12,1.95A3,3,0,0,0,403.92,533.15Z" transform="translate(0 0)"/><path class="cls-15" d="M411.77,521.71l-.78-2-1.57,1.17A3,3,0,0,0,411.77,521.71Z" transform="translate(0 0)"/><path class="cls-15" d="M407,526.71l1.1-1.79-1.87-.56A3,3,0,0,0,407,526.71Z" transform="translate(0 0)"/><path class="cls-15" d="M402.94,526.3l0-4-2,2S401.52,526.41,402.94,526.3Z" transform="translate(0 0)"/><path class="cls-15" d="M411.17,529.87l1.85-1.16s-.53-3.12-1.5-1.93S411.17,529.87,411.17,529.87Z" transform="translate(0 0)"/><path class="cls-15" d="M395.62,532.38l1.62-1s-.11-2.17-1-1.22A2.59,2.59,0,0,0,395.62,532.38Z" transform="translate(0 0)"/><path class="cls-15" d="M423.42,531.78s3.13-1,2-1.57a3.53,3.53,0,0,0-2.74.2Z" transform="translate(0 0)"/><path class="cls-15" d="M429.12,531.33s-.63,2.45.37,2.11,1.08-1.75,1.08-1.75Z" transform="translate(0 0)"/><path class="cls-15" d="M426.34,535.09l-2-.67-.12,2A3,3,0,0,0,426.34,535.09Z" transform="translate(0 0)"/><path class="cls-15" d="M433.58,531.67l1.85-1.17s-.52-3.12-1.5-1.93A3.72,3.72,0,0,0,433.58,531.67Z" transform="translate(0 0)"/><path class="cls-15" d="M418,534.32l1.61-1s-.11-2.17-1-1.23A2.57,2.57,0,0,0,418,534.32Z" transform="translate(0 0)"/><path class="cls-15" d="M386.62,521s3.13-1,1.95-1.57a3.58,3.58,0,0,0-2.74.2Z" transform="translate(0 0)"/><path class="cls-15" d="M392.32,520.56s-.63,2.46.36,2.11,1.08-1.75,1.08-1.75Z" transform="translate(0 0)"/><path class="cls-15" d="M389.53,524.32l-2-.67-.11,2A3,3,0,0,0,389.53,524.32Z" transform="translate(0 0)"/><path class="cls-15" d="M396.78,521.05l1.85-1.17s-.52-3.12-1.5-1.93A3.68,3.68,0,0,0,396.78,521.05Z" transform="translate(0 0)"/><path class="cls-15" d="M380.84,523.55l1.62-1s-.11-2.17-1-1.23A2.59,2.59,0,0,0,380.84,523.55Z" transform="translate(0 0)"/><path class="cls-15" d="M418.23,527.68v-1.76s-2.35-1-2,.19A3,3,0,0,0,418.23,527.68Z" transform="translate(0 0)"/><path class="cls-15" d="M414.79,525.3l.92-1.5s-1.5-2.06-1.78-.86A3,3,0,0,0,414.79,525.3Z" transform="translate(0 0)"/><path class="cls-10" d="M344.78,429.64a32,32,0,0,1,15.87,7.93,37,37,0,0,1-13.39,9.23c-.58.21-.49-.36-.49-.36-.06-4.19-2.79-16.57-2.79-16.57A1.6,1.6,0,0,1,344.78,429.64Z" transform="translate(0 0)"/><path class="cls-17" d="M345,432" transform="translate(0 0)"/><path class="cls-17" d="M345,429.64" transform="translate(0 0)"/><path class="cls-7" d="M346.92,446.9a39.7,39.7,0,0,0,14-9.4l.27,3a36.78,36.78,0,0,1-13.39,9.23c-.58.22-.69-.28-.69-.28Z" transform="translate(0 0)"/><path class="cls-13" d="M345,435.25a18.5,18.5,0,0,1,2.12.23,31.28,31.28,0,0,1,9.05,3.12,38.62,38.62,0,0,1-6.87,2.76,27.18,27.18,0,0,1-3.14.76s-.9-6.76-1.16-6.87" transform="translate(0 0)"/><path class="cls-14" d="M345.4,437.91c.18,1,1.47-1.25,1.51-2.26a2.68,2.68,0,0,0-2.57-2.77S345.14,436.36,345.4,437.91Z" transform="translate(0 0)"/><g class="cls-18"><path class="cls-19" d="M392.17,455.35s-1,.44-.39.64.64.05.74-.25S392.17,455.35,392.17,455.35Z" transform="translate(0 0)"/><path class="cls-19" d="M392.94,454.47s-1,.44-.39.64.64,0,.74-.25S392.94,454.47,392.94,454.47Z" transform="translate(0 0)"/><path class="cls-19" d="M391.87,457.1s-.76-.81-.84-.18.1.63.47.63S391.87,457.1,391.87,457.1Z" transform="translate(0 0)"/><path class="cls-19" d="M392.35,456.7s.55.92.68.32,0-.64-.33-.71S392.35,456.7,392.35,456.7Z" transform="translate(0 0)"/><path class="cls-19" d="M390.5,456.28s1,.24.69-.27-.47-.42-.73-.25S390.5,456.28,390.5,456.28Z" transform="translate(0 0)"/><path class="cls-19" d="M391.53,456.68s.58,0,.46-.32-.2-.21-.39,0A.3.3,0,0,0,391.53,456.68Z" transform="translate(0 0)"/><path class="cls-19" d="M390.2,456.66s.12.57.39.41.17-.24,0-.39A.29.29,0,0,0,390.2,456.66Z" transform="translate(0 0)"/><path class="cls-19" d="M389.47,456.33s.57.12.53-.19-.14-.25-.36-.14A.31.31,0,0,0,389.47,456.33Z" transform="translate(0 0)"/><path class="cls-19" d="M392.77,455.7s.3.5.5.27.09-.28-.15-.37A.3.3,0,0,0,392.77,455.7Z" transform="translate(0 0)"/><path class="cls-19" d="M391,455.3s.47.32.56,0,0-.29-.29-.26A.28.28,0,0,0,391,455.3Z" transform="translate(0 0)"/></g><g class="cls-18"><path class="cls-19" d="M386.94,457.51s1.07.09.66-.37-.53-.35-.76-.14S386.94,457.51,386.94,457.51Z" transform="translate(0 0)"/><path class="cls-19" d="M385.84,457.9s1.07.09.65-.37-.53-.35-.76-.14S385.84,457.9,385.84,457.9Z" transform="translate(0 0)"/><path class="cls-19" d="M388.07,456.13s.27,1.08.64.57.22-.6-.1-.79S388.07,456.13,388.07,456.13Z" transform="translate(0 0)"/><path class="cls-19" d="M387.45,456.24s0-1.07-.43-.6-.3.56-.06.77S387.45,456.24,387.45,456.24Z" transform="translate(0 0)"/><path class="cls-19" d="M388.86,457.51s-.79-.72-.74-.1.21.6.52.57S388.86,457.51,388.86,457.51Z" transform="translate(0 0)"/><path class="cls-19" d="M388.15,456.66s-.51-.26-.56,0,.08.29.33.23A.28.28,0,0,0,388.15,456.66Z" transform="translate(0 0)"/><path class="cls-19" d="M389.31,457.33s.17-.55-.14-.55-.26.13-.17.36A.29.29,0,0,0,389.31,457.33Z" transform="translate(0 0)"/><path class="cls-19" d="M389.78,458s-.43-.39-.56-.1,0,.29.26.3A.28.28,0,0,0,389.78,458Z" transform="translate(0 0)"/><path class="cls-19" d="M386.59,456.9s0-.57-.3-.47-.21.2-.05.39A.28.28,0,0,0,386.59,456.9Z" transform="translate(0 0)"/><path class="cls-19" d="M387.93,458.12s-.26-.52-.48-.3-.11.27.12.37A.3.3,0,0,0,387.93,458.12Z" transform="translate(0 0)"/></g><g class="cls-18"><path class="cls-19" d="M392.86,458.34s-1.06.12-.56.49.59.24.77,0S392.86,458.34,392.86,458.34Z" transform="translate(0 0)"/><path class="cls-19" d="M393.86,457.73s-1.06.13-.56.49.59.24.77,0S393.86,457.73,393.86,457.73Z" transform="translate(0 0)"/><path class="cls-19" d="M392.05,459.92s-.49-1-.75-.43-.09.63.26.75S392.05,459.92,392.05,459.92Z" transform="translate(0 0)"/><path class="cls-19" d="M392.63,459.68s.24,1,.55.5.17-.61-.1-.76S392.63,459.68,392.63,459.68Z" transform="translate(0 0)"/><path class="cls-19" d="M391,458.72s.93.55.75,0-.33-.55-.62-.46S391,458.72,391,458.72Z" transform="translate(0 0)"/><path class="cls-19" d="M391.85,459.41s.56.15.54-.16-.13-.26-.36-.16A.29.29,0,0,0,391.85,459.41Z" transform="translate(0 0)"/><path class="cls-19" d="M390.58,459s-.05.57.25.5.24-.18.09-.38A.27.27,0,0,0,390.58,459Z" transform="translate(0 0)"/><path class="cls-19" d="M390,458.46s.51.28.57,0-.06-.29-.31-.24A.29.29,0,0,0,390,458.46Z" transform="translate(0 0)"/><path class="cls-19" d="M393.33,458.86s.13.56.4.4.16-.24,0-.39A.28.28,0,0,0,393.33,458.86Z" transform="translate(0 0)"/><path class="cls-19" d="M391.78,457.94s.35.45.52.19.05-.28-.19-.34A.28.28,0,0,0,391.78,457.94Z" transform="translate(0 0)"/></g><g class="cls-18"><path class="cls-19" d="M385.82,458.93s-1.07.12-.57.48.59.24.78,0S385.82,458.93,385.82,458.93Z" transform="translate(0 0)"/><path class="cls-19" d="M386.82,458.32s-1.07.12-.57.49.59.23.78,0S386.82,458.32,386.82,458.32Z" transform="translate(0 0)"/><path class="cls-19" d="M385,460.51s-.49-1-.75-.43-.09.63.26.75S385,460.51,385,460.51Z" transform="translate(0 0)"/><path class="cls-19" d="M385.58,460.26s.24,1.05.55.51.17-.61-.1-.77S385.58,460.26,385.58,460.26Z" transform="translate(0 0)"/><path class="cls-19" d="M383.94,459.31s.92.54.74-.05-.33-.54-.62-.45S383.94,459.31,383.94,459.31Z" transform="translate(0 0)"/><path class="cls-19" d="M384.8,460s.56.15.54-.17-.13-.26-.36-.15A.29.29,0,0,0,384.8,460Z" transform="translate(0 0)"/><path class="cls-19" d="M383.53,459.58s0,.58.26.51.23-.18.09-.38A.3.3,0,0,0,383.53,459.58Z" transform="translate(0 0)"/><path class="cls-19" d="M383,459s.5.29.56,0-.06-.29-.31-.25A.28.28,0,0,0,383,459Z" transform="translate(0 0)"/><path class="cls-19" d="M386.28,459.44s.13.57.4.4.17-.23,0-.39A.3.3,0,0,0,386.28,459.44Z" transform="translate(0 0)"/><path class="cls-19" d="M384.73,458.53s.36.45.53.19.05-.29-.2-.34A.29.29,0,0,0,384.73,458.53Z" transform="translate(0 0)"/></g><g class="cls-18"><path class="cls-19" d="M388.17,459.7s-.22,1.05.28.69.42-.48.24-.74S388.17,459.7,388.17,459.7Z" transform="translate(0 0)"/><path class="cls-19" d="M387.92,458.56s-.23,1.05.28.69.42-.49.24-.74S387.92,458.56,387.92,458.56Z" transform="translate(0 0)"/><path class="cls-19" d="M389.4,461s-1.1.14-.64.57.57.29.79,0S389.4,461,389.4,461Z" transform="translate(0 0)"/><path class="cls-19" d="M389.36,460.35s1.07.11.66-.35-.53-.36-.76-.16S389.36,460.35,389.36,460.35Z" transform="translate(0 0)"/><path class="cls-19" d="M387.93,461.6s.81-.7.2-.72-.63.14-.64.44S387.93,461.6,387.93,461.6Z" transform="translate(0 0)"/><path class="cls-19" d="M388.86,461s.32-.48,0-.56-.29,0-.26.29A.28.28,0,0,0,388.86,461Z" transform="translate(0 0)"/><path class="cls-19" d="M388.06,462.07s.53.24.56-.07-.09-.28-.33-.21A.28.28,0,0,0,388.06,462.07Z" transform="translate(0 0)"/><path class="cls-19" d="M387.36,462.45s.43-.38.16-.53-.29,0-.32.21A.27.27,0,0,0,387.36,462.45Z" transform="translate(0 0)"/><path class="cls-19" d="M388.81,459.42s.58.06.51-.24-.17-.24-.38-.1A.29.29,0,0,0,388.81,459.42Z" transform="translate(0 0)"/><path class="cls-19" d="M387.44,460.6s.55-.19.36-.44-.26-.14-.39.08A.3.3,0,0,0,387.44,460.6Z" transform="translate(0 0)"/></g><g class="cls-18"><path class="cls-19" d="M395.44,456.49s1-.37.44-.61-.63-.1-.75.19S395.44,456.49,395.44,456.49Z" transform="translate(0 0)"/><path class="cls-19" d="M394.6,457.3s1-.36.44-.6-.63-.1-.75.18S394.6,457.3,394.6,457.3Z" transform="translate(0 0)"/><path class="cls-19" d="M395.88,454.76s.7.87.83.25-.06-.64-.43-.67S395.88,454.76,395.88,454.76Z" transform="translate(0 0)"/><path class="cls-19" d="M395.37,455.13s-.47-1-.65-.37,0,.63.27.72S395.37,455.13,395.37,455.13Z" transform="translate(0 0)"/><path class="cls-19" d="M397.18,455.69s-1-.32-.71.21.44.46.71.31S397.18,455.69,397.18,455.69Z" transform="translate(0 0)"/><path class="cls-19" d="M396.19,455.21s-.58,0-.49.28.19.23.38.07A.29.29,0,0,0,396.19,455.21Z" transform="translate(0 0)"/><path class="cls-19" d="M397.52,455.33s-.08-.57-.36-.43-.19.22,0,.39A.29.29,0,0,0,397.52,455.33Z" transform="translate(0 0)"/><path class="cls-19" d="M398.21,455.73s-.55-.17-.55.14.13.27.36.17A.29.29,0,0,0,398.21,455.73Z" transform="translate(0 0)"/><path class="cls-19" d="M394.87,456.08s-.25-.52-.48-.3-.11.27.12.38A.29.29,0,0,0,394.87,456.08Z" transform="translate(0 0)"/><path class="cls-19" d="M396.59,456.63s-.45-.36-.56-.07,0,.29.27.29A.29.29,0,0,0,396.59,456.63Z" transform="translate(0 0)"/></g><g class="cls-18"><path class="cls-19" d="M401,458.59s-1.06-.18-.68.31.5.4.74.21S401,458.59,401,458.59Z" transform="translate(0 0)"/><path class="cls-19" d="M402.11,458.29s-1.06-.18-.68.31.5.4.75.21S402.11,458.29,402.11,458.29Z" transform="translate(0 0)"/><path class="cls-19" d="M399.75,459.88s-.18-1.1-.6-.62-.26.58,0,.79S399.75,459.88,399.75,459.88Z" transform="translate(0 0)"/><path class="cls-19" d="M400.37,459.81s-.06,1.07.39.64.33-.54.12-.76S400.37,459.81,400.37,459.81Z" transform="translate(0 0)"/><path class="cls-19" d="M399.07,458.43s.73.79.73.17-.17-.62-.47-.62S399.07,458.43,399.07,458.43Z" transform="translate(0 0)"/><path class="cls-19" d="M399.7,459.33s.5.3.57,0-.06-.29-.31-.25A.3.3,0,0,0,399.7,459.33Z" transform="translate(0 0)"/><path class="cls-19" d="M398.6,458.58s-.21.54.1.55.28-.1.2-.34A.3.3,0,0,0,398.6,458.58Z" transform="translate(0 0)"/><path class="cls-19" d="M398.19,457.9s.4.41.55.14,0-.29-.23-.32A.29.29,0,0,0,398.19,457.9Z" transform="translate(0 0)"/><path class="cls-19" d="M401.28,459.22s0,.58.27.5.22-.19.07-.39A.28.28,0,0,0,401.28,459.22Z" transform="translate(0 0)"/><path class="cls-19" d="M400.05,457.9s.21.54.45.34.13-.26-.09-.38A.29.29,0,0,0,400.05,457.9Z" transform="translate(0 0)"/></g><g class="cls-18"><path class="cls-19" d="M400.82,455.93s-1.05-.18-.68.31.5.39.75.2S400.82,455.93,400.82,455.93Z" transform="translate(0 0)"/><path class="cls-19" d="M402,455.63s-1.05-.18-.68.31.51.39.75.2S402,455.63,402,455.63Z" transform="translate(0 0)"/><path class="cls-19" d="M399.59,457.21s-.18-1.09-.59-.62-.27.59,0,.79S399.59,457.21,399.59,457.21Z" transform="translate(0 0)"/><path class="cls-19" d="M400.22,457.15s-.06,1.07.38.64.34-.54.12-.77S400.22,457.15,400.22,457.15Z" transform="translate(0 0)"/><path class="cls-19" d="M398.91,455.77s.74.78.73.16-.16-.62-.47-.61S398.91,455.77,398.91,455.77Z" transform="translate(0 0)"/><path class="cls-19" d="M399.55,456.67s.49.3.56,0-.05-.29-.3-.25A.28.28,0,0,0,399.55,456.67Z" transform="translate(0 0)"/><path class="cls-19" d="M398.45,455.92s-.22.53.1.55.27-.1.19-.34A.27.27,0,0,0,398.45,455.92Z" transform="translate(0 0)"/><path class="cls-19" d="M398,455.23s.4.42.54.14,0-.29-.23-.31A.28.28,0,0,0,398,455.23Z" transform="translate(0 0)"/><path class="cls-19" d="M401.12,456.56s0,.57.27.49.23-.18.08-.38A.29.29,0,0,0,401.12,456.56Z" transform="translate(0 0)"/><path class="cls-19" d="M399.89,455.24s.22.54.45.33.13-.26-.09-.38A.28.28,0,0,0,399.89,455.24Z" transform="translate(0 0)"/></g><g class="cls-18"><path class="cls-19" d="M396,459.56s.67-.84.06-.74-.59.25-.54.55S396,459.56,396,459.56Z" transform="translate(0 0)"/><path class="cls-19" d="M395.75,460.7s.66-.84.05-.75-.58.26-.54.56S395.75,460.7,395.75,460.7Z" transform="translate(0 0)"/><path class="cls-19" d="M395.48,457.87s1.06.36.83-.23-.38-.51-.71-.34S395.48,457.87,395.48,457.87Z" transform="translate(0 0)"/><path class="cls-19" d="M395.24,458.45s-.91-.57-.74,0,.31.55.61.47S395.24,458.45,395.24,458.45Z" transform="translate(0 0)"/><path class="cls-19" d="M397.08,458s-1,.27-.49.56.62.15.76-.12S397.08,458,397.08,458Z" transform="translate(0 0)"/><path class="cls-19" d="M396,458.09s-.5.29-.26.49.27.09.36-.14A.29.29,0,0,0,396,458.09Z" transform="translate(0 0)"/><path class="cls-19" d="M397.17,457.48s-.37-.44-.53-.18-.05.29.2.34A.29.29,0,0,0,397.17,457.48Z" transform="translate(0 0)"/><path class="cls-19" d="M398,457.45s-.56.15-.39.41.25.15.39-.05A.29.29,0,0,0,398,457.45Z" transform="translate(0 0)"/><path class="cls-19" d="M395.33,459.53s-.49-.31-.56,0,.05.29.29.26A.3.3,0,0,0,395.33,459.53Z" transform="translate(0 0)"/><path class="cls-19" d="M397.08,459.07s-.58-.07-.51.24.16.24.37.1A.3.3,0,0,0,397.08,459.07Z" transform="translate(0 0)"/></g><path class="cls-19" d="M381.35,515.07s-3.16,1.89-1.52,2a4,4,0,0,0,2.83-1.05Z" transform="translate(0 0)"/><path class="cls-20" d="M487.09,548.9s-1.57-25.26,13.7-45-.2-85.55-27.21-98.28-45.81,3.72-57.56,5.49-14.68,6.65-40.52-8.42c0,0-8.56-6.47-17.3-5.09A32.92,32.92,0,0,1,374,388.66c10-2.35,19.38-4.4,30.83-5s42.29-1.18,54.33,3.82,26.87,13.17,37.07,27S515,448,516.74,458.84s3.23,30.84-4.11,41.7-8.51,39.06-8.51,39.06l-1.18,4.7-15.27,7Z" transform="translate(0 0)"/><path class="cls-6" d="M487.09,550.37s-1.57-25.26,13.7-45-.2-85.55-27.21-98.28-45.81,3.72-57.56,5.48-14.68,6.66-40.52-8.41c0,0-8.56-6.47-17.3-5.1" transform="translate(0 0)"/><path class="cls-21" d="M507.11,543.47A119.68,119.68,0,1,0,366.82,567.6a103.83,103.83,0,0,0,42.41,17.51S502.71,548.07,507.11,543.47Z" transform="translate(0 0)"/><path class="cls-22" d="M506.5,544.7a119.68,119.68,0,1,0-140.3,24.13,103.83,103.83,0,0,0,42.42,17.51S502.1,549.3,506.5,544.7Z" transform="translate(0 0)"/><path class="cls-12" d="M326.33,651.6s-18,98.11-24.52,112.83S274,798.77,267.47,802s-22.9,5.73-31.89,3.27-16.35-27-16.35-27l8.17-94.84s5.73-23.71,9.81-23.71h4.09s-.82,11.44.82,16.35,4.09,13.08,18.81,4.09,19.62-11.45,22.07-17.17,0-5.73,0-5.73l11.45-18,27-37.61s9.81-14.72,27-14.72,5.72,31.07,5.72,31.07Z" transform="translate(0 0)"/><path class="cls-23" d="M283.6,648.82a12.09,12.09,0,0,1-10.36,2.77c-.17,0-.8.24-.59.28a13.72,13.72,0,0,0,11.61-3.09c.16-.14-.52-.08-.66,0Z" transform="translate(0 0)"/><path class="cls-5" d="M240,682.9l1.09-24s-2.9-12.72-5.45-20-4.36-14.18-4.72-21.08-.91-19.44-.91-19.44V585.14s.73-3.63,5.81-4.18,7.09,5.27,7.09,5.27l.91,5.09s1.27-5.27.36-8.36-1.81-8.72-1.81-8.72,2-6,6.9-5.09,6,2.73,6,2.73l.54,11.63s1.82,2.54,2.18-.73-.18-19.62-.18-19.62l-1.45-7.45s-1.64-5.82,0-7.27,4.54-4.36,9.08-1.46c0,0,1.64,3.46,2.55,5.82s.36-6.72.18-9.27-.91-6,2.18-6.54,8-1.63,9.45,8.72,4,39.61,4,39.61l3.09,18.36s2.91-2.73,3.64-5.82,1.09-10.54,4.54-13.63,10.17-8,13.26-2.72l-3.45,14.9s-4,10.54-4.36,19.62-6.72,18-6.72,18L291,642.56s-2.54,6.18-8.36,8.9l-1.45,8.72-.91,8L265.24,682.9s-16.35,7.27-16.9,7.27S240,682.9,240,682.9Z" transform="translate(0 0)"/><line class="cls-24" x1="270.33" y1="582.96" x2="268.87" y2="552.98"/><path class="cls-20" d="M245.43,585.69s6.55,5.27,10.36-2.18l-.54-11.63s-8.73-6.36-12.9,2.36Z" transform="translate(0 0)"/><path class="cls-20" d="M257.79,559s9.81,1.81,10.72-.73" transform="translate(0 0)"/><path class="cls-20" d="M258.7,570.42s6,2.73,10-.18" transform="translate(0 0)"/><path class="cls-20" d="M230.72,589.32s0,7.63,4,8.9a7.65,7.65,0,0,0,6.55-.54s2.9-1.09.9-11.27c0,0-1.27-5.63-6.36-5.45S229.08,585.32,230.72,589.32Z" transform="translate(0 0)"/><path class="cls-20" d="M270.15,551.53s8.35,1.45,9.44-.18" transform="translate(0 0)"/><path class="cls-20" d="M270.87,569.88s6,2.36,10.54,0" transform="translate(0 0)"/><path class="cls-25" d="M246.52,580s5.46-2,7.14-.63l.59,4.77a6.09,6.09,0,0,1-6.21,1.19Z" transform="translate(0 0)"/><path class="cls-25" d="M233.81,590.76s4.8-2,6.28-.6l.52,4.58a5.07,5.07,0,0,1-5.47,1.14Z" transform="translate(0 0)"/><path class="cls-20" d="M244.11,573.08a4.54,4.54,0,0,0,1.79,2.7,2,2,0,0,0,.9.39,3.49,3.49,0,0,0,1.16-.06,5.18,5.18,0,0,0,1.42-.48,1.94,1.94,0,0,0,.89-.81,3.14,3.14,0,0,0,.23-1c0-.16-.48-.17-.5-.17a3.43,3.43,0,0,0-1.05.16,3.59,3.59,0,0,0-1,.39c-.16.1-.31.2-.34.4s0,.2-.05.29l0-.12a1.73,1.73,0,0,1-.35.82l.12-.14-.09.09,0,0a1.19,1.19,0,0,1,.25-.13l1.48-.34h.13a.85.85,0,0,0-.17,0l.17.06a3.49,3.49,0,0,1-1.29-1l.08.09a4.31,4.31,0,0,1-.94-1.9c0-.17-.41-.17-.5-.17a3.82,3.82,0,0,0-1.06.15,4,4,0,0,0-1,.4c-.12.08-.39.21-.35.4Z" transform="translate(0 0)"/><path class="cls-23" d="M246.47,576.32a14.8,14.8,0,0,1,4-1c.14,0,.39,0,.48-.18s-.08-.14-.17-.13a17,17,0,0,0-4.56,1.08c-.07,0-.3.11-.21.21s.39,0,.47,0Z" transform="translate(0 0)"/><path class="cls-23" d="M245.84,574.89c2-.23,3.95-.52,5.91-.89.13,0,.39-.09.41-.25s-.21-.19-.32-.17c-2,.37-3.93.66-5.91.89-.13,0-.39.09-.41.25s.21.18.32.17Z" transform="translate(0 0)"/><path class="cls-23" d="M246,573c1.77-.32,3.57-.57,5.37-.74.14,0,.39-.1.4-.27s-.19-.22-.32-.21q-2.8.27-5.57.78c-.14,0-.35.16-.31.32s.3.15.43.12Z" transform="translate(0 0)"/><path class="cls-23" d="M246,578.35c1-.31,2-.65,3-.93a8,8,0,0,1,3-.39.51.51,0,0,0,.47-.22c.07-.15-.06-.25-.21-.26-2.19-.19-4.33.71-6.37,1.37-.12,0-.35.14-.3.31s.3.16.42.12Z" transform="translate(0 0)"/><path class="cls-23" d="M233.36,584.9a6.29,6.29,0,0,1,2.75-1.16c.11,0,.38-.08.41-.22s-.22-.12-.3-.11a7.8,7.8,0,0,0-3.42,1.43c-.12.09-.09.18,0,.2a.76.76,0,0,0,.51-.14Z" transform="translate(0 0)"/><path class="cls-23" d="M232.77,586.94a24.61,24.61,0,0,0,6.14-1.67c.14-.06.26-.25.17-.39s-.35-.13-.5-.07a22.91,22.91,0,0,1-5.75,1.57c-.16,0-.38.11-.39.31s.18.27.33.25Z" transform="translate(0 0)"/><path class="cls-23" d="M233.31,589.58c1.46-.73,2.94-1.4,4.46-2,.13-.05.27-.21.18-.35s-.36-.1-.49,0q-2.28.9-4.46,2c-.13.07-.28.21-.18.36s.36.11.49,0Z" transform="translate(0 0)"/><path class="cls-23" d="M237.29,588.94a34.63,34.63,0,0,0-4,.89l.29.38a6.11,6.11,0,0,1,2.12-.67l2.58-.47c.13,0,.34-.17.3-.33s-.3-.16-.43-.13l-2.74.51a6.55,6.55,0,0,0-2.3.79c-.09.06-.17.2-.09.3a.39.39,0,0,0,.39.08,33.78,33.78,0,0,1,3.84-.86c.15,0,.38-.1.41-.28s-.2-.24-.33-.21Z" transform="translate(0 0)"/><path class="cls-23" d="M231.21,583.16a7.89,7.89,0,0,0,2.36-.73,4.6,4.6,0,0,1,1.09-.34c.44-.06.89,0,1.33-.1s.81-.19,1-.54-.34-.46-.61-.47a4.62,4.62,0,0,0-2.12.53,6.62,6.62,0,0,1-2.28.84l.21.11c.52-1.13,1.86-1,2.9-.93l.38-.34a9.75,9.75,0,0,0-1.78.31s-.47.19-.3.28a3.73,3.73,0,0,0,2.93-.07c.09,0,.36-.11.33-.24s-.33-.07-.4-.05a2.81,2.81,0,0,1-2.18.1l-.31.27a6.84,6.84,0,0,1,1.41-.25.76.76,0,0,0,.46-.17c.08-.09.06-.17-.08-.18-1.41-.13-3.38-.13-4.08,1.39-.05.1.16.12.21.11A5.89,5.89,0,0,0,234,582c.37-.18.73-.37,1.11-.51a1.88,1.88,0,0,1,1-.16c.12,0,.23.1.14.24s-.15.1-.25.11a4.72,4.72,0,0,1-.65,0,5.1,5.1,0,0,0-1.39.26,11.2,11.2,0,0,1-2.42.84c-.15,0-.4.05-.49.19s.08.17.19.16Z" transform="translate(0 0)"/><path class="cls-23" d="M250,569.57l-1.32,0a7.11,7.11,0,0,0-1.22.13,2.29,2.29,0,0,0-1,.5c-.19.17-.41.48-.69.48l.28.39a1.86,1.86,0,0,1,1.19-.67l2-.46c.22,0,.46-.41.14-.51a4.34,4.34,0,0,0-4.3,1,.22.22,0,0,0,.1.37.49.49,0,0,0,.51-.14A3.33,3.33,0,0,1,249,570l.14-.51c-.72.17-1.44.31-2.15.51a2.47,2.47,0,0,0-1.47.92c-.16.23,0,.39.27.38a1.44,1.44,0,0,0,.92-.39,2.35,2.35,0,0,1,.81-.59,4.61,4.61,0,0,1,1.11-.13l1.37,0c.16,0,.38-.12.4-.3s-.19-.26-.34-.25Z" transform="translate(0 0)"/><path class="cls-23" d="M307.84,581.69a17.09,17.09,0,0,1-1.61,6.29c-.06.11.25.07.29.06s.36-.07.42-.19a17.43,17.43,0,0,0,1.63-6.35c0-.08-.7,0-.73.19Z" transform="translate(0 0)"/><path class="cls-23" d="M240.68,653.65a8.12,8.12,0,0,0,7.06,2.85c.11,0,.4-.09.41-.24s-.19-.17-.31-.16a7.52,7.52,0,0,1-6.48-2.74c-.16-.19-.86.07-.68.29Z" transform="translate(0 0)"/><path class="cls-23" d="M253.56,663.81c5.47.36,11.17.62,16.27-1.74.43-.2-.25-.14-.4-.07-4.81,2.22-10.25,1.87-15.4,1.54-.14,0-.82.24-.47.27Z" transform="translate(0 0)"/><path class="cls-23" d="M253.46,671.36a77.38,77.38,0,0,0,12.46-.23c.34,0,.61-.43.1-.38a76.18,76.18,0,0,1-12.27.22c-.26,0-.77.36-.29.39Z" transform="translate(0 0)"/><path class="cls-23" d="M263.09,651.07a24.57,24.57,0,0,1-4-8.16c-.77-2.87-1.56-6.63.39-9.18s4.63-4.5,7-6.4a80.38,80.38,0,0,1,8.31-5.76c.41-.25-.23-.33-.45-.19a80.16,80.16,0,0,0-8.43,5.85q-2,1.62-4,3.36a21.46,21.46,0,0,0-3.4,3.47c-1.67,2.45-1,6-.3,8.64a24.56,24.56,0,0,0,4.13,8.64c.14.19.84-.05.67-.27Z" transform="translate(0 0)"/><path class="cls-23" d="M270.16,581.21a6.17,6.17,0,0,0-.37,2.76c0,.13.74,0,.72-.2a6.17,6.17,0,0,1,.36-2.69c.05-.12-.24-.08-.29-.07s-.37.07-.42.2Z" transform="translate(0 0)"/><g class="cls-26"><path class="cls-13" d="M488.51,649.05l5.7,62.91,5.73,63.24c.89,9.87,1.69,20.34,7.46,28.75.47.69,3.1-.47,2.9-.77-5.08-7.4-6.31-16.47-7.14-25.2-1-10.35-1.88-20.72-2.82-31.08l-5.73-63.22-3.21-35.41c0-.49-3,0-2.89.78Z" transform="translate(0 0)"/></g><g class="cls-26"><path d="M489.46,649.44l3.72,64.31c1.19,20.44,1.8,41,4.54,61.32a173.91,173.91,0,0,0,7.45,33c.45,1.32,3.34.52,2.9-.77-6.49-19-8.61-39.16-9.92-59.12-1.37-21-2.46-42-3.68-63.06l-2.08-35.89c-.08-1.51-3-1.06-2.93.22Z" transform="translate(0 0)"/></g><path class="cls-27" d="M411.72,655.53a15.38,15.38,0,0,0-15.66,0l4.05,20.27-14.92-5.53s-4.42,13.64,0,18.8l15.11-6.45-4.42,35.93s11.79,5,16.4,0l-4.06-36.12,14.93,6.64s4.42-14,0-18.8l-14.56,5.9Z" transform="translate(0 0)"/><g class="cls-28"><path class="cls-29" d="M404.26,656.25c-4.64-19.15,9.66-36.76,24.83-46.43,8.79-5.59,18.43-9.66,27.86-14s18.53-9.13,26.81-15.46a143.7,143.7,0,0,0,25.18-24.72c1.12-1.42-1.63-1.75-2.41-.77a141.55,141.55,0,0,1-22.74,22.77,107.2,107.2,0,0,1-12.85,8.89c-4.54,2.64-9.28,4.93-14,7.14-9.66,4.5-19.51,8.64-28.59,14.26a65.44,65.44,0,0,0-20.78,19.64c-5.65,8.68-8.65,19.21-6.16,29.48.3,1.26,3.21.5,2.89-.78Z" transform="translate(0 0)"/></g><g class="cls-28"><path class="cls-29" d="M405.1,655.61c.18-10.51-2.21-21.82-8.09-30.66-6.82-10.23-16.87-17.86-25.24-26.71-4.29-4.55-8.43-10-8.63-16.52-.05-1.53-3-1.09-2.94.22.17,5.64,2.92,10.57,6.46,14.82,3.8,4.55,8.3,8.51,12.55,12.63a143.51,143.51,0,0,1,13,13.91,43.43,43.43,0,0,1,7.37,14.28,59,59,0,0,1,2.61,18.24c0,1.52,2.91,1.11,2.93-.21Z" transform="translate(0 0)"/></g><g class="cls-28"><path class="cls-13" d="M403.38,654.77a3.05,3.05,0,0,0-.88.4l-.22.19a1.58,1.58,0,0,0-.23.22,1.6,1.6,0,0,0-.41.94,1.3,1.3,0,0,0,.07.48,1.16,1.16,0,0,0,.35.49,1.83,1.83,0,0,0,1.09.46,2.73,2.73,0,0,0,.94-.09,2.55,2.55,0,0,0,.87-.44,3.33,3.33,0,0,0,.79-1,1.66,1.66,0,0,0,.19-1.07,1.31,1.31,0,0,0-.19-.44,1,1,0,0,0-.23-.26,2.2,2.2,0,0,0-.77-.45,3.56,3.56,0,0,0-.8-.17,2.83,2.83,0,0,0-1.6.2,1.94,1.94,0,0,0-.9.77,1.68,1.68,0,0,0-.17.49,3.87,3.87,0,0,0-.12.68,2.36,2.36,0,0,0,.08.88,1.69,1.69,0,0,0,.58.81,2.25,2.25,0,0,0,1,.4h.12a2.46,2.46,0,0,0,.47,0,2.7,2.7,0,0,0,1-.27,1.77,1.77,0,0,0,.41-.26,2.58,2.58,0,0,0,.34-.32,2,2,0,0,0,.37-.76,2.91,2.91,0,0,0,.07-.78,4.05,4.05,0,0,0-.12-1,.92.92,0,0,0-.61-.56,2,2,0,0,0-1.1,0,2,2,0,0,0-.95.55.89.89,0,0,0-.24.79,3.5,3.5,0,0,1,.11.66l0-.27a2.65,2.65,0,0,1-.08.93l.08-.27a.67.67,0,0,1-.1.21l.18-.25-.09.09.26-.22-.08.06.32-.19-.09,0,.38-.13-.1,0,.4-.07h.12l.33.07-.17-.06.28.13a.86.86,0,0,1-.22-.15l.2.19a.79.79,0,0,1-.19-.25l.12.24a1.31,1.31,0,0,1-.12-.48l0,.27a3,3,0,0,1,.14-1l-.09.26a.54.54,0,0,1,.07-.13l-.18.25,0,0-.25.22.05,0-.32.19.06,0-.38.14.06,0-.39.07h-.28a3,3,0,0,1,.51.06l-.33-.07a2,2,0,0,1,.39.13l-.28-.14a1.45,1.45,0,0,1,.26.17L403,656a.75.75,0,0,1,.15.2L403,656a1,1,0,0,1,.06.25l0-.27a.61.61,0,0,1,0,.27l.09-.26a1.7,1.7,0,0,1-.19.35l.18-.26a2.16,2.16,0,0,1-.27.33l.26-.23-.11.08.32-.19-.07,0,.38-.14-.08,0,.4-.07h.19l.34.07-.15-.05.28.13a.56.56,0,0,1-.15-.1l.2.19a.52.52,0,0,1-.12-.17l.12.24a.5.5,0,0,1-.05-.21v.27a.69.69,0,0,1,0-.2l-.09.27a.84.84,0,0,1,.11-.21l-.18.25a1.42,1.42,0,0,1,.12-.13l-.26.23.12-.08-.32.18.11,0-.38.13.06,0a2,2,0,0,0,.95-.55.88.88,0,0,0,.24-.78c-.22-.66-1.13-.73-1.7-.56Z" transform="translate(0 0)"/></g></g><path class="cls-30" d="M275.3,329.42s118.72-1.68,179-4.47S524,236.14,524,236.14l1-57.74s1.75-113.88-59.48-127.28S245.05,38,245.05,38s-154.72-.56-183,39.08-16.75,144.59-8.5,192,53.74,54.43,53.74,54.43l17.47-1.41s-6,105.52,91.48,103.84c0,0-63-50.24-51-98.81Z" transform="translate(0 0)"/><text class="cls-31" transform="translate(132 88.03)">WE ARE S<tspan class="cls-32" x="127.42" y="0">P</tspan><tspan class="cls-33" x="141.03" y="0">A</tspan><tspan class="cls-34" x="158.31" y="0">CE </tspan><tspan class="cls-35" x="198.08" y="0">F</tspan><tspan class="cls-36" x="215.16" y="0">R</tspan><tspan x="232.65" y="0">O</tspan><tspan class="cls-37" x="253.14" y="0">G</tspan><tspan x="271.62" y="0">S</tspan></text><text class="cls-38" transform="translate(98.77 123.42)">We come to take over the planet, don’t try <tspan x="9.17" y="25.88">to fight us, don’t resist, we are too many </tspan><tspan x="99.58" y="51.75">and we come from a </tspan><tspan x="29.82" y="77.63">religious, stronger and better planet, </tspan><tspan x="45.99" y="103.5">We have been studying your kind </tspan><tspan x="7.7" y="129.38" xml:space="preserve">you have no choice !!! Now move   hand it </tspan><tspan x="168.21" y="155.25">over! </tspan><tspan x="52.54" y="181.13">WE ARE THE BEST RACE!</tspan></text></svg>