<svg id="Layer_1" data-name="Layer 1" xmlns="http://www.w3.org/2000/svg" viewBox="0 0 404.7 228.6"><defs><style>.cls-1{fill:#d33616;stroke:#bb1b18;stroke-miterlimit:10;stroke-width:3px;}.cls-2{fill:#2e3254;}.cls-3{fill:#262338;}.cls-4{fill:#272841;}</style></defs><title>gameOver</title><path class="cls-1" d="M222.33,377.26H202V328.58S196,294.1,240.58,294.1s45.64,17.24,45.64,26.37v56.79H244V349.88H223.34Z" transform="translate(-98.02 -285.5)"/><path class="cls-1" d="M160.46,323.51h21.3S186.83,287,140.18,287s-37.52,58.82-37.52,58.82-6.09,31.44,31.43,31.44h47.83V332.13h-40v16.73h10.42l1,11.16L129,361l1-47.66h23.32S152.35,323.51,160.46,323.51Z" transform="translate(-98.02 -285.5)"/><rect class="cls-2" x="128.36" y="28.88" width="22.31" height="17.75"/><polygon class="cls-1" points="232.82 86.69 215.58 86.69 215.58 8.6 232.82 8.6 248.03 46.63 275.42 8.6 294.68 8.6 294.68 86.69 277.44 86.69 272.37 42.07 255.13 62.35 243.98 62.35 228.67 37.76 232.82 86.69"/><polygon class="cls-1" points="317 8.6 403.2 8.6 403.2 28.88 345.39 28.88 344.38 37.76 386.97 37.76 386.97 50.18 347.42 50.18 347.42 76.55 403.2 76.55 403.2 91.76 317 91.76 317 8.6"/><polygon class="cls-1" points="214.85 135.75 301.05 135.75 301.05 156.03 243.24 156.03 242.23 164.91 284.82 164.91 284.82 177.33 245.27 177.33 245.27 203.7 301.05 203.7 301.05 218.91 214.85 218.91 214.85 135.75"/><path class="cls-1" d="M201.76,419.85h19.55V466.5s15.95,26.37,22.68,23.33,12.82-12.17,14.84-24.34,0-45.64,0-45.64h27.39v52.74l-37.53,39.55L201,479.69Z" transform="translate(-98.02 -285.5)"/><path class="cls-1" d="M115.84,419.85h46.65s19.43,10.15,19.43,23.33v40.56S168.58,504,148.88,504H122.94s-17.67-11.16-21-27.38S95.56,435.07,115.84,419.85Z" transform="translate(-98.02 -285.5)"/><rect class="cls-3" x="27.96" y="149.57" width="22.31" height="49.69"/><path class="cls-1" d="M420.08,504.41V421.25l56.8-1.4s15.21,11.16,12.17,22.31-30.93,15.31-30.93,15.31l36,46.56H471.83l-36.53-35.7-3.05,36.08Z" transform="translate(-98.02 -285.5)"/><path class="cls-4" d="M435.3,435.07s37.52-3.05,36.51,0,0,7.09,0,7.09l-36.53,4.06Z" transform="translate(-98.02 -285.5)"/></svg>