<svg id="Layer_1" data-name="Layer 1" xmlns="http://www.w3.org/2000/svg" viewBox="0 0 40.69 38.82"><defs><style>.cls-1{fill:#763232;}.cls-1,.cls-2{stroke:#361818;stroke-width:0.75px;}.cls-1,.cls-2,.cls-3{stroke-miterlimit:10;}.cls-2{fill:#e2c0bf;}.cls-3{fill:none;stroke:#38020b;stroke-width:0.25px;}</style></defs><title>heart</title><path class="cls-1" d="M738,421.11A43,43,0,0,1,718.65,399s-3.59-14,7-15.75S738,391.8,738,391.8s1.88-10.38,12.42-8.59,7,15.75,7,15.75-4.31,13.48-19.38,22" transform="translate(-717.69 -382.63)"/><ellipse class="cls-2" cx="12.48" cy="15.81" rx="6.42" ry="6.83"/><ellipse class="cls-2" cx="28.03" cy="15.81" rx="6.42" ry="6.83"/><path class="cls-3" d="M728.34,397.37v2l.9-1.42-1.64.07,1.47-.05.47,0s-1.67.69-1.47.59-.47.54-.47.54l1.67-.07-1.33.36,1.2-.62.74-.38H727.6l1.34-1-1.34,1.31,2.07.07" transform="translate(-717.69 -382.63)"/><path class="cls-3" d="M747,397.37v2l-.9-1.42,1.64.07-1.47-.05-.47,0s1.67.69,1.47.59.47.54.47.54l-1.67-.07,1.33.36-1.2-.62-.74-.38h2.28l-1.34-1,1.34,1.31-2.07.07" transform="translate(-717.69 -382.63)"/><ellipse cx="20.51" cy="27.08" rx="5.67" ry="0.58"/></svg>