<svg id="Layer_1" data-name="Layer 1" xmlns="http://www.w3.org/2000/svg" viewBox="0 0 460 743.98"><defs><style>.cls-1{fill:#c13a53;}.cls-1,.cls-2{stroke:#010202;}.cls-1,.cls-10,.cls-11,.cls-12,.cls-2,.cls-3,.cls-4,.cls-5,.cls-6,.cls-7{stroke-miterlimit:10;}.cls-2{fill:#8d1824;}.cls-3{fill:#f1c6a8;}.cls-10,.cls-11,.cls-12,.cls-3,.cls-4,.cls-5,.cls-6,.cls-7{stroke:#000;}.cls-10,.cls-3{stroke-width:2px;}.cls-4{fill:#951640;}.cls-10,.cls-5{fill:none;}.cls-6{fill:#d8a849;}.cls-7{fill:#25b4cb;}.cls-8{fill:#89cccf;}.cls-11,.cls-9{fill:#fff;}.cls-11{stroke-width:5px;}.cls-12{fill:#3d9846;stroke-width:3px;}.cls-13{font-size:14.63px;font-family:SpaceComics, Space Comics;}.cls-13,.cls-21,.cls-23{fill:#1d1d1b;}.cls-14{letter-spacing:-0.18em;}.cls-15{letter-spacing:-0.12em;}.cls-16{letter-spacing:-0.06em;}.cls-17{letter-spacing:-0.05em;}.cls-18{letter-spacing:0em;}.cls-19{letter-spacing:-0.13em;}.cls-20{letter-spacing:-0.12em;}.cls-21{font-size:20.49px;}.cls-21,.cls-23{font-family:TYPOCOMICSLightDEMO, TYPO COMICS Light DEMO;}.cls-22{font-size:21.95px;}.cls-23{font-size:19.52px;}</style></defs><title>instructions</title><path class="cls-1" d="M346.83,518.86s35,65.34,27.84,176.5c0,0-9.16,9.57-22.45,1.79s-12.74-.76-12.74-.76S293,701,284.63,699.88s-27.58,6.62-32.17,4.33-12.14-7-12.14-7l-14.16,2s-4.07-130.62-2.95-152.82,9.07-47.16,9.07-47.16S286.81,575,346.83,518.86Z" transform="translate(-66.5 -54.02)"/><path class="cls-2" d="M253.34,583.82l91.47-7.29,7.41,120.62L279.15,700s-24.51,5.74-31.67,1.46S244.15,613.75,253.34,583.82Z" transform="translate(-66.5 -54.02)"/><path class="cls-3" d="M314.55,563.49s31.48,93.1,45.54,105.83,28.8,17.41,0-44.21S319,518,331.05,499.25s22.34-45.61,2.92-76.42-48.89-33.49-67-28.8-48.9,23.44-48.23,49.56,21,46,18.09,59c-20.79,93.68-51,153.26-32.33,149.36C232.66,646,260,501.31,257.33,530c-2.38,25.58.81,137.27-4.41,163.43-5.72,28.73-3.34,93.77,8,98.46s20.42-127.4,29.61-128.6c28.27-3.68,17.46,19.32,31.34,119.89,6.95,50.29,46.22-46.88,16.75-127.93C301.93,554.24,314.55,563.49,314.55,563.49Z" transform="translate(-66.5 -54.02)"/><path d="M295.31,458.35s-25.38-7.8-31.42,6.13,5.43,22.3,20.54,20.62S306.19,470.05,295.31,458.35Z" transform="translate(-66.5 -54.02)"/><circle cx="187.26" cy="385.66" r="7.6"/><circle cx="227.86" cy="383.26" r="6.72"/><path class="cls-4" d="M232.28,499.25S266,562.51,344,530.56c0,0,2.42,13.89-5.82,19.47s-42.4,25.2-60.09,21.09S233.08,558.45,232.28,499.25Z" transform="translate(-66.5 -54.02)"/><path class="cls-5" d="M242.73,522.13s25.12,37.43,81.38,17.88" transform="translate(-66.5 -54.02)"/><path class="cls-5" d="M255.59,543.57S285,577,340.42,541.29" transform="translate(-66.5 -54.02)"/><path class="cls-6" d="M332.48,516.36s-8.94,4.29-14.88,11.25c-4.54,5.34-7.33,12.24-3,20,10,17.85,25.66,16.44,39,4.87S358.14,513,332.48,516.36Z" transform="translate(-66.5 -54.02)"/><path class="cls-7" d="M336.15,552.47c17.52,0,22.64-27.18,0-30.53S318.63,552.47,336.15,552.47Z" transform="translate(-66.5 -54.02)"/><path class="cls-8" d="M337.37,537.09s-4.21-11.09,3.15-9.57,6.31,9.57,6.31,9.57-.32,13.28-10.66,11.62,2.6-5.48,1.9-8.55Z" transform="translate(-66.5 -54.02)"/><polygon class="cls-6" points="138.35 563.25 159.48 570.23 154.65 580.06 135.12 574.79 138.35 563.25"/><polygon class="cls-6" points="280.32 594.25 301.15 584.23 305.38 594.25 284.49 602.93 280.32 594.25"/><circle class="cls-9" cx="228.11" cy="383.01" r="3.06"/><circle class="cls-9" cx="187.16" cy="385.02" r="3.69"/><path class="cls-10" d="M236,435.89s5.42-15.19,18.79-10.79l2.59.76" transform="translate(-66.5 -54.02)"/><path class="cls-10" d="M281.58,423s22.95-15.9,28.64,7.22" transform="translate(-66.5 -54.02)"/><path class="cls-11" d="M305.27,306.08s-112.34-1.44-169.33-3.83S70,226.2,70,226.2l-1-49.44s-1.65-97.53,56.29-109,208.6-11.23,208.6-11.23S480.28,56,507,90s15.85,123.83,8,164.46-50.85,46.62-50.85,46.62l-16.52-1.21s5.67,90.36-86.56,88.92c0,0,59.59-43,48.24-84.62Z" transform="translate(-66.5 -54.02)"/><polyline class="cls-12" points="128.51 184.51 118.85 184.51 118.85 176.03 110.4 176.03 124.46 161.97 136.75 176.03 127.74 176.03 127.74 184.51"/><polyline class="cls-12" points="118.64 198.61 128.3 198.61 128.3 207.09 136.75 207.09 122.69 221.16 110.4 207.09 119.41 207.09 119.41 198.61"/><polyline class="cls-12" points="137.84 197.43 137.84 187.78 146.32 187.78 146.32 179.32 160.38 193.39 146.32 205.68 146.32 196.67 137.84 196.67"/><polyline class="cls-12" points="108.28 185.83 108.28 195.48 99.8 195.48 99.8 203.94 85.73 189.87 99.8 177.58 99.8 186.59 108.28 186.59"/><text class="cls-13" transform="translate(122.55 39.16)"><tspan class="cls-14">I</tspan><tspan class="cls-15" x="6.7" y="0">N</tspan><tspan x="24.71" y="0">S</tspan><tspan class="cls-16" x="41.44" y="0">T</tspan><tspan class="cls-17" x="60.38" y="0">R</tspan><tspan class="cls-18" x="77" y="0">UCT</tspan><tspan class="cls-19" x="130.7" y="0">I</tspan><tspan x="138.08" y="0">O</tspan><tspan class="cls-20" x="157.54" y="0">N</tspan><tspan x="175.55" y="0">S</tspan></text><text class="cls-21" transform="translate(23.69 71.54)">Help Roberto destroy the spaceships and save the <tspan x="0" y="26.34">world from </tspan><tspan class="cls-22" x="103" y="26.34">space frogs</tspan><tspan x="0" y="50.92">Move Roberto with the arrow keys,</tspan><tspan x="0" y="75.51">shoot the gun with the space bar in your keyboard</tspan></text><rect class="cls-12" x="215.01" y="172.05" width="188.6" height="32.24"/><text class="cls-23" transform="translate(282.62 192.65)">Space</text></svg>