<?xml version="1.0" encoding="utf-8"?>
<!-- Generator: Adobe Illustrator 24.0.2, SVG Export Plug-In . SVG Version: 6.00 Build 0)  -->
<svg version="1.1" id="Layer_1" xmlns="http://www.w3.org/2000/svg" xmlns:xlink="http://www.w3.org/1999/xlink" x="0px" y="0px"
	 viewBox="0 0 601 801" style="enable-background:new 0 0 601 801;" xml:space="preserve">
<style type="text/css">
	.st0{fill:#98CFD8;stroke:#000000;stroke-miterlimit:10;}
	.st1{fill:#C13A53;stroke:#010202;stroke-miterlimit:10;}
	.st2{fill:#8D1824;stroke:#010202;stroke-miterlimit:10;}
	.st3{fill:#F1C6A8;stroke:#000000;stroke-width:2;stroke-miterlimit:10;}
	.st4{fill:#951640;stroke:#000000;stroke-miterlimit:10;}
	.st5{fill:none;stroke:#000000;stroke-miterlimit:10;}
	.st6{fill:#D8A849;stroke:#000000;stroke-miterlimit:10;}
	.st7{fill:#25B4CB;stroke:#000000;stroke-miterlimit:10;}
	.st8{fill:#89CCCF;}
	.st9{fill:#FFFFFF;}
	.st10{fill:none;stroke:#000000;stroke-width:2;stroke-miterlimit:10;}
	.st11{fill:#FFFFFF;stroke:#000000;stroke-width:5;stroke-miterlimit:10;}
	.st12{fill:#3D9846;stroke:#000000;stroke-width:3;stroke-miterlimit:10;}
	.st13{fill:#1D1D1B;}
	.st14{font-family:'SpaceComics';}
	.st15{font-size:14.63px;}
	.st16{letter-spacing:-2;}
	.st17{letter-spacing:-1;}
	.st18{font-family:'TYPOCOMICSLightDEMO';}
	.st19{font-size:20.49px;}
	.st20{font-size:21.95px;}
	.st21{font-size:19.52px;}
</style>
<title>instructions</title>
<rect x="0.5" y="0.5" class="st0" width="600" height="800"/>
<path class="st1" d="M346.8,520.9c0,0,35,65.3,27.8,176.5c0,0-9.2,9.6-22.5,1.8s-12.7-0.8-12.7-0.8s-46.5,4.6-54.8,3.5
	s-27.6,6.6-32.2,4.3s-12.1-7-12.1-7l-14.2,2c0,0-4.1-130.6-2.9-152.8s9.1-47.2,9.1-47.2S286.8,577,346.8,520.9z"/>
<path class="st2" d="M253.3,585.8l91.5-7.3l7.4,120.6l-73.1,2.8c0,0-24.5,5.7-31.7,1.5S244.1,615.8,253.3,585.8z"/>
<path class="st3" d="M314.5,565.5c0,0,31.5,93.1,45.5,105.8s28.8,17.4,0-44.2S319,520,331,501.2s22.3-45.6,2.9-76.4
	s-48.9-33.5-67-28.8s-48.9,23.4-48.2,49.6s21,46,18.1,59c-20.8,93.7-51,153.3-32.3,149.4c28.2-6,55.5-150.6,52.8-122
	c-2.4,25.6,0.8,137.3-4.4,163.4c-5.7,28.7-3.3,93.8,8,98.5s20.4-127.4,29.6-128.6c28.3-3.7,17.5,19.3,31.3,119.9
	c7,50.3,46.2-46.9,16.8-127.9C301.9,556.2,314.5,565.5,314.5,565.5z"/>
<path d="M295.3,460.4c0,0-25.4-7.8-31.4,6.1s5.4,22.3,20.5,20.6S306.2,472,295.3,460.4z"/>
<ellipse transform="matrix(0.1602 -0.9871 0.9871 0.1602 -222.8647 621.4139)" cx="253.8" cy="441.7" rx="7.6" ry="7.6"/>
<circle cx="294.4" cy="439.3" r="6.7"/>
<path class="st4" d="M232.3,501.2c0,0,33.7,63.3,111.7,31.3c0,0,2.4,13.9-5.8,19.5s-42.4,25.2-60.1,21.1S233.1,560.5,232.3,501.2z"
	/>
<path class="st5" d="M242.7,524.1c0,0,25.1,37.4,81.4,17.9"/>
<path class="st5" d="M255.6,545.6c0,0,29.4,33.4,84.8-2.3"/>
<path class="st6" d="M332.5,518.4c0,0-8.9,4.3-14.9,11.2c-4.5,5.3-7.3,12.2-3,20c10,17.8,25.7,16.4,39,4.9S358.1,515,332.5,518.4z"
	/>
<path class="st7" d="M336.1,554.5c17.5,0,22.6-27.2,0-30.5S318.6,554.5,336.1,554.5z"/>
<path class="st8" d="M337.4,539.1c0,0-4.2-11.1,3.1-9.6s6.3,9.6,6.3,9.6s-0.3,13.3-10.7,11.6s2.6-5.5,1.9-8.5L337.4,539.1z"/>
<polygon class="st6" points="204.9,619.3 226,626.2 221.1,636.1 201.6,630.8 "/>
<polygon class="st6" points="346.8,650.3 367.6,640.2 371.9,650.3 351,659 "/>
<circle class="st9" cx="294.6" cy="439" r="3.1"/>
<circle class="st9" cx="253.7" cy="441" r="3.7"/>
<path class="st10" d="M236,437.9c0,0,5.4-15.2,18.8-10.8l2.6,0.8"/>
<path class="st10" d="M281.6,425c0,0,23-15.9,28.6,7.2"/>
<path class="st11" d="M305.3,306.1c0,0-112.3-1.4-169.3-3.8S70,226.2,70,226.2l-1-49.4c0,0-1.7-97.5,56.3-109s208.6-11.2,208.6-11.2
	S480.3,56,507,90c26.7,34,15.8,123.8,8,164.5s-50.9,46.6-50.9,46.6l-16.5-1.2c0,0,5.7,90.4-86.6,88.9c0,0,59.6-43,48.2-84.6
	L305.3,306.1z"/>
<polyline class="st12" points="195,238.5 185.4,238.5 185.4,230.1 176.9,230.1 191,216 203.2,230.1 194.2,230.1 194.2,238.5 "/>
<polyline class="st12" points="185.1,252.6 194.8,252.6 194.8,261.1 203.2,261.1 189.2,275.2 176.9,261.1 185.9,261.1 185.9,252.6 
	"/>
<polyline class="st12" points="204.3,251.4 204.3,241.8 212.8,241.8 212.8,233.3 226.9,247.4 212.8,259.7 212.8,250.7 204.3,250.7 
	"/>
<polyline class="st12" points="174.8,239.8 174.8,249.5 166.3,249.5 166.3,258 152.2,243.9 166.3,231.6 166.3,240.6 174.8,240.6 "/>
<text transform="matrix(1 0 0 1 189.05 93.18)" class="st13 st14 st15 st16">I</text>
<text transform="matrix(1 0 0 1 195.75 93.18)" class="st13 st14 st15 st17">N</text>
<text transform="matrix(1 0 0 1 213.76 93.18)" class="st13 st14 st15">S</text>
<text transform="matrix(1 0 0 1 230.49 93.18)" class="st13 st14 st15">T</text>
<text transform="matrix(1 0 0 1 249.43 93.18)" class="st13 st14 st15">R</text>
<text transform="matrix(1 0 0 1 266.05 93.18)" class="st13 st14 st15">UCT</text>
<text transform="matrix(1 0 0 1 319.75 93.18)" class="st13 st14 st15 st17">I</text>
<text transform="matrix(1 0 0 1 327.13 93.18)" class="st13 st14 st15">O</text>
<text transform="matrix(1 0 0 1 346.59 93.18)" class="st13 st14 st15 st17">N</text>
<text transform="matrix(1 0 0 1 364.6 93.18)" class="st13 st14 st15">S</text>
<text transform="matrix(1 0 0 1 90.19 125.55)" class="st13 st18 st19">Help Roberto destroy the spaceships and save the </text>
<text transform="matrix(1 0 0 1 90.19 151.89)" class="st13 st18 st19">world from </text>
<text transform="matrix(1 0 0 1 193.19 151.89)" class="st13 st18 st20">space frogs</text>
<text transform="matrix(1 0 0 1 90.19 176.47)" class="st13 st18 st19">Move Roberto with the arrow keys,</text>
<text transform="matrix(1 0 0 1 90.19 201.06)" class="st13 st18 st19">shoot the gun with the space bar in your keyboard</text>
<rect x="281.5" y="229.1" class="st12" width="188.6" height="32.2"/>
<text transform="matrix(1 0 0 1 349.12 251.67)" class="st13 st18 st21">Space</text>
</svg>
