<svg id="Layer_1" data-name="Layer 1" xmlns="http://www.w3.org/2000/svg" viewBox="0 0 598.63 804.28"><defs><style>.cls-1{fill:#2a2a46;}.cls-2{fill:#2e3153;}.cls-3{fill:#262238;}.cls-4{fill:#313c67;}.cls-5{fill:#2d2f50;}.cls-6{fill:#282841;}.cls-7{fill:#8fc7d7;}.cls-8{fill:#27263d;}.cls-9{fill:#2e3255;}.cls-10{fill:#28273e;}.cls-11{fill:#fff;}.cls-12{fill:#88bdde;}.cls-13{fill:#94b6c6;}.cls-14{fill:#2c2f50;}</style></defs><title>intro</title><rect class="cls-1" x="-101.45" y="98.55" width="804.28" height="598.63" transform="translate(-98.55 702.82) rotate(-90)"/><path class="cls-2" d="M392.4-4.28c-21.22,25.09-31.08,53.11-38.73,74.86-28,79.61,9.74,94-7.47,162.5C321.11,333,213.49,411.65,192.49,426.47c-91.81,64.84-141.08,49.62-180.6,96.75A116.81,116.81,0,0,0,1.37,538V679.52c23.84,57,66.52,101,85.21,94.84,19.88-6.56,1.23-66.06,62.81-128.93,31-31.63,45.32-26.36,71.76-54.66,56-60,6.76-99.78,54.38-166.31C316.66,367,372.46,370.12,407,306c18.49-34.3,7.81-45,29.36-69.33C473.66,194.51,525,204.42,570,171.57a142.94,142.94,0,0,0,30-30.22V-4.28Z" transform="translate(-1.37 4.28)"/><path class="cls-3" d="M1.37-4.28V417.83C87.62,434,196.24,393.61,253.86,357.71c31.79-19.81,77.43-56.54,64.64-72.57-18.73-23.48-141.53,24.24-172.39-2.59S206.93,180,298.75,59.65c8.07-10.57,25.92-34,46.75-63.93Z" transform="translate(-1.37 4.28)"/><path class="cls-3" d="M469.76,318.59c-.14,9.51,57.87,12,58.42,24.1.61,13.7-73.09,13.6-144.06,45.63-81.77,36.9-115.59,96.48-131.46,124.44-32.42,57.11-38.17,116.88-23.85,120.48,9.77,2.45,21.06-23.23,67.06-44.36,19.54-9,52.15-24,77.52-16.54,35.36,10.32,14.7,51.93,54.34,77.94,44,28.86,125.9,14.65,169.86-2.28l2.41-1V605.5c-21.54-.21-43.64-.89-49.9-9.76-7.91-11.22,14.35-28.72,49.9-54.69V298.21C529.37,302,469.9,309,469.76,318.59Z" transform="translate(-1.37 4.28)"/><path class="cls-4" d="M522.52,486c0,6,6.81,11,15.2,11s15.19-4.91,15.19-11-6.8-11-15.19-11S522.52,480,522.52,486Zm29,0c0,5.51-6.19,10-13.82,10s-13.83-4.47-13.83-10,6.19-10,13.83-10S551.54,480.53,551.54,486Z" transform="translate(-1.37 4.28)"/><path class="cls-5" d="M519.7,486c0,7.18,8.06,13,18,13s18-5.82,18-13-8.06-13-18-13S519.7,478.86,519.7,486Zm34.62,0c0,6.62-7.43,12-16.6,12s-16.61-5.36-16.61-12,7.43-12,16.61-12S554.32,479.42,554.32,486Z" transform="translate(-1.37 4.28)"/><path class="cls-6" d="M441.57,30.6c40.7-20,77-25.07,90.54-15,8.89,6.59,6.37,18.52,5.85,20.7-3.1,13-16.24,18.63-28.8,25.89a17.4,17.4,0,0,0-5.84-3.55c-9.13-3.31-21.84-.12-35.58,7.87C452.83,70.2,425.81,81,404.56,95.57c-38.42,26.39-50.64,60.17-55,80.26,15.75-47.43,39.39-64.39,59.18-70.66,4.27-1.36,12.08-3.4,21.73-7.17a206,206,0,0,0-15,19,181.72,181.72,0,0,0-13.82,23.2C376,159.7,335.81,210,353.85,242.85a23.73,23.73,0,0,0,9.75,10.07c29,15.69,95.42-19.93,100.23-22.56-40.71,20-77,25.07-90.54,15-8.89-6.59-6.37-18.52-5.85-20.7,3.12-13.11,16.44-18.71,29.09-26.06a17,17,0,0,0,6.32,4c8.71,3.16,20.7.38,33.72-6.83,12.27-1.59,44.66-13.39,69.31-30.31,38.42-26.38,50.64-60.17,55-80.25-15.75,47.43-39.38,64.39-59.18,70.66-5.21,1.65-15.65,4.31-28.32,9.89a201.45,201.45,0,0,0,17.29-21.51,179.2,179.2,0,0,0,14.52-24.61c25.71-20.29,64.05-69.34,46.34-101.56A23.62,23.62,0,0,0,541.79,8C512.76-7.65,446.38,28,441.57,30.6ZM480,140.9c-20.07,28.77-48.52,47.67-63.55,42.21s-10.93-33.21,9.14-62,48.53-47.67,63.55-42.21S500.08,112.13,480,140.9Z" transform="translate(-1.37 4.28)"/><path class="cls-6" d="M437.38,126.53c-12.2,17.49-15.9,33.92-8.26,36.69s23.73-9.15,35.93-26.64,15.9-33.91,8.26-36.69S449.58,109,437.38,126.53Z" transform="translate(-1.37 4.28)"/><path class="cls-4" d="M111,335.75c0,5.63,6.33,10.2,14.14,10.2s14.15-4.57,14.15-10.2-6.34-10.21-14.15-10.21S111,330.11,111,335.75Zm27,0c0,5.13-5.77,9.29-12.88,9.29s-12.87-4.16-12.87-9.29,5.76-9.29,12.87-9.29S138,330.62,138,335.75Z" transform="translate(-1.37 4.28)"/><path class="cls-5" d="M108.34,335.75c0,6.68,7.52,12.1,16.78,12.1s16.78-5.42,16.78-12.1-7.51-12.11-16.78-12.11S108.34,329.06,108.34,335.75Zm32.24,0c0,6.16-6.92,11.15-15.46,11.15s-15.46-5-15.46-11.15,6.92-11.16,15.46-11.16S140.58,329.58,140.58,335.75Z" transform="translate(-1.37 4.28)"/><path class="cls-7" d="M556.93,657.37c5.11,0,9.26,3,9.26,6.68s-4.15,6.68-9.26,6.68-9.27-3-9.27-6.68S551.81,657.37,556.93,657.37Z" transform="translate(-1.37 4.28)"/><path class="cls-2" d="M383.19,555.44c0,11,12.32,19.85,27.52,19.85s27.52-8.89,27.52-19.85-12.32-19.86-27.52-19.86S383.19,544.47,383.19,555.44Zm52.57,0c0,10-11.21,18.07-25.05,18.07s-25-8.09-25-18.07,11.21-18.08,25-18.08S435.76,545.45,435.76,555.44Z" transform="translate(-1.37 4.28)"/><path class="cls-8" d="M378.07,555.44c0,13,14.62,23.55,32.64,23.55s32.64-10.55,32.64-23.55-14.61-23.56-32.64-23.56S378.07,542.43,378.07,555.44Zm62.72,0c0,12-13.46,21.7-30.08,21.7s-30.08-9.72-30.08-21.7,13.47-21.71,30.08-21.71S440.79,543.45,440.79,555.44Z" transform="translate(-1.37 4.28)"/><path class="cls-9" d="M26,207.86c0,11,12.41,20,27.72,20s27.71-9,27.71-20-12.41-20-27.71-20S26,196.82,26,207.86Zm52.94,0c0,10.06-11.29,18.21-25.22,18.21s-25.23-8.15-25.23-18.21,11.29-18.2,25.23-18.2S78.93,197.81,78.93,207.86Z" transform="translate(-1.37 4.28)"/><path class="cls-10" d="M20.83,207.86c0,13.1,14.72,23.72,32.88,23.72S86.58,221,86.58,207.86s-14.72-23.72-32.87-23.72S20.83,194.76,20.83,207.86Zm63.17,0c0,12.08-13.56,21.87-30.29,21.87s-30.3-9.79-30.3-21.87S37,186,53.71,186,84,195.79,84,207.86Z" transform="translate(-1.37 4.28)"/><path class="cls-11" d="M227.78,21.43,220,21l7.75-.43c2.13-.12,3.82-1.33,4-2.87l.59-5.6.59,5.6c.16,1.54,1.85,2.75,4,2.87l7.76.43-7.76.42c-2.12.12-3.81,1.34-4,2.87l-.59,5.6-.59-5.6C231.6,22.77,229.91,21.55,227.78,21.43Z" transform="translate(-1.37 4.28)"/><path class="cls-11" d="M53,637.8l-4.68-.25,4.68-.26a2.33,2.33,0,0,0,2.4-1.74l.36-3.38.36,3.38a2.35,2.35,0,0,0,2.4,1.74l4.68.26-4.68.25a2.35,2.35,0,0,0-2.4,1.73l-.36,3.38-.36-3.38A2.33,2.33,0,0,0,53,637.8Z" transform="translate(-1.37 4.28)"/><path class="cls-11" d="M550.83,317.92l-4.69-.26,4.69-.26a2.34,2.34,0,0,0,2.4-1.73l.36-3.38.35,3.38a2.34,2.34,0,0,0,2.4,1.73l4.69.26-4.69.26a2.34,2.34,0,0,0-2.4,1.73l-.35,3.38-.36-3.38A2.34,2.34,0,0,0,550.83,317.92Z" transform="translate(-1.37 4.28)"/><path class="cls-11" d="M55.49,150.24l-8-.44,8-.43c2.19-.12,3.92-1.37,4.08-3l.61-5.74.61,5.74c.16,1.58,1.9,2.83,4.08,3l8,.43-8,.44c-2.18.12-3.92,1.37-4.08,2.95l-.61,5.74-.61-5.74C59.41,151.61,57.68,150.36,55.49,150.24Z" transform="translate(-1.37 4.28)"/><path class="cls-11" d="M355.67,134.18l-10.94-.6,10.94-.6c3-.17,5.38-1.88,5.6-4l.84-7.89.83,7.89c.23,2.17,2.61,3.88,5.61,4l10.93.6-10.93.6c-3,.16-5.38,1.88-5.61,4l-.83,7.89-.84-7.89C361.05,136.06,358.66,134.34,355.67,134.18Z" transform="translate(-1.37 4.28)"/><path class="cls-12" d="M524.73,442.86l-6-.32,6-.33c1.63-.09,2.93-1,3.06-2.21l.45-4.3.45,4.3c.13,1.18,1.43,2.12,3.06,2.21l6,.33-6,.32c-1.63.09-2.93,1-3.06,2.21l-.45,4.3-.45-4.3C527.66,443.89,526.36,443,524.73,442.86Z" transform="translate(-1.37 4.28)"/><path class="cls-12" d="M98.89,442.86l-6-.32,6-.33c1.63-.09,2.93-1,3.06-2.21l.45-4.3.45,4.3c.13,1.18,1.43,2.12,3.06,2.21l6,.33-6,.32c-1.63.09-2.93,1-3.06,2.21l-.45,4.3-.45-4.3C101.82,443.89,100.52,443,98.89,442.86Z" transform="translate(-1.37 4.28)"/><path class="cls-12" d="M225.14,181.17l-6-.33,6-.33c1.64-.09,2.94-1,3.06-2.2l.45-4.31.46,4.31c.12,1.18,1.42,2.11,3.06,2.2l6,.33-6,.33c-1.64.09-2.94,1-3.06,2.2l-.46,4.31-.45-4.31C228.08,182.19,226.78,181.26,225.14,181.17Z" transform="translate(-1.37 4.28)"/><path class="cls-12" d="M194.75,646.9l-6-.33,6-.33c1.64-.09,2.94-1,3.06-2.2l.45-4.31.46,4.31c.12,1.18,1.42,2.11,3.06,2.2l6,.33-6,.33c-1.64.09-2.94,1-3.06,2.2l-.46,4.31-.45-4.31C197.69,647.92,196.39,647,194.75,646.9Z" transform="translate(-1.37 4.28)"/><path class="cls-11" d="M459.92,346.52l-13.79-.75,13.79-.76c3.78-.21,6.78-2.37,7.07-5.1L468,330l1,10c.28,2.73,3.29,4.89,7.07,5.1l13.79.76-13.79.75c-3.78.21-6.79,2.38-7.07,5.11l-1,9.95L467,351.63C466.7,348.9,463.7,346.73,459.92,346.52Z" transform="translate(-1.37 4.28)"/><path class="cls-11" d="M478.48,631.17c-.38,3.68-4.44,6.61-9.54,6.89l-18.63,1,18.63,1c5.1.28,9.16,3.2,9.54,6.89l1.42,13.44L481.32,647c.39-3.69,4.44-6.61,9.55-6.89l18.63-1-18.63-1c-5.11-.28-9.16-3.21-9.55-6.89l-1.42-13.44Zm2.6,5.57a3.35,3.35,0,0,0,2.07,1.5l3,.84-3,.85a3.32,3.32,0,0,0-2.07,1.5l-1.18,2.15-1.17-2.15a3.37,3.37,0,0,0-2.08-1.5l-3-.85,3-.84a3.4,3.4,0,0,0,2.08-1.5l1.17-2.15Z" transform="translate(-1.37 4.28)"/><path class="cls-5" d="M518.68,719.7c16.44,16.46,34.05,27.57,39.34,24.82s-3.78-18.31-20.22-34.77-34-27.56-39.34-24.81S502.24,703.25,518.68,719.7ZM535.35,711c15.17,15.18,23.86,29.36,19.4,31.68s-20.36-8.11-35.53-23.29-23.86-29.36-19.4-31.68S520.18,695.85,535.35,711Z" transform="translate(-1.37 4.28)"/><path class="cls-4" d="M533.19,712.15a159.19,159.19,0,0,0-16-14.06,28.2,28.2,0,0,0-3.91,1.67c-11.46,6-14,17.5-5.78,25.77s24.24,10.13,35.7,4.17a24.67,24.67,0,0,0,3.43-2.15A140.31,140.31,0,0,0,533.19,712.15Z" transform="translate(-1.37 4.28)"/><path class="cls-4" d="M540,708.63a156.94,156.94,0,0,1,11.83,13.29c3.36-5.74,2.6-12.57-2.81-18s-14.16-8.09-22.77-7.6A174.11,174.11,0,0,1,540,708.63Z" transform="translate(-1.37 4.28)"/><path class="cls-11" d="M471.57,232.71c1.61,0,2.93.94,2.93,2.11s-1.32,2.11-2.93,2.11-2.93-.94-2.93-2.11S470,232.71,471.57,232.71Z" transform="translate(-1.37 4.28)"/><path class="cls-11" d="M507,40.25c1.61,0,2.92.94,2.92,2.11s-1.31,2.11-2.92,2.11-2.93-.94-2.93-2.11S505.37,40.25,507,40.25Z" transform="translate(-1.37 4.28)"/><path class="cls-7" d="M532,518.57c0-2.47,2.77-4.47,6.19-4.47s6.18,2,6.18,4.47S541.61,523,538.2,523,532,521,532,518.57Z" transform="translate(-1.37 4.28)"/><path class="cls-11" d="M568.66,686.23c1.08,0,2,.63,2,1.41s-.88,1.42-2,1.42-2-.63-2-1.42S567.57,686.23,568.66,686.23Z" transform="translate(-1.37 4.28)"/><path class="cls-11" d="M446.25,260.32c1.09,0,2,.63,2,1.41s-.88,1.42-2,1.42-2-.63-2-1.42S445.17,260.32,446.25,260.32Z" transform="translate(-1.37 4.28)"/><path class="cls-11" d="M24.89,387.35c1.09,0,2,.63,2,1.41s-.88,1.42-2,1.42-2-.63-2-1.42S23.81,387.35,24.89,387.35Z" transform="translate(-1.37 4.28)"/><path class="cls-11" d="M105.89,586c1.09,0,2,.63,2,1.41s-.88,1.42-2,1.42-2-.63-2-1.42S104.81,586,105.89,586Z" transform="translate(-1.37 4.28)"/><path class="cls-11" d="M416.44,19.59c1.09,0,2,.63,2,1.42s-.87,1.41-2,1.41-2-.63-2-1.41S415.35,19.59,416.44,19.59Z" transform="translate(-1.37 4.28)"/><path class="cls-11" d="M215.11,481c1.08,0,2,.63,2,1.42s-.88,1.41-2,1.41-2-.63-2-1.41S214,481,215.11,481Z" transform="translate(-1.37 4.28)"/><path class="cls-11" d="M446.25,95.67c1.09,0,2,.63,2,1.42s-.88,1.41-2,1.41-2-.63-2-1.41S445.17,95.67,446.25,95.67Z" transform="translate(-1.37 4.28)"/><path class="cls-11" d="M205.16,106.26c1.09,0,2,.64,2,1.42s-.87,1.42-2,1.42-2-.64-2-1.42S204.08,106.26,205.16,106.26Z" transform="translate(-1.37 4.28)"/><path class="cls-11" d="M158.39,477.68c1.09,0,2,.64,2,1.42s-.88,1.42-2,1.42-2-.64-2-1.42S157.31,477.68,158.39,477.68Z" transform="translate(-1.37 4.28)"/><path class="cls-11" d="M318,59.79c1.09,0,2,.64,2,1.42s-.87,1.42-2,1.42-2-.64-2-1.42S316.94,59.79,318,59.79Z" transform="translate(-1.37 4.28)"/><path class="cls-11" d="M172.15,44.88c1.08,0,2,.63,2,1.42s-.88,1.41-2,1.41-2-.63-2-1.41S171.06,44.88,172.15,44.88Z" transform="translate(-1.37 4.28)"/><path class="cls-11" d="M56.57,748.66c1.08,0,2,.63,2,1.42s-.88,1.41-2,1.41-2-.63-2-1.41S55.48,748.66,56.57,748.66Z" transform="translate(-1.37 4.28)"/><path class="cls-11" d="M228.65,281.54c1.62,0,2.93.95,2.93,2.12s-1.31,2.11-2.93,2.11-2.92-.95-2.92-2.11S227,281.54,228.65,281.54Z" transform="translate(-1.37 4.28)"/><path class="cls-11" d="M424.33,402.33c1.62,0,2.93.94,2.93,2.11s-1.31,2.11-2.93,2.11-2.93-.95-2.93-2.11S422.71,402.33,424.33,402.33Z" transform="translate(-1.37 4.28)"/><path class="cls-11" d="M22.93,582.24c1.61,0,2.92,1,2.92,2.11s-1.31,2.11-2.92,2.11S20,585.52,20,584.35,21.31,582.24,22.93,582.24Z" transform="translate(-1.37 4.28)"/><path class="cls-11" d="M382.05,390.33c1.61,0,2.92.94,2.92,2.11s-1.31,2.11-2.92,2.11-2.93-.94-2.93-2.11S380.43,390.33,382.05,390.33Z" transform="translate(-1.37 4.28)"/><path class="cls-11" d="M545.09,178.73c1.61,0,2.92.94,2.92,2.11S546.7,183,545.09,183s-2.93-.94-2.93-2.11S543.47,178.73,545.09,178.73Z" transform="translate(-1.37 4.28)"/><path class="cls-11" d="M238.77,494c.67,0,1.21.39,1.21.87s-.54.87-1.21.87-1.2-.39-1.2-.87S238.11,494,238.77,494Z" transform="translate(-1.37 4.28)"/><path class="cls-11" d="M214.11,496.94c.81,0,1.47.48,1.47,1.06s-.66,1.06-1.47,1.06-1.47-.47-1.47-1.06S213.29,496.94,214.11,496.94Z" transform="translate(-1.37 4.28)"/><path class="cls-11" d="M223.67,507.22c.64,0,1.15.37,1.15.83s-.51.84-1.15.84-1.16-.38-1.16-.84S223,507.22,223.67,507.22Z" transform="translate(-1.37 4.28)"/><path class="cls-11" d="M213.77,533.66c.61,0,1.1.35,1.1.79s-.49.79-1.1.79-1.1-.35-1.1-.79S213.16,533.66,213.77,533.66Z" transform="translate(-1.37 4.28)"/><path class="cls-11" d="M175.19,537.12c.63,0,1.15.37,1.15.83s-.52.83-1.15.83S174,538.41,174,538,174.55,537.12,175.19,537.12Z" transform="translate(-1.37 4.28)"/><path class="cls-11" d="M209,565c.74,0,1.34.43,1.34,1s-.6,1-1.34,1-1.33-.43-1.33-1S208.23,565,209,565Z" transform="translate(-1.37 4.28)"/><path class="cls-11" d="M180.86,560c.83,0,1.51.49,1.51,1.09s-.68,1.09-1.51,1.09-1.51-.49-1.51-1.09S180,560,180.86,560Z" transform="translate(-1.37 4.28)"/><path class="cls-11" d="M170.87,581.38c.6,0,1.09.35,1.09.79s-.49.79-1.09.79-1.1-.35-1.1-.79S170.26,581.38,170.87,581.38Z" transform="translate(-1.37 4.28)"/><path class="cls-11" d="M124.93,581.2c.68,0,1.22.39,1.22.88s-.54.87-1.22.87-1.21-.39-1.21-.87S124.26,581.2,124.93,581.2Z" transform="translate(-1.37 4.28)"/><path class="cls-11" d="M151.38,619c.82,0,1.48.48,1.48,1.07s-.66,1.07-1.48,1.07-1.48-.48-1.48-1.07S150.56,619,151.38,619Z" transform="translate(-1.37 4.28)"/><path class="cls-11" d="M137.56,631.2c.65,0,1.19.38,1.19.85s-.54.86-1.19.86-1.19-.38-1.19-.86S136.9,631.2,137.56,631.2Z" transform="translate(-1.37 4.28)"/><path class="cls-11" d="M144.7,639.89c.71,0,1.3.42,1.3.94s-.59.93-1.3.93-1.3-.42-1.3-.93S144,639.89,144.7,639.89Z" transform="translate(-1.37 4.28)"/><path class="cls-11" d="M118.61,634.75c.65,0,1.18.38,1.18.85s-.53.84-1.18.84-1.17-.37-1.17-.84S118,634.75,118.61,634.75Z" transform="translate(-1.37 4.28)"/><path class="cls-11" d="M96.91,630.87c.89,0,1.62.52,1.62,1.17s-.73,1.17-1.62,1.17-1.63-.52-1.63-1.17S96,630.87,96.91,630.87Z" transform="translate(-1.37 4.28)"/><path class="cls-11" d="M106.93,662.3c.67,0,1.21.39,1.21.88s-.54.87-1.21.87-1.21-.39-1.21-.87S106.26,662.3,106.93,662.3Z" transform="translate(-1.37 4.28)"/><path class="cls-11" d="M119.46,665.94c.79,0,1.43.46,1.43,1s-.64,1-1.43,1-1.42-.47-1.42-1S118.67,665.94,119.46,665.94Z" transform="translate(-1.37 4.28)"/><path class="cls-11" d="M126.29,677.44c.86,0,1.55.5,1.55,1.11s-.69,1.12-1.55,1.12-1.54-.5-1.54-1.12S125.44,677.44,126.29,677.44Z" transform="translate(-1.37 4.28)"/><path class="cls-11" d="M121.34,693.52c.65,0,1.18.39,1.18.86s-.53.85-1.18.85-1.18-.38-1.18-.85S120.68,693.52,121.34,693.52Z" transform="translate(-1.37 4.28)"/><path class="cls-11" d="M110,691.57c.77,0,1.41.45,1.41,1s-.64,1-1.41,1-1.41-.45-1.41-1S109.23,691.57,110,691.57Z" transform="translate(-1.37 4.28)"/><ellipse class="cls-11" cx="113.01" cy="703.23" rx="1.25" ry="0.9"/><path class="cls-11" d="M126.82,726c.86,0,1.56.5,1.56,1.12s-.7,1.13-1.56,1.13-1.55-.51-1.55-1.13S126,726,126.82,726Z" transform="translate(-1.37 4.28)"/><path class="cls-11" d="M109.14,728.11c.72,0,1.3.43,1.3.95s-.58.94-1.3.94-1.31-.42-1.31-.94S108.41,728.11,109.14,728.11Z" transform="translate(-1.37 4.28)"/><path class="cls-11" d="M99.22,737.33c.9,0,1.63.52,1.63,1.17s-.73,1.17-1.63,1.17-1.62-.52-1.62-1.17S98.33,737.33,99.22,737.33Z" transform="translate(-1.37 4.28)"/><path class="cls-11" d="M60,750.74c.86,0,1.56.51,1.56,1.13S60.82,753,60,753s-1.55-.51-1.55-1.12S59.1,750.74,60,750.74Z" transform="translate(-1.37 4.28)"/><path class="cls-11" d="M567.89,5.12c.8,0,1.45.46,1.45,1s-.65,1-1.45,1-1.45-.47-1.45-1S567.09,5.12,567.89,5.12Z" transform="translate(-1.37 4.28)"/><path class="cls-11" d="M571.51,31.73c.89,0,1.62.52,1.62,1.17s-.73,1.16-1.62,1.16-1.62-.52-1.62-1.16S570.62,31.73,571.51,31.73Z" transform="translate(-1.37 4.28)"/><path class="cls-11" d="M123.72,382.86c.77,0,1.4.45,1.4,1s-.63,1-1.4,1-1.4-.45-1.4-1S123,382.86,123.72,382.86Z" transform="translate(-1.37 4.28)"/><path class="cls-11" d="M506.68-1.43c.8,0,1.44.47,1.44,1s-.64,1-1.44,1-1.43-.46-1.43-1S505.89-1.43,506.68-1.43Z" transform="translate(-1.37 4.28)"/><path class="cls-11" d="M519,40.07c.64,0,1.15.37,1.15.83s-.51.84-1.15.84-1.16-.37-1.16-.84S518.38,40.07,519,40.07Z" transform="translate(-1.37 4.28)"/><path class="cls-11" d="M473.18,17.68c.9,0,1.62.53,1.62,1.17S474.08,20,473.18,20s-1.61-.52-1.61-1.17S472.29,17.68,473.18,17.68Z" transform="translate(-1.37 4.28)"/><path class="cls-11" d="M470.33,42.54c.68,0,1.24.4,1.24.9s-.56.89-1.24.89-1.24-.4-1.24-.89S469.64,42.54,470.33,42.54Z" transform="translate(-1.37 4.28)"/><path class="cls-11" d="M494.81,75.06c.76,0,1.39.45,1.39,1s-.63,1-1.39,1-1.4-.45-1.4-1S494,75.06,494.81,75.06Z" transform="translate(-1.37 4.28)"/><path class="cls-11" d="M459.15,83.86c.76,0,1.38.45,1.38,1s-.62,1-1.38,1-1.38-.44-1.38-1S458.39,83.86,459.15,83.86Z" transform="translate(-1.37 4.28)"/><path class="cls-11" d="M459.37,101.42c.78,0,1.41.45,1.41,1s-.63,1-1.41,1-1.41-.45-1.41-1S458.59,101.42,459.37,101.42Z" transform="translate(-1.37 4.28)"/><path class="cls-11" d="M462,110.94c.86,0,1.55.5,1.55,1.12s-.69,1.11-1.55,1.11-1.54-.5-1.54-1.11S461.18,110.94,462,110.94Z" transform="translate(-1.37 4.28)"/><path class="cls-11" d="M433,122.36c.81,0,1.47.48,1.47,1.07s-.66,1.06-1.47,1.06-1.47-.48-1.47-1.06S432.14,122.36,433,122.36Z" transform="translate(-1.37 4.28)"/><path class="cls-11" d="M393.63,119.33c.61,0,1.1.36,1.1.8s-.49.8-1.1.8-1.11-.36-1.11-.8S393,119.33,393.63,119.33Z" transform="translate(-1.37 4.28)"/><path class="cls-11" d="M371.35,134.59c.72,0,1.3.42,1.3.94s-.58.94-1.3.94-1.3-.42-1.3-.94S370.63,134.59,371.35,134.59Z" transform="translate(-1.37 4.28)"/><path class="cls-11" d="M381.29,145.87c.64,0,1.15.38,1.15.83s-.51.83-1.15.83-1.15-.37-1.15-.83S380.66,145.87,381.29,145.87Z" transform="translate(-1.37 4.28)"/><path class="cls-11" d="M418.94,163.35c.77,0,1.39.45,1.39,1s-.62,1-1.39,1-1.4-.45-1.4-1S418.17,163.35,418.94,163.35Z" transform="translate(-1.37 4.28)"/><path class="cls-11" d="M381.65,177.29c.9,0,1.63.52,1.63,1.18s-.73,1.17-1.63,1.17-1.63-.53-1.63-1.17S380.75,177.29,381.65,177.29Z" transform="translate(-1.37 4.28)"/><path class="cls-11" d="M362,201.77c.68,0,1.23.4,1.23.88s-.55.89-1.23.89-1.23-.39-1.23-.89S361.36,201.77,362,201.77Z" transform="translate(-1.37 4.28)"/><path class="cls-11" d="M391.39,212c.89,0,1.61.52,1.61,1.16s-.72,1.17-1.61,1.17-1.61-.52-1.61-1.17S390.5,212,391.39,212Z" transform="translate(-1.37 4.28)"/><path class="cls-11" d="M373.92,214.65c.82,0,1.49.48,1.49,1.08s-.67,1.08-1.49,1.08-1.5-.48-1.5-1.08S373.09,214.65,373.92,214.65Z" transform="translate(-1.37 4.28)"/><path class="cls-11" d="M397.91,230.85c.69,0,1.26.41,1.26.91s-.57.91-1.26.91-1.26-.41-1.26-.91S397.21,230.85,397.91,230.85Z" transform="translate(-1.37 4.28)"/><path class="cls-11" d="M378,227.8c.9,0,1.63.53,1.63,1.17s-.73,1.18-1.63,1.18-1.63-.53-1.63-1.18S377.07,227.8,378,227.8Z" transform="translate(-1.37 4.28)"/><path class="cls-11" d="M408.07,237c.84,0,1.53.5,1.53,1.11s-.69,1.11-1.53,1.11-1.54-.5-1.54-1.11S407.22,237,408.07,237Z" transform="translate(-1.37 4.28)"/><path class="cls-11" d="M372,244.6c.63,0,1.14.37,1.14.82s-.51.82-1.14.82-1.14-.36-1.14-.82S371.36,244.6,372,244.6Z" transform="translate(-1.37 4.28)"/><path class="cls-11" d="M333.15,261.82c.77,0,1.39.45,1.39,1s-.62,1-1.39,1-1.4-.45-1.4-1S332.38,261.82,333.15,261.82Z" transform="translate(-1.37 4.28)"/><path class="cls-11" d="M368.72,267.35c.74,0,1.34.44,1.34,1s-.6,1-1.34,1-1.34-.43-1.34-1S368,267.35,368.72,267.35Z" transform="translate(-1.37 4.28)"/><path class="cls-11" d="M350.7,271.23c.84,0,1.52.49,1.52,1.1s-.68,1.1-1.52,1.1-1.53-.49-1.53-1.1S349.85,271.23,350.7,271.23Z" transform="translate(-1.37 4.28)"/><ellipse class="cls-11" cx="327.57" cy="290.93" rx="1.47" ry="1.06"/><path class="cls-11" d="M378.38,289.79c.68,0,1.24.4,1.24.89s-.56.9-1.24.9-1.24-.41-1.24-.9S377.69,289.79,378.38,289.79Z" transform="translate(-1.37 4.28)"/><path class="cls-11" d="M358.68,308.7c.88,0,1.58.51,1.58,1.14s-.7,1.14-1.58,1.14-1.58-.51-1.58-1.14S357.81,308.7,358.68,308.7Z" transform="translate(-1.37 4.28)"/><path class="cls-11" d="M335.51,329c.7,0,1.28.41,1.28.92s-.58.92-1.28.92-1.28-.41-1.28-.92S334.81,329,335.51,329Z" transform="translate(-1.37 4.28)"/><path class="cls-11" d="M366.69,334.61c.87,0,1.58.51,1.58,1.14s-.71,1.14-1.58,1.14-1.58-.51-1.58-1.14S365.82,334.61,366.69,334.61Z" transform="translate(-1.37 4.28)"/><path class="cls-11" d="M333.26,343.45c.68,0,1.23.4,1.23.89s-.55.89-1.23.89-1.23-.4-1.23-.89S332.58,343.45,333.26,343.45Z" transform="translate(-1.37 4.28)"/><path class="cls-11" d="M345.71,343.52c.77,0,1.4.46,1.4,1s-.63,1-1.4,1-1.41-.45-1.41-1S344.93,343.52,345.71,343.52Z" transform="translate(-1.37 4.28)"/><ellipse class="cls-11" cx="371.66" cy="372.83" rx="1.38" ry="1"/><path class="cls-11" d="M391,378.23c.65,0,1.17.37,1.17.84s-.52.84-1.17.84-1.16-.38-1.16-.84S390.35,378.23,391,378.23Z" transform="translate(-1.37 4.28)"/><path class="cls-11" d="M293.16,18.12c.76,0,1.38.45,1.38,1s-.62,1-1.38,1-1.38-.45-1.38-1S292.4,18.12,293.16,18.12Z" transform="translate(-1.37 4.28)"/><path class="cls-11" d="M274.24,38.7c.79,0,1.44.47,1.44,1s-.65,1-1.44,1-1.44-.47-1.44-1S273.45,38.7,274.24,38.7Z" transform="translate(-1.37 4.28)"/><path class="cls-11" d="M271.85,47.27c.73,0,1.32.43,1.32,1s-.59,1-1.32,1-1.33-.42-1.33-1S271.12,47.27,271.85,47.27Z" transform="translate(-1.37 4.28)"/><path class="cls-11" d="M276.35,58.06c.62,0,1.13.36,1.13.81s-.51.81-1.13.81-1.12-.36-1.12-.81S275.73,58.06,276.35,58.06Z" transform="translate(-1.37 4.28)"/><path class="cls-11" d="M233.53,88.28c.73,0,1.32.42,1.32,1s-.59,1-1.32,1-1.32-.42-1.32-1S232.8,88.28,233.53,88.28Z" transform="translate(-1.37 4.28)"/><path class="cls-11" d="M246.24,114.4c.89,0,1.62.53,1.62,1.18s-.73,1.17-1.62,1.17-1.63-.53-1.63-1.17S245.34,114.4,246.24,114.4Z" transform="translate(-1.37 4.28)"/><path class="cls-11" d="M271.89,119.75c.84,0,1.52.49,1.52,1.09s-.68,1.1-1.52,1.1-1.53-.49-1.53-1.1S271.05,119.75,271.89,119.75Z" transform="translate(-1.37 4.28)"/><path class="cls-11" d="M263,141.5c.8,0,1.45.47,1.45,1.05s-.65,1-1.45,1-1.46-.47-1.46-1S262.15,141.5,263,141.5Z" transform="translate(-1.37 4.28)"/><path class="cls-11" d="M269.52,142.92c.79,0,1.43.46,1.43,1s-.64,1-1.43,1-1.43-.47-1.43-1S268.73,142.92,269.52,142.92Z" transform="translate(-1.37 4.28)"/><path class="cls-11" d="M311.29,156.4c.84,0,1.52.49,1.52,1.1s-.68,1.1-1.52,1.1-1.53-.49-1.53-1.1S310.44,156.4,311.29,156.4Z" transform="translate(-1.37 4.28)"/><path class="cls-11" d="M290,166.35c.87,0,1.58.51,1.58,1.14s-.71,1.14-1.58,1.14-1.58-.51-1.58-1.14S289.15,166.35,290,166.35Z" transform="translate(-1.37 4.28)"/><path class="cls-11" d="M311.29,177c.89,0,1.61.52,1.61,1.16s-.72,1.16-1.61,1.16-1.61-.52-1.61-1.16S310.4,177,311.29,177Z" transform="translate(-1.37 4.28)"/><path class="cls-11" d="M315.7,187.71c.76,0,1.38.44,1.38,1s-.62,1-1.38,1-1.37-.44-1.37-1S315,187.71,315.7,187.71Z" transform="translate(-1.37 4.28)"/><path class="cls-11" d="M258.6,206.27c.9,0,1.62.52,1.62,1.17s-.72,1.17-1.62,1.17-1.63-.52-1.63-1.17S257.7,206.27,258.6,206.27Z" transform="translate(-1.37 4.28)"/><path class="cls-11" d="M259.77,223.16c.71,0,1.28.42,1.28.92s-.57.93-1.28.93-1.28-.41-1.28-.93S259.06,223.16,259.77,223.16Z" transform="translate(-1.37 4.28)"/><path class="cls-7" d="M158.39,418.16c0-.43.48-.78,1.08-.78s1.08.35,1.08.78-.48.78-1.08.78S158.39,418.59,158.39,418.16Z" transform="translate(-1.37 4.28)"/><path class="cls-7" d="M281.88,506.2c0-1,1.16-1.87,2.6-1.87s2.59.84,2.59,1.87-1.16,1.87-2.59,1.87S281.88,507.24,281.88,506.2Z" transform="translate(-1.37 4.28)"/><path class="cls-7" d="M14.81,551.91c0-1,1.16-1.87,2.6-1.87s2.59.83,2.59,1.87-1.16,1.87-2.59,1.87S14.81,552.94,14.81,551.91Z" transform="translate(-1.37 4.28)"/><path class="cls-7" d="M225.37,550c0-1,1.17-1.89,2.61-1.89s2.62.85,2.62,1.89-1.17,1.89-2.62,1.89S225.37,551.06,225.37,550Z" transform="translate(-1.37 4.28)"/><path class="cls-7" d="M100.15,560.66c0-.77.87-1.39,1.93-1.39s1.93.62,1.93,1.39-.86,1.39-1.93,1.39S100.15,561.43,100.15,560.66Z" transform="translate(-1.37 4.28)"/><path class="cls-7" d="M218.12,641.19c0-.86,1-1.57,2.18-1.57s2.17.71,2.17,1.57-1,1.58-2.17,1.58S218.12,642.06,218.12,641.19Z" transform="translate(-1.37 4.28)"/><path class="cls-7" d="M109,657.58c0-.93,1-1.69,2.35-1.69s2.35.76,2.35,1.69-1,1.7-2.35,1.7S109,658.52,109,657.58Z" transform="translate(-1.37 4.28)"/><path class="cls-7" d="M47.75,685.79c0-.6.67-1.08,1.5-1.08s1.51.48,1.51,1.08-.68,1.08-1.51,1.08S47.75,686.39,47.75,685.79Z" transform="translate(-1.37 4.28)"/><path class="cls-7" d="M129.13,748.24c0-1,1.16-1.87,2.6-1.87s2.59.84,2.59,1.87-1.16,1.88-2.59,1.88S129.13,749.28,129.13,748.24Z" transform="translate(-1.37 4.28)"/><path class="cls-7" d="M4.73,758.06c0-.93,1-1.68,2.33-1.68s2.33.75,2.33,1.68-1.05,1.68-2.33,1.68S4.73,759,4.73,758.06Z" transform="translate(-1.37 4.28)"/><path class="cls-7" d="M501,31.5c0-.79.88-1.43,2-1.43s2,.64,2,1.43-.88,1.42-2,1.42S501,32.28,501,31.5Z" transform="translate(-1.37 4.28)"/><path class="cls-7" d="M522.64,62c0-.62.69-1.12,1.55-1.12s1.55.5,1.55,1.12-.7,1.12-1.55,1.12S522.64,62.64,522.64,62Z" transform="translate(-1.37 4.28)"/><path class="cls-7" d="M423.83,69.43c0-.71.79-1.28,1.77-1.28s1.77.57,1.77,1.28-.79,1.28-1.77,1.28S423.83,70.13,423.83,69.43Z" transform="translate(-1.37 4.28)"/><path class="cls-7" d="M591.82,147.6c0-.93,1-1.69,2.34-1.69s2.33.76,2.33,1.69-1,1.69-2.33,1.69S591.82,148.53,591.82,147.6Z" transform="translate(-1.37 4.28)"/><path class="cls-7" d="M461,150.71c0-.5.55-.9,1.24-.9s1.25.4,1.25.9-.56.9-1.25.9S461,151.21,461,150.71Z" transform="translate(-1.37 4.28)"/><path class="cls-7" d="M455.12,213.93c0-.4.44-.72,1-.72s1,.32,1,.72-.45.72-1,.72S455.12,214.33,455.12,213.93Z" transform="translate(-1.37 4.28)"/><path class="cls-7" d="M386.44,231c0-.89,1-1.62,2.24-1.62s2.24.73,2.24,1.62-1,1.61-2.24,1.61S386.44,231.93,386.44,231Z" transform="translate(-1.37 4.28)"/><path class="cls-7" d="M366.54,276.72c0-1.16,1.31-2.1,2.92-2.1s2.92.94,2.92,2.1-1.31,2.11-2.92,2.11S366.54,277.89,366.54,276.72Z" transform="translate(-1.37 4.28)"/><path class="cls-7" d="M315.94,322c0-1,1.08-1.75,2.42-1.75s2.43.78,2.43,1.75-1.09,1.75-2.43,1.75S315.94,323,315.94,322Z" transform="translate(-1.37 4.28)"/><path class="cls-7" d="M318.82,383.87c0-1.24,1.4-2.25,3.12-2.25s3.13,1,3.13,2.25-1.4,2.26-3.13,2.26S318.82,385.12,318.82,383.87Z" transform="translate(-1.37 4.28)"/><path class="cls-7" d="M430.87,107c0-.75.85-1.37,1.9-1.37s1.9.62,1.9,1.37-.85,1.37-1.9,1.37S430.87,107.8,430.87,107Z" transform="translate(-1.37 4.28)"/><path class="cls-7" d="M567.15,138.14c0-.88,1-1.6,2.22-1.6s2.22.72,2.22,1.6-1,1.6-2.22,1.6S567.15,139,567.15,138.14Z" transform="translate(-1.37 4.28)"/><path class="cls-7" d="M565.05,183.16c0-.33.38-.61.84-.61s.84.28.84.61-.38.6-.84.6S565.05,183.49,565.05,183.16Z" transform="translate(-1.37 4.28)"/><path class="cls-7" d="M593.23,238.94c0-.58.66-1.05,1.46-1.05s1.46.47,1.46,1.05-.65,1.06-1.46,1.06S593.23,239.52,593.23,238.94Z" transform="translate(-1.37 4.28)"/><path class="cls-7" d="M556.93,278.65c0-.65.73-1.18,1.63-1.18s1.64.53,1.64,1.18-.73,1.18-1.64,1.18S556.93,279.3,556.93,278.65Z" transform="translate(-1.37 4.28)"/><path class="cls-7" d="M519,332.88c0-1.21,1.36-2.19,3-2.19s3,1,3,2.19-1.36,2.19-3,2.19S519,334.09,519,332.88Z" transform="translate(-1.37 4.28)"/><path class="cls-7" d="M448.91,370.25c0-1,1.11-1.78,2.47-1.78s2.48.8,2.48,1.78-1.11,1.79-2.48,1.79S448.91,371.24,448.91,370.25Z" transform="translate(-1.37 4.28)"/><path class="cls-7" d="M574.88,404c0-.39.44-.71,1-.71s1,.32,1,.71-.44.71-1,.71S574.88,404.41,574.88,404Z" transform="translate(-1.37 4.28)"/><path class="cls-7" d="M495,357.16c0-.56.62-1,1.39-1s1.39.45,1.39,1-.62,1-1.39,1S495,357.71,495,357.16Z" transform="translate(-1.37 4.28)"/><path class="cls-7" d="M478.45,344.28c0-.71.79-1.28,1.78-1.28s1.78.57,1.78,1.28-.8,1.29-1.78,1.29S478.45,345,478.45,344.28Z" transform="translate(-1.37 4.28)"/><path class="cls-7" d="M404.86,329.5c0-.41.46-.74,1-.74s1,.33,1,.74-.46.74-1,.74S404.86,329.91,404.86,329.5Z" transform="translate(-1.37 4.28)"/><path class="cls-7" d="M271,572c0-.39.44-.7,1-.7s1,.31,1,.7-.44.7-1,.7S271,572.35,271,572Z" transform="translate(-1.37 4.28)"/><path class="cls-7" d="M278.63,640.63c0-1.09,1.23-2,2.75-2s2.76.89,2.76,2-1.23,2-2.76,2S278.63,641.73,278.63,640.63Z" transform="translate(-1.37 4.28)"/><path class="cls-7" d="M292.7,377.54c0-1.24,1.38-2.24,3.09-2.24s3.1,1,3.1,2.24-1.39,2.23-3.1,2.23S292.7,378.77,292.7,377.54Z" transform="translate(-1.37 4.28)"/><path class="cls-7" d="M313.13,536.47c0-.46.53-.84,1.17-.84s1.16.38,1.16.84-.52.84-1.16.84S313.13,536.93,313.13,536.47Z" transform="translate(-1.37 4.28)"/><path class="cls-7" d="M579.67,710.09c0-.86,1-1.56,2.16-1.56s2.17.7,2.17,1.56-1,1.56-2.17,1.56S579.67,711,579.67,710.09Z" transform="translate(-1.37 4.28)"/><path class="cls-7" d="M229.11,659.88c0-.74.82-1.33,1.84-1.33s1.85.59,1.85,1.33-.83,1.33-1.85,1.33S229.11,660.61,229.11,659.88Z" transform="translate(-1.37 4.28)"/><path class="cls-7" d="M378.93,477.68c0-1.24,1.4-2.24,3.12-2.24s3.11,1,3.11,2.24-1.4,2.25-3.11,2.25S378.93,478.92,378.93,477.68Z" transform="translate(-1.37 4.28)"/><path class="cls-7" d="M375.41,595.49c0-.49.55-.88,1.23-.88s1.22.39,1.22.88-.55.88-1.22.88S375.41,596,375.41,595.49Z" transform="translate(-1.37 4.28)"/><path class="cls-7" d="M580.51,786.87c0-.53.59-1,1.32-1s1.33.43,1.33,1-.59,1-1.33,1S580.51,787.4,580.51,786.87Z" transform="translate(-1.37 4.28)"/><path class="cls-7" d="M479.75,522.77c0-1.17,1.32-2.12,2.95-2.12s2.94,1,2.94,2.12-1.31,2.13-2.94,2.13S479.75,524,479.75,522.77Z" transform="translate(-1.37 4.28)"/><path class="cls-7" d="M547.33,544.83c0-1.16,1.31-2.11,2.92-2.11s2.92.95,2.92,2.11-1.3,2.1-2.92,2.1S547.33,546,547.33,544.83Z" transform="translate(-1.37 4.28)"/><path class="cls-7" d="M534,764.9c0-1.26,1.41-2.28,3.16-2.28s3.17,1,3.17,2.28-1.42,2.28-3.17,2.28S534,766.16,534,764.9Z" transform="translate(-1.37 4.28)"/><path class="cls-7" d="M56.12,689.4c0-1.23,1.38-2.23,3.09-2.23s3.08,1,3.08,2.23-1.38,2.23-3.08,2.23S56.12,690.63,56.12,689.4Z" transform="translate(-1.37 4.28)"/><path class="cls-7" d="M156.46,695.27c0-.55.62-1,1.37-1s1.38.45,1.38,1-.62,1-1.38,1S156.46,695.81,156.46,695.27Z" transform="translate(-1.37 4.28)"/><path class="cls-7" d="M23.52,491c0-.54.61-1,1.37-1s1.37.45,1.37,1-.61,1-1.37,1S23.52,491.5,23.52,491Z" transform="translate(-1.37 4.28)"/><path class="cls-7" d="M170.87,618.67c0-.52.59-.94,1.31-.94s1.32.42,1.32.94-.59,1-1.32,1S170.87,619.2,170.87,618.67Z" transform="translate(-1.37 4.28)"/><path class="cls-7" d="M130,584.35c0-1.22,1.37-2.2,3.06-2.2s3.05,1,3.05,2.2-1.37,2.21-3.05,2.21S130,585.57,130,584.35Z" transform="translate(-1.37 4.28)"/><path class="cls-7" d="M68.2,524.51c0-1.08,1.22-2,2.71-2s2.7.87,2.7,2-1.21,2-2.7,2S68.2,525.59,68.2,524.51Z" transform="translate(-1.37 4.28)"/><path class="cls-7" d="M70.08,480.2c0-.61.68-1.1,1.51-1.1s1.52.49,1.52,1.1-.68,1.09-1.52,1.09S70.08,480.8,70.08,480.2Z" transform="translate(-1.37 4.28)"/><path class="cls-7" d="M272.52,777.68c0-1.26,1.41-2.28,3.16-2.28s3.15,1,3.15,2.28-1.41,2.27-3.15,2.27S272.52,778.93,272.52,777.68Z" transform="translate(-1.37 4.28)"/><path class="cls-7" d="M384.2,645.05c0-1.26,1.41-2.28,3.15-2.28s3.16,1,3.16,2.28-1.41,2.28-3.16,2.28S384.2,646.31,384.2,645.05Z" transform="translate(-1.37 4.28)"/><path class="cls-7" d="M97,428.15c0-.44.49-.79,1.09-.79s1.09.35,1.09.79-.49.79-1.09.79S97,428.58,97,428.15Z" transform="translate(-1.37 4.28)"/><path class="cls-7" d="M183,461.6c0-1,1.08-1.73,2.4-1.73s2.4.78,2.4,1.73-1.08,1.73-2.4,1.73S183,462.56,183,461.6Z" transform="translate(-1.37 4.28)"/><path class="cls-7" d="M287.67,7.52c0-1.16,1.3-2.1,2.91-2.1s2.91.94,2.91,2.1-1.3,2.1-2.91,2.1S287.67,8.68,287.67,7.52Z" transform="translate(-1.37 4.28)"/><path class="cls-7" d="M390,18.14c0-.42.47-.76,1-.76s1,.34,1,.76-.47.75-1,.75S390,18.55,390,18.14Z" transform="translate(-1.37 4.28)"/><path class="cls-7" d="M346.56,69.84c0-.8.9-1.45,2-1.45s2,.65,2,1.45-.9,1.45-2,1.45S346.56,70.64,346.56,69.84Z" transform="translate(-1.37 4.28)"/><path class="cls-7" d="M407.1,94.92c0-.39.44-.71,1-.71s1,.32,1,.71-.44.71-1,.71S407.1,95.31,407.1,94.92Z" transform="translate(-1.37 4.28)"/><path class="cls-7" d="M324.28,120.48c0-.81.92-1.47,2-1.47s2,.66,2,1.47-.92,1.47-2,1.47S324.28,121.29,324.28,120.48Z" transform="translate(-1.37 4.28)"/><path class="cls-7" d="M304.9,152.14c0-1,1.13-1.81,2.51-1.81s2.52.81,2.52,1.81S308.8,154,307.41,154,304.9,153.14,304.9,152.14Z" transform="translate(-1.37 4.28)"/><path class="cls-7" d="M234.44,216.74c0-1.1,1.23-2,2.75-2s2.75.89,2.75,2-1.23,2-2.75,2S234.44,217.83,234.44,216.74Z" transform="translate(-1.37 4.28)"/><path class="cls-7" d="M333,244c0-.25.28-.46.64-.46s.64.21.64.46-.29.46-.64.46S333,244.25,333,244Z" transform="translate(-1.37 4.28)"/><path class="cls-7" d="M427.23,290.6c0-.91,1-1.64,2.28-1.64s2.27.73,2.27,1.64-1,1.64-2.27,1.64S427.23,291.51,427.23,290.6Z" transform="translate(-1.37 4.28)"/><path class="cls-7" d="M235.94,308.56c0-.55.62-1,1.38-1s1.39.45,1.39,1-.62,1-1.39,1S235.94,309.11,235.94,308.56Z" transform="translate(-1.37 4.28)"/><path class="cls-7" d="M271.78,299.17c0-1.07,1.21-1.95,2.7-1.95s2.7.88,2.7,1.95-1.21,1.95-2.7,1.95S271.78,300.25,271.78,299.17Z" transform="translate(-1.37 4.28)"/><path class="cls-7" d="M430.4,52.21c0-1.27,1.43-2.31,3.19-2.31s3.2,1,3.2,2.31-1.43,2.3-3.2,2.3S430.4,53.48,430.4,52.21Z" transform="translate(-1.37 4.28)"/><path class="cls-7" d="M436,114.24c0-.94,1.06-1.7,2.37-1.7s2.36.76,2.36,1.7-1.06,1.71-2.36,1.71S436,115.18,436,114.24Z" transform="translate(-1.37 4.28)"/><path class="cls-7" d="M525.83,224.93c0-.3.34-.54.75-.54s.76.24.76.54-.34.54-.76.54S525.83,225.23,525.83,224.93Z" transform="translate(-1.37 4.28)"/><path class="cls-7" d="M502.8,171.54c0-1,1.14-1.84,2.54-1.84s2.55.83,2.55,1.84-1.14,1.84-2.55,1.84S502.8,172.56,502.8,171.54Z" transform="translate(-1.37 4.28)"/><path class="cls-7" d="M574.26,172.3c0-1.28,1.44-2.31,3.21-2.31s3.21,1,3.21,2.31-1.44,2.31-3.21,2.31S574.26,173.58,574.26,172.3Z" transform="translate(-1.37 4.28)"/><path class="cls-7" d="M581.14,93.68c0-.54.61-1,1.37-1s1.36.44,1.36,1-.61,1-1.36,1S581.14,94.22,581.14,93.68Z" transform="translate(-1.37 4.28)"/><path class="cls-7" d="M566.94,75.68c0-.84.94-1.52,2.09-1.52s2.1.68,2.1,1.52-.94,1.51-2.1,1.51S566.94,76.51,566.94,75.68Z" transform="translate(-1.37 4.28)"/><path class="cls-7" d="M563.41,126.42c0-.76.86-1.38,1.91-1.38s1.92.62,1.92,1.38-.86,1.38-1.92,1.38S563.41,127.18,563.41,126.42Z" transform="translate(-1.37 4.28)"/><path class="cls-7" d="M518.3,149.35c0-.85,1-1.54,2.13-1.54s2.13.69,2.13,1.54-1,1.54-2.13,1.54S518.3,150.2,518.3,149.35Z" transform="translate(-1.37 4.28)"/><path class="cls-7" d="M482.62,204.28c0-1.18,1.33-2.14,3-2.14s3,1,3,2.14-1.32,2.14-3,2.14S482.62,205.46,482.62,204.28Z" transform="translate(-1.37 4.28)"/><path class="cls-7" d="M404.68,233c0-1,1.15-1.85,2.57-1.85s2.57.83,2.57,1.85-1.15,1.86-2.57,1.86S404.68,234,404.68,233Z" transform="translate(-1.37 4.28)"/><path class="cls-7" d="M373.41,281.42c0-.39.44-.71,1-.71s1,.32,1,.71-.44.7-1,.7S373.41,281.81,373.41,281.42Z" transform="translate(-1.37 4.28)"/><path class="cls-7" d="M502.29,327.44c0-.51.57-.92,1.27-.92s1.27.41,1.27.92-.57.91-1.27.91S502.29,327.94,502.29,327.44Z" transform="translate(-1.37 4.28)"/><path class="cls-7" d="M489.94,279.49c0-1.26,1.41-2.27,3.15-2.27s3.15,1,3.15,2.27-1.41,2.28-3.15,2.28S489.94,280.75,489.94,279.49Z" transform="translate(-1.37 4.28)"/><path class="cls-7" d="M509.08,242.24c0-.42.48-.76,1.06-.76s1.06.34,1.06.76-.47.77-1.06.77S509.08,242.66,509.08,242.24Z" transform="translate(-1.37 4.28)"/><path class="cls-7" d="M478.31,179.94c0-1.21,1.36-2.19,3-2.19s3,1,3,2.19-1.35,2.19-3,2.19S478.31,181.15,478.31,179.94Z" transform="translate(-1.37 4.28)"/><path class="cls-7" d="M568.66,263.83c0-.28.32-.51.71-.51s.71.23.71.51-.32.52-.71.52S568.66,264.12,568.66,263.83Z" transform="translate(-1.37 4.28)"/><path class="cls-7" d="M536.29,273.31c0-.51.57-.93,1.28-.93s1.29.42,1.29.93-.58.93-1.29.93S536.29,273.82,536.29,273.31Z" transform="translate(-1.37 4.28)"/><path class="cls-7" d="M405.82,278c0-.54.61-1,1.36-1s1.36.44,1.36,1-.61,1-1.36,1S405.82,278.54,405.82,278Z" transform="translate(-1.37 4.28)"/><path class="cls-7" d="M168.16,25.93c0-1.27,1.44-2.31,3.21-2.31s3.2,1,3.2,2.31-1.43,2.32-3.2,2.32S168.16,27.21,168.16,25.93Z" transform="translate(-1.37 4.28)"/><path class="cls-7" d="M113.94,12.11c0-.72.81-1.31,1.81-1.31s1.82.59,1.82,1.31-.81,1.32-1.82,1.32S113.94,12.84,113.94,12.11Z" transform="translate(-1.37 4.28)"/><path class="cls-7" d="M79.38,50.25c0-.41.46-.75,1-.75s1,.34,1,.75-.46.76-1,.76S79.38,50.67,79.38,50.25Z" transform="translate(-1.37 4.28)"/><path class="cls-7" d="M166,84.45c0-.46.51-.83,1.14-.83s1.15.37,1.15.83-.52.82-1.15.82S166,84.9,166,84.45Z" transform="translate(-1.37 4.28)"/><path class="cls-7" d="M100.32,133c0-1,1.08-1.74,2.41-1.74s2.41.78,2.41,1.74-1.08,1.74-2.41,1.74S100.32,134,100.32,133Z" transform="translate(-1.37 4.28)"/><path class="cls-7" d="M131.29,174.38c0-.31.35-.57.78-.57s.78.26.78.57-.35.56-.78.56S131.29,174.69,131.29,174.38Z" transform="translate(-1.37 4.28)"/><path class="cls-7" d="M155.16,227.83c0-.31.36-.57.8-.57s.79.26.79.57-.35.58-.79.58S155.16,228.15,155.16,227.83Z" transform="translate(-1.37 4.28)"/><path class="cls-7" d="M249.82,277.19c0-1.16,1.31-2.11,2.92-2.11s2.92.95,2.92,2.11-1.31,2.11-2.92,2.11S249.82,278.35,249.82,277.19Z" transform="translate(-1.37 4.28)"/><path class="cls-7" d="M33.3,109.17c0-.49.55-.89,1.23-.89s1.22.4,1.22.89-.55.88-1.22.88S33.3,109.65,33.3,109.17Z" transform="translate(-1.37 4.28)"/><path class="cls-7" d="M29.67,25.93c0-1,1.09-1.75,2.43-1.75s2.43.79,2.43,1.75-1.09,1.76-2.43,1.76S29.67,26.9,29.67,25.93Z" transform="translate(-1.37 4.28)"/><path class="cls-7" d="M60.8,60.69c0-.65.72-1.17,1.62-1.17s1.63.52,1.63,1.17-.73,1.18-1.63,1.18S60.8,61.34,60.8,60.69Z" transform="translate(-1.37 4.28)"/><path class="cls-7" d="M131.5,33.37c0-.33.38-.61.84-.61s.85.28.85.61-.38.61-.85.61S131.5,33.71,131.5,33.37Z" transform="translate(-1.37 4.28)"/><ellipse class="cls-7" cx="71.98" cy="124.02" rx="2.04" ry="1.47"/><path class="cls-7" d="M183.54,121.65c0-.43.49-.78,1.09-.78s1.08.35,1.08.78-.48.78-1.08.78S183.54,122.08,183.54,121.65Z" transform="translate(-1.37 4.28)"/><ellipse class="cls-7" cx="268.62" cy="170.84" rx="1.36" ry="0.98"/><path class="cls-7" d="M255.49,205.9c0-.59.67-1.08,1.5-1.08s1.49.49,1.49,1.08S257.81,207,257,207,255.49,206.5,255.49,205.9Z" transform="translate(-1.37 4.28)"/><path class="cls-7" d="M257.14,239.48c0-.44.49-.8,1.11-.8s1.11.36,1.11.8-.5.8-1.11.8S257.14,239.92,257.14,239.48Z" transform="translate(-1.37 4.28)"/><path class="cls-11" d="M398.25,145.84c.74,0,1.35.44,1.35,1s-.61,1-1.35,1-1.36-.44-1.36-1S397.5,145.84,398.25,145.84Z" transform="translate(-1.37 4.28)"/><path class="cls-11" d="M380.05,142.28c.68,0,1.24.4,1.24.89s-.56.89-1.24.89-1.23-.4-1.23-.89S379.37,142.28,380.05,142.28Z" transform="translate(-1.37 4.28)"/><path class="cls-11" d="M409.29,149c.76,0,1.38.45,1.38,1s-.62,1-1.38,1-1.38-.44-1.38-1S408.53,149,409.29,149Z" transform="translate(-1.37 4.28)"/><path class="cls-11" d="M375.32,120.43c.61,0,1.11.36,1.11.8s-.5.79-1.11.79-1.1-.36-1.1-.79S374.72,120.43,375.32,120.43Z" transform="translate(-1.37 4.28)"/><path class="cls-11" d="M358.4,107.05c.72,0,1.3.42,1.3.94s-.58.94-1.3.94-1.31-.42-1.31-.94S357.68,107.05,358.4,107.05Z" transform="translate(-1.37 4.28)"/><path class="cls-11" d="M378.46,103.09c.77,0,1.4.45,1.4,1s-.63,1-1.4,1-1.4-.45-1.4-1S377.68,103.09,378.46,103.09Z" transform="translate(-1.37 4.28)"/><path class="cls-11" d="M396.28,92.56c.87,0,1.57.51,1.57,1.13s-.7,1.14-1.57,1.14-1.57-.51-1.57-1.14S395.41,92.56,396.28,92.56Z" transform="translate(-1.37 4.28)"/><path class="cls-11" d="M403.6,89.43c.76,0,1.39.45,1.39,1s-.63,1-1.39,1-1.39-.45-1.39-1S402.83,89.43,403.6,89.43Z" transform="translate(-1.37 4.28)"/><path class="cls-11" d="M402.05,70.91c.68,0,1.23.4,1.23.89s-.55.89-1.23.89-1.23-.4-1.23-.89S401.37,70.91,402.05,70.91Z" transform="translate(-1.37 4.28)"/><path class="cls-11" d="M420.61,53.64c.74,0,1.33.43,1.33,1s-.59,1-1.33,1-1.32-.43-1.32-1S419.88,53.64,420.61,53.64Z" transform="translate(-1.37 4.28)"/><path class="cls-11" d="M449.78,35.73c.66,0,1.19.39,1.19.86s-.53.86-1.19.86-1.2-.38-1.2-.86S449.12,35.73,449.78,35.73Z" transform="translate(-1.37 4.28)"/><path class="cls-11" d="M449,26.33c.75,0,1.35.44,1.35,1s-.6,1-1.35,1-1.34-.44-1.34-1S448.21,26.33,449,26.33Z" transform="translate(-1.37 4.28)"/><path class="cls-11" d="M475.12-.17c.85,0,1.54.5,1.54,1.12s-.69,1.11-1.54,1.11-1.55-.5-1.55-1.11S474.26-.17,475.12-.17Z" transform="translate(-1.37 4.28)"/><path class="cls-11" d="M490.41,2c.61,0,1.11.36,1.11.8s-.5.8-1.11.8-1.11-.36-1.11-.8S489.8,2,490.41,2Z" transform="translate(-1.37 4.28)"/><path class="cls-11" d="M509.79,35.35c.78,0,1.4.45,1.4,1s-.62,1-1.4,1-1.39-.45-1.39-1S509,35.35,509.79,35.35Z" transform="translate(-1.37 4.28)"/><path class="cls-11" d="M507.71,24.85c.78,0,1.42.46,1.42,1s-.64,1-1.42,1-1.42-.46-1.42-1S506.93,24.85,507.71,24.85Z" transform="translate(-1.37 4.28)"/><path class="cls-11" d="M294.76,611c.87,0,1.57.51,1.57,1.14s-.7,1.14-1.57,1.14-1.58-.51-1.58-1.14S293.88,611,294.76,611Z" transform="translate(-1.37 4.28)"/><path class="cls-11" d="M277,633.71c.75,0,1.35.44,1.35,1s-.6,1-1.35,1-1.35-.43-1.35-1S276.25,633.71,277,633.71Z" transform="translate(-1.37 4.28)"/><path class="cls-11" d="M319.74,642.44c.67,0,1.22.39,1.22.87s-.55.88-1.22.88-1.21-.39-1.21-.88S319.07,642.44,319.74,642.44Z" transform="translate(-1.37 4.28)"/><path class="cls-11" d="M298.2,659.91c.67,0,1.22.4,1.22.89s-.55.88-1.22.88-1.23-.39-1.23-.88S297.52,659.91,298.2,659.91Z" transform="translate(-1.37 4.28)"/><path class="cls-11" d="M281.37,677.24c.81,0,1.47.48,1.47,1.06s-.66,1.06-1.47,1.06-1.46-.47-1.46-1.06S280.56,677.24,281.37,677.24Z" transform="translate(-1.37 4.28)"/><path class="cls-11" d="M284.76,685.67c.64,0,1.16.38,1.16.84s-.52.85-1.16.85-1.17-.38-1.17-.85S284.12,685.67,284.76,685.67Z" transform="translate(-1.37 4.28)"/><path class="cls-11" d="M281.11,710.51c.63,0,1.13.37,1.13.82s-.5.81-1.13.81-1.12-.36-1.12-.81S280.49,710.51,281.11,710.51Z" transform="translate(-1.37 4.28)"/><path class="cls-11" d="M297,711.37c.68,0,1.23.4,1.23.89s-.55.88-1.23.88-1.23-.39-1.23-.88S296.35,711.37,297,711.37Z" transform="translate(-1.37 4.28)"/><path class="cls-11" d="M334,739c.7,0,1.27.41,1.27.91s-.57.91-1.27.91-1.26-.41-1.26-.91S333.29,739,334,739Z" transform="translate(-1.37 4.28)"/><path class="cls-11" d="M293.23,746.26c.7,0,1.26.4,1.26.9s-.56.91-1.26.91-1.25-.41-1.25-.91S292.54,746.26,293.23,746.26Z" transform="translate(-1.37 4.28)"/><path class="cls-11" d="M269.09,756.93c.61,0,1.11.35,1.11.8s-.5.79-1.11.79-1.11-.35-1.11-.79S268.48,756.93,269.09,756.93Z" transform="translate(-1.37 4.28)"/><path class="cls-11" d="M252.08,759.57c.86,0,1.55.5,1.55,1.12s-.69,1.12-1.55,1.12-1.54-.5-1.54-1.12S251.23,759.57,252.08,759.57Z" transform="translate(-1.37 4.28)"/><path class="cls-11" d="M243.75,777.2c.62,0,1.11.36,1.11.8s-.49.8-1.11.8-1.11-.36-1.11-.8S243.14,777.2,243.75,777.2Z" transform="translate(-1.37 4.28)"/><path class="cls-11" d="M242.24,777.08c.71,0,1.29.42,1.29.93s-.58.93-1.29.93S241,778.53,241,778,241.53,777.08,242.24,777.08Z" transform="translate(-1.37 4.28)"/><path class="cls-11" d="M236.3,792.65c.85,0,1.54.5,1.54,1.12s-.69,1.11-1.54,1.11-1.54-.5-1.54-1.11S235.45,792.65,236.3,792.65Z" transform="translate(-1.37 4.28)"/><path class="cls-11" d="M194.62,773.65c.61,0,1.11.35,1.11.8s-.5.8-1.11.8-1.11-.36-1.11-.8S194,773.65,194.62,773.65Z" transform="translate(-1.37 4.28)"/><path class="cls-11" d="M176.88,775.41c.63,0,1.14.37,1.14.83s-.51.83-1.14.83-1.15-.37-1.15-.83S176.24,775.41,176.88,775.41Z" transform="translate(-1.37 4.28)"/><path class="cls-11" d="M191,793.33c.7,0,1.26.41,1.26.91s-.56.91-1.26.91-1.25-.41-1.25-.91S190.27,793.33,191,793.33Z" transform="translate(-1.37 4.28)"/><path class="cls-11" d="M259,83.46c.78,0,1.42.45,1.42,1s-.64,1-1.42,1-1.42-.46-1.42-1S258.21,83.46,259,83.46Z" transform="translate(-1.37 4.28)"/><path class="cls-11" d="M251.65,83.6c.72,0,1.3.41,1.3.93s-.58.93-1.3.93-1.29-.41-1.29-.93S250.94,83.6,251.65,83.6Z" transform="translate(-1.37 4.28)"/><path class="cls-11" d="M233.61,88.26c.83,0,1.5.48,1.5,1.08s-.67,1.08-1.5,1.08-1.5-.48-1.5-1.08S232.78,88.26,233.61,88.26Z" transform="translate(-1.37 4.28)"/><path class="cls-11" d="M198.53,97.39c.88,0,1.59.51,1.59,1.14s-.71,1.15-1.59,1.15-1.59-.52-1.59-1.15S197.65,97.39,198.53,97.39Z" transform="translate(-1.37 4.28)"/><path class="cls-11" d="M205.11,111.67c.79,0,1.43.46,1.43,1s-.64,1-1.43,1-1.44-.47-1.44-1S204.31,111.67,205.11,111.67Z" transform="translate(-1.37 4.28)"/><path class="cls-11" d="M177,123.78c.63,0,1.15.37,1.15.83s-.52.83-1.15.83-1.15-.38-1.15-.83S176.33,123.78,177,123.78Z" transform="translate(-1.37 4.28)"/><path class="cls-11" d="M225.45,133.7c.81,0,1.46.47,1.46,1s-.65,1-1.46,1-1.45-.47-1.45-1S224.65,133.7,225.45,133.7Z" transform="translate(-1.37 4.28)"/><path class="cls-11" d="M220.2,148.85c.63,0,1.15.37,1.15.83s-.52.82-1.15.82-1.15-.37-1.15-.82S219.57,148.85,220.2,148.85Z" transform="translate(-1.37 4.28)"/><path class="cls-11" d="M172.15,167.5c.78,0,1.41.46,1.41,1s-.63,1-1.41,1-1.42-.46-1.42-1S171.37,167.5,172.15,167.5Z" transform="translate(-1.37 4.28)"/><path class="cls-11" d="M220,185.27c.7,0,1.26.4,1.26.91s-.56.9-1.26.9-1.26-.4-1.26-.9S219.3,185.27,220,185.27Z" transform="translate(-1.37 4.28)"/><path class="cls-11" d="M182.91,205.88c.76,0,1.37.45,1.37,1s-.61,1-1.37,1-1.37-.44-1.37-1S182.16,205.88,182.91,205.88Z" transform="translate(-1.37 4.28)"/><path class="cls-11" d="M217.83,212.57c.81,0,1.46.47,1.46,1.05s-.65,1-1.46,1-1.45-.47-1.45-1S217,212.57,217.83,212.57Z" transform="translate(-1.37 4.28)"/><path class="cls-11" d="M238.64,224.25c.82,0,1.49.48,1.49,1.08s-.67,1.07-1.49,1.07-1.49-.48-1.49-1.07S237.82,224.25,238.64,224.25Z" transform="translate(-1.37 4.28)"/><path class="cls-11" d="M220.81,230.35c.86,0,1.56.51,1.56,1.13s-.7,1.12-1.56,1.12-1.56-.5-1.56-1.12S219.94,230.35,220.81,230.35Z" transform="translate(-1.37 4.28)"/><path class="cls-11" d="M203,250.92c.81,0,1.47.48,1.47,1.06S203.83,253,203,253s-1.46-.48-1.46-1.06S202.21,250.92,203,250.92Z" transform="translate(-1.37 4.28)"/><path class="cls-11" d="M165.75,274.06c.63,0,1.15.37,1.15.83s-.52.84-1.15.84-1.16-.38-1.16-.84S165.11,274.06,165.75,274.06Z" transform="translate(-1.37 4.28)"/><path class="cls-11" d="M168.4,285.81c.74,0,1.33.43,1.33,1s-.59,1-1.33,1-1.33-.43-1.33-1S167.67,285.81,168.4,285.81Z" transform="translate(-1.37 4.28)"/><path class="cls-11" d="M175.71,313.17c.6,0,1.08.35,1.08.78s-.48.78-1.08.78-1.09-.35-1.09-.78S175.11,313.17,175.71,313.17Z" transform="translate(-1.37 4.28)"/><path class="cls-11" d="M236.56,476.23c.61,0,1.11.36,1.11.8s-.5.8-1.11.8-1.11-.36-1.11-.8S235.94,476.23,236.56,476.23Z" transform="translate(-1.37 4.28)"/><path class="cls-11" d="M193.1,463.1c.87,0,1.57.51,1.57,1.14s-.7,1.13-1.57,1.13-1.58-.5-1.58-1.13S192.23,463.1,193.1,463.1Z" transform="translate(-1.37 4.28)"/><path class="cls-11" d="M227.77,446.5c.73,0,1.31.43,1.31.95s-.58.94-1.31.94-1.3-.42-1.3-.94S227.05,446.5,227.77,446.5Z" transform="translate(-1.37 4.28)"/><path class="cls-11" d="M227,419c.62,0,1.13.37,1.13.82s-.51.82-1.13.82-1.14-.36-1.14-.82S226.35,419,227,419Z" transform="translate(-1.37 4.28)"/><path class="cls-11" d="M201.68,402.5c.75,0,1.35.44,1.35,1s-.6,1-1.35,1-1.34-.43-1.34-1S200.94,402.5,201.68,402.5Z" transform="translate(-1.37 4.28)"/><path class="cls-11" d="M210.81,377.44c.85,0,1.54.5,1.54,1.12s-.69,1.11-1.54,1.11-1.54-.5-1.54-1.11S210,377.44,210.81,377.44Z" transform="translate(-1.37 4.28)"/><path class="cls-11" d="M214.63,362.08c.76,0,1.38.45,1.38,1s-.62,1-1.38,1-1.38-.44-1.38-1S213.87,362.08,214.63,362.08Z" transform="translate(-1.37 4.28)"/><path class="cls-11" d="M171.37,364.6c.76,0,1.39.44,1.39,1s-.63,1-1.39,1-1.39-.45-1.39-1S170.6,364.6,171.37,364.6Z" transform="translate(-1.37 4.28)"/><path class="cls-11" d="M510.54,603.68c.89,0,1.62.52,1.62,1.17s-.73,1.16-1.62,1.16-1.62-.52-1.62-1.16S509.65,603.68,510.54,603.68Z" transform="translate(-1.37 4.28)"/><path class="cls-11" d="M447.17,584.54c1.27,0,2.3.74,2.3,1.65s-1,1.66-2.3,1.66-2.29-.74-2.29-1.66S445.91,584.54,447.17,584.54Z" transform="translate(-1.37 4.28)"/><ellipse class="cls-11" cx="496.36" cy="565.99" rx="1.91" ry="1.38"/><path class="cls-11" d="M496.57,520.29c.91,0,1.66.53,1.66,1.19s-.75,1.2-1.66,1.2-1.66-.54-1.66-1.2S495.65,520.29,496.57,520.29Z" transform="translate(-1.37 4.28)"/><path class="cls-11" d="M459.69,496.16c1.08,0,2,.63,2,1.41s-.88,1.41-2,1.41-1.95-.63-1.95-1.41S458.61,496.16,459.69,496.16Z" transform="translate(-1.37 4.28)"/><path class="cls-11" d="M473,459.62c1.24,0,2.25.72,2.25,1.62s-1,1.62-2.25,1.62-2.25-.72-2.25-1.62S471.76,459.62,473,459.62Z" transform="translate(-1.37 4.28)"/><path class="cls-11" d="M478.57,437.22c1.11,0,2,.65,2,1.45s-.9,1.45-2,1.45-2-.65-2-1.45S477.46,437.22,478.57,437.22Z" transform="translate(-1.37 4.28)"/><path class="cls-11" d="M415.49,440.88c1.11,0,2,.66,2,1.46s-.91,1.46-2,1.46-2-.65-2-1.46S414.37,440.88,415.49,440.88Z" transform="translate(-1.37 4.28)"/><path class="cls-11" d="M110.89,367.29c.9,0,1.62.52,1.62,1.16s-.72,1.17-1.62,1.17-1.61-.52-1.61-1.17S110,367.29,110.89,367.29Z" transform="translate(-1.37 4.28)"/><path class="cls-11" d="M47.53,348.14c1.26,0,2.29.75,2.29,1.66s-1,1.66-2.29,1.66-2.3-.75-2.3-1.66S46.26,348.14,47.53,348.14Z" transform="translate(-1.37 4.28)"/><path class="cls-11" d="M98.09,323.94c1,0,1.9.62,1.9,1.38s-.85,1.38-1.9,1.38-1.91-.62-1.91-1.38S97,323.94,98.09,323.94Z" transform="translate(-1.37 4.28)"/><path class="cls-11" d="M96.92,283.89c.92,0,1.66.54,1.66,1.2s-.74,1.2-1.66,1.2-1.65-.54-1.65-1.2S96,283.89,96.92,283.89Z" transform="translate(-1.37 4.28)"/><path class="cls-11" d="M60.05,259.77c1.08,0,2,.63,2,1.41s-.87,1.41-2,1.41-2-.63-2-1.41S59,259.77,60.05,259.77Z" transform="translate(-1.37 4.28)"/><path class="cls-11" d="M73.35,223.23c1.24,0,2.25.72,2.25,1.62s-1,1.62-2.25,1.62-2.24-.73-2.24-1.62S72.11,223.23,73.35,223.23Z" transform="translate(-1.37 4.28)"/><path class="cls-11" d="M78.92,200.83c1.11,0,2,.65,2,1.45s-.9,1.45-2,1.45-2-.65-2-1.45S77.81,200.83,78.92,200.83Z" transform="translate(-1.37 4.28)"/><path class="cls-11" d="M15.84,204.49c1.12,0,2,.65,2,1.46s-.9,1.46-2,1.46-2-.65-2-1.46S14.72,204.49,15.84,204.49Z" transform="translate(-1.37 4.28)"/><path class="cls-11" d="M403.7,146.59c.65,0,1.18.38,1.18.85s-.53.85-1.18.85-1.17-.38-1.17-.85S403.05,146.59,403.7,146.59Z" transform="translate(-1.37 4.28)"/><path class="cls-11" d="M413.23,155.15c.82,0,1.49.49,1.49,1.08s-.67,1.08-1.49,1.08-1.5-.48-1.5-1.08S412.4,155.15,413.23,155.15Z" transform="translate(-1.37 4.28)"/><path class="cls-11" d="M379.75,178.69c.9,0,1.63.52,1.63,1.17s-.73,1.17-1.63,1.17-1.62-.52-1.62-1.17S378.86,178.69,379.75,178.69Z" transform="translate(-1.37 4.28)"/><path class="cls-11" d="M386.07,184.53c.75,0,1.36.44,1.36,1s-.61,1-1.36,1-1.36-.45-1.36-1S385.31,184.53,386.07,184.53Z" transform="translate(-1.37 4.28)"/><path class="cls-11" d="M361,203.22c.65,0,1.18.39,1.18.86s-.53.85-1.18.85-1.18-.38-1.18-.85S360.37,203.22,361,203.22Z" transform="translate(-1.37 4.28)"/><path class="cls-11" d="M373.11,204.13c.87,0,1.57.51,1.57,1.14s-.7,1.13-1.57,1.13-1.58-.51-1.58-1.13S372.23,204.13,373.11,204.13Z" transform="translate(-1.37 4.28)"/><path class="cls-11" d="M399.61,211.12c.81,0,1.47.48,1.47,1.06s-.66,1.06-1.47,1.06-1.47-.48-1.47-1.06S398.8,211.12,399.61,211.12Z" transform="translate(-1.37 4.28)"/><path class="cls-11" d="M363.15,221.19c.78,0,1.42.46,1.42,1s-.64,1-1.42,1-1.43-.46-1.43-1S362.36,221.19,363.15,221.19Z" transform="translate(-1.37 4.28)"/><path class="cls-11" d="M397.23,247.71c.87,0,1.57.51,1.57,1.14s-.7,1.13-1.57,1.13-1.57-.51-1.57-1.13S396.36,247.71,397.23,247.71Z" transform="translate(-1.37 4.28)"/><path class="cls-11" d="M403.25,249.27c.72,0,1.31.42,1.31.94s-.59.94-1.31.94-1.31-.42-1.31-.94S402.53,249.27,403.25,249.27Z" transform="translate(-1.37 4.28)"/><path class="cls-11" d="M436.18,273.92c.77,0,1.39.45,1.39,1s-.62,1-1.39,1-1.39-.46-1.39-1S435.41,273.92,436.18,273.92Z" transform="translate(-1.37 4.28)"/><path class="cls-11" d="M411.64,295.91c.66,0,1.2.39,1.2.87s-.54.87-1.2.87-1.21-.39-1.21-.87S411,295.91,411.64,295.91Z" transform="translate(-1.37 4.28)"/><path class="cls-11" d="M421.16,309.42c.71,0,1.29.42,1.29.93s-.58.93-1.29.93-1.29-.42-1.29-.93S420.45,309.42,421.16,309.42Z" transform="translate(-1.37 4.28)"/><path class="cls-11" d="M411.79,337.08c.65,0,1.18.38,1.18.85s-.53.85-1.18.85-1.19-.38-1.19-.85S411.13,337.08,411.79,337.08Z" transform="translate(-1.37 4.28)"/><path class="cls-11" d="M372.45,362.46c.8,0,1.44.47,1.44,1s-.64,1-1.44,1-1.43-.47-1.43-1S371.66,362.46,372.45,362.46Z" transform="translate(-1.37 4.28)"/><path class="cls-11" d="M424.32,369.54c.83,0,1.51.49,1.51,1.09s-.68,1.08-1.51,1.08-1.5-.48-1.5-1.08S423.49,369.54,424.32,369.54Z" transform="translate(-1.37 4.28)"/><path class="cls-11" d="M413.67,376.67c.66,0,1.2.39,1.2.87s-.54.87-1.2.87-1.21-.39-1.21-.87S413,376.67,413.67,376.67Z" transform="translate(-1.37 4.28)"/><path class="cls-11" d="M374.54,379.06c.76,0,1.37.44,1.37,1s-.61,1-1.37,1-1.37-.44-1.37-1S373.79,379.06,374.54,379.06Z" transform="translate(-1.37 4.28)"/><path class="cls-11" d="M187.72,532.63c.81,0,1.46.48,1.46,1.06s-.65,1-1.46,1-1.46-.47-1.46-1S186.91,532.63,187.72,532.63Z" transform="translate(-1.37 4.28)"/><path class="cls-11" d="M225.63,508.25c.62,0,1.12.36,1.12.81s-.5.8-1.12.8-1.11-.36-1.11-.8S225,508.25,225.63,508.25Z" transform="translate(-1.37 4.28)"/><path class="cls-11" d="M182.71,506.08c.65,0,1.17.37,1.17.84s-.52.84-1.17.84-1.17-.38-1.17-.84S182.07,506.08,182.71,506.08Z" transform="translate(-1.37 4.28)"/><path class="cls-11" d="M240.27,484.07c.75,0,1.37.44,1.37,1s-.62,1-1.37,1-1.36-.44-1.36-1S239.52,484.07,240.27,484.07Z" transform="translate(-1.37 4.28)"/><path class="cls-11" d="M188.81,467c.87,0,1.57.5,1.57,1.13s-.7,1.13-1.57,1.13-1.56-.5-1.56-1.13S188,467,188.81,467Z" transform="translate(-1.37 4.28)"/><path class="cls-11" d="M217.69,440.75c.85,0,1.54.5,1.54,1.11s-.69,1.12-1.54,1.12-1.55-.5-1.55-1.12S216.83,440.75,217.69,440.75Z" transform="translate(-1.37 4.28)"/><path class="cls-11" d="M204.48,437.22c.81,0,1.47.48,1.47,1.07s-.66,1.06-1.47,1.06-1.48-.48-1.48-1.06S203.66,437.22,204.48,437.22Z" transform="translate(-1.37 4.28)"/><path class="cls-11" d="M205.25,418.71c.64,0,1.15.38,1.15.84s-.51.84-1.15.84-1.16-.38-1.16-.84S204.6,418.71,205.25,418.71Z" transform="translate(-1.37 4.28)"/><path class="cls-11" d="M229,402.07c.76,0,1.38.44,1.38,1s-.62,1-1.38,1-1.38-.45-1.38-1S228.27,402.07,229,402.07Z" transform="translate(-1.37 4.28)"/><path class="cls-11" d="M232.62,401.31c.78,0,1.41.46,1.41,1s-.63,1-1.41,1-1.41-.46-1.41-1S231.84,401.31,232.62,401.31Z" transform="translate(-1.37 4.28)"/><path class="cls-11" d="M194.74,383.37c.7,0,1.26.41,1.26.91s-.56.91-1.26.91-1.26-.41-1.26-.91S194.05,383.37,194.74,383.37Z" transform="translate(-1.37 4.28)"/><path class="cls-11" d="M361.55,415c.79.31,1.07,1,.64,1.58a2,2,0,0,1-2.2.46c-.78-.31-1.07-1-.64-1.59A2,2,0,0,1,361.55,415Z" transform="translate(-1.37 4.28)"/><path class="cls-11" d="M344.87,414.46c.67.27.91.88.54,1.36a1.71,1.71,0,0,1-1.89.4c-.67-.27-.92-.88-.54-1.37A1.7,1.7,0,0,1,344.87,414.46Z" transform="translate(-1.37 4.28)"/><path class="cls-11" d="M374.31,431.82c.55.22.75.71.45,1.11a1.41,1.41,0,0,1-1.54.32c-.54-.22-.74-.72-.44-1.11A1.38,1.38,0,0,1,374.31,431.82Z" transform="translate(-1.37 4.28)"/><path class="cls-11" d="M346.7,434.67c.76.31,1,1,.62,1.55a1.92,1.92,0,0,1-2.15.45c-.77-.3-1-1-.62-1.55A1.94,1.94,0,0,1,346.7,434.67Z" transform="translate(-1.37 4.28)"/><path class="cls-11" d="M346.55,441.44c.55.23.76.73.45,1.13a1.41,1.41,0,0,1-1.57.33c-.56-.22-.76-.73-.45-1.13A1.42,1.42,0,0,1,346.55,441.44Z" transform="translate(-1.37 4.28)"/><path class="cls-11" d="M350.37,469.48c.68.27.93.88.55,1.37a1.7,1.7,0,0,1-1.9.4c-.67-.27-.92-.89-.55-1.38A1.73,1.73,0,0,1,350.37,469.48Z" transform="translate(-1.37 4.28)"/><path class="cls-11" d="M341.06,485.81c.67.27.92.89.55,1.38a1.72,1.72,0,0,1-1.91.4c-.68-.27-.93-.89-.55-1.38A1.72,1.72,0,0,1,341.06,485.81Z" transform="translate(-1.37 4.28)"/><path class="cls-11" d="M309.79,497.59c.6.24.82.79.49,1.22a1.53,1.53,0,0,1-1.7.35c-.6-.24-.82-.78-.49-1.22A1.54,1.54,0,0,1,309.79,497.59Z" transform="translate(-1.37 4.28)"/><path class="cls-11" d="M277.42,482.86c.59.23.8.77.48,1.19a1.51,1.51,0,0,1-1.65.35c-.59-.24-.8-.77-.48-1.2A1.49,1.49,0,0,1,277.42,482.86Z" transform="translate(-1.37 4.28)"/><path class="cls-11" d="M319.7,510.1c.72.28,1,.93.58,1.45a1.81,1.81,0,0,1-2,.42c-.71-.29-1-.94-.58-1.45A1.8,1.8,0,0,1,319.7,510.1Z" transform="translate(-1.37 4.28)"/><path class="cls-11" d="M271.48,487.49c.67.27.91.88.54,1.36a1.7,1.7,0,0,1-1.87.39c-.67-.27-.91-.87-.55-1.35A1.69,1.69,0,0,1,271.48,487.49Z" transform="translate(-1.37 4.28)"/><path class="cls-11" d="M302.36,535.55c.63.25.86.82.51,1.28a1.59,1.59,0,0,1-1.76.36c-.63-.25-.86-.82-.51-1.27A1.58,1.58,0,0,1,302.36,535.55Z" transform="translate(-1.37 4.28)"/><path class="cls-11" d="M263.89,537.28c.69.27.94.9.56,1.4a1.76,1.76,0,0,1-1.95.41c-.69-.28-.94-.91-.56-1.41A1.75,1.75,0,0,1,263.89,537.28Z" transform="translate(-1.37 4.28)"/><path class="cls-11" d="M235.75,554.49c.66.26.9.86.54,1.34a1.68,1.68,0,0,1-1.86.39c-.66-.27-.9-.87-.53-1.34A1.66,1.66,0,0,1,235.75,554.49Z" transform="translate(-1.37 4.28)"/><path class="cls-11" d="M225.5,585.6c.76.3,1,1,.61,1.53a1.92,1.92,0,0,1-2.12.44c-.76-.3-1-1-.62-1.53A1.9,1.9,0,0,1,225.5,585.6Z" transform="translate(-1.37 4.28)"/><path class="cls-11" d="M208.12,582c.63.25.86.83.51,1.28a1.57,1.57,0,0,1-1.77.37c-.64-.25-.87-.82-.52-1.28A1.6,1.6,0,0,1,208.12,582Z" transform="translate(-1.37 4.28)"/><path class="cls-11" d="M182.22,571.5c.65.26.89.85.53,1.32a1.64,1.64,0,0,1-1.84.39c-.65-.26-.89-.86-.53-1.33A1.64,1.64,0,0,1,182.22,571.5Z" transform="translate(-1.37 4.28)"/><path class="cls-11" d="M173.56,604.33c.59.23.81.77.48,1.19a1.48,1.48,0,0,1-1.65.35c-.59-.24-.81-.77-.48-1.2A1.48,1.48,0,0,1,173.56,604.33Z" transform="translate(-1.37 4.28)"/><path class="cls-11" d="M148.92,608.05c.69.27,1,.9.56,1.41a1.78,1.78,0,0,1-2,.41c-.69-.28-.94-.91-.56-1.42A1.76,1.76,0,0,1,148.92,608.05Z" transform="translate(-1.37 4.28)"/><path class="cls-11" d="M114.07,606c.6.23.82.78.49,1.21a1.53,1.53,0,0,1-1.69.35c-.6-.24-.82-.78-.48-1.21A1.49,1.49,0,0,1,114.07,606Z" transform="translate(-1.37 4.28)"/><path class="cls-11" d="M145.62,643.59c.71.29,1,.93.58,1.45a1.81,1.81,0,0,1-2,.42c-.71-.29-1-.93-.58-1.45A1.82,1.82,0,0,1,145.62,643.59Z" transform="translate(-1.37 4.28)"/><path class="cls-11" d="M119.85,661.55c.76.3,1,1,.62,1.55a1.93,1.93,0,0,1-2.15.44c-.76-.3-1-1-.62-1.54A1.94,1.94,0,0,1,119.85,661.55Z" transform="translate(-1.37 4.28)"/><path class="cls-11" d="M72.29,658.72c.64.25.87.83.52,1.29a1.6,1.6,0,0,1-1.78.37c-.64-.25-.87-.83-.52-1.29A1.6,1.6,0,0,1,72.29,658.72Z" transform="translate(-1.37 4.28)"/><path class="cls-11" d="M97.19,679.67c.62.25.84.81.5,1.25a1.57,1.57,0,0,1-1.74.37c-.62-.25-.84-.81-.5-1.26A1.55,1.55,0,0,1,97.19,679.67Z" transform="translate(-1.37 4.28)"/><path class="cls-11" d="M129.2,688c.71.29,1,.93.58,1.45a1.79,1.79,0,0,1-2,.41c-.71-.28-1-.93-.58-1.44A1.8,1.8,0,0,1,129.2,688Z" transform="translate(-1.37 4.28)"/><path class="cls-11" d="M125.7,703.22c.61.25.83.8.5,1.24a1.56,1.56,0,0,1-1.72.36c-.61-.24-.83-.8-.5-1.24A1.56,1.56,0,0,1,125.7,703.22Z" transform="translate(-1.37 4.28)"/><path class="cls-11" d="M163.68,697.51c.62.25.85.82.5,1.27a1.58,1.58,0,0,1-1.76.37c-.63-.25-.86-.82-.51-1.28A1.6,1.6,0,0,1,163.68,697.51Z" transform="translate(-1.37 4.28)"/><path class="cls-11" d="M166.75,716.68c.69.27.93.89.56,1.39a1.76,1.76,0,0,1-1.93.4c-.69-.28-.94-.9-.56-1.39A1.72,1.72,0,0,1,166.75,716.68Z" transform="translate(-1.37 4.28)"/><path class="cls-11" d="M170.76,728.88c.58.23.79.75.47,1.17a1.47,1.47,0,0,1-1.63.34c-.58-.23-.79-.76-.47-1.17A1.45,1.45,0,0,1,170.76,728.88Z" transform="translate(-1.37 4.28)"/><path class="cls-11" d="M197,727.24c.62.24.85.81.51,1.26a1.6,1.6,0,0,1-1.76.37c-.62-.25-.85-.82-.51-1.27A1.59,1.59,0,0,1,197,727.24Z" transform="translate(-1.37 4.28)"/><path class="cls-11" d="M223.65,718.7c.64.26.88.84.52,1.3a1.62,1.62,0,0,1-1.8.38c-.64-.26-.88-.84-.52-1.3A1.62,1.62,0,0,1,223.65,718.7Z" transform="translate(-1.37 4.28)"/><path class="cls-11" d="M251.27,743.39c.57.23.78.75.46,1.17a1.45,1.45,0,0,1-1.62.34c-.57-.23-.78-.76-.46-1.17A1.45,1.45,0,0,1,251.27,743.39Z" transform="translate(-1.37 4.28)"/><path class="cls-11" d="M279.92,745c.74.3,1,1,.6,1.52a1.9,1.9,0,0,1-2.1.44c-.75-.3-1-1-.61-1.52A1.9,1.9,0,0,1,279.92,745Z" transform="translate(-1.37 4.28)"/><path class="cls-11" d="M294.23,741.93c.69.27.94.9.56,1.4a1.73,1.73,0,0,1-1.94.4c-.69-.27-.94-.9-.56-1.4A1.77,1.77,0,0,1,294.23,741.93Z" transform="translate(-1.37 4.28)"/><path class="cls-11" d="M311.65,739.89c.57.22.78.74.46,1.16a1.45,1.45,0,0,1-1.61.33c-.57-.22-.78-.74-.46-1.16A1.45,1.45,0,0,1,311.65,739.89Z" transform="translate(-1.37 4.28)"/><path class="cls-11" d="M345.93,753c.59.24.81.78.48,1.21a1.52,1.52,0,0,1-1.67.35c-.6-.24-.82-.78-.49-1.21A1.51,1.51,0,0,1,345.93,753Z" transform="translate(-1.37 4.28)"/><path class="cls-11" d="M221.13,785.76c.84,0,1.53.5,1.53,1.11S222,788,221.13,788s-1.53-.5-1.53-1.11S220.28,785.76,221.13,785.76Z" transform="translate(-1.37 4.28)"/><path class="cls-11" d="M14.81,660.47c.85,0,1.54.5,1.54,1.11s-.69,1.1-1.54,1.1-1.53-.49-1.53-1.1S14,660.47,14.81,660.47Z" transform="translate(-1.37 4.28)"/><path class="cls-11" d="M184,760.13c.76,0,1.38.45,1.38,1s-.62,1-1.38,1-1.39-.45-1.39-1S183.27,760.13,184,760.13Z" transform="translate(-1.37 4.28)"/><path class="cls-11" d="M474.89,773.64c.76,0,1.37.45,1.37,1s-.61,1-1.37,1-1.39-.44-1.39-1S474.12,773.64,474.89,773.64Z" transform="translate(-1.37 4.28)"/><path class="cls-11" d="M152.52,775.9c.68,0,1.23.4,1.23.89s-.55.89-1.23.89-1.23-.4-1.23-.89S151.84,775.9,152.52,775.9Z" transform="translate(-1.37 4.28)"/><path class="cls-11" d="M490,745.48c.67,0,1.22.4,1.22.89s-.55.88-1.22.88-1.23-.39-1.23-.88S489.27,745.48,490,745.48Z" transform="translate(-1.37 4.28)"/><path class="cls-11" d="M125.91,785.64c.79,0,1.44.46,1.44,1s-.65,1-1.44,1-1.44-.47-1.44-1S125.11,785.64,125.91,785.64Z" transform="translate(-1.37 4.28)"/><path class="cls-11" d="M107.25,774.64c.72,0,1.31.42,1.31,1s-.59.95-1.31.95-1.32-.43-1.32-.95S106.52,774.64,107.25,774.64Z" transform="translate(-1.37 4.28)"/><path class="cls-11" d="M99.93,784.31c.6,0,1.08.35,1.08.78s-.48.78-1.08.78-1.09-.35-1.09-.78S99.33,784.31,99.93,784.31Z" transform="translate(-1.37 4.28)"/><path class="cls-13" d="M433.51,86.72c-57.05,0-103.3,47.43-103.3,105.94S376.46,298.6,433.51,298.6s103.31-47.43,103.31-105.94S490.57,86.72,433.51,86.72Zm21.1,55.21a17,17,0,0,1,24.31-3,18.07,18.07,0,0,1,2.93,24.93,17,17,0,0,1-24.32,3A18.07,18.07,0,0,1,454.61,141.93Zm-86.25,33.19a10.92,10.92,0,0,1-15.72,0,11.61,11.61,0,0,1,0-16.12,10.91,10.91,0,0,1,15.72,0A11.61,11.61,0,0,1,368.36,175.12Zm25.31-26.29a17.91,17.91,0,1,1,17.46-17.9A17.68,17.68,0,0,1,393.67,148.83Zm33,8.47a11.57,11.57,0,1,1,11.28-11.57A11.43,11.43,0,0,1,426.64,157.3ZM482.23,236a20.43,20.43,0,0,1-29.41,0,21.72,21.72,0,0,1,0-30.16,20.43,20.43,0,0,1,29.41,0A21.72,21.72,0,0,1,482.23,236Zm5.6-109.36a8.72,8.72,0,0,1,12.44-1.54,9.25,9.25,0,0,1,1.49,12.76,8.71,8.71,0,0,1-12.43,1.53A9.24,9.24,0,0,1,487.83,126.65Zm8.57,121a10.78,10.78,0,0,1,0-15,10.14,10.14,0,0,1,14.62,0,10.78,10.78,0,0,1,0,15A10.16,10.16,0,0,1,496.4,247.66Z" transform="translate(-1.37 4.28)"/><path class="cls-14" d="M433.51,63c-69.82,0-126.43,58.05-126.43,129.66s56.61,129.66,126.43,129.66S560,264.27,560,192.66,503.34,63,433.51,63Zm0,247.68c-63.55,0-115.07-52.84-115.07-118s51.52-118,115.07-118,115.08,52.84,115.08,118S497.07,310.68,433.51,310.68Z" transform="translate(-1.37 4.28)"/></svg>