<svg id="Layer_1" data-name="Layer 1" xmlns="http://www.w3.org/2000/svg" viewBox="0 0 618.58 1118.66"><defs><style>.cls-1{fill:#2a2a46;}.cls-2{fill:#8fc7d7;}.cls-3{fill:#fff;}.cls-4{fill:#88bdde;}</style></defs><title>scrollingBackGround</title><rect class="cls-1" x="-252.47" y="247.44" width="1118.66" height="618.58" transform="translate(-247.44 866.19) rotate(-90)"/><path class="cls-2" d="M571.64,917.67a9.3,9.3,0,1,1-9.57,9.3A9.43,9.43,0,0,1,571.64,917.67Z" transform="translate(2.43 2.6)"/><path class="cls-3" d="M231.53,33.15l-8-.59,8-.59a4.41,4.41,0,0,0,4.11-4l.61-7.79.61,7.79A4.39,4.39,0,0,0,241,32l8,.59-8,.59a4.4,4.4,0,0,0-4.11,4l-.61,7.79-.61-7.79A4.41,4.41,0,0,0,231.53,33.15Z" transform="translate(2.43 2.6)"/><path class="cls-3" d="M50.88,890.46,46,890.1l4.84-.36a2.64,2.64,0,0,0,2.48-2.41l.37-4.7.37,4.7a2.65,2.65,0,0,0,2.48,2.41l4.84.36-4.84.36a2.66,2.66,0,0,0-2.48,2.41l-.37,4.7-.37-4.7A2.65,2.65,0,0,0,50.88,890.46Z" transform="translate(2.43 2.6)"/><path class="cls-3" d="M565.34,445.53l-4.84-.35,4.84-.36a2.65,2.65,0,0,0,2.48-2.41l.37-4.7.37,4.7a2.65,2.65,0,0,0,2.48,2.41l4.84.36-4.84.35a2.65,2.65,0,0,0-2.48,2.41l-.37,4.71-.37-4.71A2.65,2.65,0,0,0,565.34,445.53Z" transform="translate(2.43 2.6)"/><path class="cls-3" d="M53.5,212.31l-8.23-.61,8.23-.6a4.53,4.53,0,0,0,4.22-4.1l.62-8,.63,8a4.51,4.51,0,0,0,4.21,4.1l8.23.6-8.23.61a4.51,4.51,0,0,0-4.21,4.1l-.63,8-.62-8A4.53,4.53,0,0,0,53.5,212.31Z" transform="translate(2.43 2.6)"/><path class="cls-3" d="M363.68,190l-11.31-.83,11.31-.84a6.21,6.21,0,0,0,5.79-5.63l.86-11,.86,11A6.21,6.21,0,0,0,377,188.3l11.31.84L377,190a6.21,6.21,0,0,0-5.79,5.63l-.86,11-.86-11A6.21,6.21,0,0,0,363.68,190Z" transform="translate(2.43 2.6)"/><path class="cls-4" d="M538.37,619.32l-6.16-.46,6.16-.45a3.39,3.39,0,0,0,3.16-3.07l.47-6,.47,6a3.39,3.39,0,0,0,3.16,3.07l6.16.45-6.16.46a3.39,3.39,0,0,0-3.16,3.07l-.47,6-.47-6A3.39,3.39,0,0,0,538.37,619.32Z" transform="translate(2.43 2.6)"/><path class="cls-4" d="M98.34,619.32l-6.17-.46,6.17-.45a3.39,3.39,0,0,0,3.16-3.07l.47-6,.47,6a3.38,3.38,0,0,0,3.15,3.07l6.17.45-6.17.46a3.38,3.38,0,0,0-3.15,3.07l-.47,6-.47-6A3.39,3.39,0,0,0,98.34,619.32Z" transform="translate(2.43 2.6)"/><path class="cls-4" d="M228.8,255.33l-6.16-.46,6.16-.45a3.39,3.39,0,0,0,3.16-3.07l.47-6,.47,6a3.39,3.39,0,0,0,3.16,3.07l6.16.45-6.16.46a3.38,3.38,0,0,0-3.16,3.07l-.47,6-.47-6A3.38,3.38,0,0,0,228.8,255.33Z" transform="translate(2.43 2.6)"/><path class="cls-4" d="M197.4,903.11l-6.16-.46,6.16-.45a3.39,3.39,0,0,0,3.16-3.07l.47-6,.47,6a3.38,3.38,0,0,0,3.16,3.07l6.16.45-6.16.46a3.37,3.37,0,0,0-3.16,3.07l-.47,6-.47-6A3.38,3.38,0,0,0,197.4,903.11Z" transform="translate(2.43 2.6)"/><path class="cls-3" d="M471.4,485.32l-14.25-1.05,14.25-1a7.83,7.83,0,0,0,7.31-7.1l1.08-13.84,1.08,13.84a7.83,7.83,0,0,0,7.31,7.1l14.25,1-14.25,1.05a7.83,7.83,0,0,0-7.31,7.1l-1.08,13.84-1.08-13.84A7.83,7.83,0,0,0,471.4,485.32Z" transform="translate(2.43 2.6)"/><path class="cls-3" d="M483.44,327a2.94,2.94,0,1,1-3,2.94A3,3,0,0,1,483.44,327Z" transform="translate(2.43 2.6)"/><path class="cls-3" d="M520,59.32a2.94,2.94,0,1,1-3,2.94A3,3,0,0,1,520,59.32Z" transform="translate(2.43 2.6)"/><path class="cls-2" d="M545.9,724.61a6.39,6.39,0,1,1,6.39,6.21A6.3,6.3,0,0,1,545.9,724.61Z" transform="translate(2.43 2.6)"/><path class="cls-3" d="M583.77,957.81a2,2,0,1,1-2,2A2,2,0,0,1,583.77,957.81Z" transform="translate(2.43 2.6)"/><path class="cls-3" d="M457.28,365.42a2,2,0,1,1-2,2A2,2,0,0,1,457.28,365.42Z" transform="translate(2.43 2.6)"/><path class="cls-3" d="M21.88,542.1a2,2,0,1,1-2,2A2,2,0,0,1,21.88,542.1Z" transform="translate(2.43 2.6)"/><path class="cls-3" d="M105.58,818.46a2,2,0,1,1-2,2A2,2,0,0,1,105.58,818.46Z" transform="translate(2.43 2.6)"/><path class="cls-3" d="M426.47,30.59a2,2,0,1,1-2,2A2,2,0,0,1,426.47,30.59Z" transform="translate(2.43 2.6)"/><path class="cls-3" d="M218.43,672.32a2,2,0,1,1-2,2A2,2,0,0,1,218.43,672.32Z" transform="translate(2.43 2.6)"/><path class="cls-3" d="M457.28,136.41a2,2,0,1,1-2,2A2,2,0,0,1,457.28,136.41Z" transform="translate(2.43 2.6)"/><path class="cls-3" d="M208.15,151.14a2,2,0,1,1-2,2A2,2,0,0,1,208.15,151.14Z" transform="translate(2.43 2.6)"/><path class="cls-3" d="M159.82,667.75a2,2,0,1,1-2,2A2,2,0,0,1,159.82,667.75Z" transform="translate(2.43 2.6)"/><path class="cls-3" d="M324.77,86.51a2,2,0,1,1-2,2A2,2,0,0,1,324.77,86.51Z" transform="translate(2.43 2.6)"/><path class="cls-3" d="M174,65.77a2,2,0,1,1-2,2A2,2,0,0,1,174,65.77Z" transform="translate(2.43 2.6)"/><path class="cls-3" d="M54.61,1044.65a2,2,0,1,1-2,2A2,2,0,0,1,54.61,1044.65Z" transform="translate(2.43 2.6)"/><path class="cls-3" d="M232.43,394.94a2.94,2.94,0,1,1-3,2.94A3,3,0,0,1,232.43,394.94Z" transform="translate(2.43 2.6)"/><path class="cls-3" d="M434.63,562.94a2.94,2.94,0,1,1-3,2.93A3,3,0,0,1,434.63,562.94Z" transform="translate(2.43 2.6)"/><path class="cls-3" d="M19.85,813.18a2.94,2.94,0,1,1-3,2.93A3,3,0,0,1,19.85,813.18Z" transform="translate(2.43 2.6)"/><path class="cls-3" d="M390.93,546.24a2.94,2.94,0,1,1-3,2.94A3,3,0,0,1,390.93,546.24Z" transform="translate(2.43 2.6)"/><path class="cls-3" d="M559.41,251.93a2.94,2.94,0,1,1-3,2.94A3,3,0,0,1,559.41,251.93Z" transform="translate(2.43 2.6)"/><path class="cls-3" d="M242.88,690.49a1.21,1.21,0,1,1-1.24,1.21A1.23,1.23,0,0,1,242.88,690.49Z" transform="translate(2.43 2.6)"/><path class="cls-3" d="M217.4,694.54a1.48,1.48,0,1,1-1.52,1.47A1.5,1.5,0,0,1,217.4,694.54Z" transform="translate(2.43 2.6)"/><path class="cls-3" d="M227.28,708.83a1.16,1.16,0,1,1-1.19,1.16A1.17,1.17,0,0,1,227.28,708.83Z" transform="translate(2.43 2.6)"/><path class="cls-3" d="M217.05,745.6a1.11,1.11,0,1,1-1.14,1.11A1.12,1.12,0,0,1,217.05,745.6Z" transform="translate(2.43 2.6)"/><path class="cls-3" d="M177.18,750.41a1.16,1.16,0,1,1-1.19,1.16A1.17,1.17,0,0,1,177.18,750.41Z" transform="translate(2.43 2.6)"/><path class="cls-3" d="M212.08,789.17a1.35,1.35,0,1,1-1.38,1.34A1.36,1.36,0,0,1,212.08,789.17Z" transform="translate(2.43 2.6)"/><path class="cls-3" d="M183,782.2a1.52,1.52,0,1,1-1.56,1.51A1.54,1.54,0,0,1,183,782.2Z" transform="translate(2.43 2.6)"/><path class="cls-3" d="M172.72,812a1.1,1.1,0,1,1-1.14,1.1A1.12,1.12,0,0,1,172.72,812Z" transform="translate(2.43 2.6)"/><path class="cls-3" d="M125.25,811.73A1.22,1.22,0,1,1,124,813,1.24,1.24,0,0,1,125.25,811.73Z" transform="translate(2.43 2.6)"/><path class="cls-3" d="M152.58,864.32a1.49,1.49,0,1,1-1.53,1.49A1.51,1.51,0,0,1,152.58,864.32Z" transform="translate(2.43 2.6)"/><path class="cls-3" d="M138.3,881.27a1.19,1.19,0,1,1-1.23,1.19A1.21,1.21,0,0,1,138.3,881.27Z" transform="translate(2.43 2.6)"/><path class="cls-3" d="M145.67,893.36a1.31,1.31,0,1,1-1.34,1.3A1.33,1.33,0,0,1,145.67,893.36Z" transform="translate(2.43 2.6)"/><path class="cls-3" d="M118.72,886.21a1.18,1.18,0,1,1-1.21,1.18A1.2,1.2,0,0,1,118.72,886.21Z" transform="translate(2.43 2.6)"/><path class="cls-3" d="M96.29,880.82a1.63,1.63,0,1,1-1.67,1.63A1.65,1.65,0,0,1,96.29,880.82Z" transform="translate(2.43 2.6)"/><path class="cls-3" d="M106.65,924.53a1.22,1.22,0,1,1-1.25,1.22A1.24,1.24,0,0,1,106.65,924.53Z" transform="translate(2.43 2.6)"/><path class="cls-3" d="M119.6,929.59a1.43,1.43,0,1,1-1.48,1.43A1.45,1.45,0,0,1,119.6,929.59Z" transform="translate(2.43 2.6)"/><path class="cls-3" d="M126.66,945.59a1.55,1.55,0,1,1-1.6,1.55A1.57,1.57,0,0,1,126.66,945.59Z" transform="translate(2.43 2.6)"/><path class="cls-3" d="M121.54,968a1.19,1.19,0,1,1-1.23,1.19A1.21,1.21,0,0,1,121.54,968Z" transform="translate(2.43 2.6)"/><path class="cls-3" d="M109.83,965.24a1.42,1.42,0,1,1-1.46,1.41A1.43,1.43,0,0,1,109.83,965.24Z" transform="translate(2.43 2.6)"/><ellipse class="cls-3" cx="116.77" cy="978.12" rx="1.29" ry="1.25"/><path class="cls-3" d="M127.2,1013.08a1.56,1.56,0,1,1-1.6,1.56A1.59,1.59,0,0,1,127.2,1013.08Z" transform="translate(2.43 2.6)"/><path class="cls-3" d="M108.93,1016.07a1.32,1.32,0,1,1-1.35,1.32A1.34,1.34,0,0,1,108.93,1016.07Z" transform="translate(2.43 2.6)"/><path class="cls-3" d="M98.69,1028.89a1.63,1.63,0,1,1-1.68,1.63A1.65,1.65,0,0,1,98.69,1028.89Z" transform="translate(2.43 2.6)"/><path class="cls-3" d="M58.11,1047.55a1.56,1.56,0,1,1-1.6,1.56A1.59,1.59,0,0,1,58.11,1047.55Z" transform="translate(2.43 2.6)"/><path class="cls-3" d="M583,10.46a1.46,1.46,0,1,1-1.5,1.45A1.48,1.48,0,0,1,583,10.46Z" transform="translate(2.43 2.6)"/><path class="cls-3" d="M586.71,47.47A1.63,1.63,0,1,1,585,49.1,1.65,1.65,0,0,1,586.71,47.47Z" transform="translate(2.43 2.6)"/><path class="cls-3" d="M124,535.86a1.41,1.41,0,1,1-1.45,1.41A1.43,1.43,0,0,1,124,535.86Z" transform="translate(2.43 2.6)"/><path class="cls-3" d="M519.72,1.36a1.46,1.46,0,0,1,1.49,1.44,1.49,1.49,0,0,1-3,0A1.46,1.46,0,0,1,519.72,1.36Z" transform="translate(2.43 2.6)"/><path class="cls-3" d="M532.47,59.07a1.17,1.17,0,1,1-1.2,1.17A1.18,1.18,0,0,1,532.47,59.07Z" transform="translate(2.43 2.6)"/><path class="cls-3" d="M485.11,27.94a1.63,1.63,0,1,1-1.67,1.62A1.65,1.65,0,0,1,485.11,27.94Z" transform="translate(2.43 2.6)"/><path class="cls-3" d="M482.16,62.52a1.24,1.24,0,1,1-1.28,1.24A1.26,1.26,0,0,1,482.16,62.52Z" transform="translate(2.43 2.6)"/><path class="cls-3" d="M507.45,107.74a1.4,1.4,0,1,1-1.44,1.4A1.43,1.43,0,0,1,507.45,107.74Z" transform="translate(2.43 2.6)"/><path class="cls-3" d="M470.61,120a1.39,1.39,0,1,1-1.43,1.39A1.42,1.42,0,0,1,470.61,120Z" transform="translate(2.43 2.6)"/><path class="cls-3" d="M470.84,144.41a1.41,1.41,0,1,1-1.46,1.41A1.43,1.43,0,0,1,470.84,144.41Z" transform="translate(2.43 2.6)"/><path class="cls-3" d="M473.59,157.65a1.56,1.56,0,1,1-1.6,1.56A1.58,1.58,0,0,1,473.59,157.65Z" transform="translate(2.43 2.6)"/><path class="cls-3" d="M443.53,173.54A1.48,1.48,0,1,1,442,175,1.51,1.51,0,0,1,443.53,173.54Z" transform="translate(2.43 2.6)"/><path class="cls-3" d="M402.9,169.32a1.11,1.11,0,1,1-1.14,1.11A1.13,1.13,0,0,1,402.9,169.32Z" transform="translate(2.43 2.6)"/><path class="cls-3" d="M379.88,190.54a1.31,1.31,0,1,1-1.34,1.31A1.33,1.33,0,0,1,379.88,190.54Z" transform="translate(2.43 2.6)"/><path class="cls-3" d="M390.16,206.24a1.16,1.16,0,1,1-1.19,1.15A1.18,1.18,0,0,1,390.16,206.24Z" transform="translate(2.43 2.6)"/><path class="cls-3" d="M429.05,230.54a1.4,1.4,0,1,1-1.44,1.4A1.42,1.42,0,0,1,429.05,230.54Z" transform="translate(2.43 2.6)"/><path class="cls-3" d="M390.52,249.93a1.64,1.64,0,1,1-1.68,1.64A1.67,1.67,0,0,1,390.52,249.93Z" transform="translate(2.43 2.6)"/><path class="cls-3" d="M370.26,284a1.24,1.24,0,1,1-1.27,1.23A1.25,1.25,0,0,1,370.26,284Z" transform="translate(2.43 2.6)"/><path class="cls-3" d="M400.59,298.23a1.62,1.62,0,1,1-1.67,1.62A1.63,1.63,0,0,1,400.59,298.23Z" transform="translate(2.43 2.6)"/><path class="cls-3" d="M382.53,301.9a1.51,1.51,0,1,1-1.54,1.5A1.52,1.52,0,0,1,382.53,301.9Z" transform="translate(2.43 2.6)"/><path class="cls-3" d="M407.33,324.44a1.26,1.26,0,1,1-1.3,1.26A1.28,1.28,0,0,1,407.33,324.44Z" transform="translate(2.43 2.6)"/><path class="cls-3" d="M386.72,320.19a1.63,1.63,0,1,1-1.68,1.63A1.65,1.65,0,0,1,386.72,320.19Z" transform="translate(2.43 2.6)"/><path class="cls-3" d="M417.82,333a1.54,1.54,0,1,1-1.58,1.54A1.56,1.56,0,0,1,417.82,333Z" transform="translate(2.43 2.6)"/><path class="cls-3" d="M380.55,343.56a1.14,1.14,0,1,1-1.18,1.14A1.15,1.15,0,0,1,380.55,343.56Z" transform="translate(2.43 2.6)"/><path class="cls-3" d="M340.41,367.51a1.4,1.4,0,1,1-1.44,1.4A1.43,1.43,0,0,1,340.41,367.51Z" transform="translate(2.43 2.6)"/><path class="cls-3" d="M377.16,375.2a1.35,1.35,0,1,1-1.38,1.35A1.37,1.37,0,0,1,377.16,375.2Z" transform="translate(2.43 2.6)"/><path class="cls-3" d="M358.54,380.59a1.53,1.53,0,1,1-1.58,1.53A1.56,1.56,0,0,1,358.54,380.59Z" transform="translate(2.43 2.6)"/><ellipse class="cls-3" cx="338.48" cy="404.65" rx="1.52" ry="1.47"/><path class="cls-3" d="M387.14,406.41a1.24,1.24,0,1,1-1.28,1.24A1.26,1.26,0,0,1,387.14,406.41Z" transform="translate(2.43 2.6)"/><path class="cls-3" d="M366.79,432.72a1.59,1.59,0,1,1-1.63,1.58A1.62,1.62,0,0,1,366.79,432.72Z" transform="translate(2.43 2.6)"/><path class="cls-3" d="M342.85,461a1.29,1.29,0,1,1-1.32,1.28A1.3,1.3,0,0,1,342.85,461Z" transform="translate(2.43 2.6)"/><path class="cls-3" d="M375.07,468.75a1.59,1.59,0,1,1-1.64,1.58A1.61,1.61,0,0,1,375.07,468.75Z" transform="translate(2.43 2.6)"/><path class="cls-3" d="M340.52,481.05a1.24,1.24,0,1,1-1.27,1.24A1.26,1.26,0,0,1,340.52,481.05Z" transform="translate(2.43 2.6)"/><path class="cls-3" d="M353.38,481.14a1.42,1.42,0,1,1-1.45,1.42A1.44,1.44,0,0,1,353.38,481.14Z" transform="translate(2.43 2.6)"/><ellipse class="cls-3" cx="384.05" cy="518.56" rx="1.43" ry="1.39"/><path class="cls-3" d="M400.18,529.42a1.17,1.17,0,1,1,0,2.34,1.17,1.17,0,1,1,0-2.34Z" transform="translate(2.43 2.6)"/><path class="cls-3" d="M299.09,28.55a1.38,1.38,0,1,1-1.43,1.38A1.4,1.4,0,0,1,299.09,28.55Z" transform="translate(2.43 2.6)"/><path class="cls-3" d="M279.53,57.17a1.45,1.45,0,1,1-1.48,1.45A1.47,1.47,0,0,1,279.53,57.17Z" transform="translate(2.43 2.6)"/><path class="cls-3" d="M277.06,69.1a1.33,1.33,0,1,1-1.36,1.33A1.34,1.34,0,0,1,277.06,69.1Z" transform="translate(2.43 2.6)"/><path class="cls-3" d="M281.72,84.1a1.13,1.13,0,1,1-1.16,1.13A1.15,1.15,0,0,1,281.72,84.1Z" transform="translate(2.43 2.6)"/><path class="cls-3" d="M237.47,126.12a1.33,1.33,0,1,1-1.37,1.33A1.35,1.35,0,0,1,237.47,126.12Z" transform="translate(2.43 2.6)"/><path class="cls-3" d="M250.6,162.47a1.63,1.63,0,1,1-1.68,1.63A1.66,1.66,0,0,1,250.6,162.47Z" transform="translate(2.43 2.6)"/><path class="cls-3" d="M277.1,169.9a1.53,1.53,0,1,1-1.57,1.53A1.55,1.55,0,0,1,277.1,169.9Z" transform="translate(2.43 2.6)"/><path class="cls-3" d="M267.87,200.15a1.46,1.46,0,1,1-1.49,1.46A1.48,1.48,0,0,1,267.87,200.15Z" transform="translate(2.43 2.6)"/><path class="cls-3" d="M274.66,202.13a1.44,1.44,0,1,1-1.48,1.44A1.46,1.46,0,0,1,274.66,202.13Z" transform="translate(2.43 2.6)"/><path class="cls-3" d="M317.81,220.88a1.53,1.53,0,1,1-1.57,1.53A1.55,1.55,0,0,1,317.81,220.88Z" transform="translate(2.43 2.6)"/><path class="cls-3" d="M295.84,234.72a1.59,1.59,0,1,1-1.63,1.59A1.62,1.62,0,0,1,295.84,234.72Z" transform="translate(2.43 2.6)"/><path class="cls-3" d="M317.82,249.53a1.62,1.62,0,1,1-1.66,1.61A1.64,1.64,0,0,1,317.82,249.53Z" transform="translate(2.43 2.6)"/><path class="cls-3" d="M322.38,264.43a1.38,1.38,0,1,1-1.42,1.38A1.4,1.4,0,0,1,322.38,264.43Z" transform="translate(2.43 2.6)"/><path class="cls-3" d="M263.37,290.24a1.63,1.63,0,1,1-1.68,1.63A1.65,1.65,0,0,1,263.37,290.24Z" transform="translate(2.43 2.6)"/><path class="cls-3" d="M264.58,313.74a1.29,1.29,0,1,1-1.32,1.28A1.3,1.3,0,0,1,264.58,313.74Z" transform="translate(2.43 2.6)"/><path class="cls-2" d="M159.82,585a1.12,1.12,0,1,1,1.12,1.08A1.1,1.1,0,0,1,159.82,585Z" transform="translate(2.43 2.6)"/><path class="cls-2" d="M287.43,707.42a2.68,2.68,0,1,1,2.68,2.6A2.65,2.65,0,0,1,287.43,707.42Z" transform="translate(2.43 2.6)"/><path class="cls-2" d="M11.46,771a2.68,2.68,0,1,1,2.68,2.6A2.64,2.64,0,0,1,11.46,771Z" transform="translate(2.43 2.6)"/><path class="cls-2" d="M229,768.36a2.71,2.71,0,1,1,2.71,2.63A2.66,2.66,0,0,1,229,768.36Z" transform="translate(2.43 2.6)"/><path class="cls-2" d="M99.65,783.16a2,2,0,1,1,2,1.94A2,2,0,0,1,99.65,783.16Z" transform="translate(2.43 2.6)"/><path class="cls-2" d="M221.54,895.18a2.25,2.25,0,1,1,2.25,2.18A2.22,2.22,0,0,1,221.54,895.18Z" transform="translate(2.43 2.6)"/><path class="cls-2" d="M108.81,918a2.43,2.43,0,1,1,2.43,2.36A2.4,2.4,0,0,1,108.81,918Z" transform="translate(2.43 2.6)"/><path class="cls-2" d="M45.5,957.2a1.55,1.55,0,1,1,1.55,1.51A1.52,1.52,0,0,1,45.5,957.2Z" transform="translate(2.43 2.6)"/><path class="cls-2" d="M129.59,1044.07a2.68,2.68,0,1,1,2.68,2.6A2.65,2.65,0,0,1,129.59,1044.07Z" transform="translate(2.43 2.6)"/><path class="cls-2" d="M1,1057.72a2.37,2.37,0,0,1,2.41-2.33,2.34,2.34,0,1,1,0,4.67A2.37,2.37,0,0,1,1,1057.72Z" transform="translate(2.43 2.6)"/><path class="cls-2" d="M513.88,47.15a2,2,0,1,1,2,2A2,2,0,0,1,513.88,47.15Z" transform="translate(2.43 2.6)"/><path class="cls-2" d="M536.21,89.61a1.61,1.61,0,1,1,1.6,1.56A1.58,1.58,0,0,1,536.21,89.61Z" transform="translate(2.43 2.6)"/><path class="cls-2" d="M434.11,99.91a1.83,1.83,0,1,1,1.83,1.78A1.81,1.81,0,0,1,434.11,99.91Z" transform="translate(2.43 2.6)"/><path class="cls-2" d="M607.69,208.64a2.42,2.42,0,1,1,2.42,2.35A2.39,2.39,0,0,1,607.69,208.64Z" transform="translate(2.43 2.6)"/><path class="cls-2" d="M472.53,213a1.29,1.29,0,1,1,1.28,1.25A1.26,1.26,0,0,1,472.53,213Z" transform="translate(2.43 2.6)"/><path class="cls-2" d="M466.44,300.89a1,1,0,1,1,1,1A1,1,0,0,1,466.44,300.89Z" transform="translate(2.43 2.6)"/><path class="cls-2" d="M395.48,324.69a2.31,2.31,0,1,1,2.31,2.25A2.27,2.27,0,0,1,395.48,324.69Z" transform="translate(2.43 2.6)"/><path class="cls-2" d="M374.92,388.23a3,3,0,1,1,3,2.93A3,3,0,0,1,374.92,388.23Z" transform="translate(2.43 2.6)"/><path class="cls-2" d="M322.62,451.19a2.51,2.51,0,1,1,2.51,2.44A2.47,2.47,0,0,1,322.62,451.19Z" transform="translate(2.43 2.6)"/><path class="cls-2" d="M325.6,537.27a3.23,3.23,0,1,1,3.23,3.13A3.19,3.19,0,0,1,325.6,537.27Z" transform="translate(2.43 2.6)"/><path class="cls-2" d="M441.39,152.23a2,2,0,1,1,2,1.9A1.93,1.93,0,0,1,441.39,152.23Z" transform="translate(2.43 2.6)"/><path class="cls-2" d="M582.21,195.49a2.29,2.29,0,1,1,2.29,2.22A2.26,2.26,0,0,1,582.21,195.49Z" transform="translate(2.43 2.6)"/><path class="cls-2" d="M580,258.1a.87.87,0,1,1,.87.84A.85.85,0,0,1,580,258.1Z" transform="translate(2.43 2.6)"/><path class="cls-2" d="M609.16,335.69a1.51,1.51,0,1,1,1.51,1.46A1.49,1.49,0,0,1,609.16,335.69Z" transform="translate(2.43 2.6)"/><path class="cls-2" d="M571.64,390.91a1.7,1.7,0,1,1,1.69,1.65A1.67,1.67,0,0,1,571.64,390.91Z" transform="translate(2.43 2.6)"/><path class="cls-2" d="M532.44,466.34a3.14,3.14,0,1,1,3.14,3.05A3.1,3.1,0,0,1,532.44,466.34Z" transform="translate(2.43 2.6)"/><path class="cls-2" d="M460,518.33a2.56,2.56,0,1,1,2.55,2.48A2.52,2.52,0,0,1,460,518.33Z" transform="translate(2.43 2.6)"/><path class="cls-2" d="M590.2,565.3a1,1,0,1,1,1,1A1,1,0,0,1,590.2,565.3Z" transform="translate(2.43 2.6)"/><path class="cls-2" d="M507.68,500.11a1.44,1.44,0,1,1,1.44,1.4A1.42,1.42,0,0,1,507.68,500.11Z" transform="translate(2.43 2.6)"/><path class="cls-2" d="M490.55,482.21a1.84,1.84,0,1,1,1.84,1.78A1.81,1.81,0,0,1,490.55,482.21Z" transform="translate(2.43 2.6)"/><path class="cls-2" d="M414.51,461.64a1.06,1.06,0,1,1,1.06,1A1,1,0,0,1,414.51,461.64Z" transform="translate(2.43 2.6)"/><path class="cls-2" d="M276.21,798.88a1,1,0,1,1,1,1A1,1,0,0,1,276.21,798.88Z" transform="translate(2.43 2.6)"/><path class="cls-2" d="M284.07,894.4a2.85,2.85,0,1,1,2.85,2.77A2.81,2.81,0,0,1,284.07,894.4Z" transform="translate(2.43 2.6)"/><path class="cls-2" d="M298.61,528.46a3.2,3.2,0,1,1,3.2,3.11A3.15,3.15,0,0,1,298.61,528.46Z" transform="translate(2.43 2.6)"/><path class="cls-2" d="M319.73,749.52a1.2,1.2,0,1,1,1.2,1.16A1.18,1.18,0,0,1,319.73,749.52Z" transform="translate(2.43 2.6)"/><path class="cls-2" d="M595.15,991a2.23,2.23,0,1,1,2.23,2.17A2.2,2.2,0,0,1,595.15,991Z" transform="translate(2.43 2.6)"/><path class="cls-2" d="M232.9,921.16a1.91,1.91,0,1,1,1.9,1.86A1.88,1.88,0,0,1,232.9,921.16Z" transform="translate(2.43 2.6)"/><path class="cls-2" d="M387.72,667.75a3.22,3.22,0,1,1,3.21,3.12A3.17,3.17,0,0,1,387.72,667.75Z" transform="translate(2.43 2.6)"/><path class="cls-2" d="M384.08,831.61a1.27,1.27,0,1,1,1.26,1.23A1.25,1.25,0,0,1,384.08,831.61Z" transform="translate(2.43 2.6)"/><path class="cls-2" d="M596,1097.8a1.37,1.37,0,1,1,1.37,1.33A1.35,1.35,0,0,1,596,1097.8Z" transform="translate(2.43 2.6)"/><path class="cls-2" d="M491.9,730.47a3,3,0,1,1,3,2.95A3,3,0,0,1,491.9,730.47Z" transform="translate(2.43 2.6)"/><path class="cls-2" d="M561.73,761.14a3,3,0,1,1,3,2.93A3,3,0,0,1,561.73,761.14Z" transform="translate(2.43 2.6)"/><path class="cls-2" d="M548,1067.24a3.27,3.27,0,1,1,3.27,3.18A3.23,3.23,0,0,1,548,1067.24Z" transform="translate(2.43 2.6)"/><path class="cls-2" d="M54.14,962.22a3.2,3.2,0,1,1,3.19,3.1A3.15,3.15,0,0,1,54.14,962.22Z" transform="translate(2.43 2.6)"/><path class="cls-2" d="M157.83,970.38a1.42,1.42,0,1,1,1.42,1.38A1.4,1.4,0,0,1,157.83,970.38Z" transform="translate(2.43 2.6)"/><path class="cls-2" d="M20.46,686.21a1.42,1.42,0,1,1,1.42,1.37A1.4,1.4,0,0,1,20.46,686.21Z" transform="translate(2.43 2.6)"/><path class="cls-2" d="M172.72,863.85a1.36,1.36,0,1,1,1.36,1.32A1.34,1.34,0,0,1,172.72,863.85Z" transform="translate(2.43 2.6)"/><path class="cls-2" d="M130.47,816.11a3.16,3.16,0,1,1,3.15,3.07A3.11,3.11,0,0,1,130.47,816.11Z" transform="translate(2.43 2.6)"/><path class="cls-2" d="M66.63,732.88a2.8,2.8,0,1,1,2.8,2.72A2.75,2.75,0,0,1,66.63,732.88Z" transform="translate(2.43 2.6)"/><path class="cls-2" d="M68.57,671.25a1.57,1.57,0,1,1,1.56,1.52A1.55,1.55,0,0,1,68.57,671.25Z" transform="translate(2.43 2.6)"/><path class="cls-2" d="M277.76,1085a3.26,3.26,0,1,1,3.26,3.17A3.22,3.22,0,0,1,277.76,1085Z" transform="translate(2.43 2.6)"/><path class="cls-2" d="M393.16,900.54a3.26,3.26,0,1,1,3.26,3.17A3.22,3.22,0,0,1,393.16,900.54Z" transform="translate(2.43 2.6)"/><path class="cls-2" d="M96.43,598.85a1.13,1.13,0,1,1,1.13,1.1A1.11,1.11,0,0,1,96.43,598.85Z" transform="translate(2.43 2.6)"/><path class="cls-2" d="M185.3,645.39a2.48,2.48,0,1,1,2.47,2.4A2.44,2.44,0,0,1,185.3,645.39Z" transform="translate(2.43 2.6)"/><path class="cls-2" d="M293.41,13.81a3,3,0,1,1,3,2.92A3,3,0,0,1,293.41,13.81Z" transform="translate(2.43 2.6)"/><path class="cls-2" d="M399.14,28.57a1.08,1.08,0,1,1,1.08,1.05A1.06,1.06,0,0,1,399.14,28.57Z" transform="translate(2.43 2.6)"/><path class="cls-2" d="M354.27,100.48a2.08,2.08,0,1,1,2.07,2A2.05,2.05,0,0,1,354.27,100.48Z" transform="translate(2.43 2.6)"/><path class="cls-2" d="M416.82,135.37a1,1,0,1,1,1,1A1,1,0,0,1,416.82,135.37Z" transform="translate(2.43 2.6)"/><path class="cls-2" d="M331.25,170.92a2.1,2.1,0,1,1,2.1,2A2.08,2.08,0,0,1,331.25,170.92Z" transform="translate(2.43 2.6)"/><path class="cls-2" d="M311.22,215a2.6,2.6,0,1,1,2.6,2.53A2.56,2.56,0,0,1,311.22,215Z" transform="translate(2.43 2.6)"/><path class="cls-2" d="M238.41,304.8a2.84,2.84,0,1,1,2.84,2.76A2.8,2.8,0,0,1,238.41,304.8Z" transform="translate(2.43 2.6)"/><path class="cls-2" d="M340.21,342.71a.66.66,0,1,1,.66.64A.65.65,0,0,1,340.21,342.71Z" transform="translate(2.43 2.6)"/><path class="cls-2" d="M437.63,407.54a2.35,2.35,0,1,1,2.35,2.28A2.32,2.32,0,0,1,437.63,407.54Z" transform="translate(2.43 2.6)"/><path class="cls-2" d="M240,432.52a1.43,1.43,0,1,1,1.43,1.38A1.41,1.41,0,0,1,240,432.52Z" transform="translate(2.43 2.6)"/><path class="cls-2" d="M277,419.46a2.79,2.79,0,1,1,2.79,2.71A2.75,2.75,0,0,1,277,419.46Z" transform="translate(2.43 2.6)"/><path class="cls-2" d="M440.9,76a3.3,3.3,0,1,1,3.3,3.2A3.25,3.25,0,0,1,440.9,76Z" transform="translate(2.43 2.6)"/><path class="cls-2" d="M446.71,162.24a2.44,2.44,0,1,1,2.44,2.38A2.4,2.4,0,0,1,446.71,162.24Z" transform="translate(2.43 2.6)"/><path class="cls-2" d="M539.51,316.2a.78.78,0,1,1,.78.75A.77.77,0,0,1,539.51,316.2Z" transform="translate(2.43 2.6)"/><path class="cls-2" d="M515.71,241.94a2.63,2.63,0,1,1,2.63,2.55A2.6,2.6,0,0,1,515.71,241.94Z" transform="translate(2.43 2.6)"/><path class="cls-2" d="M589.56,243a3.31,3.31,0,1,1,3.31,3.21A3.26,3.26,0,0,1,589.56,243Z" transform="translate(2.43 2.6)"/><path class="cls-2" d="M596.67,133.64a1.41,1.41,0,1,1,1.41,1.37A1.39,1.39,0,0,1,596.67,133.64Z" transform="translate(2.43 2.6)"/><path class="cls-2" d="M582,108.6a2.17,2.17,0,1,1,2.17,2.11A2.13,2.13,0,0,1,582,108.6Z" transform="translate(2.43 2.6)"/><path class="cls-2" d="M578.34,179.18a2,2,0,1,1,2,1.92A2,2,0,0,1,578.34,179.18Z" transform="translate(2.43 2.6)"/><path class="cls-2" d="M531.73,211.07a2.2,2.2,0,1,1,2.2,2.14A2.16,2.16,0,0,1,531.73,211.07Z" transform="translate(2.43 2.6)"/><path class="cls-2" d="M494.86,287.48a3.06,3.06,0,1,1,3.06,3A3,3,0,0,1,494.86,287.48Z" transform="translate(2.43 2.6)"/><path class="cls-2" d="M414.33,327.37A2.66,2.66,0,1,1,417,330,2.61,2.61,0,0,1,414.33,327.37Z" transform="translate(2.43 2.6)"/><path class="cls-2" d="M382,394.76a1,1,0,0,1,2,0,1,1,0,0,1-2,0Z" transform="translate(2.43 2.6)"/><path class="cls-2" d="M515.18,458.78a1.32,1.32,0,1,1,1.32,1.27A1.3,1.3,0,0,1,515.18,458.78Z" transform="translate(2.43 2.6)"/><path class="cls-2" d="M502.42,392.09a3.26,3.26,0,1,1,3.26,3.16A3.22,3.22,0,0,1,502.42,392.09Z" transform="translate(2.43 2.6)"/><path class="cls-2" d="M522.21,340.28a1.09,1.09,0,1,1,1.09,1.06A1.08,1.08,0,0,1,522.21,340.28Z" transform="translate(2.43 2.6)"/><path class="cls-2" d="M490.41,253.62a3.13,3.13,0,1,1,3.13,3A3.08,3.08,0,0,1,490.41,253.62Z" transform="translate(2.43 2.6)"/><path class="cls-2" d="M583.77,370.31a.72.72,0,0,1,.73-.72.72.72,0,1,1,0,1.43A.72.72,0,0,1,583.77,370.31Z" transform="translate(2.43 2.6)"/><path class="cls-2" d="M550.32,383.49a1.33,1.33,0,1,1,1.33,1.29A1.31,1.31,0,0,1,550.32,383.49Z" transform="translate(2.43 2.6)"/><path class="cls-2" d="M415.5,390a1.41,1.41,0,1,1,1.41,1.36A1.39,1.39,0,0,1,415.5,390Z" transform="translate(2.43 2.6)"/><path class="cls-2" d="M316.37,155.09" transform="translate(2.43 2.6)"/><path class="cls-2" d="M169.92,39.42a3.31,3.31,0,1,1,3.31,3.21A3.27,3.27,0,0,1,169.92,39.42Z" transform="translate(2.43 2.6)"/><path class="cls-2" d="M113.89,20.19A1.88,1.88,0,1,1,115.77,22,1.85,1.85,0,0,1,113.89,20.19Z" transform="translate(2.43 2.6)"/><path class="cls-2" d="M78.18,73.24a1.08,1.08,0,0,1,2.15,0,1.08,1.08,0,0,1-2.15,0Z" transform="translate(2.43 2.6)"/><path class="cls-2" d="M167.72,120.8A1.18,1.18,0,1,1,168.9,122,1.17,1.17,0,0,1,167.72,120.8Z" transform="translate(2.43 2.6)"/><path class="cls-2" d="M99.82,188.33a2.49,2.49,0,1,1,2.49,2.42A2.45,2.45,0,0,1,99.82,188.33Z" transform="translate(2.43 2.6)"/><path class="cls-2" d="M131.82,245.88a.81.81,0,1,1,.81.79A.79.79,0,0,1,131.82,245.88Z" transform="translate(2.43 2.6)"/><path class="cls-2" d="M156.49,320.24a.82.82,0,0,1,1.64,0,.82.82,0,0,1-1.64,0Z" transform="translate(2.43 2.6)"/><path class="cls-2" d="M254.3,388.89a3,3,0,1,1,3,2.93A3,3,0,0,1,254.3,388.89Z" transform="translate(2.43 2.6)"/><path class="cls-2" d="M30.57,155.18a1.26,1.26,0,1,1,1.26,1.23A1.24,1.24,0,0,1,30.57,155.18Z" transform="translate(2.43 2.6)"/><path class="cls-2" d="M26.82,39.42a2.51,2.51,0,1,1,2.5,2.43A2.47,2.47,0,0,1,26.82,39.42Z" transform="translate(2.43 2.6)"/><path class="cls-2" d="M59,87.76a1.68,1.68,0,1,1,1.68,1.63A1.66,1.66,0,0,1,59,87.76Z" transform="translate(2.43 2.6)"/><path class="cls-2" d="M132,49.76a.87.87,0,1,1,.87.85A.86.86,0,0,1,132,49.76Z" transform="translate(2.43 2.6)"/><ellipse class="cls-2" cx="74.38" cy="172.5" rx="2.11" ry="2.05"/><path class="cls-2" d="M185.81,172.55a1.13,1.13,0,1,1,1.13,1.09A1.12,1.12,0,0,1,185.81,172.55Z" transform="translate(2.43 2.6)"/><ellipse class="cls-2" cx="277.57" cy="237.62" rx="1.4" ry="1.36"/><path class="cls-2" d="M260.16,289.73a1.55,1.55,0,1,1,1.55,1.5A1.52,1.52,0,0,1,260.16,289.73Z" transform="translate(2.43 2.6)"/><path class="cls-2" d="M261.86,336.43a1.15,1.15,0,1,1,1.15,1.12A1.13,1.13,0,0,1,261.86,336.43Z" transform="translate(2.43 2.6)"/><path class="cls-3" d="M407.67,206.19a1.36,1.36,0,1,1-1.39,1.36A1.38,1.38,0,0,1,407.67,206.19Z" transform="translate(2.43 2.6)"/><path class="cls-3" d="M388.87,201.24a1.24,1.24,0,1,1-1.27,1.23A1.25,1.25,0,0,1,388.87,201.24Z" transform="translate(2.43 2.6)"/><path class="cls-3" d="M419.09,210.55a1.39,1.39,0,1,1-1.43,1.38A1.4,1.4,0,0,1,419.09,210.55Z" transform="translate(2.43 2.6)"/><path class="cls-3" d="M384,170.85a1.11,1.11,0,1,1-1.14,1.1A1.12,1.12,0,0,1,384,170.85Z" transform="translate(2.43 2.6)"/><path class="cls-3" d="M366.5,152.24a1.31,1.31,0,1,1-1.35,1.31A1.33,1.33,0,0,1,366.5,152.24Z" transform="translate(2.43 2.6)"/><path class="cls-3" d="M387.23,146.73a1.41,1.41,0,1,1-1.45,1.41A1.42,1.42,0,0,1,387.23,146.73Z" transform="translate(2.43 2.6)"/><path class="cls-3" d="M405.64,132.09a1.58,1.58,0,1,1-1.62,1.57A1.59,1.59,0,0,1,405.64,132.09Z" transform="translate(2.43 2.6)"/><path class="cls-3" d="M413.2,127.74a1.39,1.39,0,1,1-1.43,1.39A1.41,1.41,0,0,1,413.2,127.74Z" transform="translate(2.43 2.6)"/><path class="cls-3" d="M411.61,102a1.24,1.24,0,1,1-1.28,1.24A1.26,1.26,0,0,1,411.61,102Z" transform="translate(2.43 2.6)"/><path class="cls-3" d="M430.79,78a1.33,1.33,0,1,1-1.37,1.33A1.35,1.35,0,0,1,430.79,78Z" transform="translate(2.43 2.6)"/><path class="cls-3" d="M460.92,53a1.2,1.2,0,1,1-1.23,1.2A1.22,1.22,0,0,1,460.92,53Z" transform="translate(2.43 2.6)"/><path class="cls-3" d="M460.07,40a1.35,1.35,0,1,1-1.39,1.35A1.37,1.37,0,0,1,460.07,40Z" transform="translate(2.43 2.6)"/><path class="cls-3" d="M487.11,3.11a1.55,1.55,0,1,1-1.6,1.55A1.57,1.57,0,0,1,487.11,3.11Z" transform="translate(2.43 2.6)"/><path class="cls-3" d="M502.91,6.18a1.11,1.11,0,1,1-1.15,1.11A1.13,1.13,0,0,1,502.91,6.18Z" transform="translate(2.43 2.6)"/><path class="cls-3" d="M522.94,52.51a1.41,1.41,0,1,1-1.44,1.41A1.42,1.42,0,0,1,522.94,52.51Z" transform="translate(2.43 2.6)"/><path class="cls-3" d="M520.79,37.91a1.42,1.42,0,1,1-1.47,1.42A1.44,1.44,0,0,1,520.79,37.91Z" transform="translate(2.43 2.6)"/><path class="cls-3" d="M300.73,853.2a1.59,1.59,0,1,1-1.63,1.58A1.61,1.61,0,0,1,300.73,853.2Z" transform="translate(2.43 2.6)"/><path class="cls-3" d="M282.38,884.77a1.36,1.36,0,1,1,0,2.71,1.36,1.36,0,1,1,0-2.71Z" transform="translate(2.43 2.6)"/><path class="cls-3" d="M326.55,896.9a1.22,1.22,0,1,1-1.25,1.22A1.24,1.24,0,0,1,326.55,896.9Z" transform="translate(2.43 2.6)"/><path class="cls-3" d="M304.29,921.21a1.23,1.23,0,1,1-1.27,1.23A1.25,1.25,0,0,1,304.29,921.21Z" transform="translate(2.43 2.6)"/><path class="cls-3" d="M286.91,945.32a1.48,1.48,0,1,1-1.52,1.47A1.49,1.49,0,0,1,286.91,945.32Z" transform="translate(2.43 2.6)"/><path class="cls-3" d="M290.4,957a1.17,1.17,0,1,1-1.2,1.17A1.19,1.19,0,0,1,290.4,957Z" transform="translate(2.43 2.6)"/><path class="cls-3" d="M286.64,991.59a1.14,1.14,0,1,1-1.17,1.13A1.15,1.15,0,0,1,286.64,991.59Z" transform="translate(2.43 2.6)"/><path class="cls-3" d="M303.08,992.78a1.24,1.24,0,1,1-1.27,1.24A1.26,1.26,0,0,1,303.08,992.78Z" transform="translate(2.43 2.6)"/><path class="cls-3" d="M341.28,1031.19a1.27,1.27,0,1,1-1.31,1.27A1.28,1.28,0,0,1,341.28,1031.19Z" transform="translate(2.43 2.6)"/><path class="cls-3" d="M299.16,1041.31a1.26,1.26,0,1,1-1.3,1.26A1.28,1.28,0,0,1,299.16,1041.31Z" transform="translate(2.43 2.6)"/><path class="cls-3" d="M274.21,1056.15a1.11,1.11,0,1,1-1.14,1.11A1.13,1.13,0,0,1,274.21,1056.15Z" transform="translate(2.43 2.6)"/><path class="cls-3" d="M256.64,1059.83a1.55,1.55,0,1,1-1.6,1.55A1.58,1.58,0,0,1,256.64,1059.83Z" transform="translate(2.43 2.6)"/><path class="cls-3" d="M248,1084.34a1.12,1.12,0,1,1-1.15,1.11A1.13,1.13,0,0,1,248,1084.34Z" transform="translate(2.43 2.6)"/><path class="cls-3" d="M246.47,1084.18a1.3,1.3,0,1,1-1.34,1.29A1.31,1.31,0,0,1,246.47,1084.18Z" transform="translate(2.43 2.6)"/><path class="cls-3" d="M240.33,1105.84a1.55,1.55,0,1,1-1.59,1.55A1.57,1.57,0,0,1,240.33,1105.84Z" transform="translate(2.43 2.6)"/><path class="cls-3" d="M197.26,1079.4a1.12,1.12,0,1,1-1.15,1.12A1.13,1.13,0,0,1,197.26,1079.4Z" transform="translate(2.43 2.6)"/><path class="cls-3" d="M178.93,1081.86a1.15,1.15,0,1,1-1.19,1.15A1.17,1.17,0,0,1,178.93,1081.86Z" transform="translate(2.43 2.6)"/><path class="cls-3" d="M193.48,1106.78a1.27,1.27,0,1,1-1.3,1.27A1.28,1.28,0,0,1,193.48,1106.78Z" transform="translate(2.43 2.6)"/><path class="cls-3" d="M263.78,119.42a1.43,1.43,0,1,1-1.46,1.43A1.45,1.45,0,0,1,263.78,119.42Z" transform="translate(2.43 2.6)"/><path class="cls-3" d="M256.19,119.62a1.3,1.3,0,1,1-1.33,1.3A1.32,1.32,0,0,1,256.19,119.62Z" transform="translate(2.43 2.6)"/><path class="cls-3" d="M237.55,126.1a1.51,1.51,0,1,1-1.55,1.5A1.52,1.52,0,0,1,237.55,126.1Z" transform="translate(2.43 2.6)"/><path class="cls-3" d="M201.3,138.8a1.6,1.6,0,1,1-1.64,1.59A1.61,1.61,0,0,1,201.3,138.8Z" transform="translate(2.43 2.6)"/><path class="cls-3" d="M208.1,158.66a1.44,1.44,0,1,1-1.49,1.44A1.46,1.46,0,0,1,208.1,158.66Z" transform="translate(2.43 2.6)"/><path class="cls-3" d="M179,175.5a1.16,1.16,0,1,1-1.19,1.16A1.17,1.17,0,0,1,179,175.5Z" transform="translate(2.43 2.6)"/><path class="cls-3" d="M229.12,189.3a1.46,1.46,0,1,1-1.5,1.46A1.49,1.49,0,0,1,229.12,189.3Z" transform="translate(2.43 2.6)"/><path class="cls-3" d="M223.69,210.38a1.15,1.15,0,1,1-1.18,1.15A1.17,1.17,0,0,1,223.69,210.38Z" transform="translate(2.43 2.6)"/><path class="cls-3" d="M174,236.32a1.42,1.42,0,1,1-1.46,1.42A1.44,1.44,0,0,1,174,236.32Z" transform="translate(2.43 2.6)"/><path class="cls-3" d="M223.48,261a1.27,1.27,0,1,1-1.3,1.26A1.28,1.28,0,0,1,223.48,261Z" transform="translate(2.43 2.6)"/><path class="cls-3" d="M185.16,289.71a1.38,1.38,0,1,1-1.41,1.37A1.39,1.39,0,0,1,185.16,289.71Z" transform="translate(2.43 2.6)"/><path class="cls-3" d="M221.25,299a1.46,1.46,0,1,1-1.51,1.46A1.48,1.48,0,0,1,221.25,299Z" transform="translate(2.43 2.6)"/><path class="cls-3" d="M242.75,315.25a1.5,1.5,0,1,1-1.54,1.5A1.52,1.52,0,0,1,242.75,315.25Z" transform="translate(2.43 2.6)"/><path class="cls-3" d="M224.32,323.74a1.57,1.57,0,1,1-1.61,1.57A1.59,1.59,0,0,1,224.32,323.74Z" transform="translate(2.43 2.6)"/><path class="cls-3" d="M205.94,352.35a1.47,1.47,0,1,1-1.51,1.47A1.5,1.5,0,0,1,205.94,352.35Z" transform="translate(2.43 2.6)"/><path class="cls-3" d="M167.43,384.53a1.16,1.16,0,1,1-1.2,1.16A1.18,1.18,0,0,1,167.43,384.53Z" transform="translate(2.43 2.6)"/><path class="cls-3" d="M170.17,400.87a1.34,1.34,0,1,1-1.37,1.34A1.35,1.35,0,0,1,170.17,400.87Z" transform="translate(2.43 2.6)"/><path class="cls-3" d="M177.72,438.93a1.09,1.09,0,1,1,0,2.18,1.09,1.09,0,1,1,0-2.18Z" transform="translate(2.43 2.6)"/><path class="cls-3" d="M240.6,665.73a1.12,1.12,0,1,1-1.15,1.11A1.13,1.13,0,0,1,240.6,665.73Z" transform="translate(2.43 2.6)"/><path class="cls-3" d="M195.69,647.47a1.58,1.58,0,1,1-1.63,1.58A1.61,1.61,0,0,1,195.69,647.47Z" transform="translate(2.43 2.6)"/><path class="cls-3" d="M231.52,624.38a1.32,1.32,0,1,1-1.35,1.32A1.33,1.33,0,0,1,231.52,624.38Z" transform="translate(2.43 2.6)"/><path class="cls-3" d="M230.7,586.19a1.14,1.14,0,1,1-1.18,1.14A1.16,1.16,0,0,1,230.7,586.19Z" transform="translate(2.43 2.6)"/><path class="cls-3" d="M204.56,563.18a1.35,1.35,0,1,1-1.38,1.35A1.37,1.37,0,0,1,204.56,563.18Z" transform="translate(2.43 2.6)"/><path class="cls-3" d="M214,528.33a1.55,1.55,0,1,1-1.59,1.55A1.57,1.57,0,0,1,214,528.33Z" transform="translate(2.43 2.6)"/><path class="cls-3" d="M217.94,507a1.39,1.39,0,1,1-1.42,1.39A1.4,1.4,0,0,1,217.94,507Z" transform="translate(2.43 2.6)"/><path class="cls-3" d="M173.23,510.46a1.39,1.39,0,1,1-1.43,1.39A1.41,1.41,0,0,1,173.23,510.46Z" transform="translate(2.43 2.6)"/><path class="cls-3" d="M523.71,843a1.63,1.63,0,1,1-1.67,1.62A1.65,1.65,0,0,1,523.71,843Z" transform="translate(2.43 2.6)"/><path class="cls-3" d="M458.23,816.37a2.31,2.31,0,1,1-2.37,2.3A2.34,2.34,0,0,1,458.23,816.37Z" transform="translate(2.43 2.6)"/><ellipse class="cls-3" cx="512.9" cy="787.23" rx="1.97" ry="1.92"/><path class="cls-3" d="M509.27,727a1.67,1.67,0,1,1-1.71,1.66A1.69,1.69,0,0,1,509.27,727Z" transform="translate(2.43 2.6)"/><path class="cls-3" d="M471.17,693.45a2,2,0,1,1-2,2A2,2,0,0,1,471.17,693.45Z" transform="translate(2.43 2.6)"/><path class="cls-3" d="M484.92,642.62a2.26,2.26,0,1,1-2.32,2.26A2.29,2.29,0,0,1,484.92,642.62Z" transform="translate(2.43 2.6)"/><path class="cls-3" d="M490.68,611.47a2,2,0,1,1-2.08,2A2,2,0,0,1,490.68,611.47Z" transform="translate(2.43 2.6)"/><path class="cls-3" d="M425.49,616.57a2,2,0,1,1-2.09,2A2.06,2.06,0,0,1,425.49,616.57Z" transform="translate(2.43 2.6)"/><path class="cls-3" d="M110.74,514.2a1.63,1.63,0,1,1-1.67,1.62A1.65,1.65,0,0,1,110.74,514.2Z" transform="translate(2.43 2.6)"/><path class="cls-3" d="M45.27,487.57a2.31,2.31,0,1,1-2.38,2.31A2.35,2.35,0,0,1,45.27,487.57Z" transform="translate(2.43 2.6)"/><path class="cls-3" d="M97.51,453.91a1.92,1.92,0,1,1-2,1.92A1.94,1.94,0,0,1,97.51,453.91Z" transform="translate(2.43 2.6)"/><path class="cls-3" d="M96.31,398.21a1.67,1.67,0,1,1-1.71,1.66A1.69,1.69,0,0,1,96.31,398.21Z" transform="translate(2.43 2.6)"/><path class="cls-3" d="M58.2,364.65a2,2,0,1,1-2,2A2,2,0,0,1,58.2,364.65Z" transform="translate(2.43 2.6)"/><path class="cls-3" d="M72,313.83a2.26,2.26,0,1,1-2.32,2.25A2.29,2.29,0,0,1,72,313.83Z" transform="translate(2.43 2.6)"/><path class="cls-3" d="M77.71,282.67a2,2,0,1,1-2.08,2A2,2,0,0,1,77.71,282.67Z" transform="translate(2.43 2.6)"/><path class="cls-3" d="M12.52,287.77a2,2,0,1,1-2.09,2A2.06,2.06,0,0,1,12.52,287.77Z" transform="translate(2.43 2.6)"/><path class="cls-3" d="M413.31,207.24a1.18,1.18,0,1,1-1.21,1.18A1.2,1.2,0,0,1,413.31,207.24Z" transform="translate(2.43 2.6)"/><path class="cls-3" d="M423.16,219.15a1.5,1.5,0,1,1-1.55,1.5A1.52,1.52,0,0,1,423.16,219.15Z" transform="translate(2.43 2.6)"/><path class="cls-3" d="M388.57,251.88a1.63,1.63,0,1,1-1.68,1.63A1.66,1.66,0,0,1,388.57,251.88Z" transform="translate(2.43 2.6)"/><path class="cls-3" d="M395.09,260a1.37,1.37,0,1,1-1.41,1.37A1.39,1.39,0,0,1,395.09,260Z" transform="translate(2.43 2.6)"/><path class="cls-3" d="M369.21,286a1.19,1.19,0,1,1-1.22,1.18A1.2,1.2,0,0,1,369.21,286Z" transform="translate(2.43 2.6)"/><path class="cls-3" d="M381.7,287.26a1.59,1.59,0,1,1-1.63,1.59A1.61,1.61,0,0,1,381.7,287.26Z" transform="translate(2.43 2.6)"/><path class="cls-3" d="M409.09,297a1.48,1.48,0,1,1-1.52,1.47A1.49,1.49,0,0,1,409.09,297Z" transform="translate(2.43 2.6)"/><path class="cls-3" d="M371.4,311a1.43,1.43,0,1,1-1.47,1.43A1.45,1.45,0,0,1,371.4,311Z" transform="translate(2.43 2.6)"/><path class="cls-3" d="M406.62,347.88a1.58,1.58,0,1,1-1.62,1.58A1.61,1.61,0,0,1,406.62,347.88Z" transform="translate(2.43 2.6)"/><path class="cls-3" d="M412.84,350.05a1.31,1.31,0,1,1-1.35,1.31A1.32,1.32,0,0,1,412.84,350.05Z" transform="translate(2.43 2.6)"/><path class="cls-3" d="M446.87,384.33a1.4,1.4,0,1,1-1.44,1.4A1.43,1.43,0,0,1,446.87,384.33Z" transform="translate(2.43 2.6)"/><path class="cls-3" d="M421.51,414.93a1.21,1.21,0,1,1-1.24,1.21A1.23,1.23,0,0,1,421.51,414.93Z" transform="translate(2.43 2.6)"/><path class="cls-3" d="M431.35,433.71A1.3,1.3,0,1,1,430,435,1.32,1.32,0,0,1,431.35,433.71Z" transform="translate(2.43 2.6)"/><path class="cls-3" d="M421.67,472.18a1.19,1.19,0,1,1-1.23,1.19A1.21,1.21,0,0,1,421.67,472.18Z" transform="translate(2.43 2.6)"/><path class="cls-3" d="M381,507.49a1.45,1.45,0,1,1-1.48,1.45A1.47,1.47,0,0,1,381,507.49Z" transform="translate(2.43 2.6)"/><path class="cls-3" d="M434.62,517.34a1.51,1.51,0,1,1-1.56,1.51A1.53,1.53,0,0,1,434.62,517.34Z" transform="translate(2.43 2.6)"/><path class="cls-3" d="M423.61,527.25a1.21,1.21,0,1,1-1.25,1.21A1.22,1.22,0,0,1,423.61,527.25Z" transform="translate(2.43 2.6)"/><path class="cls-3" d="M383.18,530.57a1.38,1.38,0,1,1-1.41,1.37A1.39,1.39,0,0,1,383.18,530.57Z" transform="translate(2.43 2.6)"/><path class="cls-3" d="M190.13,744.18a1.47,1.47,0,1,1-1.51,1.47A1.49,1.49,0,0,1,190.13,744.18Z" transform="translate(2.43 2.6)"/><path class="cls-3" d="M229.31,710.26a1.13,1.13,0,1,1-1.16,1.13A1.15,1.15,0,0,1,229.31,710.26Z" transform="translate(2.43 2.6)"/><path class="cls-3" d="M185,707.24a1.18,1.18,0,1,1-1.21,1.17A1.19,1.19,0,0,1,185,707.24Z" transform="translate(2.43 2.6)"/><path class="cls-3" d="M244.43,676.63A1.37,1.37,0,1,1,243,678,1.39,1.39,0,0,1,244.43,676.63Z" transform="translate(2.43 2.6)"/><path class="cls-3" d="M191.26,652.83a1.58,1.58,0,1,1-1.62,1.58A1.6,1.6,0,0,1,191.26,652.83Z" transform="translate(2.43 2.6)"/><path class="cls-3" d="M221.1,616.37a1.56,1.56,0,1,1-1.6,1.56A1.58,1.58,0,0,1,221.1,616.37Z" transform="translate(2.43 2.6)"/><path class="cls-3" d="M207.45,611.47a1.48,1.48,0,1,1-1.53,1.48A1.5,1.5,0,0,1,207.45,611.47Z" transform="translate(2.43 2.6)"/><path class="cls-3" d="M208.24,585.73a1.16,1.16,0,1,1-1.2,1.16A1.18,1.18,0,0,1,208.24,585.73Z" transform="translate(2.43 2.6)"/><path class="cls-3" d="M232.82,562.58a1.39,1.39,0,1,1-1.43,1.38A1.4,1.4,0,0,1,232.82,562.58Z" transform="translate(2.43 2.6)"/><path class="cls-3" d="M236.53,561.53a1.42,1.42,0,1,1-1.46,1.41A1.43,1.43,0,0,1,236.53,561.53Z" transform="translate(2.43 2.6)"/><path class="cls-3" d="M197.39,536.58a1.26,1.26,0,1,1-1.3,1.26A1.28,1.28,0,0,1,197.39,536.58Z" transform="translate(2.43 2.6)"/><path class="cls-3" d="M369.76,580.53a1.61,1.61,0,0,1,.66,2.21,1.72,1.72,0,0,1-2.28.64,1.6,1.6,0,0,1-.65-2.21A1.69,1.69,0,0,1,369.76,580.53Z" transform="translate(2.43 2.6)"/><path class="cls-3" d="M352.51,579.81a1.38,1.38,0,0,1,.57,1.9,1.46,1.46,0,0,1-1.95.55,1.38,1.38,0,0,1-.57-1.9A1.47,1.47,0,0,1,352.51,579.81Z" transform="translate(2.43 2.6)"/><path class="cls-3" d="M382.94,604a1.11,1.11,0,0,1,.46,1.54,1.18,1.18,0,0,1-1.58.44,1.11,1.11,0,0,1-.46-1.54A1.19,1.19,0,0,1,382.94,604Z" transform="translate(2.43 2.6)"/><path class="cls-3" d="M354.41,607.93a1.56,1.56,0,0,1,.64,2.15,1.66,1.66,0,0,1-2.22.63,1.57,1.57,0,0,1-.64-2.16A1.65,1.65,0,0,1,354.41,607.93Z" transform="translate(2.43 2.6)"/><path class="cls-3" d="M354.25,617.35a1.13,1.13,0,0,1,.47,1.57,1.21,1.21,0,0,1-1.62.45,1.13,1.13,0,0,1-.47-1.57A1.21,1.21,0,0,1,354.25,617.35Z" transform="translate(2.43 2.6)"/><path class="cls-3" d="M358.21,656.34a1.38,1.38,0,0,1,.56,1.91,1.47,1.47,0,0,1-2,.55,1.39,1.39,0,0,1-.57-1.91A1.47,1.47,0,0,1,358.21,656.34Z" transform="translate(2.43 2.6)"/><path class="cls-3" d="M348.58,679.06a1.39,1.39,0,0,1,.57,1.91,1.48,1.48,0,0,1-2,.56,1.4,1.4,0,0,1-.58-1.92A1.48,1.48,0,0,1,348.58,679.06Z" transform="translate(2.43 2.6)"/><path class="cls-3" d="M316.27,695.44a1.23,1.23,0,0,1,.5,1.7,1.32,1.32,0,0,1-1.75.49,1.23,1.23,0,0,1-.5-1.7A1.29,1.29,0,0,1,316.27,695.44Z" transform="translate(2.43 2.6)"/><path class="cls-3" d="M282.82,675a1.2,1.2,0,0,1,.49,1.66,1.27,1.27,0,0,1-1.7.48,1.2,1.2,0,0,1-.49-1.66A1.27,1.27,0,0,1,282.82,675Z" transform="translate(2.43 2.6)"/><path class="cls-3" d="M326.51,712.83a1.46,1.46,0,0,1,.6,2,1.56,1.56,0,0,1-2.08.59,1.46,1.46,0,0,1-.6-2A1.56,1.56,0,0,1,326.51,712.83Z" transform="translate(2.43 2.6)"/><path class="cls-3" d="M276.68,681.4a1.36,1.36,0,0,1,.56,1.88,1.45,1.45,0,0,1-1.94.54,1.35,1.35,0,0,1-.55-1.88A1.44,1.44,0,0,1,276.68,681.4Z" transform="translate(2.43 2.6)"/><path class="cls-3" d="M308.59,748.24a1.28,1.28,0,0,1,.53,1.77,1.36,1.36,0,0,1-1.82.51,1.28,1.28,0,0,1-.53-1.77A1.36,1.36,0,0,1,308.59,748.24Z" transform="translate(2.43 2.6)"/><path class="cls-3" d="M268.84,750.64a1.41,1.41,0,0,1,.58,2,1.5,1.5,0,0,1-2,.57,1.42,1.42,0,0,1-.58-2A1.51,1.51,0,0,1,268.84,750.64Z" transform="translate(2.43 2.6)"/><path class="cls-3" d="M239.77,774.58a1.34,1.34,0,0,1,.55,1.86,1.43,1.43,0,0,1-1.92.54,1.34,1.34,0,0,1-.55-1.86A1.42,1.42,0,0,1,239.77,774.58Z" transform="translate(2.43 2.6)"/><path class="cls-3" d="M229.17,817.84a1.55,1.55,0,0,1,.63,2.14,1.63,1.63,0,0,1-2.19.61,1.55,1.55,0,0,1-.64-2.13A1.65,1.65,0,0,1,229.17,817.84Z" transform="translate(2.43 2.6)"/><path class="cls-3" d="M211.21,812.79a1.29,1.29,0,0,1,.53,1.78,1.36,1.36,0,0,1-1.83.52,1.3,1.3,0,0,1-.54-1.79A1.38,1.38,0,0,1,211.21,812.79Z" transform="translate(2.43 2.6)"/><path class="cls-3" d="M184.45,798.23a1.35,1.35,0,0,1,.55,1.85,1.43,1.43,0,0,1-1.9.54,1.34,1.34,0,0,1-.55-1.85A1.42,1.42,0,0,1,184.45,798.23Z" transform="translate(2.43 2.6)"/><path class="cls-3" d="M175.5,843.9a1.21,1.21,0,0,1,.5,1.66,1.28,1.28,0,0,1-1.71.48,1.21,1.21,0,0,1-.5-1.66A1.28,1.28,0,0,1,175.5,843.9Z" transform="translate(2.43 2.6)"/><path class="cls-3" d="M150,849.07a1.42,1.42,0,0,1,.59,2,1.51,1.51,0,0,1-2,.57,1.43,1.43,0,0,1-.59-2A1.51,1.51,0,0,1,150,849.07Z" transform="translate(2.43 2.6)"/><path class="cls-3" d="M114,846.27a1.24,1.24,0,0,1,.5,1.7,1.29,1.29,0,0,1-1.74.48,1.21,1.21,0,0,1-.5-1.69A1.3,1.3,0,0,1,114,846.27Z" transform="translate(2.43 2.6)"/><path class="cls-3" d="M146.63,898.51a1.47,1.47,0,0,1,.6,2,1.57,1.57,0,0,1-2.08.58,1.48,1.48,0,0,1-.6-2A1.57,1.57,0,0,1,146.63,898.51Z" transform="translate(2.43 2.6)"/><path class="cls-3" d="M120,923.49a1.56,1.56,0,0,1,.64,2.15,1.65,1.65,0,0,1-2.22.62,1.56,1.56,0,0,1-.64-2.15A1.67,1.67,0,0,1,120,923.49Z" transform="translate(2.43 2.6)"/><path class="cls-3" d="M70.86,919.55a1.3,1.3,0,0,1,.53,1.79,1.37,1.37,0,0,1-1.84.52,1.3,1.3,0,0,1-.54-1.79A1.39,1.39,0,0,1,70.86,919.55Z" transform="translate(2.43 2.6)"/><path class="cls-3" d="M96.58,948.69a1.27,1.27,0,0,1,.52,1.75,1.35,1.35,0,0,1-1.8.5,1.26,1.26,0,0,1-.52-1.74A1.34,1.34,0,0,1,96.58,948.69Z" transform="translate(2.43 2.6)"/><path class="cls-3" d="M129.66,960.21a1.46,1.46,0,0,1,.6,2,1.56,1.56,0,0,1-2.07.58,1.46,1.46,0,0,1-.59-2A1.54,1.54,0,0,1,129.66,960.21Z" transform="translate(2.43 2.6)"/><path class="cls-3" d="M126,981.45a1.26,1.26,0,0,1,.52,1.72,1.33,1.33,0,0,1-1.78.5,1.25,1.25,0,0,1-.51-1.72A1.32,1.32,0,0,1,126,981.45Z" transform="translate(2.43 2.6)"/><path class="cls-3" d="M165.29,973.5a1.29,1.29,0,0,1,.52,1.77,1.36,1.36,0,0,1-1.82.51,1.28,1.28,0,0,1-.53-1.77A1.37,1.37,0,0,1,165.29,973.5Z" transform="translate(2.43 2.6)"/><path class="cls-3" d="M168.46,1000.16a1.41,1.41,0,0,1,.58,1.94,1.48,1.48,0,0,1-2,.55,1.4,1.4,0,0,1-.58-1.93A1.49,1.49,0,0,1,168.46,1000.16Z" transform="translate(2.43 2.6)"/><path class="cls-3" d="M172.61,1017.13a1.19,1.19,0,0,1,.48,1.64,1.26,1.26,0,0,1-1.68.47,1.18,1.18,0,0,1-.49-1.63A1.26,1.26,0,0,1,172.61,1017.13Z" transform="translate(2.43 2.6)"/><path class="cls-3" d="M199.71,1014.85a1.28,1.28,0,0,1,.52,1.76,1.35,1.35,0,0,1-1.81.51,1.28,1.28,0,0,1-.52-1.76A1.35,1.35,0,0,1,199.71,1014.85Z" transform="translate(2.43 2.6)"/><path class="cls-3" d="M227.26,1003a1.31,1.31,0,0,1,.54,1.81,1.38,1.38,0,0,1-1.86.52,1.3,1.3,0,0,1-.54-1.81A1.39,1.39,0,0,1,227.26,1003Z" transform="translate(2.43 2.6)"/><path class="cls-3" d="M255.79,1037.32a1.18,1.18,0,0,1,.49,1.63,1.26,1.26,0,0,1-1.67.47,1.18,1.18,0,0,1-.49-1.63A1.25,1.25,0,0,1,255.79,1037.32Z" transform="translate(2.43 2.6)"/><path class="cls-3" d="M285.4,1039.57a1.53,1.53,0,0,1,.63,2.11,1.63,1.63,0,0,1-2.18.61,1.53,1.53,0,0,1-.62-2.11A1.62,1.62,0,0,1,285.4,1039.57Z" transform="translate(2.43 2.6)"/><path class="cls-3" d="M300.19,1035.29a1.41,1.41,0,0,1,.58,1.94,1.49,1.49,0,0,1-2,.57,1.41,1.41,0,0,1-.58-2A1.5,1.5,0,0,1,300.19,1035.29Z" transform="translate(2.43 2.6)"/><path class="cls-3" d="M318.19,1032.45a1.16,1.16,0,0,1,.48,1.61,1.24,1.24,0,0,1-1.67.47,1.18,1.18,0,0,1-.48-1.62A1.25,1.25,0,0,1,318.19,1032.45Z" transform="translate(2.43 2.6)"/><path class="cls-3" d="M353.61,1050.68a1.22,1.22,0,0,1,.5,1.68,1.29,1.29,0,0,1-1.73.49,1.21,1.21,0,0,1-.5-1.68A1.29,1.29,0,0,1,353.61,1050.68Z" transform="translate(2.43 2.6)"/><path class="cls-3" d="M224.65,1096.26a1.54,1.54,0,1,1-1.58,1.54A1.56,1.56,0,0,1,224.65,1096.26Z" transform="translate(2.43 2.6)"/><path class="cls-3" d="M11.46,922a1.54,1.54,0,1,1-1.58,1.54A1.56,1.56,0,0,1,11.46,922Z" transform="translate(2.43 2.6)"/><path class="cls-3" d="M186.32,1060.61a1.39,1.39,0,1,1-1.42,1.39A1.41,1.41,0,0,1,186.32,1060.61Z" transform="translate(2.43 2.6)"/><path class="cls-3" d="M486.87,1079.4a1.39,1.39,0,1,1-1.43,1.38A1.4,1.4,0,0,1,486.87,1079.4Z" transform="translate(2.43 2.6)"/><path class="cls-3" d="M153.76,1082.54a1.24,1.24,0,1,1-1.27,1.24A1.25,1.25,0,0,1,153.76,1082.54Z" transform="translate(2.43 2.6)"/><path class="cls-3" d="M502.43,1040.23a1.23,1.23,0,1,1-1.27,1.23A1.25,1.25,0,0,1,502.43,1040.23Z" transform="translate(2.43 2.6)"/><path class="cls-3" d="M126.26,1096.08a1.45,1.45,0,1,1-1.49,1.45A1.47,1.47,0,0,1,126.26,1096.08Z" transform="translate(2.43 2.6)"/><path class="cls-3" d="M107,1080.78a1.32,1.32,0,1,1-1.36,1.32A1.33,1.33,0,0,1,107,1080.78Z" transform="translate(2.43 2.6)"/><path class="cls-3" d="M99.41,1094.23a1.09,1.09,0,1,1-1.12,1.09A1.11,1.11,0,0,1,99.41,1094.23Z" transform="translate(2.43 2.6)"/></svg>