<svg id="Layer_1" data-name="Layer 1" xmlns="http://www.w3.org/2000/svg" viewBox="0 0 39.61 45.84"><defs><style>.cls-1{fill:#a5b3bc;}.cls-1,.cls-2,.cls-3,.cls-4,.cls-5{stroke:#000;stroke-miterlimit:10;}.cls-2{fill:#e2e2e2;stroke-width:0.75px;}.cls-3,.cls-5{fill:none;}.cls-3,.cls-4{stroke-width:0.5px;}.cls-4{fill:#fff;}.cls-5{stroke-width:0.25px;}</style></defs><title>shield</title><path class="cls-1" d="M648.41,387.39s7.13,2.66,10.91-6.43c0,0,10.2-2.1,17.62.7,0,0,1,6.57,9.37,6.71,0,0,4.61,26.43-18.95,36.64C667.36,425,645.05,417,648.41,387.39Z" transform="translate(-647.56 -379.7)"/><path class="cls-2" d="M652.46,391.72s7.42-1.11,9.93-7.69a31,31,0,0,1,10.77,0,12.52,12.52,0,0,0,9.51,8.25,32.12,32.12,0,0,1-15.1,27.83S651.76,413.12,652.46,391.72Z" transform="translate(-647.56 -379.7)"/><path class="cls-3" d="M668.16,389.78s2.72,11.46,0,22.93" transform="translate(-647.56 -379.7)"/><circle class="cls-4" cx="14.37" cy="16.07" r="5.47"/><circle class="cls-4" cx="28.02" cy="16.07" r="5.47"/><path class="cls-5" d="M660.43,394.78v1.73l.84-1.23-1.52.06,1.36,0h.44s-1.55.6-1.36.51-.44.47-.44.47l1.55-.06-1.24.31,1.12-.54.69-.32h-2.12l1.24-.87-1.24,1.14,1.92.07" transform="translate(-647.56 -379.7)"/><path class="cls-5" d="M676.5,394.58v2.05l-1-1.47,1.79.08-1.61-.06-.51,0s1.83.72,1.61.62.51.55.51.55l-1.83-.07,1.47.37-1.33-.64-.81-.39h2.5l-1.46-1,1.46,1.35L675,396" transform="translate(-647.56 -379.7)"/><path d="M668.42,416.09a1.51,1.51,0,1,1-2.95,0,1.85,1.85,0,0,1,.9-1.67,1.28,1.28,0,0,1,.58-.15A1.68,1.68,0,0,1,668.42,416.09Z" transform="translate(-647.56 -379.7)"/></svg>