<svg id="Layer_1" data-name="Layer 1" xmlns="http://www.w3.org/2000/svg" viewBox="0 0 13.33 19.74"><defs><style>.cls-1,.cls-2,.cls-3,.cls-4{fill:none;}.cls-1,.cls-2{stroke:#e42320;}.cls-1,.cls-2,.cls-3,.cls-4,.cls-5{stroke-miterlimit:10;}.cls-1,.cls-3{stroke-width:0.75px;}.cls-2{stroke-width:0.5px;}.cls-3,.cls-4{stroke:#ec6c1c;}.cls-5{fill:#85bc40;stroke:#6f9535;}.cls-6{fill:#1a4922;}</style></defs><title>shoot</title><path class="cls-1" d="M329.36,617.89c.45,1.81-.65,4.74-.65,4.74l-1.07-1.07c.14,1.64-1.77,3.77-1.77,3.77v-2.64a27.44,27.44,0,0,1-2.44,5.33" transform="translate(-317.13 -608.5)"/><path class="cls-2" d="M323.42,628a33.11,33.11,0,0,0-1.84-5.24v2.64s-1.93-2-1.8-3.7l-1.06,1.12s-1.13-2.89-.7-4.72" transform="translate(-317.13 -608.5)"/><path class="cls-3" d="M329.35,617.05c.45,1.82-.65,4.75-.65,4.75l-1.07-1.07c.14,1.64-1.77,3.77-1.77,3.77v-2.64a27.91,27.91,0,0,1-2.44,5.33" transform="translate(-317.13 -608.5)"/><path class="cls-4" d="M323.41,627.19a32.64,32.64,0,0,0-1.84-5.24v2.64s-1.93-2.06-1.8-3.7L318.72,622s-1.13-2.9-.7-4.73" transform="translate(-317.13 -608.5)"/><path class="cls-5" d="M323.58,627.1a40,40,0,0,0-1.65-4.74l0,2.41s-1.68-1.87-1.58-3.37l-.91,1a9.8,9.8,0,0,1-.62-4.31l-1.1,1s-1.46-10,6.18-10.13,5.86,9.85,5.86,9.85l-1.11-1c.39,1.65-.56,4.34-.56,4.34l-.93-1c.13,1.5-1.52,3.45-1.52,3.45l0-2.41a26.43,26.43,0,0,1-2.09,4.87" transform="translate(-317.13 -608.5)"/><path class="cls-6" d="M326.08,609.85s-2.1,2.93-4.75.53C321.33,610.38,322.69,607.93,326.08,609.85Z" transform="translate(-317.13 -608.5)"/></svg>