<svg id="Layer_1" data-name="Layer 1" xmlns="http://www.w3.org/2000/svg" viewBox="0 0 138.65 75"><defs><style>.cls-1{fill:#e1b63b;}.cls-2{fill:#767f7e;}.cls-11,.cls-2,.cls-3,.cls-30,.cls-5,.cls-6,.cls-7,.cls-8,.cls-9{stroke:#000;}.cls-11,.cls-15,.cls-17,.cls-2,.cls-20,.cls-23,.cls-27,.cls-3,.cls-30,.cls-5,.cls-6,.cls-7,.cls-8,.cls-9{stroke-miterlimit:10;}.cls-3,.cls-30{fill:#768c94;}.cls-15,.cls-20,.cls-23,.cls-27,.cls-4{fill:none;}.cls-5{fill:#5c5e5d;}.cls-6{fill:#b3b9b5;}.cls-7{fill:#6f7c77;}.cls-8{fill:#7a6f69;}.cls-9{fill:#8a8873;}.cls-10{fill:#211e1b;}.cls-11{fill:#ffed86;}.cls-12{fill:#d9a860;}.cls-13{fill:#d29e5b;}.cls-14{fill:#dfaf74;}.cls-15,.cls-20{stroke:#1d1d1b;}.cls-16{fill:#cc9a5b;}.cls-17{fill:#f7d587;}.cls-17,.cls-23{stroke:#b68f63;}.cls-18{fill:#1d1d1b;}.cls-19{fill:#fffdf8;}.cls-20{stroke-width:0.5px;}.cls-21{fill:#d9a666;}.cls-22{fill:#bd7132;}.cls-24{opacity:0.39;}.cls-25{fill:#f2d39a;}.cls-26{fill:#cd9b5d;}.cls-27{stroke:#24234f;}.cls-27,.cls-28{opacity:0.15;}.cls-28{fill:#a8d1dd;}.cls-29{fill:#fff;}.cls-30{opacity:0.5;}</style></defs><title>spaceShip</title><path class="cls-1" d="M283.13,503.18,254.2,521.93l5.34,2.83s-.87.85,7.55,2,49.8,5.62,60.59,4.26,43.66-1.65,43.66-1.65,11.2-1.11,13.51-4.52-24.58-20.62-24.58-20.62S324.35,515,283.13,503.18Z" transform="translate(-251 -468)"/><path class="cls-2" d="M360.29,505.13s-6.15-36.84-37.93-36-39.23,34.05-39.23,34.05S303.63,512.88,360.29,505.13Z" transform="translate(-251 -468)"/><path class="cls-3" d="M357.88,501.41s-7.25-29.34-34.6-30.63-37.34,29.27-37.34,29.27S309.69,509,357.88,501.41Z" transform="translate(-251 -468)"/><path class="cls-4" d="M360.27,504.25s25.29,11.13,28.71,20.23c0,0-2.82,13-69,10.12s-65.52-8.27-67.05-12.18c0,0,.5-6.42,30.19-19.24l.66-2.33s19.33,11.06,75.89,1.54Z" transform="translate(-251 -468)"/><path class="cls-5" d="M348.12,534s-6.46,7.81-26.95,8-28.1-10.15-28.1-10.15Z" transform="translate(-251 -468)"/><path class="cls-6" d="M360.27,504.25C388.18,518,389,524.48,389,524.48s-.8,1.31-4.34,3a4.45,4.45,0,0,1-5.59-1.05c-3.93-6.36-25.67-19.9-25.67-19.9a25.07,25.07,0,0,0,7.42-2" transform="translate(-251 -468)"/><path class="cls-6" d="M350.12,506.38s15.47,10.87,18,14,10,9.14,4.28,10a211.72,211.72,0,0,1-31.61,2.41l-13.78,0s-3.3.93-3.2-4.46-.39-20.2-.39-20.2S346.59,507.3,350.12,506.38Z" transform="translate(-251 -468)"/><path class="cls-6" d="M319.41,508.19l-1.16,21.86a3.06,3.06,0,0,1-3.19,2.67c-2.83-.11-45.79-4-45.79-4s-3.83-1-1.33-3.54,11.39-12.67,24.65-19.37C292.59,505.84,311.31,508.89,319.41,508.19Z" transform="translate(-251 -468)"/><path class="cls-6" d="M289.67,505.21s-6.17-1.59-6.54-2-29,14-29.72,18.14a1.58,1.58,0,0,0,.81,2.13c1.49.93,4.74,2.51,4.74,2.51s1.77.73,4.08-1.62S284.75,507.13,289.67,505.21Z" transform="translate(-251 -468)"/><path class="cls-7" d="M388.19,522.91a2.21,2.21,0,0,1,.07,3.54c-2,1.86-7.37,9.47-67.63,8.18s-68.21-8.36-67.69-12.21l.47-1.1s4.17,3.8,13.09,5.36S303,531.2,320.56,531,370.65,534.69,388.19,522.91Z" transform="translate(-251 -468)"/><path class="cls-8" d="M347.76,510.62a4.73,4.73,0,0,1,4.68,4.81c.18,4.81-4.51,4.41-4.51,4.41a4.69,4.69,0,0,1-.17-9.22Z" transform="translate(-251 -468)"/><path class="cls-9" d="M349.56,510.92a4.73,4.73,0,0,1,4.68,4.81c.19,4.81-4.51,4.41-4.51,4.41a4.7,4.7,0,0,1-.17-9.22Z" transform="translate(-251 -468)"/><polygon class="cls-10" points="110.87 65.74 109.91 70.77 97.67 71 96.58 66.56 110.87 65.74"/><path class="cls-8" d="M294.45,509.72s4.31,1,4,5.12-4.61,4-4.61,4-4-1.08-3.61-4.51S292.11,510.06,294.45,509.72Z" transform="translate(-251 -468)"/><path class="cls-9" d="M293.27,510s4.32,1,4,5.11-4.61,4.05-4.61,4.05-4-1.08-3.6-4.51S290.93,510.37,293.27,510Z" transform="translate(-251 -468)"/><polygon class="cls-10" points="43.83 65.69 42.18 69.52 30.01 68.67 29.93 64.33 43.83 65.69"/><path class="cls-11" d="M350.43,510.94a4.74,4.74,0,0,1,5,4.51c.49,4.78-4.22,4.68-4.22,4.68a4.69,4.69,0,0,1-.76-9.19Z" transform="translate(-251 -468)"/><path class="cls-11" d="M291.8,510.36s4.31,1,4,5.11-4.62,4-4.62,4-4-1.08-3.6-4.51S289.46,510.69,291.8,510.36Z" transform="translate(-251 -468)"/><path class="cls-12" d="M315,497.46a8.64,8.64,0,0,0-1-4c-1.09-2.27.48-6.07,1.35-7a6.4,6.4,0,0,1,4.4-2.63c2.55-.3,5.66-.45,7.78.92s1.17,2.69,1.17,2.69a7.92,7.92,0,0,0-.26,2.29c.12.87-.05,2.45-.76,2.85a.84.84,0,0,0-.19.14c-.25.3.65.51.61,1.46a25.43,25.43,0,0,1-.86,5c-.31.71-3.24,1.6-3.67,1.64A70,70,0,0,1,315,497.46Z" transform="translate(-251 -468)"/><path class="cls-12" d="M316.3,500.49a45.92,45.92,0,0,0-2.18-7.08c-1.09-2.27.48-6.07,1.34-7a6.44,6.44,0,0,1,4.41-2.62c2.55-.31,5.66-.46,7.78.92s1.16,2.68,1.16,2.68a8.11,8.11,0,0,0-.25,2.29c.12.87-.05,2.45-.77,2.85a1,1,0,0,0-.18.14c-.25.31.65.51.61,1.47a40.56,40.56,0,0,1-1,6.23c-.31.72-3.1.38-3.52.42S316.27,500.72,316.3,500.49Z" transform="translate(-251 -468)"/><path class="cls-13" d="M327.61,492.58a4.42,4.42,0,0,0-2.89-1,15.17,15.17,0,0,0-3.49.22,10.27,10.27,0,0,1-5.08-.22v.45a10.27,10.27,0,0,0,5.08.22,15.7,15.7,0,0,1,3.48-.22,4.43,4.43,0,0,1,2.89,1s-.09-.18,0-.22l.11-.11Z" transform="translate(-251 -468)"/><path class="cls-14" d="M323.78,490.73h0a.22.22,0,0,0,0-.31l-.14-.15a.23.23,0,0,0-.32,0h0a.22.22,0,0,0,0,.31l.14.15A.22.22,0,0,0,323.78,490.73Z" transform="translate(-251 -468)"/><path class="cls-14" d="M325.74,490.64h0a.22.22,0,0,0,0-.32l-.13-.15a.23.23,0,0,0-.32,0h0a.23.23,0,0,0,0,.32l.13.15A.23.23,0,0,0,325.74,490.64Z" transform="translate(-251 -468)"/><path class="cls-15" d="M323.73,487.85s-2.05-2.69-7-1.37" transform="translate(-251 -468)"/><path class="cls-16" d="M316.73,486.53c4.95-1.32,7,1.37,7,1.37l-.11.46s-2-2.52-6.84-1.3Z" transform="translate(-251 -468)"/><path class="cls-16" d="M328.83,486.22c-2.17-.28-3.51,2.24-3.51,2.24l-.21-.5s1.34-2.52,3.5-2.24Z" transform="translate(-251 -468)"/><path class="cls-17" d="M321.49,488a3.19,3.19,0,0,0-3.67-.28,1.44,1.44,0,0,0,.93,1.23A3.46,3.46,0,0,0,321.49,488Z" transform="translate(-251 -468)"/><path class="cls-13" d="M317.77,487.89s.25,1.43,1.12,1.66,2.05-.65,2.6-1.48C321.49,488.07,318.63,490.38,317.77,487.89Z" transform="translate(-251 -468)"/><path class="cls-15" d="M328.69,487.48" transform="translate(-251 -468)"/><path class="cls-18" d="M320.91,488.14s-.27-.1-.66-.21a2.46,2.46,0,0,0-1.08-.14,3.4,3.4,0,0,0-.9.25,4.42,4.42,0,0,0,.67.25A6.27,6.27,0,0,0,320.91,488.14Z" transform="translate(-251 -468)"/><ellipse class="cls-19" cx="319.45" cy="487.8" rx="0.27" ry="0.23" transform="translate(-259.98 -462) rotate(-1.06)"/><path class="cls-20" d="M327.6,492.78a.6.6,0,0,1-.08-.08,4.64,4.64,0,0,0-2.81-.88,15.3,15.3,0,0,0-3.49.24,10.3,10.3,0,0,1-5.08-.2" transform="translate(-251 -468)"/><path class="cls-18" d="M323.7,490.65h0a.12.12,0,0,0,0-.18l-.09-.11a.13.13,0,0,0-.18,0h0a.12.12,0,0,0,0,.18l.09.11A.14.14,0,0,0,323.7,490.65Z" transform="translate(-251 -468)"/><path class="cls-18" d="M325.65,490.53h0a.13.13,0,0,0,0-.18l-.08-.11a.13.13,0,0,0-.18,0h0a.12.12,0,0,0,0,.17l.08.12A.13.13,0,0,0,325.65,490.53Z" transform="translate(-251 -468)"/><path class="cls-21" d="M323.49,492.73s2.88-.51,3.7.54a1.71,1.71,0,0,1-.13,2.43,10.47,10.47,0,0,1-2.74,2,4,4,0,0,1-2.95.31,2,2,0,0,1-1.47-2.18c.09-1.21-.15-2.13-.1-2.46S321.69,492.35,323.49,492.73Z" transform="translate(-251 -468)"/><path class="cls-22" d="M321.07,493.23s.28.08.18.13a.28.28,0,0,1-.24,0Z" transform="translate(-251 -468)"/><path class="cls-22" d="M321.57,493.26s-.06-.21,0-.18.1.15.1.15Z" transform="translate(-251 -468)"/><path class="cls-22" d="M320.68,493.47l-.06.17-.14-.09A.26.26,0,0,1,320.68,493.47Z" transform="translate(-251 -468)"/><path class="cls-22" d="M323,494.56l-.06.17-.14-.1A.23.23,0,0,1,323,494.56Z" transform="translate(-251 -468)"/><path class="cls-22" d="M321.32,492.94l-.17.06v-.17A.25.25,0,0,1,321.32,492.94Z" transform="translate(-251 -468)"/><path class="cls-22" d="M322,493.91l-.07.17-.14-.1A.31.31,0,0,1,322,493.91Z" transform="translate(-251 -468)"/><path class="cls-22" d="M321.6,493.49l.1.15-.16.05A.26.26,0,0,1,321.6,493.49Z" transform="translate(-251 -468)"/><path class="cls-22" d="M321.25,493.53v.35l-.18-.17S321.12,493.52,321.25,493.53Z" transform="translate(-251 -468)"/><path class="cls-22" d="M322.48,492.86l-.07.17-.14-.09A.29.29,0,0,1,322.48,492.86Z" transform="translate(-251 -468)"/><path class="cls-22" d="M323.82,493.3l-.06.17-.14-.1A.27.27,0,0,1,323.82,493.3Z" transform="translate(-251 -468)"/><path class="cls-22" d="M323.4,492.88l.09.15-.16.05A.24.24,0,0,1,323.4,492.88Z" transform="translate(-251 -468)"/><path class="cls-22" d="M323,492.92v.35l-.18-.17S322.92,492.91,323,492.92Z" transform="translate(-251 -468)"/><path class="cls-22" d="M322,493.21l.17.1s0,.27-.13.17A.32.32,0,0,1,322,493.21Z" transform="translate(-251 -468)"/><path class="cls-22" d="M320.6,493l.14.09s0,.18-.09.1A.21.21,0,0,1,320.6,493Z" transform="translate(-251 -468)"/><path class="cls-22" d="M322.61,493.4v.15s-.21.09-.17,0S322.61,493.4,322.61,493.4Z" transform="translate(-251 -468)"/><path class="cls-22" d="M322.31,493.61l.08.13s-.13.18-.15.08A.25.25,0,0,1,322.31,493.61Z" transform="translate(-251 -468)"/><path class="cls-22" d="M324,494.34s-.27-.08-.17-.13a.29.29,0,0,1,.24,0Z" transform="translate(-251 -468)"/><path class="cls-22" d="M324.92,494.68s-.27-.08-.17-.13a.33.33,0,0,1,.24,0Z" transform="translate(-251 -468)"/><path class="cls-22" d="M323.53,494.31s.06.21,0,.18-.09-.15-.09-.15Z" transform="translate(-251 -468)"/><path class="cls-22" d="M324.44,494.09l.07-.17.14.1A.26.26,0,0,1,324.44,494.09Z" transform="translate(-251 -468)"/><path class="cls-22" d="M325.39,494.57l.07-.17.14.1A.31.31,0,0,1,325.39,494.57Z" transform="translate(-251 -468)"/><path class="cls-22" d="M323.78,494.63l.18-.06v.17A.28.28,0,0,1,323.78,494.63Z" transform="translate(-251 -468)"/><path class="cls-22" d="M323.1,493.66l.06-.17.14.09A.26.26,0,0,1,323.1,493.66Z" transform="translate(-251 -468)"/><path class="cls-22" d="M323.52,494.08l-.1-.15.17-.05A.24.24,0,0,1,323.52,494.08Z" transform="translate(-251 -468)"/><path class="cls-22" d="M323.88,494v-.35l.18.17S324,494,323.88,494Z" transform="translate(-251 -468)"/><path class="cls-22" d="M323.16,494.36l-.16-.1s0-.27.13-.17A.3.3,0,0,1,323.16,494.36Z" transform="translate(-251 -468)"/><path class="cls-22" d="M324.51,494.55l-.15-.09s0-.18.09-.1A.23.23,0,0,1,324.51,494.55Z" transform="translate(-251 -468)"/><path class="cls-22" d="M322.07,494.54s-.27-.08-.17-.13a.33.33,0,0,1,.24,0Z" transform="translate(-251 -468)"/><path class="cls-22" d="M321.57,494.5s.06.21,0,.18-.09-.15-.09-.15Z" transform="translate(-251 -468)"/><path class="cls-22" d="M321.82,494.83l.18-.06v.17A.28.28,0,0,1,321.82,494.83Z" transform="translate(-251 -468)"/><path class="cls-22" d="M321.18,494.55l-.16-.1s0-.27.13-.17A.34.34,0,0,1,321.18,494.55Z" transform="translate(-251 -468)"/><path class="cls-22" d="M322.57,494.75l-.14-.08s0-.19.08-.11A.23.23,0,0,1,322.57,494.75Z" transform="translate(-251 -468)"/><path class="cls-22" d="M325.3,493.55s-.28-.07-.18-.13a.31.31,0,0,1,.24,0Z" transform="translate(-251 -468)"/><path class="cls-22" d="M325.2,494.09s-.08.27-.13.17a.29.29,0,0,1,0-.24Z" transform="translate(-251 -468)"/><path class="cls-22" d="M324.8,493.53s.06.21,0,.18-.1-.15-.1-.15Z" transform="translate(-251 -468)"/><path class="cls-22" d="M325.05,493.85l.17-.07,0,.17A.28.28,0,0,1,325.05,493.85Z" transform="translate(-251 -468)"/><path class="cls-22" d="M324.41,493.57l-.17-.09s.05-.27.13-.17A.3.3,0,0,1,324.41,493.57Z" transform="translate(-251 -468)"/><path class="cls-22" d="M322.54,494.18V494s.2-.09.17,0S322.54,494.18,322.54,494.18Z" transform="translate(-251 -468)"/><path class="cls-22" d="M322.84,494l-.08-.13s.12-.18.15-.07S322.84,494,322.84,494Z" transform="translate(-251 -468)"/><path class="cls-22" d="M321,495s.28.08.18.14a.32.32,0,0,1-.24,0Z" transform="translate(-251 -468)"/><path class="cls-22" d="M321.52,495s0-.21,0-.18.1.15.1.15Z" transform="translate(-251 -468)"/><path class="cls-22" d="M320.64,495.24l-.07.17-.14-.1A.24.24,0,0,1,320.64,495.24Z" transform="translate(-251 -468)"/><path class="cls-22" d="M321.27,494.7l-.17.06v-.16A.22.22,0,0,1,321.27,494.7Z" transform="translate(-251 -468)"/><path class="cls-22" d="M322,495.68l-.07.17-.13-.1A.23.23,0,0,1,322,495.68Z" transform="translate(-251 -468)"/><path class="cls-22" d="M321.55,495.25l.1.16-.16,0A.28.28,0,0,1,321.55,495.25Z" transform="translate(-251 -468)"/><path class="cls-22" d="M321.2,495.29v.35l-.18-.17S321.08,495.29,321.2,495.29Z" transform="translate(-251 -468)"/><path class="cls-22" d="M323.75,495.07l-.06.17-.14-.1A.23.23,0,0,1,323.75,495.07Z" transform="translate(-251 -468)"/><path class="cls-22" d="M323.33,494.64l.1.16-.17.05A.26.26,0,0,1,323.33,494.64Z" transform="translate(-251 -468)"/><path class="cls-22" d="M321.91,495l.17.1s0,.27-.13.17A.32.32,0,0,1,321.91,495Z" transform="translate(-251 -468)"/><path class="cls-22" d="M320.55,494.78l.14.09s0,.19-.08.11A.21.21,0,0,1,320.55,494.78Z" transform="translate(-251 -468)"/><path class="cls-22" d="M322.54,495.16v.16s-.2.08-.17,0S322.54,495.16,322.54,495.16Z" transform="translate(-251 -468)"/><path class="cls-22" d="M322.24,495.37l.08.13s-.13.18-.15.08S322.24,495.37,322.24,495.37Z" transform="translate(-251 -468)"/><path class="cls-22" d="M324,496.1s-.27-.08-.17-.13a.33.33,0,0,1,.24,0Z" transform="translate(-251 -468)"/><path class="cls-22" d="M323.48,496.07s.06.21,0,.18-.1-.15-.1-.15Z" transform="translate(-251 -468)"/><path class="cls-22" d="M324.37,495.86l.07-.17.14.1A.31.31,0,0,1,324.37,495.86Z" transform="translate(-251 -468)"/><path class="cls-22" d="M323.73,496.39l.18-.06v.17A.28.28,0,0,1,323.73,496.39Z" transform="translate(-251 -468)"/><path class="cls-22" d="M323,495.42l.06-.17.14.1A.27.27,0,0,1,323,495.42Z" transform="translate(-251 -468)"/><path class="cls-22" d="M323.45,495.84l-.1-.15.17-.05A.23.23,0,0,1,323.45,495.84Z" transform="translate(-251 -468)"/><path class="cls-22" d="M323.81,495.8v-.34l.18.16S323.93,495.81,323.81,495.8Z" transform="translate(-251 -468)"/><path class="cls-22" d="M323.09,496.12l-.16-.1s0-.27.13-.17A.3.3,0,0,1,323.09,496.12Z" transform="translate(-251 -468)"/><path class="cls-22" d="M324.46,496.31l-.14-.08s0-.19.08-.11A.23.23,0,0,1,324.46,496.31Z" transform="translate(-251 -468)"/><path class="cls-22" d="M322,496.3s-.27-.07-.17-.13a.32.32,0,0,1,.24,0Z" transform="translate(-251 -468)"/><path class="cls-22" d="M321.52,496.28s.06.21,0,.18-.1-.15-.1-.15Z" transform="translate(-251 -468)"/><path class="cls-22" d="M321.77,496.59l.18-.06v.17A.28.28,0,0,1,321.77,496.59Z" transform="translate(-251 -468)"/><path class="cls-22" d="M321.13,496.31l-.16-.1s0-.26.13-.16A.28.28,0,0,1,321.13,496.31Z" transform="translate(-251 -468)"/><path class="cls-22" d="M322.5,496.52l-.14-.09s0-.19.08-.11A.21.21,0,0,1,322.5,496.52Z" transform="translate(-251 -468)"/><path class="cls-22" d="M325.23,495.32s-.28-.08-.17-.13a.29.29,0,0,1,.24,0Z" transform="translate(-251 -468)"/><path class="cls-22" d="M324.73,495.29s.06.21,0,.18-.1-.15-.1-.15Z" transform="translate(-251 -468)"/><path class="cls-22" d="M325,495.61l.17-.06,0,.17A.28.28,0,0,1,325,495.61Z" transform="translate(-251 -468)"/><path class="cls-22" d="M324.34,495.34l-.16-.1s0-.27.12-.17A.32.32,0,0,1,324.34,495.34Z" transform="translate(-251 -468)"/><path class="cls-22" d="M325.74,495.53l-.14-.09s0-.18.08-.1A.23.23,0,0,1,325.74,495.53Z" transform="translate(-251 -468)"/><path class="cls-22" d="M322.47,495.94v-.15s.2-.09.17,0S322.47,495.94,322.47,495.94Z" transform="translate(-251 -468)"/><path class="cls-22" d="M322.77,495.73l-.08-.12s.12-.18.15-.08S322.77,495.73,322.77,495.73Z" transform="translate(-251 -468)"/><path class="cls-17" d="M328.75,487.38a2.89,2.89,0,0,0-1.38.71,3.15,3.15,0,0,0,1.19.77c.05,0,0,0,0,0a12.32,12.32,0,0,1,.22-1.43Z" transform="translate(-251 -468)"/><path class="cls-23" d="M328.73,487.59" transform="translate(-251 -468)"/><path class="cls-23" d="M328.73,487.38" transform="translate(-251 -468)"/><path class="cls-13" d="M328.59,488.87a3.51,3.51,0,0,1-1.24-.78l0,.25a3.16,3.16,0,0,0,1.19.78c.05,0,.05,0,.05,0Z" transform="translate(-251 -468)"/><path class="cls-18" d="M328.74,487.87l-.19,0a2.9,2.9,0,0,0-.79.28,4.13,4.13,0,0,0,.61.23,2.3,2.3,0,0,0,.28.06,4.22,4.22,0,0,1,.09-.59" transform="translate(-251 -468)"/><path class="cls-19" d="M328.7,488.1c0,.09-.13-.11-.13-.2a.23.23,0,0,1,.22-.24Z" transform="translate(-251 -468)"/><g class="cls-24"><path class="cls-25" d="M324.64,489.67s.08,0,0,.06-.05,0-.06,0S324.64,489.67,324.64,489.67Z" transform="translate(-251 -468)"/><path class="cls-25" d="M324.57,489.6s.09,0,0,0-.05,0-.06,0S324.57,489.6,324.57,489.6Z" transform="translate(-251 -468)"/><path class="cls-25" d="M324.67,489.82s.06-.07.07,0,0,.05,0,.05S324.67,489.82,324.67,489.82Z" transform="translate(-251 -468)"/><path class="cls-25" d="M324.62,489.79s0,.08-.05,0,0-.06,0-.06S324.62,489.79,324.62,489.79Z" transform="translate(-251 -468)"/><path class="cls-25" d="M324.79,489.75s-.1,0-.07,0,0,0,.07,0S324.79,489.75,324.79,489.75Z" transform="translate(-251 -468)"/><path class="cls-25" d="M324.7,489.79s-.05,0,0,0,0,0,0,0A0,0,0,0,1,324.7,489.79Z" transform="translate(-251 -468)"/><path class="cls-25" d="M324.81,489.78s0,.05,0,0,0,0,0,0Z" transform="translate(-251 -468)"/><path class="cls-25" d="M324.88,489.75s-.05,0-.05,0,0,0,0,0A0,0,0,0,1,324.88,489.75Z" transform="translate(-251 -468)"/><path class="cls-25" d="M324.59,489.7s0,.05,0,0,0,0,0,0Z" transform="translate(-251 -468)"/><path class="cls-25" d="M324.74,489.67s0,0-.05,0,0,0,0,0S324.74,489.67,324.74,489.67Z" transform="translate(-251 -468)"/></g><g class="cls-24"><path class="cls-25" d="M325.1,489.85s-.09,0-.06,0,0,0,.07,0S325.1,489.85,325.1,489.85Z" transform="translate(-251 -468)"/><path class="cls-25" d="M325.2,489.88s-.1,0-.06,0,0,0,.06,0S325.2,489.88,325.2,489.88Z" transform="translate(-251 -468)"/><path class="cls-25" d="M325,489.73s0,.1-.06,0,0,0,0-.06A0,0,0,0,1,325,489.73Z" transform="translate(-251 -468)"/><path class="cls-25" d="M325.05,489.74s0-.09,0-.05,0,.05,0,.07S325.05,489.74,325.05,489.74Z" transform="translate(-251 -468)"/><path class="cls-25" d="M324.93,489.85s.07-.06.07,0,0,.06-.05.05S324.93,489.85,324.93,489.85Z" transform="translate(-251 -468)"/><path class="cls-25" d="M325,489.78s.05,0,.05,0,0,0,0,0A0,0,0,0,1,325,489.78Z" transform="translate(-251 -468)"/><path class="cls-25" d="M324.89,489.84s0,0,0,0,0,0,0,0A0,0,0,0,1,324.89,489.84Z" transform="translate(-251 -468)"/><path class="cls-25" d="M324.85,489.9s0,0,0,0,0,0,0,0Z" transform="translate(-251 -468)"/><path class="cls-25" d="M325.13,489.8s0-.05,0,0,0,0,0,0A0,0,0,0,1,325.13,489.8Z" transform="translate(-251 -468)"/><path class="cls-25" d="M325,489.9s0,0,.05,0,0,0,0,0S325,489.9,325,489.9Z" transform="translate(-251 -468)"/></g><g class="cls-24"><path class="cls-25" d="M324.58,489.93s.1,0,.05,0-.05,0-.07,0S324.58,489.93,324.58,489.93Z" transform="translate(-251 -468)"/><path class="cls-25" d="M324.49,489.88s.1,0,.05,0-.05,0-.06,0S324.49,489.88,324.49,489.88Z" transform="translate(-251 -468)"/><path class="cls-25" d="M324.66,490.07s0-.09.06,0,0,.05,0,.06A0,0,0,0,1,324.66,490.07Z" transform="translate(-251 -468)"/><path class="cls-25" d="M324.61,490.05s0,.09-.05,0,0,0,0-.07S324.61,490.05,324.61,490.05Z" transform="translate(-251 -468)"/><path class="cls-25" d="M324.75,490s-.08.05-.07,0,0,0,.06,0S324.75,490,324.75,490Z" transform="translate(-251 -468)"/><path class="cls-25" d="M324.67,490s-.05,0,0,0,0,0,0,0S324.67,490,324.67,490Z" transform="translate(-251 -468)"/><path class="cls-25" d="M324.78,490s0,0,0,0,0,0,0,0Z" transform="translate(-251 -468)"/><path class="cls-25" d="M324.83,489.94s0,0-.05,0,0,0,0,0A0,0,0,0,1,324.83,489.94Z" transform="translate(-251 -468)"/><path class="cls-25" d="M324.54,490s0,0,0,0,0,0,0,0Z" transform="translate(-251 -468)"/><path class="cls-25" d="M324.68,489.9s0,0-.05,0,0,0,0,0A0,0,0,0,1,324.68,489.9Z" transform="translate(-251 -468)"/></g><g class="cls-24"><path class="cls-25" d="M325.2,490s.09,0,.05,0-.05,0-.07,0S325.2,490,325.2,490Z" transform="translate(-251 -468)"/><path class="cls-25" d="M325.11,489.92s.1,0,.05,0-.05,0-.07,0S325.11,489.92,325.11,489.92Z" transform="translate(-251 -468)"/><path class="cls-25" d="M325.27,490.11s.05-.09.07,0,0,.05,0,.06A0,0,0,0,1,325.27,490.11Z" transform="translate(-251 -468)"/><path class="cls-25" d="M325.22,490.09s0,.09,0,0,0-.05,0-.07S325.22,490.09,325.22,490.09Z" transform="translate(-251 -468)"/><path class="cls-25" d="M325.37,490s-.08.05-.07,0,0-.05.05,0S325.37,490,325.37,490Z" transform="translate(-251 -468)"/><path class="cls-25" d="M325.29,490.06s-.05,0-.05,0,0,0,0,0A0,0,0,0,1,325.29,490.06Z" transform="translate(-251 -468)"/><path class="cls-25" d="M325.4,490s0,.05,0,.05,0,0,0,0Z" transform="translate(-251 -468)"/><path class="cls-25" d="M325.45,490s0,0-.05,0,0,0,0,0A0,0,0,0,1,325.45,490Z" transform="translate(-251 -468)"/><path class="cls-25" d="M325.16,490s0,0,0,0,0,0,0,0S325.16,490,325.16,490Z" transform="translate(-251 -468)"/><path class="cls-25" d="M325.29,489.93s0,0,0,0,0,0,0,0Z" transform="translate(-251 -468)"/></g><g class="cls-24"><path class="cls-25" d="M325,490s0,.09,0,.06,0,0,0-.06S325,490,325,490Z" transform="translate(-251 -468)"/><path class="cls-25" d="M325,489.94s0,.09,0,.06,0,0,0-.06S325,489.94,325,489.94Z" transform="translate(-251 -468)"/><path class="cls-25" d="M324.89,490.15s.1,0,.06.05-.05,0-.07,0S324.89,490.15,324.89,490.15Z" transform="translate(-251 -468)"/><path class="cls-25" d="M324.89,490.1s-.09,0-.06,0,.05,0,.07,0S324.89,490.1,324.89,490.1Z" transform="translate(-251 -468)"/><path class="cls-25" d="M325,490.2s-.07-.05,0-.06.06,0,.06,0S325,490.2,325,490.2Z" transform="translate(-251 -468)"/><path class="cls-25" d="M324.94,490.15s0,0,0,0,0,0,0,0A0,0,0,0,1,324.94,490.15Z" transform="translate(-251 -468)"/><path class="cls-25" d="M325,490.25s-.05,0-.05,0,0,0,0,0A0,0,0,0,1,325,490.25Z" transform="translate(-251 -468)"/><path class="cls-25" d="M325.07,490.28s0,0,0,0,0,0,0,0A0,0,0,0,1,325.07,490.28Z" transform="translate(-251 -468)"/><path class="cls-25" d="M324.94,490s-.05,0-.05,0,0,0,0,0A0,0,0,0,1,324.94,490Z" transform="translate(-251 -468)"/><path class="cls-25" d="M325.06,490.12s-.05,0,0,0,0,0,0,0S325.06,490.12,325.06,490.12Z" transform="translate(-251 -468)"/></g><g class="cls-24"><path class="cls-25" d="M324.35,489.78s-.09,0,0,0,.06,0,.07,0S324.35,489.78,324.35,489.78Z" transform="translate(-251 -468)"/><path class="cls-25" d="M324.43,489.85s-.09,0,0-.06.05,0,.07,0S324.43,489.85,324.43,489.85Z" transform="translate(-251 -468)"/><path class="cls-25" d="M324.31,489.63s-.06.07-.07,0,0,0,0-.06S324.31,489.63,324.31,489.63Z" transform="translate(-251 -468)"/><path class="cls-25" d="M324.36,489.66s0-.08.05,0,0,.05,0,.06S324.36,489.66,324.36,489.66Z" transform="translate(-251 -468)"/><path class="cls-25" d="M324.2,489.71s.09,0,.06,0,0,0-.06,0S324.2,489.71,324.2,489.71Z" transform="translate(-251 -468)"/><path class="cls-25" d="M324.29,489.67s0,0,0,0,0,0,0,0S324.29,489.67,324.29,489.67Z" transform="translate(-251 -468)"/><path class="cls-25" d="M324.17,489.68s0-.05,0,0,0,0,0,0Z" transform="translate(-251 -468)"/><path class="cls-25" d="M324.11,489.72s.05,0,.05,0,0,0,0,0Z" transform="translate(-251 -468)"/><path class="cls-25" d="M324.4,489.74s0,0,0,0,0,0,0,0A0,0,0,0,1,324.4,489.74Z" transform="translate(-251 -468)"/><path class="cls-25" d="M324.25,489.79s0,0,.05,0,0,0,0,0A0,0,0,0,1,324.25,489.79Z" transform="translate(-251 -468)"/></g><g class="cls-24"><path class="cls-25" d="M323.87,490s.09,0,.06,0,0,0-.06,0S323.87,490,323.87,490Z" transform="translate(-251 -468)"/><path class="cls-25" d="M323.77,489.94s.1,0,.06,0,0,0-.06,0S323.77,489.94,323.77,489.94Z" transform="translate(-251 -468)"/><path class="cls-25" d="M324,490.08s0-.1,0-.06,0,.05,0,.07A0,0,0,0,1,324,490.08Z" transform="translate(-251 -468)"/><path class="cls-25" d="M323.93,490.07s0,.09,0,.06,0-.05,0-.07S323.93,490.07,323.93,490.07Z" transform="translate(-251 -468)"/><path class="cls-25" d="M324,490s-.06.07-.06,0,0-.06,0-.06S324,490,324,490Z" transform="translate(-251 -468)"/><path class="cls-25" d="M324,490s-.05,0-.05,0,0,0,0,0A0,0,0,0,1,324,490Z" transform="translate(-251 -468)"/><path class="cls-25" d="M324.08,490s0,.05,0,.05,0,0,0,0A0,0,0,0,1,324.08,490Z" transform="translate(-251 -468)"/><path class="cls-25" d="M324.12,489.9s0,0-.05,0,0,0,0,0A0,0,0,0,1,324.12,489.9Z" transform="translate(-251 -468)"/><path class="cls-25" d="M323.85,490s0,.05,0,0,0,0,0,0A0,0,0,0,1,323.85,490Z" transform="translate(-251 -468)"/><path class="cls-25" d="M324,489.91s0,0,0,0,0,0,0,0A0,0,0,0,1,324,489.91Z" transform="translate(-251 -468)"/></g><g class="cls-24"><path class="cls-25" d="M323.88,489.74s.09,0,.06,0,0,0-.06,0S323.88,489.74,323.88,489.74Z" transform="translate(-251 -468)"/><path class="cls-25" d="M323.78,489.71s.09,0,.06,0,0,0-.06,0S323.78,489.71,323.78,489.71Z" transform="translate(-251 -468)"/><path class="cls-25" d="M324,489.85s0-.1.05-.06,0,0,0,.07A0,0,0,0,1,324,489.85Z" transform="translate(-251 -468)"/><path class="cls-25" d="M323.94,489.84s0,.09,0,.06,0,0,0-.07S323.94,489.84,323.94,489.84Z" transform="translate(-251 -468)"/><path class="cls-25" d="M324.05,489.72s-.06.07-.06,0,0-.06,0-.06S324.05,489.72,324.05,489.72Z" transform="translate(-251 -468)"/><path class="cls-25" d="M324,489.8s0,0,0,0,0,0,0,0A0,0,0,0,1,324,489.8Z" transform="translate(-251 -468)"/><path class="cls-25" d="M324.09,489.73s0,0,0,0,0,0,0,0A0,0,0,0,1,324.09,489.73Z" transform="translate(-251 -468)"/><path class="cls-25" d="M324.12,489.67s0,0,0,0,0,0,0,0Z" transform="translate(-251 -468)"/><path class="cls-25" d="M323.86,489.79s0,0,0,0,0,0,0,0A0,0,0,0,1,323.86,489.79Z" transform="translate(-251 -468)"/><path class="cls-25" d="M324,489.68s0,0,0,0,0,0,0,0A0,0,0,0,1,324,489.68Z" transform="translate(-251 -468)"/></g><g class="cls-24"><path class="cls-25" d="M324.31,490s-.06-.07,0-.06.05,0,.05,0S324.31,490,324.31,490Z" transform="translate(-251 -468)"/><path class="cls-25" d="M324.33,490.14s-.06-.07,0-.06.05,0,.05,0S324.33,490.14,324.33,490.14Z" transform="translate(-251 -468)"/><path class="cls-25" d="M324.35,489.9s-.09,0-.07,0,0-.05.06,0S324.35,489.9,324.35,489.9Z" transform="translate(-251 -468)"/><path class="cls-25" d="M324.37,490s.08-.06.07,0,0,0-.05,0A0,0,0,0,1,324.37,490Z" transform="translate(-251 -468)"/><path class="cls-25" d="M324.21,489.91s.09,0,.05,0-.06,0-.07,0S324.21,489.91,324.21,489.91Z" transform="translate(-251 -468)"/><path class="cls-25" d="M324.31,489.92s0,0,0,0,0,0,0,0A0,0,0,0,1,324.31,489.92Z" transform="translate(-251 -468)"/><path class="cls-25" d="M324.2,489.86s0,0,.05,0,0,0,0,0A0,0,0,0,1,324.2,489.86Z" transform="translate(-251 -468)"/><path class="cls-25" d="M324.13,489.86s.05,0,0,0,0,0,0,0S324.13,489.86,324.13,489.86Z" transform="translate(-251 -468)"/><path class="cls-25" d="M324.37,490s0,0,.05,0,0,0,0,0A0,0,0,0,1,324.37,490Z" transform="translate(-251 -468)"/><path class="cls-25" d="M324.21,490s.05,0,.05,0,0,0,0,0A0,0,0,0,1,324.21,490Z" transform="translate(-251 -468)"/></g><path class="cls-26" d="M316.3,500.49s.28-4.78-1.09-6.46-.12-7.37,2.22-8.51,4,.25,5.05.38,1.3.55,3.53-.79a2.36,2.36,0,0,1,1.51-.47,2.92,2.92,0,0,0-1.4-.74,15,15,0,0,0-2.71-.38,16.09,16.09,0,0,0-4.75.42,7.65,7.65,0,0,0-3.2,2.38,10.7,10.7,0,0,0-1.72,3.86c-.14.93-.23,2.66.43,3.58a8.84,8.84,0,0,1,.8,3.35l-.17,3.32,1.5.06Z" transform="translate(-251 -468)"/><path class="cls-20" d="M326,485.24" transform="translate(-251 -468)"/><path class="cls-20" d="M316.3,500.49s.28-4.66-1.09-6.34c0,0-1.9-1.9.74-7.13a3.87,3.87,0,0,1,4.65-1.75c3.2,1,2.5.77,2.5.77a3.51,3.51,0,0,0,2.53-.71c1.55-1,1.89-.69,1.89-.69" transform="translate(-251 -468)"/><path class="cls-27" d="M314.8,500.43c-1.84-1.82-3-7.19-3.07-9.95a10.48,10.48,0,0,1,21-.39c.07,4-1.65,8.92-5,10.68a18.84,18.84,0,0,0-4.24.21S315.19,500.82,314.8,500.43Z" transform="translate(-251 -468)"/><path class="cls-20" d="M325.11,488s1.47-2.6,3.5-2.24" transform="translate(-251 -468)"/><path class="cls-28" d="M314.77,500.58c-1.84-1.82-3-7.34-3-10.1a10.48,10.48,0,0,1,21-.39c.07,4-1.45,8.74-4.73,10.56a.64.64,0,0,1-.33.08,20.7,20.7,0,0,0-4.18.24h-.09C322.69,501,315.14,501,314.77,500.58Z" transform="translate(-251 -468)"/><polygon class="cls-10" points="76.66 32.5 78 36.29 61.9 36.59 63.9 32.58 76.66 32.5"/><polygon class="cls-29" points="72.36 32.98 72.32 33.73 70.08 33.77 70.14 32.61 72.43 32.57 72.36 32.98"/><path class="cls-30" d="M357.8,501.41s-7.24-29.34-34.59-30.62-37.35,29.27-37.35,29.27S309.61,509,357.8,501.41Z" transform="translate(-251 -468)"/><rect class="cls-4" width="138" height="75"/></svg>