<svg id="Layer_1" data-name="Layer 1" xmlns="http://www.w3.org/2000/svg" viewBox="0 0 222.84 78.89"><defs><style>.cls-1,.cls-3{fill:#3d9846;}.cls-1,.cls-2,.cls-3{stroke:#000;stroke-miterlimit:10;}.cls-1{stroke-width:3px;}.cls-2{fill:#fff;}.cls-2,.cls-3{stroke-width:2px;}</style></defs><title>startBtn</title><rect class="cls-1" x="1.5" y="1.5" width="219.84" height="75.89" rx="37.95"/><path class="cls-2" d="M300.39,386.49h-7.28V371.93s-2.18-10.32,13.84-10.32,16.38,5.16,16.38,7.89v17H308.17V378.3h-7.41Z" transform="translate(-190.66 -335.09)"/><path class="cls-2" d="M330.06,387.57V362.7l20.39-.42s5.46,3.34,4.37,6.68-11.11,4.57-11.11,4.57l12.93,13.93h-8l-13.11-10.68-1.09,10.79Z" transform="translate(-190.66 -335.09)"/><path class="cls-3" d="M335.52,366.83s13.47-.91,13.11,0a3.75,3.75,0,0,0,0,2.13l-13.11,1.21Z" transform="translate(-190.66 -335.09)"/><polygon class="cls-2" points="167.67 26.53 202.41 26.53 202.41 32.59 188 32.59 188 52.48 177.3 52.48 177.47 32.59 167.67 32.59 167.67 26.53"/><path class="cls-2" d="M250.49,362.05c-4.15-.16-29.16-2.57-28.78,4.08s-1.14,9.89,10.93,9.74c8.87-.11,9.41,2.9,9.41,2.9.66,2.52-3.74,3.08-7.52,3.08H222.46l-.76,5.09h29.17s2.06-15-2.31-14.95L232.42,371V368.3l19,.34S252.53,362.13,250.49,362.05Z" transform="translate(-190.66 -335.09)"/><rect class="cls-3" x="111.19" y="32.59" width="7.29" height="5.31"/><polygon class="cls-2" points="65.26 27.42 100 27.42 100 33.48 85.59 33.48 85.59 53.37 74.9 53.37 75.06 33.48 65.26 33.48 65.26 27.42"/></svg>